G75*
%MOIN*%
%OFA0B0*%
%FSLAX25Y25*%
%IPPOS*%
%LPD*%
%AMOC8*
5,1,8,0,0,1.08239X$1,22.5*
%
%ADD10C,0.00000*%
%ADD11C,0.01000*%
%ADD12C,0.00400*%
%ADD13C,0.00800*%
%ADD14C,0.00100*%
%ADD15C,0.00600*%
%ADD16C,0.03000*%
%ADD17C,0.00500*%
%ADD18R,0.03000X0.02000*%
%ADD19R,0.03000X0.04000*%
%ADD20C,0.00200*%
D10*
X0019250Y0008000D02*
X0218974Y0008000D01*
X0218974Y0126110D01*
X0019250Y0126110D01*
X0019250Y0008000D01*
D11*
X0136998Y0057929D02*
X0138179Y0056748D01*
X0154321Y0056748D02*
X0155502Y0057929D01*
X0151761Y0072102D02*
X0151763Y0072150D01*
X0151769Y0072198D01*
X0151779Y0072245D01*
X0151792Y0072291D01*
X0151810Y0072336D01*
X0151830Y0072380D01*
X0151855Y0072422D01*
X0151883Y0072461D01*
X0151913Y0072498D01*
X0151947Y0072532D01*
X0151984Y0072564D01*
X0152022Y0072593D01*
X0152063Y0072618D01*
X0152106Y0072640D01*
X0152151Y0072658D01*
X0152197Y0072672D01*
X0152244Y0072683D01*
X0152292Y0072690D01*
X0152340Y0072693D01*
X0152388Y0072692D01*
X0152436Y0072687D01*
X0152484Y0072678D01*
X0152530Y0072666D01*
X0152575Y0072649D01*
X0152619Y0072629D01*
X0152661Y0072606D01*
X0152701Y0072579D01*
X0152739Y0072549D01*
X0152774Y0072516D01*
X0152806Y0072480D01*
X0152836Y0072442D01*
X0152862Y0072401D01*
X0152884Y0072358D01*
X0152904Y0072314D01*
X0152919Y0072269D01*
X0152931Y0072222D01*
X0152939Y0072174D01*
X0152943Y0072126D01*
X0152943Y0072078D01*
X0152939Y0072030D01*
X0152931Y0071982D01*
X0152919Y0071935D01*
X0152904Y0071890D01*
X0152884Y0071846D01*
X0152862Y0071803D01*
X0152836Y0071762D01*
X0152806Y0071724D01*
X0152774Y0071688D01*
X0152739Y0071655D01*
X0152701Y0071625D01*
X0152661Y0071598D01*
X0152619Y0071575D01*
X0152575Y0071555D01*
X0152530Y0071538D01*
X0152484Y0071526D01*
X0152436Y0071517D01*
X0152388Y0071512D01*
X0152340Y0071511D01*
X0152292Y0071514D01*
X0152244Y0071521D01*
X0152197Y0071532D01*
X0152151Y0071546D01*
X0152106Y0071564D01*
X0152063Y0071586D01*
X0152022Y0071611D01*
X0151984Y0071640D01*
X0151947Y0071672D01*
X0151913Y0071706D01*
X0151883Y0071743D01*
X0151855Y0071782D01*
X0151830Y0071824D01*
X0151810Y0071868D01*
X0151792Y0071913D01*
X0151779Y0071959D01*
X0151769Y0072006D01*
X0151763Y0072054D01*
X0151761Y0072102D01*
X0154321Y0075252D02*
X0155502Y0074071D01*
X0138179Y0075252D02*
X0136998Y0074071D01*
D12*
X0159450Y0068267D02*
X0163028Y0067244D01*
X0163028Y0069800D01*
X0162006Y0069033D02*
X0164050Y0069033D01*
X0164050Y0065526D02*
X0164050Y0064504D01*
X0164048Y0064442D01*
X0164043Y0064381D01*
X0164033Y0064320D01*
X0164020Y0064259D01*
X0164004Y0064200D01*
X0163984Y0064142D01*
X0163960Y0064085D01*
X0163933Y0064029D01*
X0163903Y0063975D01*
X0163869Y0063923D01*
X0163833Y0063874D01*
X0163793Y0063826D01*
X0163751Y0063781D01*
X0163706Y0063739D01*
X0163658Y0063699D01*
X0163609Y0063663D01*
X0163557Y0063629D01*
X0163503Y0063599D01*
X0163447Y0063572D01*
X0163390Y0063548D01*
X0163332Y0063528D01*
X0163273Y0063512D01*
X0163212Y0063499D01*
X0163151Y0063489D01*
X0163090Y0063484D01*
X0163028Y0063482D01*
X0163028Y0063481D02*
X0160472Y0063481D01*
X0160472Y0063482D02*
X0160410Y0063484D01*
X0160349Y0063489D01*
X0160288Y0063499D01*
X0160227Y0063512D01*
X0160168Y0063528D01*
X0160110Y0063548D01*
X0160053Y0063572D01*
X0159997Y0063599D01*
X0159943Y0063629D01*
X0159891Y0063663D01*
X0159842Y0063699D01*
X0159794Y0063739D01*
X0159749Y0063781D01*
X0159707Y0063826D01*
X0159668Y0063874D01*
X0159631Y0063923D01*
X0159597Y0063975D01*
X0159567Y0064029D01*
X0159540Y0064085D01*
X0159516Y0064142D01*
X0159496Y0064200D01*
X0159480Y0064259D01*
X0159467Y0064320D01*
X0159457Y0064381D01*
X0159452Y0064442D01*
X0159450Y0064504D01*
X0159450Y0065526D01*
X0159450Y0061683D02*
X0159450Y0060661D01*
X0159450Y0061172D02*
X0164050Y0061172D01*
X0164050Y0060661D02*
X0164050Y0061683D01*
D13*
X0145337Y0080941D02*
X0145337Y0086059D01*
X0131163Y0086059D02*
X0131163Y0080941D01*
X0119045Y0047358D02*
X0093455Y0047358D01*
X0093455Y0029642D01*
X0119045Y0029642D01*
X0119045Y0047358D01*
D14*
X0139843Y0076950D02*
X0139843Y0077742D01*
X0140343Y0078450D01*
X0139843Y0077742D02*
X0139343Y0078450D01*
X0141575Y0077783D02*
X0141600Y0077809D01*
X0141623Y0077838D01*
X0141643Y0077868D01*
X0141660Y0077900D01*
X0141674Y0077933D01*
X0141685Y0077968D01*
X0141693Y0078003D01*
X0141698Y0078039D01*
X0141700Y0078075D01*
X0141575Y0077783D02*
X0140867Y0076950D01*
X0141700Y0076950D01*
X0140866Y0078116D02*
X0140880Y0078154D01*
X0140898Y0078191D01*
X0140918Y0078226D01*
X0140941Y0078259D01*
X0140967Y0078290D01*
X0140995Y0078319D01*
X0141025Y0078346D01*
X0141058Y0078369D01*
X0141093Y0078390D01*
X0141129Y0078408D01*
X0141166Y0078423D01*
X0141205Y0078435D01*
X0141245Y0078443D01*
X0141285Y0078448D01*
X0141325Y0078450D01*
X0141362Y0078448D01*
X0141398Y0078443D01*
X0141434Y0078434D01*
X0141469Y0078421D01*
X0141502Y0078406D01*
X0141533Y0078387D01*
X0141563Y0078365D01*
X0141590Y0078340D01*
X0141615Y0078313D01*
X0141637Y0078283D01*
X0141656Y0078252D01*
X0141671Y0078219D01*
X0141684Y0078184D01*
X0141693Y0078148D01*
X0141698Y0078112D01*
X0141700Y0078075D01*
D15*
X0131250Y0073700D02*
X0131250Y0061300D01*
X0131248Y0061224D01*
X0131242Y0061148D01*
X0131233Y0061073D01*
X0131219Y0060998D01*
X0131202Y0060924D01*
X0131181Y0060851D01*
X0131157Y0060779D01*
X0131128Y0060708D01*
X0131097Y0060639D01*
X0131062Y0060572D01*
X0131023Y0060507D01*
X0130981Y0060443D01*
X0130936Y0060382D01*
X0130888Y0060323D01*
X0130837Y0060267D01*
X0130783Y0060213D01*
X0130727Y0060162D01*
X0130668Y0060114D01*
X0130607Y0060069D01*
X0130543Y0060027D01*
X0130478Y0059988D01*
X0130411Y0059953D01*
X0130342Y0059922D01*
X0130271Y0059893D01*
X0130199Y0059869D01*
X0130126Y0059848D01*
X0130052Y0059831D01*
X0129977Y0059817D01*
X0129902Y0059808D01*
X0129826Y0059802D01*
X0129750Y0059800D01*
X0092750Y0059800D01*
X0092674Y0059802D01*
X0092598Y0059808D01*
X0092523Y0059817D01*
X0092448Y0059831D01*
X0092374Y0059848D01*
X0092301Y0059869D01*
X0092229Y0059893D01*
X0092158Y0059922D01*
X0092089Y0059953D01*
X0092022Y0059988D01*
X0091957Y0060027D01*
X0091893Y0060069D01*
X0091832Y0060114D01*
X0091773Y0060162D01*
X0091717Y0060213D01*
X0091663Y0060267D01*
X0091612Y0060323D01*
X0091564Y0060382D01*
X0091519Y0060443D01*
X0091477Y0060507D01*
X0091438Y0060572D01*
X0091403Y0060639D01*
X0091372Y0060708D01*
X0091343Y0060779D01*
X0091319Y0060851D01*
X0091298Y0060924D01*
X0091281Y0060998D01*
X0091267Y0061073D01*
X0091258Y0061148D01*
X0091252Y0061224D01*
X0091250Y0061300D01*
X0091250Y0073700D01*
X0091252Y0073776D01*
X0091258Y0073852D01*
X0091267Y0073927D01*
X0091281Y0074002D01*
X0091298Y0074076D01*
X0091319Y0074149D01*
X0091343Y0074221D01*
X0091372Y0074292D01*
X0091403Y0074361D01*
X0091438Y0074428D01*
X0091477Y0074493D01*
X0091519Y0074557D01*
X0091564Y0074618D01*
X0091612Y0074677D01*
X0091663Y0074733D01*
X0091717Y0074787D01*
X0091773Y0074838D01*
X0091832Y0074886D01*
X0091893Y0074931D01*
X0091957Y0074973D01*
X0092022Y0075012D01*
X0092089Y0075047D01*
X0092158Y0075078D01*
X0092229Y0075107D01*
X0092301Y0075131D01*
X0092374Y0075152D01*
X0092448Y0075169D01*
X0092523Y0075183D01*
X0092598Y0075192D01*
X0092674Y0075198D01*
X0092750Y0075200D01*
X0129750Y0075200D01*
X0129826Y0075198D01*
X0129902Y0075192D01*
X0129977Y0075183D01*
X0130052Y0075169D01*
X0130126Y0075152D01*
X0130199Y0075131D01*
X0130271Y0075107D01*
X0130342Y0075078D01*
X0130411Y0075047D01*
X0130478Y0075012D01*
X0130543Y0074973D01*
X0130607Y0074931D01*
X0130668Y0074886D01*
X0130727Y0074838D01*
X0130783Y0074787D01*
X0130837Y0074733D01*
X0130888Y0074677D01*
X0130936Y0074618D01*
X0130981Y0074557D01*
X0131023Y0074493D01*
X0131062Y0074428D01*
X0131097Y0074361D01*
X0131128Y0074292D01*
X0131157Y0074221D01*
X0131181Y0074149D01*
X0131202Y0074076D01*
X0131219Y0074002D01*
X0131233Y0073927D01*
X0131242Y0073852D01*
X0131248Y0073776D01*
X0131250Y0073700D01*
X0168250Y0073200D02*
X0168250Y0060800D01*
X0168252Y0060724D01*
X0168258Y0060648D01*
X0168267Y0060573D01*
X0168281Y0060498D01*
X0168298Y0060424D01*
X0168319Y0060351D01*
X0168343Y0060279D01*
X0168372Y0060208D01*
X0168403Y0060139D01*
X0168438Y0060072D01*
X0168477Y0060007D01*
X0168519Y0059943D01*
X0168564Y0059882D01*
X0168612Y0059823D01*
X0168663Y0059767D01*
X0168717Y0059713D01*
X0168773Y0059662D01*
X0168832Y0059614D01*
X0168893Y0059569D01*
X0168957Y0059527D01*
X0169022Y0059488D01*
X0169089Y0059453D01*
X0169158Y0059422D01*
X0169229Y0059393D01*
X0169301Y0059369D01*
X0169374Y0059348D01*
X0169448Y0059331D01*
X0169523Y0059317D01*
X0169598Y0059308D01*
X0169674Y0059302D01*
X0169750Y0059300D01*
X0206750Y0059300D01*
X0206826Y0059302D01*
X0206902Y0059308D01*
X0206977Y0059317D01*
X0207052Y0059331D01*
X0207126Y0059348D01*
X0207199Y0059369D01*
X0207271Y0059393D01*
X0207342Y0059422D01*
X0207411Y0059453D01*
X0207478Y0059488D01*
X0207543Y0059527D01*
X0207607Y0059569D01*
X0207668Y0059614D01*
X0207727Y0059662D01*
X0207783Y0059713D01*
X0207837Y0059767D01*
X0207888Y0059823D01*
X0207936Y0059882D01*
X0207981Y0059943D01*
X0208023Y0060007D01*
X0208062Y0060072D01*
X0208097Y0060139D01*
X0208128Y0060208D01*
X0208157Y0060279D01*
X0208181Y0060351D01*
X0208202Y0060424D01*
X0208219Y0060498D01*
X0208233Y0060573D01*
X0208242Y0060648D01*
X0208248Y0060724D01*
X0208250Y0060800D01*
X0208250Y0073200D01*
X0208248Y0073276D01*
X0208242Y0073352D01*
X0208233Y0073427D01*
X0208219Y0073502D01*
X0208202Y0073576D01*
X0208181Y0073649D01*
X0208157Y0073721D01*
X0208128Y0073792D01*
X0208097Y0073861D01*
X0208062Y0073928D01*
X0208023Y0073993D01*
X0207981Y0074057D01*
X0207936Y0074118D01*
X0207888Y0074177D01*
X0207837Y0074233D01*
X0207783Y0074287D01*
X0207727Y0074338D01*
X0207668Y0074386D01*
X0207607Y0074431D01*
X0207543Y0074473D01*
X0207478Y0074512D01*
X0207411Y0074547D01*
X0207342Y0074578D01*
X0207271Y0074607D01*
X0207199Y0074631D01*
X0207126Y0074652D01*
X0207052Y0074669D01*
X0206977Y0074683D01*
X0206902Y0074692D01*
X0206826Y0074698D01*
X0206750Y0074700D01*
X0169750Y0074700D01*
X0169674Y0074698D01*
X0169598Y0074692D01*
X0169523Y0074683D01*
X0169448Y0074669D01*
X0169374Y0074652D01*
X0169301Y0074631D01*
X0169229Y0074607D01*
X0169158Y0074578D01*
X0169089Y0074547D01*
X0169022Y0074512D01*
X0168957Y0074473D01*
X0168893Y0074431D01*
X0168832Y0074386D01*
X0168773Y0074338D01*
X0168717Y0074287D01*
X0168663Y0074233D01*
X0168612Y0074177D01*
X0168564Y0074118D01*
X0168519Y0074057D01*
X0168477Y0073993D01*
X0168438Y0073928D01*
X0168403Y0073861D01*
X0168372Y0073792D01*
X0168343Y0073721D01*
X0168319Y0073649D01*
X0168298Y0073576D01*
X0168281Y0073502D01*
X0168267Y0073427D01*
X0168258Y0073352D01*
X0168252Y0073276D01*
X0168250Y0073200D01*
X0208250Y0069000D02*
X0208162Y0068998D01*
X0208073Y0068992D01*
X0207985Y0068982D01*
X0207898Y0068969D01*
X0207811Y0068951D01*
X0207725Y0068930D01*
X0207640Y0068905D01*
X0207557Y0068876D01*
X0207474Y0068843D01*
X0207394Y0068807D01*
X0207315Y0068768D01*
X0207237Y0068725D01*
X0207162Y0068678D01*
X0207089Y0068628D01*
X0207018Y0068575D01*
X0206949Y0068519D01*
X0206883Y0068460D01*
X0206820Y0068398D01*
X0206760Y0068334D01*
X0206702Y0068267D01*
X0206648Y0068197D01*
X0206596Y0068125D01*
X0206548Y0068051D01*
X0206503Y0067974D01*
X0206462Y0067896D01*
X0206424Y0067816D01*
X0206390Y0067735D01*
X0206359Y0067652D01*
X0206332Y0067567D01*
X0206309Y0067482D01*
X0206290Y0067396D01*
X0206274Y0067308D01*
X0206262Y0067221D01*
X0206254Y0067133D01*
X0206250Y0067044D01*
X0206250Y0066956D01*
X0206254Y0066867D01*
X0206262Y0066779D01*
X0206274Y0066692D01*
X0206290Y0066604D01*
X0206309Y0066518D01*
X0206332Y0066433D01*
X0206359Y0066348D01*
X0206390Y0066265D01*
X0206424Y0066184D01*
X0206462Y0066104D01*
X0206503Y0066026D01*
X0206548Y0065949D01*
X0206596Y0065875D01*
X0206648Y0065803D01*
X0206702Y0065733D01*
X0206760Y0065666D01*
X0206820Y0065602D01*
X0206883Y0065540D01*
X0206949Y0065481D01*
X0207018Y0065425D01*
X0207089Y0065372D01*
X0207162Y0065322D01*
X0207237Y0065275D01*
X0207315Y0065232D01*
X0207394Y0065193D01*
X0207474Y0065157D01*
X0207557Y0065124D01*
X0207640Y0065095D01*
X0207725Y0065070D01*
X0207811Y0065049D01*
X0207898Y0065031D01*
X0207985Y0065018D01*
X0208073Y0065008D01*
X0208162Y0065002D01*
X0208250Y0065000D01*
X0209250Y0020500D02*
X0214250Y0020500D01*
X0216750Y0018000D01*
X0216750Y0013000D01*
X0214250Y0010500D01*
X0209250Y0010500D01*
X0206750Y0013000D01*
X0204250Y0010500D01*
X0199250Y0010500D01*
X0196750Y0013000D01*
X0194250Y0010500D01*
X0189250Y0010500D01*
X0186750Y0013000D01*
X0184250Y0010500D01*
X0179250Y0010500D01*
X0176750Y0013000D01*
X0174250Y0010500D01*
X0169250Y0010500D01*
X0166750Y0013000D01*
X0164250Y0010500D01*
X0159250Y0010500D01*
X0156750Y0013000D01*
X0154250Y0010500D01*
X0149250Y0010500D01*
X0146750Y0013000D01*
X0144250Y0010500D01*
X0139250Y0010500D01*
X0136750Y0013000D01*
X0134250Y0010500D01*
X0129250Y0010500D01*
X0126750Y0013000D01*
X0124250Y0010500D01*
X0119250Y0010500D01*
X0116750Y0013000D01*
X0114250Y0010500D01*
X0109250Y0010500D01*
X0106750Y0013000D01*
X0104250Y0010500D01*
X0099250Y0010500D01*
X0096750Y0013000D01*
X0096750Y0018000D01*
X0099250Y0020500D01*
X0104250Y0020500D01*
X0106750Y0018000D01*
X0109250Y0020500D01*
X0114250Y0020500D01*
X0116750Y0018000D01*
X0116750Y0013000D01*
X0116750Y0018000D02*
X0119250Y0020500D01*
X0124250Y0020500D01*
X0126750Y0018000D01*
X0129250Y0020500D01*
X0134250Y0020500D01*
X0136750Y0018000D01*
X0139250Y0020500D01*
X0144250Y0020500D01*
X0146750Y0018000D01*
X0146750Y0013000D01*
X0146750Y0018000D02*
X0149250Y0020500D01*
X0154250Y0020500D01*
X0156750Y0018000D01*
X0159250Y0020500D01*
X0164250Y0020500D01*
X0166750Y0018000D01*
X0169250Y0020500D01*
X0174250Y0020500D01*
X0176750Y0018000D01*
X0176750Y0013000D01*
X0176750Y0018000D02*
X0179250Y0020500D01*
X0184250Y0020500D01*
X0186750Y0018000D01*
X0189250Y0020500D01*
X0194250Y0020500D01*
X0196750Y0018000D01*
X0199250Y0020500D01*
X0204250Y0020500D01*
X0206750Y0018000D01*
X0209250Y0020500D01*
X0206750Y0018000D02*
X0206750Y0013000D01*
X0196750Y0013000D02*
X0196750Y0018000D01*
X0186750Y0018000D02*
X0186750Y0013000D01*
X0166750Y0013000D02*
X0166750Y0018000D01*
X0156750Y0018000D02*
X0156750Y0013000D01*
X0136750Y0013000D02*
X0136750Y0018000D01*
X0126750Y0018000D02*
X0126750Y0013000D01*
X0106750Y0013000D02*
X0106750Y0018000D01*
X0087750Y0020500D02*
X0085250Y0018000D01*
X0080250Y0018000D01*
X0077750Y0020500D01*
X0075250Y0018000D01*
X0070250Y0018000D01*
X0067750Y0020500D01*
X0067750Y0025500D01*
X0070250Y0028000D01*
X0075250Y0028000D01*
X0077750Y0025500D01*
X0080250Y0028000D01*
X0085250Y0028000D01*
X0087750Y0025500D01*
X0087750Y0020500D01*
X0077750Y0020500D02*
X0077750Y0025500D01*
X0067750Y0025500D02*
X0065250Y0028000D01*
X0060250Y0028000D01*
X0057750Y0025500D01*
X0055250Y0028000D01*
X0050250Y0028000D01*
X0047750Y0025500D01*
X0047750Y0020500D01*
X0050250Y0018000D01*
X0055250Y0018000D01*
X0057750Y0020500D01*
X0057750Y0025500D01*
X0057750Y0020500D02*
X0060250Y0018000D01*
X0065250Y0018000D01*
X0067750Y0020500D01*
X0086802Y0032059D02*
X0089446Y0032059D01*
X0089446Y0032060D02*
X0089500Y0032058D01*
X0089554Y0032052D01*
X0089607Y0032043D01*
X0089659Y0032029D01*
X0089710Y0032012D01*
X0089760Y0031992D01*
X0089808Y0031968D01*
X0089855Y0031940D01*
X0089899Y0031909D01*
X0089941Y0031875D01*
X0089981Y0031839D01*
X0090017Y0031799D01*
X0090051Y0031757D01*
X0090082Y0031713D01*
X0090110Y0031666D01*
X0090134Y0031618D01*
X0090154Y0031568D01*
X0090171Y0031517D01*
X0090185Y0031465D01*
X0090194Y0031412D01*
X0090200Y0031358D01*
X0090202Y0031304D01*
X0090202Y0030926D01*
X0090202Y0034066D02*
X0086802Y0034066D01*
X0086802Y0035010D01*
X0086804Y0035070D01*
X0086810Y0035131D01*
X0086819Y0035190D01*
X0086833Y0035249D01*
X0086850Y0035307D01*
X0086871Y0035364D01*
X0086895Y0035420D01*
X0086923Y0035473D01*
X0086955Y0035525D01*
X0086989Y0035575D01*
X0087027Y0035622D01*
X0087068Y0035667D01*
X0087111Y0035709D01*
X0087157Y0035748D01*
X0087206Y0035784D01*
X0087257Y0035817D01*
X0087309Y0035847D01*
X0087364Y0035873D01*
X0087420Y0035896D01*
X0087477Y0035915D01*
X0087536Y0035930D01*
X0087595Y0035942D01*
X0087655Y0035950D01*
X0087716Y0035954D01*
X0087776Y0035954D01*
X0087837Y0035950D01*
X0087897Y0035942D01*
X0087956Y0035930D01*
X0088015Y0035915D01*
X0088072Y0035896D01*
X0088128Y0035873D01*
X0088183Y0035847D01*
X0088235Y0035817D01*
X0088286Y0035784D01*
X0088335Y0035748D01*
X0088381Y0035709D01*
X0088424Y0035667D01*
X0088465Y0035622D01*
X0088503Y0035575D01*
X0088537Y0035525D01*
X0088569Y0035473D01*
X0088597Y0035420D01*
X0088621Y0035364D01*
X0088642Y0035307D01*
X0088659Y0035249D01*
X0088673Y0035190D01*
X0088682Y0035131D01*
X0088688Y0035070D01*
X0088690Y0035010D01*
X0088691Y0035010D02*
X0088691Y0034066D01*
X0090202Y0037469D02*
X0090202Y0039358D01*
X0090202Y0037469D02*
X0088313Y0039075D01*
X0086802Y0038508D02*
X0086804Y0038443D01*
X0086810Y0038378D01*
X0086820Y0038313D01*
X0086833Y0038249D01*
X0086851Y0038186D01*
X0086872Y0038124D01*
X0086897Y0038064D01*
X0086925Y0038005D01*
X0086957Y0037948D01*
X0086992Y0037892D01*
X0087030Y0037840D01*
X0087072Y0037789D01*
X0087117Y0037741D01*
X0087164Y0037696D01*
X0087214Y0037654D01*
X0087266Y0037615D01*
X0087321Y0037579D01*
X0087377Y0037546D01*
X0087436Y0037517D01*
X0087496Y0037491D01*
X0087558Y0037469D01*
X0088313Y0039075D02*
X0088273Y0039115D01*
X0088230Y0039152D01*
X0088185Y0039187D01*
X0088137Y0039218D01*
X0088088Y0039247D01*
X0088038Y0039273D01*
X0087985Y0039295D01*
X0087932Y0039314D01*
X0087877Y0039330D01*
X0087822Y0039342D01*
X0087765Y0039351D01*
X0087709Y0039356D01*
X0087652Y0039358D01*
X0087596Y0039356D01*
X0087541Y0039351D01*
X0087486Y0039342D01*
X0087432Y0039329D01*
X0087379Y0039313D01*
X0087327Y0039293D01*
X0087276Y0039270D01*
X0087227Y0039244D01*
X0087180Y0039215D01*
X0087135Y0039182D01*
X0087092Y0039147D01*
X0087051Y0039109D01*
X0087013Y0039068D01*
X0086978Y0039025D01*
X0086945Y0038980D01*
X0086916Y0038933D01*
X0086890Y0038884D01*
X0086867Y0038833D01*
X0086847Y0038781D01*
X0086831Y0038728D01*
X0086818Y0038674D01*
X0086809Y0038619D01*
X0086804Y0038564D01*
X0086802Y0038508D01*
X0084750Y0065000D02*
X0074750Y0065000D01*
X0074750Y0075000D01*
X0084750Y0075000D01*
X0084750Y0065000D01*
X0091250Y0065500D02*
X0091338Y0065502D01*
X0091427Y0065508D01*
X0091515Y0065518D01*
X0091602Y0065531D01*
X0091689Y0065549D01*
X0091775Y0065570D01*
X0091860Y0065595D01*
X0091943Y0065624D01*
X0092026Y0065657D01*
X0092106Y0065693D01*
X0092185Y0065732D01*
X0092263Y0065775D01*
X0092338Y0065822D01*
X0092411Y0065872D01*
X0092482Y0065925D01*
X0092551Y0065981D01*
X0092617Y0066040D01*
X0092680Y0066102D01*
X0092740Y0066166D01*
X0092798Y0066233D01*
X0092852Y0066303D01*
X0092904Y0066375D01*
X0092952Y0066449D01*
X0092997Y0066526D01*
X0093038Y0066604D01*
X0093076Y0066684D01*
X0093110Y0066765D01*
X0093141Y0066848D01*
X0093168Y0066933D01*
X0093191Y0067018D01*
X0093210Y0067104D01*
X0093226Y0067192D01*
X0093238Y0067279D01*
X0093246Y0067367D01*
X0093250Y0067456D01*
X0093250Y0067544D01*
X0093246Y0067633D01*
X0093238Y0067721D01*
X0093226Y0067808D01*
X0093210Y0067896D01*
X0093191Y0067982D01*
X0093168Y0068067D01*
X0093141Y0068152D01*
X0093110Y0068235D01*
X0093076Y0068316D01*
X0093038Y0068396D01*
X0092997Y0068474D01*
X0092952Y0068551D01*
X0092904Y0068625D01*
X0092852Y0068697D01*
X0092798Y0068767D01*
X0092740Y0068834D01*
X0092680Y0068898D01*
X0092617Y0068960D01*
X0092551Y0069019D01*
X0092482Y0069075D01*
X0092411Y0069128D01*
X0092338Y0069178D01*
X0092263Y0069225D01*
X0092185Y0069268D01*
X0092106Y0069307D01*
X0092026Y0069343D01*
X0091943Y0069376D01*
X0091860Y0069405D01*
X0091775Y0069430D01*
X0091689Y0069451D01*
X0091602Y0069469D01*
X0091515Y0069482D01*
X0091427Y0069492D01*
X0091338Y0069498D01*
X0091250Y0069500D01*
X0074750Y0065000D02*
X0064750Y0065000D01*
X0064750Y0075000D01*
X0074750Y0075000D01*
X0064750Y0075000D02*
X0054750Y0075000D01*
X0054750Y0065000D01*
X0064750Y0065000D01*
X0053250Y0065000D02*
X0053250Y0075000D01*
X0043250Y0075000D01*
X0033250Y0075000D01*
X0023250Y0075000D01*
X0023250Y0065000D01*
X0033250Y0065000D01*
X0043250Y0065000D01*
X0053250Y0065000D01*
X0043250Y0065000D02*
X0043250Y0075000D01*
X0033250Y0075000D02*
X0033250Y0065000D01*
X0096750Y0116500D02*
X0099250Y0114000D01*
X0104250Y0114000D01*
X0106750Y0116500D01*
X0109250Y0114000D01*
X0114250Y0114000D01*
X0116750Y0116500D01*
X0116750Y0121500D01*
X0114250Y0124000D01*
X0109250Y0124000D01*
X0106750Y0121500D01*
X0106750Y0116500D01*
X0106750Y0121500D02*
X0104250Y0124000D01*
X0099250Y0124000D01*
X0096750Y0121500D01*
X0096750Y0116500D01*
X0116750Y0116500D02*
X0119250Y0114000D01*
X0124250Y0114000D01*
X0126750Y0116500D01*
X0129250Y0114000D01*
X0134250Y0114000D01*
X0136750Y0116500D01*
X0139250Y0114000D01*
X0144250Y0114000D01*
X0146750Y0116500D01*
X0146750Y0121500D01*
X0144250Y0124000D01*
X0139250Y0124000D01*
X0136750Y0121500D01*
X0136750Y0116500D01*
X0136750Y0121500D02*
X0134250Y0124000D01*
X0129250Y0124000D01*
X0126750Y0121500D01*
X0126750Y0116500D01*
X0126750Y0121500D02*
X0124250Y0124000D01*
X0119250Y0124000D01*
X0116750Y0121500D01*
X0146750Y0121500D02*
X0149250Y0124000D01*
X0154250Y0124000D01*
X0156750Y0121500D01*
X0159250Y0124000D01*
X0164250Y0124000D01*
X0166750Y0121500D01*
X0169250Y0124000D01*
X0174250Y0124000D01*
X0176750Y0121500D01*
X0176750Y0116500D01*
X0174250Y0114000D01*
X0169250Y0114000D01*
X0166750Y0116500D01*
X0164250Y0114000D01*
X0159250Y0114000D01*
X0156750Y0116500D01*
X0154250Y0114000D01*
X0149250Y0114000D01*
X0146750Y0116500D01*
X0156750Y0116500D02*
X0156750Y0121500D01*
X0166750Y0121500D02*
X0166750Y0116500D01*
X0176750Y0116500D02*
X0179250Y0114000D01*
X0184250Y0114000D01*
X0186750Y0116500D01*
X0189250Y0114000D01*
X0194250Y0114000D01*
X0196750Y0116500D01*
X0199250Y0114000D01*
X0204250Y0114000D01*
X0206750Y0116500D01*
X0209250Y0114000D01*
X0214250Y0114000D01*
X0216750Y0116500D01*
X0216750Y0121500D01*
X0214250Y0124000D01*
X0209250Y0124000D01*
X0206750Y0121500D01*
X0206750Y0116500D01*
X0206750Y0121500D02*
X0204250Y0124000D01*
X0199250Y0124000D01*
X0196750Y0121500D01*
X0196750Y0116500D01*
X0196750Y0121500D02*
X0194250Y0124000D01*
X0189250Y0124000D01*
X0186750Y0121500D01*
X0186750Y0116500D01*
X0186750Y0121500D02*
X0184250Y0124000D01*
X0179250Y0124000D01*
X0176750Y0121500D01*
D16*
X0079750Y0100000D02*
X0079750Y0077500D01*
X0069750Y0077500D02*
X0069750Y0100000D01*
X0059750Y0100000D02*
X0059750Y0077500D01*
X0048250Y0077500D02*
X0048250Y0100000D01*
X0038250Y0100000D02*
X0038250Y0077500D01*
X0028250Y0077500D02*
X0028250Y0100000D01*
X0028250Y0062500D02*
X0028250Y0037500D01*
X0038250Y0037500D02*
X0038250Y0062500D01*
X0048250Y0062500D02*
X0048250Y0037500D01*
X0059750Y0037500D02*
X0059750Y0062500D01*
X0069750Y0062500D02*
X0069750Y0037500D01*
X0079750Y0037500D02*
X0079750Y0062500D01*
D17*
X0085000Y0061750D02*
X0085000Y0060750D01*
X0085000Y0061250D02*
X0089500Y0061250D01*
X0089500Y0060750D02*
X0089500Y0061750D01*
X0088500Y0063585D02*
X0086000Y0063585D01*
X0085940Y0063587D01*
X0085879Y0063592D01*
X0085820Y0063601D01*
X0085761Y0063614D01*
X0085702Y0063630D01*
X0085645Y0063650D01*
X0085590Y0063673D01*
X0085535Y0063700D01*
X0085483Y0063729D01*
X0085432Y0063762D01*
X0085383Y0063798D01*
X0085337Y0063836D01*
X0085293Y0063878D01*
X0085251Y0063922D01*
X0085213Y0063968D01*
X0085177Y0064017D01*
X0085144Y0064068D01*
X0085115Y0064120D01*
X0085088Y0064175D01*
X0085065Y0064230D01*
X0085045Y0064287D01*
X0085029Y0064346D01*
X0085016Y0064405D01*
X0085007Y0064464D01*
X0085002Y0064525D01*
X0085000Y0064585D01*
X0085000Y0065585D01*
X0085000Y0067350D02*
X0085000Y0069850D01*
X0087000Y0068850D02*
X0087000Y0067350D01*
X0085000Y0067350D01*
X0087000Y0068850D02*
X0087002Y0068910D01*
X0087007Y0068971D01*
X0087016Y0069030D01*
X0087029Y0069089D01*
X0087045Y0069148D01*
X0087065Y0069205D01*
X0087088Y0069260D01*
X0087115Y0069315D01*
X0087144Y0069367D01*
X0087177Y0069418D01*
X0087213Y0069467D01*
X0087251Y0069513D01*
X0087293Y0069557D01*
X0087337Y0069599D01*
X0087383Y0069637D01*
X0087432Y0069673D01*
X0087483Y0069706D01*
X0087535Y0069735D01*
X0087590Y0069762D01*
X0087645Y0069785D01*
X0087702Y0069805D01*
X0087761Y0069821D01*
X0087820Y0069834D01*
X0087879Y0069843D01*
X0087940Y0069848D01*
X0088000Y0069850D01*
X0088500Y0069850D01*
X0088560Y0069848D01*
X0088621Y0069843D01*
X0088680Y0069834D01*
X0088739Y0069821D01*
X0088798Y0069805D01*
X0088855Y0069785D01*
X0088910Y0069762D01*
X0088965Y0069735D01*
X0089017Y0069706D01*
X0089068Y0069673D01*
X0089117Y0069637D01*
X0089163Y0069599D01*
X0089207Y0069557D01*
X0089249Y0069513D01*
X0089287Y0069467D01*
X0089323Y0069418D01*
X0089356Y0069367D01*
X0089385Y0069315D01*
X0089412Y0069260D01*
X0089435Y0069205D01*
X0089455Y0069148D01*
X0089471Y0069089D01*
X0089484Y0069030D01*
X0089493Y0068971D01*
X0089498Y0068910D01*
X0089500Y0068850D01*
X0089500Y0067350D01*
X0089500Y0065585D02*
X0089500Y0064585D01*
X0089498Y0064525D01*
X0089493Y0064464D01*
X0089484Y0064405D01*
X0089471Y0064346D01*
X0089455Y0064287D01*
X0089435Y0064230D01*
X0089412Y0064175D01*
X0089385Y0064120D01*
X0089356Y0064068D01*
X0089323Y0064017D01*
X0089287Y0063968D01*
X0089249Y0063922D01*
X0089207Y0063878D01*
X0089163Y0063836D01*
X0089117Y0063798D01*
X0089068Y0063762D01*
X0089017Y0063729D01*
X0088965Y0063700D01*
X0088910Y0063673D01*
X0088855Y0063650D01*
X0088798Y0063630D01*
X0088739Y0063614D01*
X0088680Y0063601D01*
X0088621Y0063592D01*
X0088560Y0063587D01*
X0088500Y0063585D01*
X0052000Y0063350D02*
X0047500Y0063350D01*
X0048000Y0062975D02*
X0048012Y0062923D01*
X0048027Y0062872D01*
X0048045Y0062822D01*
X0048067Y0062774D01*
X0048093Y0062727D01*
X0048122Y0062682D01*
X0048154Y0062640D01*
X0048189Y0062600D01*
X0048226Y0062562D01*
X0048266Y0062527D01*
X0048309Y0062495D01*
X0048354Y0062467D01*
X0048400Y0062441D01*
X0048449Y0062419D01*
X0048498Y0062400D01*
X0048549Y0062385D01*
X0048601Y0062374D01*
X0048654Y0062366D01*
X0048707Y0062363D01*
X0048760Y0062362D01*
X0048813Y0062366D01*
X0048866Y0062374D01*
X0048918Y0062385D01*
X0048969Y0062400D01*
X0049019Y0062418D01*
X0049067Y0062440D01*
X0049114Y0062465D01*
X0049159Y0062494D01*
X0049201Y0062526D01*
X0049242Y0062560D01*
X0049280Y0062598D01*
X0049315Y0062638D01*
X0049347Y0062680D01*
X0049376Y0062725D01*
X0049375Y0062725D02*
X0049750Y0063350D01*
X0050125Y0063975D01*
X0048249Y0064350D02*
X0048208Y0064277D01*
X0048169Y0064203D01*
X0048134Y0064126D01*
X0048102Y0064049D01*
X0048073Y0063970D01*
X0048047Y0063890D01*
X0048025Y0063809D01*
X0048007Y0063727D01*
X0047992Y0063644D01*
X0047980Y0063561D01*
X0047972Y0063477D01*
X0047968Y0063393D01*
X0047967Y0063309D01*
X0047970Y0063225D01*
X0047976Y0063141D01*
X0047986Y0063058D01*
X0047999Y0062975D01*
X0051251Y0062350D02*
X0051292Y0062423D01*
X0051331Y0062497D01*
X0051366Y0062574D01*
X0051398Y0062651D01*
X0051427Y0062730D01*
X0051453Y0062810D01*
X0051475Y0062891D01*
X0051493Y0062973D01*
X0051508Y0063056D01*
X0051520Y0063139D01*
X0051528Y0063223D01*
X0051532Y0063307D01*
X0051533Y0063391D01*
X0051530Y0063475D01*
X0051524Y0063559D01*
X0051514Y0063642D01*
X0051501Y0063725D01*
X0051500Y0063725D02*
X0051488Y0063777D01*
X0051473Y0063828D01*
X0051455Y0063878D01*
X0051433Y0063926D01*
X0051407Y0063973D01*
X0051378Y0064018D01*
X0051346Y0064060D01*
X0051311Y0064100D01*
X0051274Y0064138D01*
X0051234Y0064173D01*
X0051191Y0064205D01*
X0051146Y0064233D01*
X0051100Y0064259D01*
X0051051Y0064281D01*
X0051002Y0064300D01*
X0050951Y0064315D01*
X0050899Y0064326D01*
X0050846Y0064334D01*
X0050793Y0064337D01*
X0050740Y0064338D01*
X0050687Y0064334D01*
X0050634Y0064326D01*
X0050582Y0064315D01*
X0050531Y0064300D01*
X0050481Y0064282D01*
X0050433Y0064260D01*
X0050386Y0064235D01*
X0050341Y0064206D01*
X0050299Y0064174D01*
X0050258Y0064140D01*
X0050220Y0064102D01*
X0050185Y0064062D01*
X0050153Y0064020D01*
X0050124Y0063975D01*
X0048500Y0066300D02*
X0047500Y0067550D01*
X0052000Y0067550D01*
X0052000Y0066300D02*
X0052000Y0068800D01*
X0050750Y0060250D02*
X0047500Y0060250D01*
X0050750Y0060250D02*
X0050819Y0060248D01*
X0050888Y0060242D01*
X0050956Y0060233D01*
X0051023Y0060220D01*
X0051090Y0060203D01*
X0051156Y0060182D01*
X0051220Y0060158D01*
X0051283Y0060130D01*
X0051345Y0060099D01*
X0051405Y0060065D01*
X0051462Y0060027D01*
X0051518Y0059986D01*
X0051571Y0059943D01*
X0051622Y0059896D01*
X0051670Y0059847D01*
X0051715Y0059795D01*
X0051757Y0059740D01*
X0051796Y0059684D01*
X0051833Y0059625D01*
X0051865Y0059564D01*
X0051895Y0059502D01*
X0051921Y0059438D01*
X0051943Y0059373D01*
X0051962Y0059307D01*
X0051977Y0059240D01*
X0051988Y0059172D01*
X0051996Y0059103D01*
X0052000Y0059034D01*
X0052000Y0058966D01*
X0051996Y0058897D01*
X0051988Y0058828D01*
X0051977Y0058760D01*
X0051962Y0058693D01*
X0051943Y0058627D01*
X0051921Y0058562D01*
X0051895Y0058498D01*
X0051865Y0058436D01*
X0051833Y0058375D01*
X0051796Y0058316D01*
X0051757Y0058260D01*
X0051715Y0058205D01*
X0051670Y0058153D01*
X0051622Y0058104D01*
X0051571Y0058057D01*
X0051518Y0058014D01*
X0051462Y0057973D01*
X0051405Y0057935D01*
X0051345Y0057901D01*
X0051283Y0057870D01*
X0051220Y0057842D01*
X0051156Y0057818D01*
X0051090Y0057797D01*
X0051023Y0057780D01*
X0050956Y0057767D01*
X0050888Y0057758D01*
X0050819Y0057752D01*
X0050750Y0057750D01*
X0047500Y0057750D01*
X0020500Y0063350D02*
X0016000Y0063350D01*
X0016500Y0062975D02*
X0016512Y0062923D01*
X0016527Y0062872D01*
X0016545Y0062822D01*
X0016567Y0062774D01*
X0016593Y0062727D01*
X0016622Y0062682D01*
X0016654Y0062640D01*
X0016689Y0062600D01*
X0016726Y0062562D01*
X0016766Y0062527D01*
X0016809Y0062495D01*
X0016854Y0062467D01*
X0016900Y0062441D01*
X0016949Y0062419D01*
X0016998Y0062400D01*
X0017049Y0062385D01*
X0017101Y0062374D01*
X0017154Y0062366D01*
X0017207Y0062363D01*
X0017260Y0062362D01*
X0017313Y0062366D01*
X0017366Y0062374D01*
X0017418Y0062385D01*
X0017469Y0062400D01*
X0017519Y0062418D01*
X0017567Y0062440D01*
X0017614Y0062465D01*
X0017659Y0062494D01*
X0017701Y0062526D01*
X0017742Y0062560D01*
X0017780Y0062598D01*
X0017815Y0062638D01*
X0017847Y0062680D01*
X0017876Y0062725D01*
X0017875Y0062725D02*
X0018250Y0063350D01*
X0018625Y0063975D01*
X0016749Y0064350D02*
X0016708Y0064277D01*
X0016669Y0064203D01*
X0016634Y0064126D01*
X0016602Y0064049D01*
X0016573Y0063970D01*
X0016547Y0063890D01*
X0016525Y0063809D01*
X0016507Y0063727D01*
X0016492Y0063644D01*
X0016480Y0063561D01*
X0016472Y0063477D01*
X0016468Y0063393D01*
X0016467Y0063309D01*
X0016470Y0063225D01*
X0016476Y0063141D01*
X0016486Y0063058D01*
X0016499Y0062975D01*
X0019751Y0062350D02*
X0019792Y0062423D01*
X0019831Y0062497D01*
X0019866Y0062574D01*
X0019898Y0062651D01*
X0019927Y0062730D01*
X0019953Y0062810D01*
X0019975Y0062891D01*
X0019993Y0062973D01*
X0020008Y0063056D01*
X0020020Y0063139D01*
X0020028Y0063223D01*
X0020032Y0063307D01*
X0020033Y0063391D01*
X0020030Y0063475D01*
X0020024Y0063559D01*
X0020014Y0063642D01*
X0020001Y0063725D01*
X0020000Y0063725D02*
X0019988Y0063777D01*
X0019973Y0063828D01*
X0019955Y0063878D01*
X0019933Y0063926D01*
X0019907Y0063973D01*
X0019878Y0064018D01*
X0019846Y0064060D01*
X0019811Y0064100D01*
X0019774Y0064138D01*
X0019734Y0064173D01*
X0019691Y0064205D01*
X0019646Y0064233D01*
X0019600Y0064259D01*
X0019551Y0064281D01*
X0019502Y0064300D01*
X0019451Y0064315D01*
X0019399Y0064326D01*
X0019346Y0064334D01*
X0019293Y0064337D01*
X0019240Y0064338D01*
X0019187Y0064334D01*
X0019134Y0064326D01*
X0019082Y0064315D01*
X0019031Y0064300D01*
X0018981Y0064282D01*
X0018933Y0064260D01*
X0018886Y0064235D01*
X0018841Y0064206D01*
X0018799Y0064174D01*
X0018758Y0064140D01*
X0018720Y0064102D01*
X0018685Y0064062D01*
X0018653Y0064020D01*
X0018624Y0063975D01*
X0020500Y0066300D02*
X0020500Y0068800D01*
X0020500Y0066300D02*
X0018000Y0068425D01*
X0016000Y0067675D02*
X0016002Y0067602D01*
X0016007Y0067530D01*
X0016016Y0067458D01*
X0016029Y0067386D01*
X0016045Y0067315D01*
X0016065Y0067245D01*
X0016089Y0067177D01*
X0016115Y0067109D01*
X0016146Y0067043D01*
X0016179Y0066978D01*
X0016216Y0066916D01*
X0016255Y0066855D01*
X0016298Y0066796D01*
X0016344Y0066739D01*
X0016392Y0066685D01*
X0016443Y0066634D01*
X0016497Y0066584D01*
X0016553Y0066538D01*
X0016611Y0066495D01*
X0016672Y0066454D01*
X0016734Y0066417D01*
X0016798Y0066383D01*
X0016864Y0066352D01*
X0016931Y0066324D01*
X0017000Y0066300D01*
X0018000Y0068425D02*
X0017954Y0068471D01*
X0017905Y0068515D01*
X0017854Y0068555D01*
X0017801Y0068593D01*
X0017746Y0068628D01*
X0017689Y0068660D01*
X0017631Y0068689D01*
X0017571Y0068715D01*
X0017509Y0068737D01*
X0017447Y0068756D01*
X0017384Y0068772D01*
X0017320Y0068784D01*
X0017255Y0068793D01*
X0017190Y0068798D01*
X0017125Y0068800D01*
X0017060Y0068798D01*
X0016994Y0068792D01*
X0016930Y0068783D01*
X0016866Y0068770D01*
X0016802Y0068753D01*
X0016740Y0068732D01*
X0016679Y0068708D01*
X0016620Y0068680D01*
X0016563Y0068649D01*
X0016507Y0068615D01*
X0016453Y0068577D01*
X0016402Y0068537D01*
X0016353Y0068493D01*
X0016307Y0068447D01*
X0016263Y0068398D01*
X0016223Y0068347D01*
X0016185Y0068293D01*
X0016151Y0068238D01*
X0016120Y0068180D01*
X0016092Y0068121D01*
X0016068Y0068060D01*
X0016047Y0067998D01*
X0016030Y0067934D01*
X0016017Y0067870D01*
X0016008Y0067806D01*
X0016002Y0067740D01*
X0016000Y0067675D01*
X0016000Y0060250D02*
X0019250Y0060250D01*
X0019319Y0060248D01*
X0019388Y0060242D01*
X0019456Y0060233D01*
X0019523Y0060220D01*
X0019590Y0060203D01*
X0019656Y0060182D01*
X0019720Y0060158D01*
X0019783Y0060130D01*
X0019845Y0060099D01*
X0019905Y0060065D01*
X0019962Y0060027D01*
X0020018Y0059986D01*
X0020071Y0059943D01*
X0020122Y0059896D01*
X0020170Y0059847D01*
X0020215Y0059795D01*
X0020257Y0059740D01*
X0020296Y0059684D01*
X0020333Y0059625D01*
X0020365Y0059564D01*
X0020395Y0059502D01*
X0020421Y0059438D01*
X0020443Y0059373D01*
X0020462Y0059307D01*
X0020477Y0059240D01*
X0020488Y0059172D01*
X0020496Y0059103D01*
X0020500Y0059034D01*
X0020500Y0058966D01*
X0020496Y0058897D01*
X0020488Y0058828D01*
X0020477Y0058760D01*
X0020462Y0058693D01*
X0020443Y0058627D01*
X0020421Y0058562D01*
X0020395Y0058498D01*
X0020365Y0058436D01*
X0020333Y0058375D01*
X0020296Y0058316D01*
X0020257Y0058260D01*
X0020215Y0058205D01*
X0020170Y0058153D01*
X0020122Y0058104D01*
X0020071Y0058057D01*
X0020018Y0058014D01*
X0019962Y0057973D01*
X0019905Y0057935D01*
X0019845Y0057901D01*
X0019783Y0057870D01*
X0019720Y0057842D01*
X0019656Y0057818D01*
X0019590Y0057797D01*
X0019523Y0057780D01*
X0019456Y0057767D01*
X0019388Y0057758D01*
X0019319Y0057752D01*
X0019250Y0057750D01*
X0016000Y0057750D01*
X0078671Y0015550D02*
X0078671Y0012050D01*
X0078669Y0011990D01*
X0078664Y0011929D01*
X0078655Y0011870D01*
X0078642Y0011811D01*
X0078626Y0011752D01*
X0078606Y0011695D01*
X0078583Y0011640D01*
X0078556Y0011585D01*
X0078527Y0011533D01*
X0078494Y0011482D01*
X0078458Y0011433D01*
X0078420Y0011387D01*
X0078378Y0011343D01*
X0078334Y0011301D01*
X0078288Y0011263D01*
X0078239Y0011227D01*
X0078188Y0011194D01*
X0078136Y0011165D01*
X0078081Y0011138D01*
X0078026Y0011115D01*
X0077969Y0011095D01*
X0077910Y0011079D01*
X0077851Y0011066D01*
X0077792Y0011057D01*
X0077731Y0011052D01*
X0077671Y0011050D01*
X0077171Y0011050D01*
X0081025Y0011050D02*
X0081025Y0015550D01*
X0082275Y0015550D01*
X0082344Y0015548D01*
X0082413Y0015542D01*
X0082481Y0015533D01*
X0082548Y0015520D01*
X0082615Y0015503D01*
X0082681Y0015482D01*
X0082745Y0015458D01*
X0082808Y0015430D01*
X0082870Y0015399D01*
X0082930Y0015365D01*
X0082987Y0015327D01*
X0083043Y0015286D01*
X0083096Y0015243D01*
X0083147Y0015196D01*
X0083195Y0015147D01*
X0083240Y0015095D01*
X0083282Y0015040D01*
X0083321Y0014984D01*
X0083358Y0014925D01*
X0083390Y0014864D01*
X0083420Y0014802D01*
X0083446Y0014738D01*
X0083468Y0014673D01*
X0083487Y0014607D01*
X0083502Y0014540D01*
X0083513Y0014472D01*
X0083521Y0014403D01*
X0083525Y0014334D01*
X0083525Y0014266D01*
X0083521Y0014197D01*
X0083513Y0014128D01*
X0083502Y0014060D01*
X0083487Y0013993D01*
X0083468Y0013927D01*
X0083446Y0013862D01*
X0083420Y0013798D01*
X0083390Y0013736D01*
X0083358Y0013675D01*
X0083321Y0013616D01*
X0083282Y0013560D01*
X0083240Y0013505D01*
X0083195Y0013453D01*
X0083147Y0013404D01*
X0083096Y0013357D01*
X0083043Y0013314D01*
X0082987Y0013273D01*
X0082930Y0013235D01*
X0082870Y0013201D01*
X0082808Y0013170D01*
X0082745Y0013142D01*
X0082681Y0013118D01*
X0082615Y0013097D01*
X0082548Y0013080D01*
X0082481Y0013067D01*
X0082413Y0013058D01*
X0082344Y0013052D01*
X0082275Y0013050D01*
X0081025Y0013050D01*
X0085300Y0014550D02*
X0086550Y0015550D01*
X0086550Y0011050D01*
X0085300Y0011050D02*
X0087800Y0011050D01*
X0102300Y0022950D02*
X0102300Y0027450D01*
X0101925Y0026950D02*
X0101873Y0026938D01*
X0101822Y0026923D01*
X0101772Y0026905D01*
X0101724Y0026883D01*
X0101677Y0026857D01*
X0101632Y0026828D01*
X0101590Y0026796D01*
X0101550Y0026761D01*
X0101512Y0026724D01*
X0101477Y0026684D01*
X0101445Y0026641D01*
X0101417Y0026596D01*
X0101391Y0026550D01*
X0101369Y0026501D01*
X0101350Y0026452D01*
X0101335Y0026401D01*
X0101324Y0026349D01*
X0101316Y0026296D01*
X0101313Y0026243D01*
X0101312Y0026190D01*
X0101316Y0026137D01*
X0101324Y0026084D01*
X0101335Y0026032D01*
X0101350Y0025981D01*
X0101368Y0025931D01*
X0101390Y0025883D01*
X0101415Y0025836D01*
X0101444Y0025791D01*
X0101476Y0025749D01*
X0101510Y0025708D01*
X0101548Y0025670D01*
X0101588Y0025635D01*
X0101630Y0025603D01*
X0101675Y0025574D01*
X0101675Y0025575D02*
X0102300Y0025200D01*
X0102925Y0024825D01*
X0103300Y0026701D02*
X0103227Y0026742D01*
X0103153Y0026781D01*
X0103076Y0026816D01*
X0102999Y0026848D01*
X0102920Y0026877D01*
X0102840Y0026903D01*
X0102759Y0026925D01*
X0102677Y0026943D01*
X0102594Y0026958D01*
X0102511Y0026970D01*
X0102427Y0026978D01*
X0102343Y0026982D01*
X0102259Y0026983D01*
X0102175Y0026980D01*
X0102091Y0026974D01*
X0102008Y0026964D01*
X0101925Y0026951D01*
X0099200Y0027450D02*
X0099200Y0024200D01*
X0099198Y0024131D01*
X0099192Y0024062D01*
X0099183Y0023994D01*
X0099170Y0023927D01*
X0099153Y0023860D01*
X0099132Y0023794D01*
X0099108Y0023730D01*
X0099080Y0023667D01*
X0099049Y0023605D01*
X0099015Y0023545D01*
X0098977Y0023488D01*
X0098936Y0023432D01*
X0098893Y0023379D01*
X0098846Y0023328D01*
X0098797Y0023280D01*
X0098745Y0023235D01*
X0098690Y0023193D01*
X0098634Y0023154D01*
X0098575Y0023117D01*
X0098514Y0023085D01*
X0098452Y0023055D01*
X0098388Y0023029D01*
X0098323Y0023007D01*
X0098257Y0022988D01*
X0098190Y0022973D01*
X0098122Y0022962D01*
X0098053Y0022954D01*
X0097984Y0022950D01*
X0097916Y0022950D01*
X0097847Y0022954D01*
X0097778Y0022962D01*
X0097710Y0022973D01*
X0097643Y0022988D01*
X0097577Y0023007D01*
X0097512Y0023029D01*
X0097448Y0023055D01*
X0097386Y0023085D01*
X0097325Y0023117D01*
X0097266Y0023154D01*
X0097210Y0023193D01*
X0097155Y0023235D01*
X0097103Y0023280D01*
X0097054Y0023328D01*
X0097007Y0023379D01*
X0096964Y0023432D01*
X0096923Y0023488D01*
X0096885Y0023545D01*
X0096851Y0023605D01*
X0096820Y0023667D01*
X0096792Y0023730D01*
X0096768Y0023794D01*
X0096747Y0023860D01*
X0096730Y0023927D01*
X0096717Y0023994D01*
X0096708Y0024062D01*
X0096702Y0024131D01*
X0096700Y0024200D01*
X0096700Y0027450D01*
X0101300Y0023699D02*
X0101373Y0023658D01*
X0101447Y0023619D01*
X0101524Y0023584D01*
X0101601Y0023552D01*
X0101680Y0023523D01*
X0101760Y0023497D01*
X0101841Y0023475D01*
X0101923Y0023457D01*
X0102006Y0023442D01*
X0102089Y0023430D01*
X0102173Y0023422D01*
X0102257Y0023418D01*
X0102341Y0023417D01*
X0102425Y0023420D01*
X0102509Y0023426D01*
X0102592Y0023436D01*
X0102675Y0023449D01*
X0102675Y0023450D02*
X0102727Y0023462D01*
X0102778Y0023477D01*
X0102828Y0023495D01*
X0102876Y0023517D01*
X0102923Y0023543D01*
X0102968Y0023572D01*
X0103010Y0023604D01*
X0103050Y0023639D01*
X0103088Y0023676D01*
X0103123Y0023716D01*
X0103155Y0023759D01*
X0103183Y0023804D01*
X0103209Y0023850D01*
X0103231Y0023899D01*
X0103250Y0023948D01*
X0103265Y0023999D01*
X0103276Y0024051D01*
X0103284Y0024104D01*
X0103287Y0024157D01*
X0103288Y0024210D01*
X0103284Y0024263D01*
X0103276Y0024316D01*
X0103265Y0024368D01*
X0103250Y0024419D01*
X0103232Y0024469D01*
X0103210Y0024517D01*
X0103185Y0024564D01*
X0103156Y0024609D01*
X0103124Y0024651D01*
X0103090Y0024692D01*
X0103052Y0024730D01*
X0103012Y0024765D01*
X0102970Y0024797D01*
X0102925Y0024826D01*
X0106500Y0022950D02*
X0107750Y0027450D01*
X0105250Y0027450D01*
X0105250Y0026950D01*
X0210000Y0064650D02*
X0210000Y0065650D01*
X0210000Y0065150D02*
X0214500Y0065150D01*
X0214500Y0064650D02*
X0214500Y0065650D01*
X0213500Y0067485D02*
X0211000Y0067485D01*
X0210940Y0067487D01*
X0210879Y0067492D01*
X0210820Y0067501D01*
X0210761Y0067514D01*
X0210702Y0067530D01*
X0210645Y0067550D01*
X0210590Y0067573D01*
X0210535Y0067600D01*
X0210483Y0067629D01*
X0210432Y0067662D01*
X0210383Y0067698D01*
X0210337Y0067736D01*
X0210293Y0067778D01*
X0210251Y0067822D01*
X0210213Y0067868D01*
X0210177Y0067917D01*
X0210144Y0067968D01*
X0210115Y0068020D01*
X0210088Y0068075D01*
X0210065Y0068130D01*
X0210045Y0068187D01*
X0210029Y0068246D01*
X0210016Y0068305D01*
X0210007Y0068364D01*
X0210002Y0068425D01*
X0210000Y0068485D01*
X0210000Y0069485D01*
X0212000Y0071250D02*
X0213250Y0071250D01*
X0212000Y0071250D02*
X0212000Y0072750D01*
X0212000Y0071250D02*
X0211913Y0071252D01*
X0211826Y0071258D01*
X0211739Y0071267D01*
X0211653Y0071280D01*
X0211567Y0071297D01*
X0211482Y0071318D01*
X0211399Y0071343D01*
X0211316Y0071371D01*
X0211235Y0071402D01*
X0211155Y0071437D01*
X0211077Y0071476D01*
X0211000Y0071518D01*
X0210925Y0071563D01*
X0210853Y0071612D01*
X0210782Y0071663D01*
X0210714Y0071718D01*
X0210649Y0071775D01*
X0210586Y0071836D01*
X0210525Y0071899D01*
X0210468Y0071964D01*
X0210413Y0072032D01*
X0210362Y0072103D01*
X0210313Y0072175D01*
X0210268Y0072250D01*
X0210226Y0072327D01*
X0210187Y0072405D01*
X0210152Y0072485D01*
X0210121Y0072566D01*
X0210093Y0072649D01*
X0210068Y0072732D01*
X0210047Y0072817D01*
X0210030Y0072903D01*
X0210017Y0072989D01*
X0210008Y0073076D01*
X0210002Y0073163D01*
X0210000Y0073250D01*
X0212000Y0072750D02*
X0212002Y0072810D01*
X0212007Y0072871D01*
X0212016Y0072930D01*
X0212029Y0072989D01*
X0212045Y0073048D01*
X0212065Y0073105D01*
X0212088Y0073160D01*
X0212115Y0073215D01*
X0212144Y0073267D01*
X0212177Y0073318D01*
X0212213Y0073367D01*
X0212251Y0073413D01*
X0212293Y0073457D01*
X0212337Y0073499D01*
X0212383Y0073537D01*
X0212432Y0073573D01*
X0212483Y0073606D01*
X0212535Y0073635D01*
X0212590Y0073662D01*
X0212645Y0073685D01*
X0212702Y0073705D01*
X0212761Y0073721D01*
X0212820Y0073734D01*
X0212879Y0073743D01*
X0212940Y0073748D01*
X0213000Y0073750D01*
X0213250Y0073750D01*
X0213319Y0073748D01*
X0213388Y0073742D01*
X0213456Y0073733D01*
X0213523Y0073720D01*
X0213590Y0073703D01*
X0213656Y0073682D01*
X0213720Y0073658D01*
X0213783Y0073630D01*
X0213845Y0073599D01*
X0213905Y0073565D01*
X0213962Y0073527D01*
X0214018Y0073486D01*
X0214071Y0073443D01*
X0214122Y0073396D01*
X0214170Y0073347D01*
X0214215Y0073295D01*
X0214257Y0073240D01*
X0214296Y0073184D01*
X0214333Y0073125D01*
X0214365Y0073064D01*
X0214395Y0073002D01*
X0214421Y0072938D01*
X0214443Y0072873D01*
X0214462Y0072807D01*
X0214477Y0072740D01*
X0214488Y0072672D01*
X0214496Y0072603D01*
X0214500Y0072534D01*
X0214500Y0072466D01*
X0214496Y0072397D01*
X0214488Y0072328D01*
X0214477Y0072260D01*
X0214462Y0072193D01*
X0214443Y0072127D01*
X0214421Y0072062D01*
X0214395Y0071998D01*
X0214365Y0071936D01*
X0214333Y0071875D01*
X0214296Y0071816D01*
X0214257Y0071760D01*
X0214215Y0071705D01*
X0214170Y0071653D01*
X0214122Y0071604D01*
X0214071Y0071557D01*
X0214018Y0071514D01*
X0213962Y0071473D01*
X0213905Y0071435D01*
X0213845Y0071401D01*
X0213783Y0071370D01*
X0213720Y0071342D01*
X0213656Y0071318D01*
X0213590Y0071297D01*
X0213523Y0071280D01*
X0213456Y0071267D01*
X0213388Y0071258D01*
X0213319Y0071252D01*
X0213250Y0071250D01*
X0214500Y0069485D02*
X0214500Y0068485D01*
X0214498Y0068425D01*
X0214493Y0068364D01*
X0214484Y0068305D01*
X0214471Y0068246D01*
X0214455Y0068187D01*
X0214435Y0068130D01*
X0214412Y0068075D01*
X0214385Y0068020D01*
X0214356Y0067968D01*
X0214323Y0067917D01*
X0214287Y0067868D01*
X0214249Y0067822D01*
X0214207Y0067778D01*
X0214163Y0067736D01*
X0214117Y0067698D01*
X0214068Y0067662D01*
X0214017Y0067629D01*
X0213965Y0067600D01*
X0213910Y0067573D01*
X0213855Y0067550D01*
X0213798Y0067530D01*
X0213739Y0067514D01*
X0213680Y0067501D01*
X0213621Y0067492D01*
X0213560Y0067487D01*
X0213500Y0067485D01*
X0107750Y0127700D02*
X0107750Y0127950D01*
X0107748Y0128010D01*
X0107743Y0128071D01*
X0107734Y0128130D01*
X0107721Y0128189D01*
X0107705Y0128248D01*
X0107685Y0128305D01*
X0107662Y0128360D01*
X0107635Y0128415D01*
X0107606Y0128467D01*
X0107573Y0128518D01*
X0107537Y0128567D01*
X0107499Y0128613D01*
X0107457Y0128657D01*
X0107413Y0128699D01*
X0107367Y0128737D01*
X0107318Y0128773D01*
X0107267Y0128806D01*
X0107215Y0128835D01*
X0107160Y0128862D01*
X0107105Y0128885D01*
X0107048Y0128905D01*
X0106989Y0128921D01*
X0106930Y0128934D01*
X0106871Y0128943D01*
X0106810Y0128948D01*
X0106750Y0128950D01*
X0105250Y0128950D01*
X0105250Y0127700D01*
X0105252Y0127631D01*
X0105258Y0127562D01*
X0105267Y0127494D01*
X0105280Y0127427D01*
X0105297Y0127360D01*
X0105318Y0127294D01*
X0105342Y0127230D01*
X0105370Y0127167D01*
X0105401Y0127105D01*
X0105435Y0127045D01*
X0105473Y0126988D01*
X0105514Y0126932D01*
X0105557Y0126879D01*
X0105604Y0126828D01*
X0105653Y0126780D01*
X0105705Y0126735D01*
X0105760Y0126693D01*
X0105816Y0126654D01*
X0105875Y0126617D01*
X0105936Y0126585D01*
X0105998Y0126555D01*
X0106062Y0126529D01*
X0106127Y0126507D01*
X0106193Y0126488D01*
X0106260Y0126473D01*
X0106328Y0126462D01*
X0106397Y0126454D01*
X0106466Y0126450D01*
X0106534Y0126450D01*
X0106603Y0126454D01*
X0106672Y0126462D01*
X0106740Y0126473D01*
X0106807Y0126488D01*
X0106873Y0126507D01*
X0106938Y0126529D01*
X0107002Y0126555D01*
X0107064Y0126585D01*
X0107125Y0126617D01*
X0107184Y0126654D01*
X0107240Y0126693D01*
X0107295Y0126735D01*
X0107347Y0126780D01*
X0107396Y0126828D01*
X0107443Y0126879D01*
X0107486Y0126932D01*
X0107527Y0126988D01*
X0107565Y0127045D01*
X0107599Y0127105D01*
X0107630Y0127167D01*
X0107658Y0127230D01*
X0107682Y0127294D01*
X0107703Y0127360D01*
X0107720Y0127427D01*
X0107733Y0127494D01*
X0107742Y0127562D01*
X0107748Y0127631D01*
X0107750Y0127700D01*
X0105250Y0128950D02*
X0105252Y0129037D01*
X0105258Y0129124D01*
X0105267Y0129211D01*
X0105280Y0129297D01*
X0105297Y0129383D01*
X0105318Y0129468D01*
X0105343Y0129551D01*
X0105371Y0129634D01*
X0105402Y0129715D01*
X0105437Y0129795D01*
X0105476Y0129873D01*
X0105518Y0129950D01*
X0105563Y0130025D01*
X0105612Y0130097D01*
X0105663Y0130168D01*
X0105718Y0130236D01*
X0105775Y0130301D01*
X0105836Y0130364D01*
X0105899Y0130425D01*
X0105964Y0130482D01*
X0106032Y0130537D01*
X0106103Y0130588D01*
X0106175Y0130637D01*
X0106250Y0130682D01*
X0106327Y0130724D01*
X0106405Y0130763D01*
X0106485Y0130798D01*
X0106566Y0130829D01*
X0106649Y0130857D01*
X0106732Y0130882D01*
X0106817Y0130903D01*
X0106903Y0130920D01*
X0106989Y0130933D01*
X0107076Y0130942D01*
X0107163Y0130948D01*
X0107250Y0130950D01*
X0102300Y0130950D02*
X0102300Y0126450D01*
X0102675Y0126950D02*
X0102727Y0126962D01*
X0102778Y0126977D01*
X0102828Y0126995D01*
X0102876Y0127017D01*
X0102923Y0127043D01*
X0102968Y0127072D01*
X0103010Y0127104D01*
X0103050Y0127139D01*
X0103088Y0127176D01*
X0103123Y0127216D01*
X0103155Y0127259D01*
X0103183Y0127304D01*
X0103209Y0127350D01*
X0103231Y0127399D01*
X0103250Y0127448D01*
X0103265Y0127499D01*
X0103276Y0127551D01*
X0103284Y0127604D01*
X0103287Y0127657D01*
X0103288Y0127710D01*
X0103284Y0127763D01*
X0103276Y0127816D01*
X0103265Y0127868D01*
X0103250Y0127919D01*
X0103232Y0127969D01*
X0103210Y0128017D01*
X0103185Y0128064D01*
X0103156Y0128109D01*
X0103124Y0128151D01*
X0103090Y0128192D01*
X0103052Y0128230D01*
X0103012Y0128265D01*
X0102970Y0128297D01*
X0102925Y0128326D01*
X0102925Y0128325D02*
X0102300Y0128700D01*
X0101675Y0129075D01*
X0101300Y0127199D02*
X0101373Y0127158D01*
X0101447Y0127119D01*
X0101524Y0127084D01*
X0101601Y0127052D01*
X0101680Y0127023D01*
X0101760Y0126997D01*
X0101841Y0126975D01*
X0101923Y0126957D01*
X0102006Y0126942D01*
X0102089Y0126930D01*
X0102173Y0126922D01*
X0102257Y0126918D01*
X0102341Y0126917D01*
X0102425Y0126920D01*
X0102509Y0126926D01*
X0102592Y0126936D01*
X0102675Y0126949D01*
X0103300Y0130201D02*
X0103227Y0130242D01*
X0103153Y0130281D01*
X0103076Y0130316D01*
X0102999Y0130348D01*
X0102920Y0130377D01*
X0102840Y0130403D01*
X0102759Y0130425D01*
X0102677Y0130443D01*
X0102594Y0130458D01*
X0102511Y0130470D01*
X0102427Y0130478D01*
X0102343Y0130482D01*
X0102259Y0130483D01*
X0102175Y0130480D01*
X0102091Y0130474D01*
X0102008Y0130464D01*
X0101925Y0130451D01*
X0101925Y0130450D02*
X0101873Y0130438D01*
X0101822Y0130423D01*
X0101772Y0130405D01*
X0101724Y0130383D01*
X0101677Y0130357D01*
X0101632Y0130328D01*
X0101590Y0130296D01*
X0101550Y0130261D01*
X0101512Y0130224D01*
X0101477Y0130184D01*
X0101445Y0130141D01*
X0101417Y0130096D01*
X0101391Y0130050D01*
X0101369Y0130001D01*
X0101350Y0129952D01*
X0101335Y0129901D01*
X0101324Y0129849D01*
X0101316Y0129796D01*
X0101313Y0129743D01*
X0101312Y0129690D01*
X0101316Y0129637D01*
X0101324Y0129584D01*
X0101335Y0129532D01*
X0101350Y0129481D01*
X0101368Y0129431D01*
X0101390Y0129383D01*
X0101415Y0129336D01*
X0101444Y0129291D01*
X0101476Y0129249D01*
X0101510Y0129208D01*
X0101548Y0129170D01*
X0101588Y0129135D01*
X0101630Y0129103D01*
X0101675Y0129074D01*
X0099200Y0127700D02*
X0099200Y0130950D01*
X0096700Y0130950D02*
X0096700Y0127700D01*
X0096702Y0127631D01*
X0096708Y0127562D01*
X0096717Y0127494D01*
X0096730Y0127427D01*
X0096747Y0127360D01*
X0096768Y0127294D01*
X0096792Y0127230D01*
X0096820Y0127167D01*
X0096851Y0127105D01*
X0096885Y0127045D01*
X0096923Y0126988D01*
X0096964Y0126932D01*
X0097007Y0126879D01*
X0097054Y0126828D01*
X0097103Y0126780D01*
X0097155Y0126735D01*
X0097210Y0126693D01*
X0097266Y0126654D01*
X0097325Y0126617D01*
X0097386Y0126585D01*
X0097448Y0126555D01*
X0097512Y0126529D01*
X0097577Y0126507D01*
X0097643Y0126488D01*
X0097710Y0126473D01*
X0097778Y0126462D01*
X0097847Y0126454D01*
X0097916Y0126450D01*
X0097984Y0126450D01*
X0098053Y0126454D01*
X0098122Y0126462D01*
X0098190Y0126473D01*
X0098257Y0126488D01*
X0098323Y0126507D01*
X0098388Y0126529D01*
X0098452Y0126555D01*
X0098514Y0126585D01*
X0098575Y0126617D01*
X0098634Y0126654D01*
X0098690Y0126693D01*
X0098745Y0126735D01*
X0098797Y0126780D01*
X0098846Y0126828D01*
X0098893Y0126879D01*
X0098936Y0126932D01*
X0098977Y0126988D01*
X0099015Y0127045D01*
X0099049Y0127105D01*
X0099080Y0127167D01*
X0099108Y0127230D01*
X0099132Y0127294D01*
X0099153Y0127360D01*
X0099170Y0127427D01*
X0099183Y0127494D01*
X0099192Y0127562D01*
X0099198Y0127631D01*
X0099200Y0127700D01*
D18*
X0079750Y0076000D03*
X0069750Y0076000D03*
X0059750Y0076000D03*
X0048250Y0076000D03*
X0038250Y0076000D03*
X0028250Y0076000D03*
D19*
X0028250Y0063000D03*
X0038250Y0063000D03*
X0048250Y0063000D03*
X0059750Y0063000D03*
X0069750Y0063000D03*
X0079750Y0063000D03*
D20*
X0091250Y0061200D02*
X0131250Y0061200D01*
X0168250Y0073300D02*
X0208250Y0073300D01*
M02*
