G75*
%MOIN*%
%OFA0B0*%
%FSLAX25Y25*%
%IPPOS*%
%LPD*%
%AMOC8*
5,1,8,0,0,1.08239X$1,22.5*
%
%ADD10C,0.01087*%
%ADD11R,0.13189X0.13189*%
%ADD12R,0.03346X0.07283*%
%ADD13OC8,0.06165*%
%ADD14R,0.03191X0.08591*%
%ADD15C,0.06165*%
%ADD16R,0.05765X0.05765*%
%ADD17C,0.05765*%
%ADD18OC8,0.03150*%
D10*
X0135868Y0058866D02*
X0135868Y0059354D01*
X0138128Y0059354D01*
X0138128Y0058866D01*
X0135868Y0058866D01*
X0135868Y0060835D02*
X0135868Y0061323D01*
X0138128Y0061323D01*
X0138128Y0060835D01*
X0135868Y0060835D01*
X0135868Y0062803D02*
X0135868Y0063291D01*
X0138128Y0063291D01*
X0138128Y0062803D01*
X0135868Y0062803D01*
X0135868Y0064772D02*
X0135868Y0065260D01*
X0138128Y0065260D01*
X0138128Y0064772D01*
X0135868Y0064772D01*
X0135868Y0066740D02*
X0135868Y0067228D01*
X0138128Y0067228D01*
X0138128Y0066740D01*
X0135868Y0066740D01*
X0135868Y0068709D02*
X0135868Y0069197D01*
X0138128Y0069197D01*
X0138128Y0068709D01*
X0135868Y0068709D01*
X0135868Y0070677D02*
X0135868Y0071165D01*
X0138128Y0071165D01*
X0138128Y0070677D01*
X0135868Y0070677D01*
X0135868Y0072646D02*
X0135868Y0073134D01*
X0138128Y0073134D01*
X0138128Y0072646D01*
X0135868Y0072646D01*
X0139116Y0074122D02*
X0139116Y0076382D01*
X0139604Y0076382D01*
X0139604Y0074122D01*
X0139116Y0074122D01*
X0139116Y0075155D02*
X0139604Y0075155D01*
X0139604Y0076188D02*
X0139116Y0076188D01*
X0141085Y0076382D02*
X0141085Y0074122D01*
X0141085Y0076382D02*
X0141573Y0076382D01*
X0141573Y0074122D01*
X0141085Y0074122D01*
X0141085Y0075155D02*
X0141573Y0075155D01*
X0141573Y0076188D02*
X0141085Y0076188D01*
X0143053Y0076382D02*
X0143053Y0074122D01*
X0143053Y0076382D02*
X0143541Y0076382D01*
X0143541Y0074122D01*
X0143053Y0074122D01*
X0143053Y0075155D02*
X0143541Y0075155D01*
X0143541Y0076188D02*
X0143053Y0076188D01*
X0145022Y0076382D02*
X0145022Y0074122D01*
X0145022Y0076382D02*
X0145510Y0076382D01*
X0145510Y0074122D01*
X0145022Y0074122D01*
X0145022Y0075155D02*
X0145510Y0075155D01*
X0145510Y0076188D02*
X0145022Y0076188D01*
X0146990Y0076382D02*
X0146990Y0074122D01*
X0146990Y0076382D02*
X0147478Y0076382D01*
X0147478Y0074122D01*
X0146990Y0074122D01*
X0146990Y0075155D02*
X0147478Y0075155D01*
X0147478Y0076188D02*
X0146990Y0076188D01*
X0148959Y0076382D02*
X0148959Y0074122D01*
X0148959Y0076382D02*
X0149447Y0076382D01*
X0149447Y0074122D01*
X0148959Y0074122D01*
X0148959Y0075155D02*
X0149447Y0075155D01*
X0149447Y0076188D02*
X0148959Y0076188D01*
X0150927Y0076382D02*
X0150927Y0074122D01*
X0150927Y0076382D02*
X0151415Y0076382D01*
X0151415Y0074122D01*
X0150927Y0074122D01*
X0150927Y0075155D02*
X0151415Y0075155D01*
X0151415Y0076188D02*
X0150927Y0076188D01*
X0152896Y0076382D02*
X0152896Y0074122D01*
X0152896Y0076382D02*
X0153384Y0076382D01*
X0153384Y0074122D01*
X0152896Y0074122D01*
X0152896Y0075155D02*
X0153384Y0075155D01*
X0153384Y0076188D02*
X0152896Y0076188D01*
X0154372Y0073134D02*
X0154372Y0072646D01*
X0154372Y0073134D02*
X0156632Y0073134D01*
X0156632Y0072646D01*
X0154372Y0072646D01*
X0154372Y0071165D02*
X0154372Y0070677D01*
X0154372Y0071165D02*
X0156632Y0071165D01*
X0156632Y0070677D01*
X0154372Y0070677D01*
X0154372Y0069197D02*
X0154372Y0068709D01*
X0154372Y0069197D02*
X0156632Y0069197D01*
X0156632Y0068709D01*
X0154372Y0068709D01*
X0154372Y0067228D02*
X0154372Y0066740D01*
X0154372Y0067228D02*
X0156632Y0067228D01*
X0156632Y0066740D01*
X0154372Y0066740D01*
X0154372Y0065260D02*
X0154372Y0064772D01*
X0154372Y0065260D02*
X0156632Y0065260D01*
X0156632Y0064772D01*
X0154372Y0064772D01*
X0154372Y0063291D02*
X0154372Y0062803D01*
X0154372Y0063291D02*
X0156632Y0063291D01*
X0156632Y0062803D01*
X0154372Y0062803D01*
X0154372Y0061323D02*
X0154372Y0060835D01*
X0154372Y0061323D02*
X0156632Y0061323D01*
X0156632Y0060835D01*
X0154372Y0060835D01*
X0154372Y0059354D02*
X0154372Y0058866D01*
X0154372Y0059354D02*
X0156632Y0059354D01*
X0156632Y0058866D01*
X0154372Y0058866D01*
X0152896Y0057878D02*
X0152896Y0055618D01*
X0152896Y0057878D02*
X0153384Y0057878D01*
X0153384Y0055618D01*
X0152896Y0055618D01*
X0152896Y0056651D02*
X0153384Y0056651D01*
X0153384Y0057684D02*
X0152896Y0057684D01*
X0150927Y0057878D02*
X0150927Y0055618D01*
X0150927Y0057878D02*
X0151415Y0057878D01*
X0151415Y0055618D01*
X0150927Y0055618D01*
X0150927Y0056651D02*
X0151415Y0056651D01*
X0151415Y0057684D02*
X0150927Y0057684D01*
X0148959Y0057878D02*
X0148959Y0055618D01*
X0148959Y0057878D02*
X0149447Y0057878D01*
X0149447Y0055618D01*
X0148959Y0055618D01*
X0148959Y0056651D02*
X0149447Y0056651D01*
X0149447Y0057684D02*
X0148959Y0057684D01*
X0146990Y0057878D02*
X0146990Y0055618D01*
X0146990Y0057878D02*
X0147478Y0057878D01*
X0147478Y0055618D01*
X0146990Y0055618D01*
X0146990Y0056651D02*
X0147478Y0056651D01*
X0147478Y0057684D02*
X0146990Y0057684D01*
X0145022Y0057878D02*
X0145022Y0055618D01*
X0145022Y0057878D02*
X0145510Y0057878D01*
X0145510Y0055618D01*
X0145022Y0055618D01*
X0145022Y0056651D02*
X0145510Y0056651D01*
X0145510Y0057684D02*
X0145022Y0057684D01*
X0143053Y0057878D02*
X0143053Y0055618D01*
X0143053Y0057878D02*
X0143541Y0057878D01*
X0143541Y0055618D01*
X0143053Y0055618D01*
X0143053Y0056651D02*
X0143541Y0056651D01*
X0143541Y0057684D02*
X0143053Y0057684D01*
X0141085Y0057878D02*
X0141085Y0055618D01*
X0141085Y0057878D02*
X0141573Y0057878D01*
X0141573Y0055618D01*
X0141085Y0055618D01*
X0141085Y0056651D02*
X0141573Y0056651D01*
X0141573Y0057684D02*
X0141085Y0057684D01*
X0139116Y0057878D02*
X0139116Y0055618D01*
X0139116Y0057878D02*
X0139604Y0057878D01*
X0139604Y0055618D01*
X0139116Y0055618D01*
X0139116Y0056651D02*
X0139604Y0056651D01*
X0139604Y0057684D02*
X0139116Y0057684D01*
D11*
X0146250Y0066000D03*
D12*
X0142974Y0083500D03*
X0138250Y0083500D03*
X0133526Y0083500D03*
D13*
X0079750Y0057500D03*
X0069750Y0057500D03*
X0059750Y0057500D03*
X0048250Y0057500D03*
X0038250Y0057500D03*
X0028250Y0057500D03*
X0028250Y0047500D03*
X0038250Y0047500D03*
X0048250Y0047500D03*
X0059750Y0047500D03*
X0069750Y0047500D03*
X0079750Y0047500D03*
X0079750Y0037500D03*
X0069750Y0037500D03*
X0059750Y0037500D03*
X0048250Y0037500D03*
X0038250Y0037500D03*
X0028250Y0037500D03*
D14*
X0093750Y0055400D03*
X0098750Y0055400D03*
X0103750Y0055400D03*
X0108750Y0055400D03*
X0113750Y0055400D03*
X0118750Y0055400D03*
X0123750Y0055400D03*
X0128750Y0055400D03*
X0170750Y0054900D03*
X0175750Y0054900D03*
X0180750Y0054900D03*
X0185750Y0054900D03*
X0190750Y0054900D03*
X0195750Y0054900D03*
X0200750Y0054900D03*
X0205750Y0054900D03*
X0205750Y0079100D03*
X0200750Y0079100D03*
X0195750Y0079100D03*
X0190750Y0079100D03*
X0185750Y0079100D03*
X0180750Y0079100D03*
X0175750Y0079100D03*
X0170750Y0079100D03*
X0128750Y0079600D03*
X0123750Y0079600D03*
X0118750Y0079600D03*
X0113750Y0079600D03*
X0108750Y0079600D03*
X0103750Y0079600D03*
X0098750Y0079600D03*
X0093750Y0079600D03*
D15*
X0101750Y0116213D02*
X0101750Y0121787D01*
X0111750Y0121787D02*
X0111750Y0116213D01*
X0121750Y0116213D02*
X0121750Y0121787D01*
X0131750Y0121787D02*
X0131750Y0116213D01*
X0141750Y0116213D02*
X0141750Y0121787D01*
X0151750Y0121787D02*
X0151750Y0116213D01*
X0161750Y0116213D02*
X0161750Y0121787D01*
X0171750Y0121787D02*
X0171750Y0116213D01*
X0181750Y0116213D02*
X0181750Y0121787D01*
X0191750Y0121787D02*
X0191750Y0116213D01*
X0201750Y0116213D02*
X0201750Y0121787D01*
X0211750Y0121787D02*
X0211750Y0116213D01*
X0082750Y0025787D02*
X0082750Y0020213D01*
X0072750Y0020213D02*
X0072750Y0025787D01*
X0062750Y0025787D02*
X0062750Y0020213D01*
X0052750Y0020213D02*
X0052750Y0025787D01*
X0101750Y0018287D02*
X0101750Y0012713D01*
X0111750Y0012713D02*
X0111750Y0018287D01*
X0121750Y0018287D02*
X0121750Y0012713D01*
X0131750Y0012713D02*
X0131750Y0018287D01*
X0141750Y0018287D02*
X0141750Y0012713D01*
X0151750Y0012713D02*
X0151750Y0018287D01*
X0161750Y0018287D02*
X0161750Y0012713D01*
X0171750Y0012713D02*
X0171750Y0018287D01*
X0181750Y0018287D02*
X0181750Y0012713D01*
X0191750Y0012713D02*
X0191750Y0018287D01*
X0201750Y0018287D02*
X0201750Y0012713D01*
X0211750Y0012713D02*
X0211750Y0018287D01*
D16*
X0098376Y0034563D03*
D17*
X0106250Y0034563D03*
X0114124Y0034563D03*
X0114124Y0042437D03*
X0106250Y0042437D03*
X0098376Y0042437D03*
D18*
X0030750Y0024000D03*
X0073250Y0031500D03*
X0086750Y0052500D03*
X0089900Y0052500D03*
X0098750Y0066500D03*
X0093750Y0069500D03*
X0114250Y0064000D03*
X0118750Y0061500D03*
X0132750Y0058500D03*
X0132750Y0055350D03*
X0136250Y0054500D03*
X0138977Y0052773D03*
X0146250Y0053500D03*
X0159750Y0052500D03*
X0159750Y0055659D03*
X0159764Y0058809D03*
X0161750Y0061277D03*
X0183750Y0063730D03*
X0187250Y0063730D03*
X0190750Y0063730D03*
X0190750Y0072500D03*
X0195750Y0072500D03*
X0200750Y0072500D03*
X0205750Y0072500D03*
X0209750Y0063000D03*
X0212250Y0060000D03*
X0209750Y0057500D03*
X0167250Y0079500D03*
X0159498Y0075252D03*
X0149645Y0078605D03*
X0137550Y0078100D03*
X0141750Y0102500D03*
X0131750Y0102500D03*
X0121750Y0102500D03*
X0151750Y0102500D03*
X0161750Y0102500D03*
X0171750Y0102500D03*
X0181750Y0102500D03*
X0056750Y0098500D03*
X0053250Y0098500D03*
X0049750Y0098500D03*
X0046250Y0099500D03*
X0046250Y0103000D03*
X0042750Y0103000D03*
X0039250Y0103000D03*
X0039250Y0099500D03*
X0042750Y0099500D03*
X0042750Y0096000D03*
X0039250Y0096000D03*
X0046250Y0096000D03*
X0046250Y0106500D03*
X0042750Y0106500D03*
X0039250Y0106500D03*
X0121750Y0032000D03*
X0131750Y0032000D03*
X0141750Y0032000D03*
X0151750Y0032000D03*
X0161750Y0032000D03*
X0171750Y0032000D03*
X0181750Y0032000D03*
M02*
