G75*
%MOIN*%
%OFA0B0*%
%FSLAX25Y25*%
%IPPOS*%
%LPD*%
%AMOC8*
5,1,8,0,0,1.08239X$1,22.5*
%
%ADD10R,0.06496X0.05709*%
%ADD11OC8,0.06165*%
%ADD12R,0.07677X0.06890*%
%ADD13C,0.06165*%
%ADD14R,0.05765X0.05765*%
%ADD15C,0.05765*%
%ADD16R,0.25000X0.21850*%
%ADD17R,0.06890X0.04528*%
%ADD18R,0.05709X0.06496*%
%ADD19OC8,0.03150*%
D10*
X0035750Y0022260D03*
X0043750Y0022260D03*
X0043750Y0029740D03*
X0035750Y0029740D03*
D11*
X0038250Y0037500D03*
X0028250Y0037500D03*
X0028250Y0047500D03*
X0038250Y0047500D03*
X0048250Y0047500D03*
X0059750Y0047500D03*
X0069750Y0047500D03*
X0079750Y0047500D03*
X0079750Y0037500D03*
X0069750Y0037500D03*
X0059750Y0037500D03*
X0048250Y0037500D03*
X0048250Y0057500D03*
X0038250Y0057500D03*
X0028250Y0057500D03*
X0059750Y0057500D03*
X0069750Y0057500D03*
X0079750Y0057500D03*
D12*
X0121750Y0037012D03*
X0131750Y0037012D03*
X0141750Y0037012D03*
X0151750Y0037012D03*
X0161750Y0037012D03*
X0171750Y0037012D03*
X0181750Y0037012D03*
X0181750Y0025988D03*
X0171750Y0025988D03*
X0161750Y0025988D03*
X0151750Y0025988D03*
X0141750Y0025988D03*
X0131750Y0025988D03*
X0121750Y0025988D03*
X0121750Y0097488D03*
X0131750Y0097488D03*
X0141750Y0097488D03*
X0151750Y0097488D03*
X0161750Y0097488D03*
X0171750Y0097488D03*
X0181750Y0097488D03*
X0181750Y0108512D03*
X0171750Y0108512D03*
X0161750Y0108512D03*
X0151750Y0108512D03*
X0141750Y0108512D03*
X0131750Y0108512D03*
X0121750Y0108512D03*
D13*
X0121750Y0116213D02*
X0121750Y0121787D01*
X0111750Y0121787D02*
X0111750Y0116213D01*
X0101750Y0116213D02*
X0101750Y0121787D01*
X0131750Y0121787D02*
X0131750Y0116213D01*
X0141750Y0116213D02*
X0141750Y0121787D01*
X0151750Y0121787D02*
X0151750Y0116213D01*
X0161750Y0116213D02*
X0161750Y0121787D01*
X0171750Y0121787D02*
X0171750Y0116213D01*
X0181750Y0116213D02*
X0181750Y0121787D01*
X0191750Y0121787D02*
X0191750Y0116213D01*
X0201750Y0116213D02*
X0201750Y0121787D01*
X0211750Y0121787D02*
X0211750Y0116213D01*
X0082750Y0025787D02*
X0082750Y0020213D01*
X0072750Y0020213D02*
X0072750Y0025787D01*
X0062750Y0025787D02*
X0062750Y0020213D01*
X0052750Y0020213D02*
X0052750Y0025787D01*
X0101750Y0018287D02*
X0101750Y0012713D01*
X0111750Y0012713D02*
X0111750Y0018287D01*
X0121750Y0018287D02*
X0121750Y0012713D01*
X0131750Y0012713D02*
X0131750Y0018287D01*
X0141750Y0018287D02*
X0141750Y0012713D01*
X0151750Y0012713D02*
X0151750Y0018287D01*
X0161750Y0018287D02*
X0161750Y0012713D01*
X0171750Y0012713D02*
X0171750Y0018287D01*
X0181750Y0018287D02*
X0181750Y0012713D01*
X0191750Y0012713D02*
X0191750Y0018287D01*
X0201750Y0018287D02*
X0201750Y0012713D01*
X0211750Y0012713D02*
X0211750Y0018287D01*
D14*
X0098376Y0034563D03*
D15*
X0106250Y0034563D03*
X0114124Y0034563D03*
X0114124Y0042437D03*
X0106250Y0042437D03*
X0098376Y0042437D03*
D16*
X0081093Y0094000D03*
D17*
X0052352Y0085024D03*
X0052352Y0102976D03*
D18*
X0045990Y0085000D03*
X0038510Y0085000D03*
D19*
X0039250Y0096000D03*
X0042750Y0096000D03*
X0046250Y0096000D03*
X0049750Y0098500D03*
X0053250Y0098500D03*
X0056750Y0098500D03*
X0046250Y0099500D03*
X0046250Y0103000D03*
X0042750Y0103000D03*
X0039250Y0103000D03*
X0039250Y0099500D03*
X0042750Y0099500D03*
X0042750Y0106500D03*
X0039250Y0106500D03*
X0046250Y0106500D03*
X0093750Y0069500D03*
X0098750Y0066500D03*
X0114250Y0064000D03*
X0118750Y0061500D03*
X0132750Y0058500D03*
X0132750Y0055350D03*
X0136250Y0054500D03*
X0138977Y0052773D03*
X0146250Y0053500D03*
X0159750Y0052500D03*
X0159750Y0055659D03*
X0159764Y0058809D03*
X0161750Y0061277D03*
X0183750Y0063730D03*
X0187250Y0063730D03*
X0190750Y0063730D03*
X0190750Y0072500D03*
X0195750Y0072500D03*
X0200750Y0072500D03*
X0205750Y0072500D03*
X0209750Y0063000D03*
X0212250Y0060000D03*
X0209750Y0057500D03*
X0167250Y0079500D03*
X0159498Y0075252D03*
X0149645Y0078605D03*
X0137550Y0078100D03*
X0141750Y0102500D03*
X0131750Y0102500D03*
X0121750Y0102500D03*
X0151750Y0102500D03*
X0161750Y0102500D03*
X0171750Y0102500D03*
X0181750Y0102500D03*
X0089900Y0052500D03*
X0086750Y0052500D03*
X0073250Y0031500D03*
X0030750Y0024000D03*
X0121750Y0032000D03*
X0131750Y0032000D03*
X0141750Y0032000D03*
X0151750Y0032000D03*
X0161750Y0032000D03*
X0171750Y0032000D03*
X0181750Y0032000D03*
M02*
