G75*
%MOIN*%
%OFA0B0*%
%FSLAX25Y25*%
%IPPOS*%
%LPD*%
%AMOC8*
5,1,8,0,0,1.08239X$1,22.5*
%
%ADD10R,0.05906X0.05118*%
%ADD11OC8,0.05575*%
%ADD12R,0.07087X0.06299*%
%ADD13C,0.05575*%
%ADD14R,0.05175X0.05175*%
%ADD15C,0.05175*%
%ADD16R,0.24409X0.21260*%
%ADD17R,0.06299X0.03937*%
%ADD18R,0.05118X0.05906*%
%ADD19OC8,0.02559*%
%ADD20C,0.00500*%
%ADD21C,0.00800*%
%ADD22C,0.02000*%
%ADD23C,0.01600*%
%ADD24C,0.03200*%
D10*
X0035750Y0022260D03*
X0043750Y0022260D03*
X0043750Y0029740D03*
X0035750Y0029740D03*
D11*
X0038250Y0037500D03*
X0028250Y0037500D03*
X0028250Y0047500D03*
X0038250Y0047500D03*
X0048250Y0047500D03*
X0059750Y0047500D03*
X0069750Y0047500D03*
X0079750Y0047500D03*
X0079750Y0037500D03*
X0069750Y0037500D03*
X0059750Y0037500D03*
X0048250Y0037500D03*
X0048250Y0057500D03*
X0038250Y0057500D03*
X0028250Y0057500D03*
X0059750Y0057500D03*
X0069750Y0057500D03*
X0079750Y0057500D03*
D12*
X0121750Y0037012D03*
X0131750Y0037012D03*
X0141750Y0037012D03*
X0151750Y0037012D03*
X0161750Y0037012D03*
X0171750Y0037012D03*
X0181750Y0037012D03*
X0181750Y0025988D03*
X0171750Y0025988D03*
X0161750Y0025988D03*
X0151750Y0025988D03*
X0141750Y0025988D03*
X0131750Y0025988D03*
X0121750Y0025988D03*
X0121750Y0097488D03*
X0131750Y0097488D03*
X0141750Y0097488D03*
X0151750Y0097488D03*
X0161750Y0097488D03*
X0171750Y0097488D03*
X0181750Y0097488D03*
X0181750Y0108512D03*
X0171750Y0108512D03*
X0161750Y0108512D03*
X0151750Y0108512D03*
X0141750Y0108512D03*
X0131750Y0108512D03*
X0121750Y0108512D03*
D13*
X0121750Y0116213D02*
X0121750Y0121787D01*
X0111750Y0121787D02*
X0111750Y0116213D01*
X0101750Y0116213D02*
X0101750Y0121787D01*
X0131750Y0121787D02*
X0131750Y0116213D01*
X0141750Y0116213D02*
X0141750Y0121787D01*
X0151750Y0121787D02*
X0151750Y0116213D01*
X0161750Y0116213D02*
X0161750Y0121787D01*
X0171750Y0121787D02*
X0171750Y0116213D01*
X0181750Y0116213D02*
X0181750Y0121787D01*
X0191750Y0121787D02*
X0191750Y0116213D01*
X0201750Y0116213D02*
X0201750Y0121787D01*
X0211750Y0121787D02*
X0211750Y0116213D01*
X0082750Y0025787D02*
X0082750Y0020213D01*
X0072750Y0020213D02*
X0072750Y0025787D01*
X0062750Y0025787D02*
X0062750Y0020213D01*
X0052750Y0020213D02*
X0052750Y0025787D01*
X0101750Y0018287D02*
X0101750Y0012713D01*
X0111750Y0012713D02*
X0111750Y0018287D01*
X0121750Y0018287D02*
X0121750Y0012713D01*
X0131750Y0012713D02*
X0131750Y0018287D01*
X0141750Y0018287D02*
X0141750Y0012713D01*
X0151750Y0012713D02*
X0151750Y0018287D01*
X0161750Y0018287D02*
X0161750Y0012713D01*
X0171750Y0012713D02*
X0171750Y0018287D01*
X0181750Y0018287D02*
X0181750Y0012713D01*
X0191750Y0012713D02*
X0191750Y0018287D01*
X0201750Y0018287D02*
X0201750Y0012713D01*
X0211750Y0012713D02*
X0211750Y0018287D01*
D14*
X0098376Y0034563D03*
D15*
X0106250Y0034563D03*
X0114124Y0034563D03*
X0114124Y0042437D03*
X0106250Y0042437D03*
X0098376Y0042437D03*
D16*
X0081093Y0094000D03*
D17*
X0052352Y0085024D03*
X0052352Y0102976D03*
D18*
X0045990Y0085000D03*
X0038510Y0085000D03*
D19*
X0039250Y0096000D03*
X0042750Y0096000D03*
X0046250Y0096000D03*
X0049750Y0098500D03*
X0053250Y0098500D03*
X0056750Y0098500D03*
X0046250Y0099500D03*
X0046250Y0103000D03*
X0042750Y0103000D03*
X0039250Y0103000D03*
X0039250Y0099500D03*
X0042750Y0099500D03*
X0042750Y0106500D03*
X0039250Y0106500D03*
X0046250Y0106500D03*
X0093750Y0069500D03*
X0098750Y0066500D03*
X0114250Y0064000D03*
X0118750Y0061500D03*
X0132750Y0058500D03*
X0132750Y0055350D03*
X0136250Y0054500D03*
X0138977Y0052773D03*
X0146250Y0053500D03*
X0159750Y0052500D03*
X0159750Y0055659D03*
X0159764Y0058809D03*
X0161750Y0061277D03*
X0183750Y0063730D03*
X0187250Y0063730D03*
X0190750Y0063730D03*
X0190750Y0072500D03*
X0195750Y0072500D03*
X0200750Y0072500D03*
X0205750Y0072500D03*
X0209750Y0063000D03*
X0212250Y0060000D03*
X0209750Y0057500D03*
X0167250Y0079500D03*
X0159498Y0075252D03*
X0149645Y0078605D03*
X0137550Y0078100D03*
X0141750Y0102500D03*
X0131750Y0102500D03*
X0121750Y0102500D03*
X0151750Y0102500D03*
X0161750Y0102500D03*
X0171750Y0102500D03*
X0181750Y0102500D03*
X0089900Y0052500D03*
X0086750Y0052500D03*
X0073250Y0031500D03*
X0030750Y0024000D03*
X0121750Y0032000D03*
X0131750Y0032000D03*
X0141750Y0032000D03*
X0151750Y0032000D03*
X0161750Y0032000D03*
X0171750Y0032000D03*
X0181750Y0032000D03*
D20*
X0183870Y0031929D02*
X0217543Y0031929D01*
X0217543Y0032427D02*
X0183870Y0032427D01*
X0183870Y0032878D02*
X0183870Y0031122D01*
X0182727Y0029978D01*
X0185641Y0029978D01*
X0186134Y0029486D01*
X0186134Y0022490D01*
X0185641Y0021998D01*
X0183591Y0021998D01*
X0183591Y0021452D01*
X0183805Y0021363D01*
X0184826Y0020342D01*
X0185378Y0019009D01*
X0185378Y0011991D01*
X0184826Y0010658D01*
X0183805Y0009637D01*
X0183308Y0009431D01*
X0190192Y0009431D01*
X0189695Y0009637D01*
X0188674Y0010658D01*
X0188122Y0011991D01*
X0188122Y0019009D01*
X0188674Y0020342D01*
X0189695Y0021363D01*
X0191028Y0021915D01*
X0192472Y0021915D01*
X0193805Y0021363D01*
X0194826Y0020342D01*
X0195378Y0019009D01*
X0195378Y0011991D01*
X0194826Y0010658D01*
X0193805Y0009637D01*
X0193308Y0009431D01*
X0200192Y0009431D01*
X0199695Y0009637D01*
X0198674Y0010658D01*
X0198122Y0011991D01*
X0198122Y0019009D01*
X0198674Y0020342D01*
X0199695Y0021363D01*
X0201028Y0021915D01*
X0202472Y0021915D01*
X0203805Y0021363D01*
X0204826Y0020342D01*
X0205378Y0019009D01*
X0205378Y0011991D01*
X0204826Y0010658D01*
X0203805Y0009637D01*
X0203308Y0009431D01*
X0217543Y0009431D01*
X0217543Y0124679D01*
X0203989Y0124679D01*
X0204826Y0123842D01*
X0205378Y0122509D01*
X0205378Y0115491D01*
X0204826Y0114158D01*
X0203805Y0113137D01*
X0202472Y0112585D01*
X0201028Y0112585D01*
X0199695Y0113137D01*
X0198674Y0114158D01*
X0198122Y0115491D01*
X0198122Y0122509D01*
X0198674Y0123842D01*
X0199511Y0124679D01*
X0193989Y0124679D01*
X0194826Y0123842D01*
X0195378Y0122509D01*
X0195378Y0115491D01*
X0194826Y0114158D01*
X0193805Y0113137D01*
X0192472Y0112585D01*
X0191028Y0112585D01*
X0189695Y0113137D01*
X0188674Y0114158D01*
X0188122Y0115491D01*
X0188122Y0122509D01*
X0188674Y0123842D01*
X0189511Y0124679D01*
X0183989Y0124679D01*
X0184826Y0123842D01*
X0185378Y0122509D01*
X0185378Y0115491D01*
X0184826Y0114158D01*
X0183805Y0113137D01*
X0183591Y0113048D01*
X0183591Y0112502D01*
X0185641Y0112502D01*
X0186134Y0112010D01*
X0186134Y0105014D01*
X0185641Y0104522D01*
X0182727Y0104522D01*
X0183870Y0103378D01*
X0183870Y0101622D01*
X0183727Y0101478D01*
X0185641Y0101478D01*
X0186134Y0100986D01*
X0186134Y0093990D01*
X0185641Y0093498D01*
X0177859Y0093498D01*
X0177366Y0093990D01*
X0177366Y0100986D01*
X0177859Y0101478D01*
X0179773Y0101478D01*
X0179630Y0101622D01*
X0179630Y0103378D01*
X0180773Y0104522D01*
X0177859Y0104522D01*
X0177366Y0105014D01*
X0177366Y0112010D01*
X0177859Y0112502D01*
X0179909Y0112502D01*
X0179909Y0113048D01*
X0179695Y0113137D01*
X0178674Y0114158D01*
X0178122Y0115491D01*
X0178122Y0122509D01*
X0178674Y0123842D01*
X0179511Y0124679D01*
X0173989Y0124679D01*
X0174826Y0123842D01*
X0175378Y0122509D01*
X0175378Y0115491D01*
X0174826Y0114158D01*
X0173805Y0113137D01*
X0173591Y0113048D01*
X0173591Y0112502D01*
X0175641Y0112502D01*
X0176134Y0112010D01*
X0176134Y0105014D01*
X0175641Y0104522D01*
X0172727Y0104522D01*
X0173870Y0103378D01*
X0173870Y0101622D01*
X0173727Y0101478D01*
X0175641Y0101478D01*
X0176134Y0100986D01*
X0176134Y0093990D01*
X0175641Y0093498D01*
X0167859Y0093498D01*
X0167366Y0093990D01*
X0167366Y0100986D01*
X0167859Y0101478D01*
X0169773Y0101478D01*
X0169630Y0101622D01*
X0169630Y0103378D01*
X0170773Y0104522D01*
X0167859Y0104522D01*
X0167366Y0105014D01*
X0167366Y0112010D01*
X0167859Y0112502D01*
X0169909Y0112502D01*
X0169909Y0113048D01*
X0169695Y0113137D01*
X0168674Y0114158D01*
X0168122Y0115491D01*
X0168122Y0122509D01*
X0168674Y0123842D01*
X0169511Y0124679D01*
X0163989Y0124679D01*
X0164826Y0123842D01*
X0165378Y0122509D01*
X0165378Y0115491D01*
X0164826Y0114158D01*
X0163805Y0113137D01*
X0163591Y0113048D01*
X0163591Y0112502D01*
X0165641Y0112502D01*
X0166134Y0112010D01*
X0166134Y0105014D01*
X0165641Y0104522D01*
X0162727Y0104522D01*
X0163870Y0103378D01*
X0163870Y0101622D01*
X0163727Y0101478D01*
X0165641Y0101478D01*
X0166134Y0100986D01*
X0166134Y0093990D01*
X0165641Y0093498D01*
X0157859Y0093498D01*
X0157366Y0093990D01*
X0157366Y0100986D01*
X0157859Y0101478D01*
X0159773Y0101478D01*
X0159630Y0101622D01*
X0159630Y0103378D01*
X0160773Y0104522D01*
X0157859Y0104522D01*
X0157366Y0105014D01*
X0157366Y0112010D01*
X0157859Y0112502D01*
X0159909Y0112502D01*
X0159909Y0113048D01*
X0159695Y0113137D01*
X0158674Y0114158D01*
X0158122Y0115491D01*
X0158122Y0122509D01*
X0158674Y0123842D01*
X0159511Y0124679D01*
X0153989Y0124679D01*
X0154826Y0123842D01*
X0155378Y0122509D01*
X0155378Y0115491D01*
X0154826Y0114158D01*
X0153805Y0113137D01*
X0153591Y0113048D01*
X0153591Y0112502D01*
X0155641Y0112502D01*
X0156134Y0112010D01*
X0156134Y0105014D01*
X0155641Y0104522D01*
X0152727Y0104522D01*
X0153870Y0103378D01*
X0153870Y0101622D01*
X0153727Y0101478D01*
X0155641Y0101478D01*
X0156134Y0100986D01*
X0156134Y0093990D01*
X0155641Y0093498D01*
X0147859Y0093498D01*
X0147366Y0093990D01*
X0147366Y0100986D01*
X0147859Y0101478D01*
X0149773Y0101478D01*
X0149630Y0101622D01*
X0149630Y0103378D01*
X0150773Y0104522D01*
X0147859Y0104522D01*
X0147366Y0105014D01*
X0147366Y0112010D01*
X0147859Y0112502D01*
X0149909Y0112502D01*
X0149909Y0113048D01*
X0149695Y0113137D01*
X0148674Y0114158D01*
X0148122Y0115491D01*
X0148122Y0122509D01*
X0148674Y0123842D01*
X0149511Y0124679D01*
X0143989Y0124679D01*
X0144826Y0123842D01*
X0145378Y0122509D01*
X0145378Y0115491D01*
X0144826Y0114158D01*
X0143805Y0113137D01*
X0143591Y0113048D01*
X0143591Y0112502D01*
X0145641Y0112502D01*
X0146134Y0112010D01*
X0146134Y0105014D01*
X0145641Y0104522D01*
X0142727Y0104522D01*
X0143870Y0103378D01*
X0143870Y0101622D01*
X0143727Y0101478D01*
X0145641Y0101478D01*
X0146134Y0100986D01*
X0146134Y0093990D01*
X0145641Y0093498D01*
X0137859Y0093498D01*
X0137366Y0093990D01*
X0137366Y0100986D01*
X0137859Y0101478D01*
X0139773Y0101478D01*
X0139630Y0101622D01*
X0139630Y0103378D01*
X0140773Y0104522D01*
X0137859Y0104522D01*
X0137366Y0105014D01*
X0137366Y0112010D01*
X0137859Y0112502D01*
X0139909Y0112502D01*
X0139909Y0113048D01*
X0139695Y0113137D01*
X0138674Y0114158D01*
X0138122Y0115491D01*
X0138122Y0122509D01*
X0138674Y0123842D01*
X0139511Y0124679D01*
X0133989Y0124679D01*
X0134826Y0123842D01*
X0135378Y0122509D01*
X0135378Y0115491D01*
X0134826Y0114158D01*
X0133805Y0113137D01*
X0133591Y0113048D01*
X0133591Y0112502D01*
X0135641Y0112502D01*
X0136134Y0112010D01*
X0136134Y0105014D01*
X0135641Y0104522D01*
X0132727Y0104522D01*
X0133870Y0103378D01*
X0133870Y0101622D01*
X0133727Y0101478D01*
X0135641Y0101478D01*
X0136134Y0100986D01*
X0136134Y0093990D01*
X0135641Y0093498D01*
X0127859Y0093498D01*
X0127366Y0093990D01*
X0127366Y0100986D01*
X0127859Y0101478D01*
X0129773Y0101478D01*
X0129630Y0101622D01*
X0129630Y0103378D01*
X0130773Y0104522D01*
X0127859Y0104522D01*
X0127366Y0105014D01*
X0127366Y0112010D01*
X0127859Y0112502D01*
X0129909Y0112502D01*
X0129909Y0113048D01*
X0129695Y0113137D01*
X0128674Y0114158D01*
X0128122Y0115491D01*
X0128122Y0122509D01*
X0128674Y0123842D01*
X0129511Y0124679D01*
X0123989Y0124679D01*
X0124826Y0123842D01*
X0125378Y0122509D01*
X0125378Y0115491D01*
X0124826Y0114158D01*
X0123805Y0113137D01*
X0123591Y0113048D01*
X0123591Y0112502D01*
X0125641Y0112502D01*
X0126134Y0112010D01*
X0126134Y0105014D01*
X0125641Y0104522D01*
X0122727Y0104522D01*
X0123870Y0103378D01*
X0123870Y0101622D01*
X0123727Y0101478D01*
X0125641Y0101478D01*
X0126134Y0100986D01*
X0126134Y0093990D01*
X0125641Y0093498D01*
X0117859Y0093498D01*
X0117366Y0093990D01*
X0117366Y0100986D01*
X0117859Y0101478D01*
X0119773Y0101478D01*
X0119630Y0101622D01*
X0119630Y0103378D01*
X0120773Y0104522D01*
X0117859Y0104522D01*
X0117366Y0105014D01*
X0117366Y0112010D01*
X0117859Y0112502D01*
X0119909Y0112502D01*
X0119909Y0113048D01*
X0119695Y0113137D01*
X0118674Y0114158D01*
X0118122Y0115491D01*
X0118122Y0122509D01*
X0118674Y0123842D01*
X0119511Y0124679D01*
X0107491Y0124679D01*
X0107491Y0111486D01*
X0106764Y0110759D01*
X0096491Y0110759D01*
X0096491Y0081486D01*
X0095764Y0080759D01*
X0066736Y0080759D01*
X0066009Y0081486D01*
X0066009Y0092759D01*
X0036236Y0092759D01*
X0035509Y0093486D01*
X0035509Y0110266D01*
X0026991Y0110266D01*
X0026991Y0051128D01*
X0029753Y0051128D01*
X0031509Y0049371D01*
X0031509Y0074014D01*
X0032236Y0074741D01*
X0033261Y0075766D01*
X0033988Y0076493D01*
X0157740Y0076493D01*
X0158620Y0077372D01*
X0160376Y0077372D01*
X0161618Y0076130D01*
X0161618Y0074374D01*
X0160376Y0073132D01*
X0158620Y0073132D01*
X0157740Y0074011D01*
X0035016Y0074011D01*
X0033991Y0072986D01*
X0033991Y0041486D01*
X0033264Y0040759D01*
X0033264Y0040759D01*
X0031693Y0039188D01*
X0031878Y0039003D01*
X0031878Y0035997D01*
X0029753Y0033872D01*
X0026991Y0033872D01*
X0026991Y0025741D01*
X0029492Y0025741D01*
X0029872Y0026120D01*
X0031628Y0026120D01*
X0032008Y0025741D01*
X0059122Y0025741D01*
X0059122Y0026509D01*
X0059674Y0027842D01*
X0060695Y0028863D01*
X0062028Y0029415D01*
X0063472Y0029415D01*
X0064805Y0028863D01*
X0065826Y0027842D01*
X0066378Y0026509D01*
X0066378Y0025741D01*
X0069122Y0025741D01*
X0069122Y0026509D01*
X0069674Y0027842D01*
X0070695Y0028863D01*
X0072028Y0029415D01*
X0072336Y0029415D01*
X0071492Y0030259D01*
X0047543Y0030259D01*
X0047543Y0026833D01*
X0047051Y0026341D01*
X0040449Y0026341D01*
X0039957Y0026833D01*
X0039957Y0028500D01*
X0039543Y0028500D01*
X0039543Y0026833D01*
X0039051Y0026341D01*
X0032449Y0026341D01*
X0031957Y0026833D01*
X0031957Y0032647D01*
X0032449Y0033140D01*
X0039051Y0033140D01*
X0039543Y0032647D01*
X0039543Y0030981D01*
X0039957Y0030981D01*
X0039957Y0032647D01*
X0040449Y0033140D01*
X0047051Y0033140D01*
X0047450Y0032741D01*
X0071492Y0032741D01*
X0072372Y0033620D01*
X0074128Y0033620D01*
X0075008Y0032741D01*
X0081736Y0032741D01*
X0085009Y0036014D01*
X0085009Y0041005D01*
X0084764Y0040759D01*
X0083193Y0039188D01*
X0083378Y0039003D01*
X0083378Y0035997D01*
X0081253Y0033872D01*
X0078247Y0033872D01*
X0076122Y0035997D01*
X0076122Y0039003D01*
X0078247Y0041128D01*
X0081253Y0041128D01*
X0081438Y0040943D01*
X0083009Y0042514D01*
X0083009Y0045629D01*
X0081253Y0043872D01*
X0078247Y0043872D01*
X0076122Y0045997D01*
X0076122Y0049003D01*
X0078247Y0051128D01*
X0081253Y0051128D01*
X0083009Y0049371D01*
X0083009Y0057514D01*
X0083736Y0058241D01*
X0085236Y0059741D01*
X0117511Y0059741D01*
X0116992Y0060259D01*
X0076264Y0060259D01*
X0075491Y0059486D01*
X0075491Y0041486D01*
X0074764Y0040759D01*
X0073193Y0039188D01*
X0073378Y0039003D01*
X0073378Y0035997D01*
X0071253Y0033872D01*
X0068247Y0033872D01*
X0066122Y0035997D01*
X0066122Y0039003D01*
X0068247Y0041128D01*
X0071253Y0041128D01*
X0071438Y0040943D01*
X0073009Y0042514D01*
X0073009Y0045629D01*
X0071253Y0043872D01*
X0068247Y0043872D01*
X0066122Y0045997D01*
X0066122Y0049003D01*
X0068247Y0051128D01*
X0071253Y0051128D01*
X0073009Y0049371D01*
X0073009Y0060514D01*
X0073736Y0061241D01*
X0075236Y0062741D01*
X0112511Y0062741D01*
X0112492Y0062759D01*
X0066764Y0062759D01*
X0065491Y0061486D01*
X0065491Y0041486D01*
X0064764Y0040759D01*
X0064764Y0040759D01*
X0063193Y0039188D01*
X0063378Y0039003D01*
X0063378Y0035997D01*
X0061253Y0033872D01*
X0058247Y0033872D01*
X0056122Y0035997D01*
X0056122Y0039003D01*
X0058247Y0041128D01*
X0061253Y0041128D01*
X0061438Y0040943D01*
X0063009Y0042514D01*
X0063009Y0045629D01*
X0061253Y0043872D01*
X0058247Y0043872D01*
X0056122Y0045997D01*
X0056122Y0049003D01*
X0058247Y0051128D01*
X0061253Y0051128D01*
X0063009Y0049371D01*
X0063009Y0062514D01*
X0063736Y0063241D01*
X0065736Y0065241D01*
X0097011Y0065241D01*
X0096992Y0065259D01*
X0055264Y0065259D01*
X0053991Y0063986D01*
X0053991Y0041486D01*
X0053264Y0040759D01*
X0051693Y0039188D01*
X0051878Y0039003D01*
X0051878Y0035997D01*
X0049753Y0033872D01*
X0046747Y0033872D01*
X0044622Y0035997D01*
X0044622Y0039003D01*
X0046747Y0041128D01*
X0049753Y0041128D01*
X0049938Y0040943D01*
X0051509Y0042514D01*
X0051509Y0045629D01*
X0049753Y0043872D01*
X0046747Y0043872D01*
X0044622Y0045997D01*
X0044622Y0049003D01*
X0046747Y0051128D01*
X0049753Y0051128D01*
X0051509Y0049371D01*
X0051509Y0065014D01*
X0052236Y0065741D01*
X0054236Y0067741D01*
X0092511Y0067741D01*
X0091992Y0068259D01*
X0044764Y0068259D01*
X0043991Y0067486D01*
X0043991Y0041486D01*
X0043264Y0040759D01*
X0041693Y0039188D01*
X0041878Y0039003D01*
X0041878Y0035997D01*
X0039753Y0033872D01*
X0036747Y0033872D01*
X0034622Y0035997D01*
X0034622Y0039003D01*
X0036747Y0041128D01*
X0039753Y0041128D01*
X0039938Y0040943D01*
X0041509Y0042514D01*
X0041509Y0045629D01*
X0039753Y0043872D01*
X0036747Y0043872D01*
X0034622Y0045997D01*
X0034622Y0049003D01*
X0036747Y0051128D01*
X0039753Y0051128D01*
X0041509Y0049371D01*
X0041509Y0068514D01*
X0042236Y0069241D01*
X0043736Y0070741D01*
X0091992Y0070741D01*
X0092872Y0071620D01*
X0094628Y0071620D01*
X0095870Y0070378D01*
X0095870Y0068622D01*
X0094989Y0067741D01*
X0096992Y0067741D01*
X0097872Y0068620D01*
X0099628Y0068620D01*
X0100870Y0067378D01*
X0100870Y0065622D01*
X0100489Y0065241D01*
X0112492Y0065241D01*
X0113372Y0066120D01*
X0115128Y0066120D01*
X0116370Y0064878D01*
X0116370Y0063122D01*
X0115989Y0062741D01*
X0116992Y0062741D01*
X0117872Y0063620D01*
X0119628Y0063620D01*
X0120870Y0062378D01*
X0120870Y0060622D01*
X0119989Y0059741D01*
X0130992Y0059741D01*
X0131872Y0060620D01*
X0133628Y0060620D01*
X0134870Y0059378D01*
X0134870Y0057622D01*
X0133628Y0056380D01*
X0131872Y0056380D01*
X0130992Y0057259D01*
X0127745Y0057259D01*
X0127991Y0057014D01*
X0127991Y0057014D01*
X0130764Y0054241D01*
X0134130Y0054241D01*
X0134130Y0055378D01*
X0135372Y0056620D01*
X0137128Y0056620D01*
X0138370Y0055378D01*
X0138370Y0054893D01*
X0139855Y0054893D01*
X0141097Y0053651D01*
X0141097Y0051895D01*
X0139855Y0050653D01*
X0138611Y0050653D01*
X0138218Y0050259D01*
X0128736Y0050259D01*
X0125236Y0053759D01*
X0092913Y0053759D01*
X0092020Y0052866D01*
X0126130Y0052866D01*
X0126628Y0052368D02*
X0092020Y0052368D01*
X0092020Y0052866D02*
X0092020Y0051622D01*
X0090778Y0050380D01*
X0089021Y0050380D01*
X0088325Y0051077D01*
X0087628Y0050380D01*
X0085872Y0050380D01*
X0085491Y0050761D01*
X0085491Y0048495D01*
X0085736Y0048741D01*
X0087236Y0050241D01*
X0152236Y0050241D01*
X0152739Y0050744D01*
X0153466Y0051470D01*
X0157781Y0051470D01*
X0157630Y0051622D01*
X0157630Y0053378D01*
X0158331Y0054080D01*
X0157630Y0054781D01*
X0157630Y0056537D01*
X0158334Y0057241D01*
X0157644Y0057930D01*
X0157644Y0059687D01*
X0158886Y0060929D01*
X0159630Y0060929D01*
X0159630Y0062155D01*
X0160872Y0063397D01*
X0162116Y0063397D01*
X0171732Y0073014D01*
X0172459Y0073741D01*
X0188992Y0073741D01*
X0189872Y0074620D01*
X0191628Y0074620D01*
X0192870Y0073378D01*
X0192870Y0071622D01*
X0192489Y0071241D01*
X0192736Y0071241D01*
X0193630Y0072134D01*
X0193630Y0073378D01*
X0194872Y0074620D01*
X0196628Y0074620D01*
X0197870Y0073378D01*
X0197870Y0071622D01*
X0196628Y0070380D01*
X0195384Y0070380D01*
X0194491Y0069486D01*
X0194245Y0069241D01*
X0195736Y0069241D01*
X0198630Y0072134D01*
X0198630Y0073378D01*
X0199872Y0074620D01*
X0201628Y0074620D01*
X0202870Y0073378D01*
X0202870Y0071622D01*
X0201628Y0070380D01*
X0200384Y0070380D01*
X0197491Y0067486D01*
X0197245Y0067241D01*
X0198736Y0067241D01*
X0203630Y0072134D01*
X0203630Y0073378D01*
X0204872Y0074620D01*
X0206628Y0074620D01*
X0207870Y0073378D01*
X0207870Y0071622D01*
X0206628Y0070380D01*
X0205384Y0070380D01*
X0200491Y0065486D01*
X0199764Y0064759D01*
X0192719Y0064759D01*
X0192870Y0064608D01*
X0192870Y0062852D01*
X0191628Y0061610D01*
X0190384Y0061610D01*
X0187264Y0058489D01*
X0176264Y0058489D01*
X0163480Y0045705D01*
X0162753Y0044978D01*
X0108556Y0044978D01*
X0109156Y0044379D01*
X0109678Y0043119D01*
X0109678Y0041755D01*
X0109156Y0040495D01*
X0108192Y0039531D01*
X0106932Y0039009D01*
X0105568Y0039009D01*
X0104308Y0039531D01*
X0103344Y0040495D01*
X0102822Y0041755D01*
X0102822Y0043119D01*
X0103344Y0044379D01*
X0103944Y0044978D01*
X0100682Y0044978D01*
X0101282Y0044379D01*
X0101804Y0043119D01*
X0101804Y0041755D01*
X0101282Y0040495D01*
X0100318Y0039531D01*
X0099058Y0039009D01*
X0097694Y0039009D01*
X0096434Y0039531D01*
X0095470Y0040495D01*
X0094948Y0041755D01*
X0094948Y0043119D01*
X0095470Y0044379D01*
X0096069Y0044978D01*
X0090491Y0044978D01*
X0090491Y0033486D01*
X0090241Y0033236D01*
X0085336Y0028332D01*
X0085826Y0027842D01*
X0086378Y0026509D01*
X0086378Y0025741D01*
X0106764Y0025741D01*
X0107491Y0025014D01*
X0107491Y0009431D01*
X0120192Y0009431D01*
X0119695Y0009637D01*
X0118674Y0010658D01*
X0118122Y0011991D01*
X0118122Y0019009D01*
X0118674Y0020342D01*
X0119695Y0021363D01*
X0119909Y0021452D01*
X0119909Y0021998D01*
X0117859Y0021998D01*
X0117366Y0022490D01*
X0117366Y0029486D01*
X0117859Y0029978D01*
X0120773Y0029978D01*
X0119630Y0031122D01*
X0119630Y0032878D01*
X0119773Y0033022D01*
X0117859Y0033022D01*
X0117390Y0033490D01*
X0117030Y0032621D01*
X0116066Y0031657D01*
X0114806Y0031135D01*
X0113442Y0031135D01*
X0112182Y0031657D01*
X0111218Y0032621D01*
X0110696Y0033881D01*
X0110696Y0035245D01*
X0111218Y0036505D01*
X0112182Y0037469D01*
X0113442Y0037991D01*
X0114806Y0037991D01*
X0116066Y0037469D01*
X0117030Y0036505D01*
X0117366Y0035693D01*
X0117366Y0040510D01*
X0117859Y0041002D01*
X0125641Y0041002D01*
X0126134Y0040510D01*
X0126134Y0033514D01*
X0125641Y0033022D01*
X0123727Y0033022D01*
X0123870Y0032878D01*
X0123870Y0031122D01*
X0122727Y0029978D01*
X0125641Y0029978D01*
X0126134Y0029486D01*
X0126134Y0022490D01*
X0125641Y0021998D01*
X0123591Y0021998D01*
X0123591Y0021452D01*
X0123805Y0021363D01*
X0124826Y0020342D01*
X0125378Y0019009D01*
X0125378Y0011991D01*
X0124826Y0010658D01*
X0123805Y0009637D01*
X0123308Y0009431D01*
X0130192Y0009431D01*
X0129695Y0009637D01*
X0128674Y0010658D01*
X0128122Y0011991D01*
X0128122Y0019009D01*
X0128674Y0020342D01*
X0129695Y0021363D01*
X0129909Y0021452D01*
X0129909Y0021998D01*
X0127859Y0021998D01*
X0127366Y0022490D01*
X0127366Y0029486D01*
X0127859Y0029978D01*
X0130773Y0029978D01*
X0129630Y0031122D01*
X0129630Y0032878D01*
X0129773Y0033022D01*
X0127859Y0033022D01*
X0127366Y0033514D01*
X0127366Y0040510D01*
X0127859Y0041002D01*
X0135641Y0041002D01*
X0136134Y0040510D01*
X0136134Y0033514D01*
X0135641Y0033022D01*
X0133727Y0033022D01*
X0133870Y0032878D01*
X0133870Y0031122D01*
X0132727Y0029978D01*
X0135641Y0029978D01*
X0136134Y0029486D01*
X0136134Y0022490D01*
X0135641Y0021998D01*
X0133591Y0021998D01*
X0133591Y0021452D01*
X0133805Y0021363D01*
X0134826Y0020342D01*
X0135378Y0019009D01*
X0135378Y0011991D01*
X0134826Y0010658D01*
X0133805Y0009637D01*
X0133308Y0009431D01*
X0140192Y0009431D01*
X0139695Y0009637D01*
X0138674Y0010658D01*
X0138122Y0011991D01*
X0138122Y0019009D01*
X0138674Y0020342D01*
X0139695Y0021363D01*
X0139909Y0021452D01*
X0139909Y0021998D01*
X0137859Y0021998D01*
X0137366Y0022490D01*
X0137366Y0029486D01*
X0137859Y0029978D01*
X0140773Y0029978D01*
X0139630Y0031122D01*
X0139630Y0032878D01*
X0139773Y0033022D01*
X0137859Y0033022D01*
X0137366Y0033514D01*
X0137366Y0040510D01*
X0137859Y0041002D01*
X0145641Y0041002D01*
X0146134Y0040510D01*
X0146134Y0033514D01*
X0145641Y0033022D01*
X0143727Y0033022D01*
X0143870Y0032878D01*
X0143870Y0031122D01*
X0142727Y0029978D01*
X0145641Y0029978D01*
X0146134Y0029486D01*
X0146134Y0022490D01*
X0145641Y0021998D01*
X0143591Y0021998D01*
X0143591Y0021452D01*
X0143805Y0021363D01*
X0144826Y0020342D01*
X0145378Y0019009D01*
X0145378Y0011991D01*
X0144826Y0010658D01*
X0143805Y0009637D01*
X0143308Y0009431D01*
X0150192Y0009431D01*
X0149695Y0009637D01*
X0148674Y0010658D01*
X0148122Y0011991D01*
X0148122Y0019009D01*
X0148674Y0020342D01*
X0149695Y0021363D01*
X0149909Y0021452D01*
X0149909Y0021998D01*
X0147859Y0021998D01*
X0147366Y0022490D01*
X0147366Y0029486D01*
X0147859Y0029978D01*
X0150773Y0029978D01*
X0149630Y0031122D01*
X0149630Y0032878D01*
X0149773Y0033022D01*
X0147859Y0033022D01*
X0147366Y0033514D01*
X0147366Y0040510D01*
X0147859Y0041002D01*
X0155641Y0041002D01*
X0156134Y0040510D01*
X0156134Y0033514D01*
X0155641Y0033022D01*
X0153727Y0033022D01*
X0153870Y0032878D01*
X0153870Y0031122D01*
X0152727Y0029978D01*
X0155641Y0029978D01*
X0156134Y0029486D01*
X0156134Y0022490D01*
X0155641Y0021998D01*
X0153591Y0021998D01*
X0153591Y0021452D01*
X0153805Y0021363D01*
X0154826Y0020342D01*
X0155378Y0019009D01*
X0155378Y0011991D01*
X0154826Y0010658D01*
X0153805Y0009637D01*
X0153308Y0009431D01*
X0160192Y0009431D01*
X0159695Y0009637D01*
X0158674Y0010658D01*
X0158122Y0011991D01*
X0158122Y0019009D01*
X0158674Y0020342D01*
X0159695Y0021363D01*
X0159909Y0021452D01*
X0159909Y0021998D01*
X0157859Y0021998D01*
X0157366Y0022490D01*
X0157366Y0029486D01*
X0157859Y0029978D01*
X0160773Y0029978D01*
X0159630Y0031122D01*
X0159630Y0032878D01*
X0159773Y0033022D01*
X0157859Y0033022D01*
X0157366Y0033514D01*
X0157366Y0040510D01*
X0157859Y0041002D01*
X0165641Y0041002D01*
X0166134Y0040510D01*
X0166134Y0033514D01*
X0165641Y0033022D01*
X0163727Y0033022D01*
X0163870Y0032878D01*
X0163870Y0031122D01*
X0162727Y0029978D01*
X0165641Y0029978D01*
X0166134Y0029486D01*
X0166134Y0022490D01*
X0165641Y0021998D01*
X0163591Y0021998D01*
X0163591Y0021452D01*
X0163805Y0021363D01*
X0164826Y0020342D01*
X0165378Y0019009D01*
X0165378Y0011991D01*
X0164826Y0010658D01*
X0163805Y0009637D01*
X0163308Y0009431D01*
X0170192Y0009431D01*
X0169695Y0009637D01*
X0168674Y0010658D01*
X0168122Y0011991D01*
X0168122Y0019009D01*
X0168674Y0020342D01*
X0169695Y0021363D01*
X0169909Y0021452D01*
X0169909Y0021998D01*
X0167859Y0021998D01*
X0167366Y0022490D01*
X0167366Y0029486D01*
X0167859Y0029978D01*
X0170773Y0029978D01*
X0169630Y0031122D01*
X0169630Y0032878D01*
X0169773Y0033022D01*
X0167859Y0033022D01*
X0167366Y0033514D01*
X0167366Y0040510D01*
X0167859Y0041002D01*
X0175641Y0041002D01*
X0176134Y0040510D01*
X0176134Y0033514D01*
X0175641Y0033022D01*
X0173727Y0033022D01*
X0173870Y0032878D01*
X0173870Y0031122D01*
X0172727Y0029978D01*
X0175641Y0029978D01*
X0176134Y0029486D01*
X0176134Y0022490D01*
X0175641Y0021998D01*
X0173591Y0021998D01*
X0173591Y0021452D01*
X0173805Y0021363D01*
X0174826Y0020342D01*
X0175378Y0019009D01*
X0175378Y0011991D01*
X0174826Y0010658D01*
X0173805Y0009637D01*
X0173308Y0009431D01*
X0180192Y0009431D01*
X0179695Y0009637D01*
X0178674Y0010658D01*
X0178122Y0011991D01*
X0178122Y0019009D01*
X0178674Y0020342D01*
X0179695Y0021363D01*
X0179909Y0021452D01*
X0179909Y0021998D01*
X0177859Y0021998D01*
X0177366Y0022490D01*
X0177366Y0029486D01*
X0177859Y0029978D01*
X0180773Y0029978D01*
X0179630Y0031122D01*
X0179630Y0032878D01*
X0179773Y0033022D01*
X0177859Y0033022D01*
X0177366Y0033514D01*
X0177366Y0040510D01*
X0177859Y0041002D01*
X0185641Y0041002D01*
X0186134Y0040510D01*
X0186134Y0033514D01*
X0185641Y0033022D01*
X0183727Y0033022D01*
X0183870Y0032878D01*
X0183823Y0032926D02*
X0217543Y0032926D01*
X0217543Y0033424D02*
X0186044Y0033424D01*
X0186134Y0033923D02*
X0217543Y0033923D01*
X0217543Y0034421D02*
X0186134Y0034421D01*
X0186134Y0034920D02*
X0217543Y0034920D01*
X0217543Y0035418D02*
X0186134Y0035418D01*
X0186134Y0035917D02*
X0217543Y0035917D01*
X0217543Y0036415D02*
X0186134Y0036415D01*
X0186134Y0036914D02*
X0217543Y0036914D01*
X0217543Y0037412D02*
X0186134Y0037412D01*
X0186134Y0037911D02*
X0217543Y0037911D01*
X0217543Y0038409D02*
X0186134Y0038409D01*
X0186134Y0038908D02*
X0217543Y0038908D01*
X0217543Y0039406D02*
X0186134Y0039406D01*
X0186134Y0039905D02*
X0217543Y0039905D01*
X0217543Y0040403D02*
X0186134Y0040403D01*
X0185742Y0040902D02*
X0217543Y0040902D01*
X0217543Y0041400D02*
X0109531Y0041400D01*
X0109678Y0041899D02*
X0217543Y0041899D01*
X0217543Y0042397D02*
X0109678Y0042397D01*
X0109678Y0042896D02*
X0217543Y0042896D01*
X0217543Y0043394D02*
X0109564Y0043394D01*
X0109357Y0043893D02*
X0217543Y0043893D01*
X0217543Y0044391D02*
X0109144Y0044391D01*
X0108645Y0044890D02*
X0217543Y0044890D01*
X0217543Y0045388D02*
X0163163Y0045388D01*
X0163661Y0045887D02*
X0217543Y0045887D01*
X0217543Y0046385D02*
X0164160Y0046385D01*
X0164658Y0046884D02*
X0217543Y0046884D01*
X0217543Y0047382D02*
X0165157Y0047382D01*
X0165655Y0047881D02*
X0217543Y0047881D01*
X0217543Y0048379D02*
X0166154Y0048379D01*
X0166652Y0048878D02*
X0217543Y0048878D01*
X0217543Y0049376D02*
X0167151Y0049376D01*
X0167649Y0049875D02*
X0217543Y0049875D01*
X0217543Y0050373D02*
X0168148Y0050373D01*
X0168646Y0050872D02*
X0217543Y0050872D01*
X0217543Y0051370D02*
X0169145Y0051370D01*
X0169643Y0051869D02*
X0217543Y0051869D01*
X0217543Y0052368D02*
X0170142Y0052368D01*
X0170641Y0052866D02*
X0217543Y0052866D01*
X0217543Y0053365D02*
X0171139Y0053365D01*
X0171638Y0053863D02*
X0217543Y0053863D01*
X0217543Y0054362D02*
X0172136Y0054362D01*
X0172635Y0054860D02*
X0217543Y0054860D01*
X0217543Y0055359D02*
X0173133Y0055359D01*
X0173632Y0055857D02*
X0208395Y0055857D01*
X0208872Y0055380D02*
X0210628Y0055380D01*
X0211870Y0056622D01*
X0211870Y0057880D01*
X0213128Y0057880D01*
X0214370Y0059122D01*
X0214370Y0060878D01*
X0213128Y0062120D01*
X0211868Y0062120D01*
X0211870Y0062122D01*
X0211870Y0063878D01*
X0210628Y0065120D01*
X0208872Y0065120D01*
X0207630Y0063878D01*
X0207630Y0062122D01*
X0208509Y0061242D01*
X0208509Y0059258D01*
X0207630Y0058378D01*
X0207630Y0056622D01*
X0208872Y0055380D01*
X0207896Y0056356D02*
X0174130Y0056356D01*
X0174629Y0056854D02*
X0207630Y0056854D01*
X0207630Y0057353D02*
X0175127Y0057353D01*
X0175626Y0057851D02*
X0207630Y0057851D01*
X0207630Y0058350D02*
X0176124Y0058350D01*
X0187623Y0058848D02*
X0208100Y0058848D01*
X0208509Y0059347D02*
X0188121Y0059347D01*
X0188620Y0059845D02*
X0208509Y0059845D01*
X0208509Y0060344D02*
X0189118Y0060344D01*
X0189617Y0060842D02*
X0208509Y0060842D01*
X0208411Y0061341D02*
X0190115Y0061341D01*
X0191858Y0061839D02*
X0207913Y0061839D01*
X0207630Y0062338D02*
X0192356Y0062338D01*
X0192855Y0062836D02*
X0207630Y0062836D01*
X0207630Y0063335D02*
X0192870Y0063335D01*
X0192870Y0063833D02*
X0207630Y0063833D01*
X0208084Y0064332D02*
X0192870Y0064332D01*
X0197327Y0067323D02*
X0198818Y0067323D01*
X0199317Y0067821D02*
X0197826Y0067821D01*
X0198324Y0068320D02*
X0199815Y0068320D01*
X0200314Y0068818D02*
X0198823Y0068818D01*
X0199321Y0069317D02*
X0200812Y0069317D01*
X0201311Y0069815D02*
X0199820Y0069815D01*
X0200318Y0070314D02*
X0201810Y0070314D01*
X0202061Y0070812D02*
X0202308Y0070812D01*
X0202559Y0071311D02*
X0202807Y0071311D01*
X0202870Y0071809D02*
X0203305Y0071809D01*
X0203630Y0072308D02*
X0202870Y0072308D01*
X0202870Y0072806D02*
X0203630Y0072806D01*
X0203630Y0073305D02*
X0202870Y0073305D01*
X0202445Y0073803D02*
X0204055Y0073803D01*
X0204554Y0074302D02*
X0201946Y0074302D01*
X0199554Y0074302D02*
X0196946Y0074302D01*
X0197445Y0073803D02*
X0199055Y0073803D01*
X0198630Y0073305D02*
X0197870Y0073305D01*
X0197870Y0072806D02*
X0198630Y0072806D01*
X0198630Y0072308D02*
X0197870Y0072308D01*
X0197870Y0071809D02*
X0198305Y0071809D01*
X0197807Y0071311D02*
X0197559Y0071311D01*
X0197308Y0070812D02*
X0197061Y0070812D01*
X0196810Y0070314D02*
X0195318Y0070314D01*
X0194820Y0069815D02*
X0196311Y0069815D01*
X0195812Y0069317D02*
X0194321Y0069317D01*
X0192807Y0071311D02*
X0192559Y0071311D01*
X0192870Y0071809D02*
X0193305Y0071809D01*
X0193630Y0072308D02*
X0192870Y0072308D01*
X0192870Y0072806D02*
X0193630Y0072806D01*
X0193630Y0073305D02*
X0192870Y0073305D01*
X0192445Y0073803D02*
X0194055Y0073803D01*
X0194554Y0074302D02*
X0191946Y0074302D01*
X0189554Y0074302D02*
X0161546Y0074302D01*
X0161618Y0074801D02*
X0217543Y0074801D01*
X0217543Y0075299D02*
X0161618Y0075299D01*
X0161618Y0075798D02*
X0217543Y0075798D01*
X0217543Y0076296D02*
X0161452Y0076296D01*
X0160954Y0076795D02*
X0217543Y0076795D01*
X0217543Y0077293D02*
X0160455Y0077293D01*
X0158541Y0077293D02*
X0026991Y0077293D01*
X0026991Y0076795D02*
X0158042Y0076795D01*
X0157948Y0073803D02*
X0034808Y0073803D01*
X0034309Y0073305D02*
X0158447Y0073305D01*
X0160549Y0073305D02*
X0172023Y0073305D01*
X0171525Y0072806D02*
X0033991Y0072806D01*
X0033991Y0072308D02*
X0171026Y0072308D01*
X0170528Y0071809D02*
X0033991Y0071809D01*
X0033991Y0071311D02*
X0092563Y0071311D01*
X0092064Y0070812D02*
X0033991Y0070812D01*
X0033991Y0070314D02*
X0043310Y0070314D01*
X0042811Y0069815D02*
X0033991Y0069815D01*
X0033991Y0069317D02*
X0042312Y0069317D01*
X0041814Y0068818D02*
X0033991Y0068818D01*
X0033991Y0068320D02*
X0041509Y0068320D01*
X0041509Y0067821D02*
X0033991Y0067821D01*
X0033991Y0067323D02*
X0041509Y0067323D01*
X0041509Y0066824D02*
X0033991Y0066824D01*
X0033991Y0066326D02*
X0041509Y0066326D01*
X0041509Y0065827D02*
X0033991Y0065827D01*
X0033991Y0065329D02*
X0041509Y0065329D01*
X0041509Y0064830D02*
X0033991Y0064830D01*
X0033991Y0064332D02*
X0041509Y0064332D01*
X0041509Y0063833D02*
X0033991Y0063833D01*
X0033991Y0063335D02*
X0041509Y0063335D01*
X0041509Y0062836D02*
X0033991Y0062836D01*
X0033991Y0062338D02*
X0041509Y0062338D01*
X0041509Y0061839D02*
X0033991Y0061839D01*
X0033991Y0061341D02*
X0041509Y0061341D01*
X0041509Y0060842D02*
X0033991Y0060842D01*
X0033991Y0060344D02*
X0041509Y0060344D01*
X0041509Y0059845D02*
X0033991Y0059845D01*
X0033991Y0059347D02*
X0041509Y0059347D01*
X0041509Y0058848D02*
X0033991Y0058848D01*
X0033991Y0058350D02*
X0041509Y0058350D01*
X0041509Y0057851D02*
X0033991Y0057851D01*
X0033991Y0057353D02*
X0041509Y0057353D01*
X0041509Y0056854D02*
X0033991Y0056854D01*
X0033991Y0056356D02*
X0041509Y0056356D01*
X0041509Y0055857D02*
X0033991Y0055857D01*
X0033991Y0055359D02*
X0041509Y0055359D01*
X0041509Y0054860D02*
X0033991Y0054860D01*
X0033991Y0054362D02*
X0041509Y0054362D01*
X0041509Y0053863D02*
X0033991Y0053863D01*
X0033991Y0053365D02*
X0041509Y0053365D01*
X0041509Y0052866D02*
X0033991Y0052866D01*
X0033991Y0052368D02*
X0041509Y0052368D01*
X0041509Y0051869D02*
X0033991Y0051869D01*
X0033991Y0051370D02*
X0041509Y0051370D01*
X0041509Y0050872D02*
X0040009Y0050872D01*
X0040507Y0050373D02*
X0041509Y0050373D01*
X0041509Y0049875D02*
X0041006Y0049875D01*
X0041504Y0049376D02*
X0041509Y0049376D01*
X0043991Y0049376D02*
X0044996Y0049376D01*
X0044622Y0048878D02*
X0043991Y0048878D01*
X0043991Y0048379D02*
X0044622Y0048379D01*
X0044622Y0047881D02*
X0043991Y0047881D01*
X0043991Y0047382D02*
X0044622Y0047382D01*
X0044622Y0046884D02*
X0043991Y0046884D01*
X0043991Y0046385D02*
X0044622Y0046385D01*
X0044732Y0045887D02*
X0043991Y0045887D01*
X0043991Y0045388D02*
X0045231Y0045388D01*
X0045729Y0044890D02*
X0043991Y0044890D01*
X0043991Y0044391D02*
X0046228Y0044391D01*
X0046726Y0043893D02*
X0043991Y0043893D01*
X0043991Y0043394D02*
X0051509Y0043394D01*
X0051509Y0042896D02*
X0043991Y0042896D01*
X0043991Y0042397D02*
X0051393Y0042397D01*
X0050894Y0041899D02*
X0043991Y0041899D01*
X0043905Y0041400D02*
X0050396Y0041400D01*
X0052409Y0039905D02*
X0057024Y0039905D01*
X0057523Y0040403D02*
X0052908Y0040403D01*
X0053406Y0040902D02*
X0058021Y0040902D01*
X0056526Y0039406D02*
X0051911Y0039406D01*
X0051878Y0038908D02*
X0056122Y0038908D01*
X0056122Y0038409D02*
X0051878Y0038409D01*
X0051878Y0037911D02*
X0056122Y0037911D01*
X0056122Y0037412D02*
X0051878Y0037412D01*
X0051878Y0036914D02*
X0056122Y0036914D01*
X0056122Y0036415D02*
X0051878Y0036415D01*
X0051797Y0035917D02*
X0056203Y0035917D01*
X0056701Y0035418D02*
X0051299Y0035418D01*
X0050800Y0034920D02*
X0057200Y0034920D01*
X0057698Y0034421D02*
X0050302Y0034421D01*
X0049803Y0033923D02*
X0058197Y0033923D01*
X0061303Y0033923D02*
X0068197Y0033923D01*
X0067698Y0034421D02*
X0061802Y0034421D01*
X0062300Y0034920D02*
X0067200Y0034920D01*
X0066701Y0035418D02*
X0062799Y0035418D01*
X0063297Y0035917D02*
X0066203Y0035917D01*
X0066122Y0036415D02*
X0063378Y0036415D01*
X0063378Y0036914D02*
X0066122Y0036914D01*
X0066122Y0037412D02*
X0063378Y0037412D01*
X0063378Y0037911D02*
X0066122Y0037911D01*
X0066122Y0038409D02*
X0063378Y0038409D01*
X0063378Y0038908D02*
X0066122Y0038908D01*
X0066526Y0039406D02*
X0063411Y0039406D01*
X0063909Y0039905D02*
X0067024Y0039905D01*
X0067523Y0040403D02*
X0064408Y0040403D01*
X0064906Y0040902D02*
X0068021Y0040902D01*
X0065405Y0041400D02*
X0071896Y0041400D01*
X0072394Y0041899D02*
X0065491Y0041899D01*
X0065491Y0042397D02*
X0072893Y0042397D01*
X0073009Y0042896D02*
X0065491Y0042896D01*
X0065491Y0043394D02*
X0073009Y0043394D01*
X0073009Y0043893D02*
X0071273Y0043893D01*
X0071772Y0044391D02*
X0073009Y0044391D01*
X0073009Y0044890D02*
X0072271Y0044890D01*
X0072769Y0045388D02*
X0073009Y0045388D01*
X0075491Y0045388D02*
X0076731Y0045388D01*
X0077229Y0044890D02*
X0075491Y0044890D01*
X0075491Y0044391D02*
X0077728Y0044391D01*
X0078226Y0043893D02*
X0075491Y0043893D01*
X0075491Y0043394D02*
X0083009Y0043394D01*
X0083009Y0042896D02*
X0075491Y0042896D01*
X0075491Y0042397D02*
X0082893Y0042397D01*
X0082394Y0041899D02*
X0075491Y0041899D01*
X0075405Y0041400D02*
X0081896Y0041400D01*
X0083909Y0039905D02*
X0085009Y0039905D01*
X0085009Y0040403D02*
X0084408Y0040403D01*
X0084906Y0040902D02*
X0085009Y0040902D01*
X0085009Y0039406D02*
X0083411Y0039406D01*
X0083378Y0038908D02*
X0085009Y0038908D01*
X0085009Y0038409D02*
X0083378Y0038409D01*
X0083378Y0037911D02*
X0085009Y0037911D01*
X0085009Y0037412D02*
X0083378Y0037412D01*
X0083378Y0036914D02*
X0085009Y0036914D01*
X0085009Y0036415D02*
X0083378Y0036415D01*
X0083297Y0035917D02*
X0084912Y0035917D01*
X0084414Y0035418D02*
X0082799Y0035418D01*
X0082300Y0034920D02*
X0083915Y0034920D01*
X0083417Y0034421D02*
X0081802Y0034421D01*
X0081303Y0033923D02*
X0082918Y0033923D01*
X0082420Y0033424D02*
X0074324Y0033424D01*
X0074823Y0032926D02*
X0081921Y0032926D01*
X0078197Y0033923D02*
X0071303Y0033923D01*
X0071802Y0034421D02*
X0077698Y0034421D01*
X0077200Y0034920D02*
X0072300Y0034920D01*
X0072799Y0035418D02*
X0076701Y0035418D01*
X0076203Y0035917D02*
X0073297Y0035917D01*
X0073378Y0036415D02*
X0076122Y0036415D01*
X0076122Y0036914D02*
X0073378Y0036914D01*
X0073378Y0037412D02*
X0076122Y0037412D01*
X0076122Y0037911D02*
X0073378Y0037911D01*
X0073378Y0038409D02*
X0076122Y0038409D01*
X0076122Y0038908D02*
X0073378Y0038908D01*
X0073411Y0039406D02*
X0076526Y0039406D01*
X0077024Y0039905D02*
X0073909Y0039905D01*
X0074408Y0040403D02*
X0077523Y0040403D01*
X0078021Y0040902D02*
X0074906Y0040902D01*
X0081273Y0043893D02*
X0083009Y0043893D01*
X0083009Y0044391D02*
X0081772Y0044391D01*
X0082271Y0044890D02*
X0083009Y0044890D01*
X0083009Y0045388D02*
X0082769Y0045388D01*
X0083004Y0049376D02*
X0083009Y0049376D01*
X0083009Y0049875D02*
X0082506Y0049875D01*
X0082007Y0050373D02*
X0083009Y0050373D01*
X0083009Y0050872D02*
X0081509Y0050872D01*
X0083009Y0051370D02*
X0075491Y0051370D01*
X0075491Y0050872D02*
X0077991Y0050872D01*
X0077493Y0050373D02*
X0075491Y0050373D01*
X0075491Y0049875D02*
X0076994Y0049875D01*
X0076496Y0049376D02*
X0075491Y0049376D01*
X0075491Y0048878D02*
X0076122Y0048878D01*
X0076122Y0048379D02*
X0075491Y0048379D01*
X0075491Y0047881D02*
X0076122Y0047881D01*
X0076122Y0047382D02*
X0075491Y0047382D01*
X0075491Y0046884D02*
X0076122Y0046884D01*
X0076122Y0046385D02*
X0075491Y0046385D01*
X0075491Y0045887D02*
X0076232Y0045887D01*
X0073009Y0049376D02*
X0073004Y0049376D01*
X0073009Y0049875D02*
X0072506Y0049875D01*
X0072007Y0050373D02*
X0073009Y0050373D01*
X0073009Y0050872D02*
X0071509Y0050872D01*
X0073009Y0051370D02*
X0065491Y0051370D01*
X0065491Y0050872D02*
X0067991Y0050872D01*
X0067493Y0050373D02*
X0065491Y0050373D01*
X0065491Y0049875D02*
X0066994Y0049875D01*
X0066496Y0049376D02*
X0065491Y0049376D01*
X0065491Y0048878D02*
X0066122Y0048878D01*
X0066122Y0048379D02*
X0065491Y0048379D01*
X0065491Y0047881D02*
X0066122Y0047881D01*
X0066122Y0047382D02*
X0065491Y0047382D01*
X0065491Y0046884D02*
X0066122Y0046884D01*
X0066122Y0046385D02*
X0065491Y0046385D01*
X0065491Y0045887D02*
X0066232Y0045887D01*
X0066731Y0045388D02*
X0065491Y0045388D01*
X0065491Y0044890D02*
X0067229Y0044890D01*
X0067728Y0044391D02*
X0065491Y0044391D01*
X0065491Y0043893D02*
X0068226Y0043893D01*
X0063009Y0043893D02*
X0061273Y0043893D01*
X0061772Y0044391D02*
X0063009Y0044391D01*
X0063009Y0044890D02*
X0062271Y0044890D01*
X0062769Y0045388D02*
X0063009Y0045388D01*
X0063009Y0043394D02*
X0053991Y0043394D01*
X0053991Y0042896D02*
X0063009Y0042896D01*
X0062893Y0042397D02*
X0053991Y0042397D01*
X0053991Y0041899D02*
X0062394Y0041899D01*
X0061896Y0041400D02*
X0053905Y0041400D01*
X0053991Y0043893D02*
X0058226Y0043893D01*
X0057728Y0044391D02*
X0053991Y0044391D01*
X0053991Y0044890D02*
X0057229Y0044890D01*
X0056731Y0045388D02*
X0053991Y0045388D01*
X0053991Y0045887D02*
X0056232Y0045887D01*
X0056122Y0046385D02*
X0053991Y0046385D01*
X0053991Y0046884D02*
X0056122Y0046884D01*
X0056122Y0047382D02*
X0053991Y0047382D01*
X0053991Y0047881D02*
X0056122Y0047881D01*
X0056122Y0048379D02*
X0053991Y0048379D01*
X0053991Y0048878D02*
X0056122Y0048878D01*
X0056496Y0049376D02*
X0053991Y0049376D01*
X0053991Y0049875D02*
X0056994Y0049875D01*
X0057493Y0050373D02*
X0053991Y0050373D01*
X0053991Y0050872D02*
X0057991Y0050872D01*
X0061509Y0050872D02*
X0063009Y0050872D01*
X0063009Y0051370D02*
X0053991Y0051370D01*
X0053991Y0051869D02*
X0063009Y0051869D01*
X0063009Y0052368D02*
X0053991Y0052368D01*
X0053991Y0052866D02*
X0063009Y0052866D01*
X0063009Y0053365D02*
X0053991Y0053365D01*
X0053991Y0053863D02*
X0063009Y0053863D01*
X0063009Y0054362D02*
X0053991Y0054362D01*
X0053991Y0054860D02*
X0063009Y0054860D01*
X0063009Y0055359D02*
X0053991Y0055359D01*
X0053991Y0055857D02*
X0063009Y0055857D01*
X0063009Y0056356D02*
X0053991Y0056356D01*
X0053991Y0056854D02*
X0063009Y0056854D01*
X0063009Y0057353D02*
X0053991Y0057353D01*
X0053991Y0057851D02*
X0063009Y0057851D01*
X0063009Y0058350D02*
X0053991Y0058350D01*
X0053991Y0058848D02*
X0063009Y0058848D01*
X0063009Y0059347D02*
X0053991Y0059347D01*
X0053991Y0059845D02*
X0063009Y0059845D01*
X0063009Y0060344D02*
X0053991Y0060344D01*
X0053991Y0060842D02*
X0063009Y0060842D01*
X0063009Y0061341D02*
X0053991Y0061341D01*
X0053991Y0061839D02*
X0063009Y0061839D01*
X0063009Y0062338D02*
X0053991Y0062338D01*
X0053991Y0062836D02*
X0063332Y0062836D01*
X0063830Y0063335D02*
X0053991Y0063335D01*
X0053991Y0063833D02*
X0064329Y0063833D01*
X0064827Y0064332D02*
X0054336Y0064332D01*
X0054835Y0064830D02*
X0065326Y0064830D01*
X0066342Y0062338D02*
X0074833Y0062338D01*
X0074335Y0061839D02*
X0065844Y0061839D01*
X0065491Y0061341D02*
X0073836Y0061341D01*
X0073338Y0060842D02*
X0065491Y0060842D01*
X0065491Y0060344D02*
X0073009Y0060344D01*
X0073009Y0059845D02*
X0065491Y0059845D01*
X0065491Y0059347D02*
X0073009Y0059347D01*
X0073009Y0058848D02*
X0065491Y0058848D01*
X0065491Y0058350D02*
X0073009Y0058350D01*
X0073009Y0057851D02*
X0065491Y0057851D01*
X0065491Y0057353D02*
X0073009Y0057353D01*
X0073009Y0056854D02*
X0065491Y0056854D01*
X0065491Y0056356D02*
X0073009Y0056356D01*
X0073009Y0055857D02*
X0065491Y0055857D01*
X0065491Y0055359D02*
X0073009Y0055359D01*
X0073009Y0054860D02*
X0065491Y0054860D01*
X0065491Y0054362D02*
X0073009Y0054362D01*
X0073009Y0053863D02*
X0065491Y0053863D01*
X0065491Y0053365D02*
X0073009Y0053365D01*
X0073009Y0052866D02*
X0065491Y0052866D01*
X0065491Y0052368D02*
X0073009Y0052368D01*
X0073009Y0051869D02*
X0065491Y0051869D01*
X0063009Y0050373D02*
X0062007Y0050373D01*
X0062506Y0049875D02*
X0063009Y0049875D01*
X0063004Y0049376D02*
X0063009Y0049376D01*
X0051509Y0049376D02*
X0051504Y0049376D01*
X0051509Y0049875D02*
X0051006Y0049875D01*
X0050507Y0050373D02*
X0051509Y0050373D01*
X0051509Y0050872D02*
X0050009Y0050872D01*
X0051509Y0051370D02*
X0043991Y0051370D01*
X0043991Y0050872D02*
X0046491Y0050872D01*
X0045993Y0050373D02*
X0043991Y0050373D01*
X0043991Y0049875D02*
X0045494Y0049875D01*
X0043991Y0051869D02*
X0051509Y0051869D01*
X0051509Y0052368D02*
X0043991Y0052368D01*
X0043991Y0052866D02*
X0051509Y0052866D01*
X0051509Y0053365D02*
X0043991Y0053365D01*
X0043991Y0053863D02*
X0051509Y0053863D01*
X0051509Y0054362D02*
X0043991Y0054362D01*
X0043991Y0054860D02*
X0051509Y0054860D01*
X0051509Y0055359D02*
X0043991Y0055359D01*
X0043991Y0055857D02*
X0051509Y0055857D01*
X0051509Y0056356D02*
X0043991Y0056356D01*
X0043991Y0056854D02*
X0051509Y0056854D01*
X0051509Y0057353D02*
X0043991Y0057353D01*
X0043991Y0057851D02*
X0051509Y0057851D01*
X0051509Y0058350D02*
X0043991Y0058350D01*
X0043991Y0058848D02*
X0051509Y0058848D01*
X0051509Y0059347D02*
X0043991Y0059347D01*
X0043991Y0059845D02*
X0051509Y0059845D01*
X0051509Y0060344D02*
X0043991Y0060344D01*
X0043991Y0060842D02*
X0051509Y0060842D01*
X0051509Y0061341D02*
X0043991Y0061341D01*
X0043991Y0061839D02*
X0051509Y0061839D01*
X0051509Y0062338D02*
X0043991Y0062338D01*
X0043991Y0062836D02*
X0051509Y0062836D01*
X0051509Y0063335D02*
X0043991Y0063335D01*
X0043991Y0063833D02*
X0051509Y0063833D01*
X0051509Y0064332D02*
X0043991Y0064332D01*
X0043991Y0064830D02*
X0051509Y0064830D01*
X0051824Y0065329D02*
X0043991Y0065329D01*
X0043991Y0065827D02*
X0052323Y0065827D01*
X0052821Y0066326D02*
X0043991Y0066326D01*
X0043991Y0066824D02*
X0053320Y0066824D01*
X0053818Y0067323D02*
X0043991Y0067323D01*
X0044326Y0067821D02*
X0092430Y0067821D01*
X0095070Y0067821D02*
X0097073Y0067821D01*
X0097572Y0068320D02*
X0095568Y0068320D01*
X0095870Y0068818D02*
X0167537Y0068818D01*
X0167038Y0068320D02*
X0099928Y0068320D01*
X0100427Y0067821D02*
X0166540Y0067821D01*
X0166041Y0067323D02*
X0100870Y0067323D01*
X0100870Y0066824D02*
X0165543Y0066824D01*
X0165044Y0066326D02*
X0100870Y0066326D01*
X0100870Y0065827D02*
X0113079Y0065827D01*
X0112581Y0065329D02*
X0100577Y0065329D01*
X0095870Y0069317D02*
X0168035Y0069317D01*
X0168534Y0069815D02*
X0095870Y0069815D01*
X0095870Y0070314D02*
X0169032Y0070314D01*
X0169531Y0070812D02*
X0095436Y0070812D01*
X0094937Y0071311D02*
X0170029Y0071311D01*
X0164546Y0065827D02*
X0115421Y0065827D01*
X0115919Y0065329D02*
X0164047Y0065329D01*
X0163549Y0064830D02*
X0116370Y0064830D01*
X0116370Y0064332D02*
X0163050Y0064332D01*
X0162552Y0063833D02*
X0116370Y0063833D01*
X0116370Y0063335D02*
X0117587Y0063335D01*
X0117088Y0062836D02*
X0116084Y0062836D01*
X0119913Y0063335D02*
X0160809Y0063335D01*
X0160311Y0062836D02*
X0120412Y0062836D01*
X0120870Y0062338D02*
X0159812Y0062338D01*
X0159630Y0061839D02*
X0120870Y0061839D01*
X0120870Y0061341D02*
X0159630Y0061341D01*
X0158800Y0060842D02*
X0120870Y0060842D01*
X0120592Y0060344D02*
X0131595Y0060344D01*
X0131097Y0059845D02*
X0120093Y0059845D01*
X0117407Y0059845D02*
X0075850Y0059845D01*
X0075491Y0059347D02*
X0084842Y0059347D01*
X0084344Y0058848D02*
X0075491Y0058848D01*
X0075491Y0058350D02*
X0083845Y0058350D01*
X0083347Y0057851D02*
X0075491Y0057851D01*
X0075491Y0057353D02*
X0083009Y0057353D01*
X0083009Y0056854D02*
X0075491Y0056854D01*
X0075491Y0056356D02*
X0083009Y0056356D01*
X0083009Y0055857D02*
X0075491Y0055857D01*
X0075491Y0055359D02*
X0083009Y0055359D01*
X0083009Y0054860D02*
X0075491Y0054860D01*
X0075491Y0054362D02*
X0083009Y0054362D01*
X0083009Y0053863D02*
X0075491Y0053863D01*
X0075491Y0053365D02*
X0083009Y0053365D01*
X0083009Y0052866D02*
X0075491Y0052866D01*
X0075491Y0052368D02*
X0083009Y0052368D01*
X0083009Y0051869D02*
X0075491Y0051869D01*
X0085491Y0050373D02*
X0128622Y0050373D01*
X0128124Y0050872D02*
X0091270Y0050872D01*
X0091768Y0051370D02*
X0127625Y0051370D01*
X0127127Y0051869D02*
X0092020Y0051869D01*
X0092519Y0053365D02*
X0125631Y0053365D01*
X0128649Y0056356D02*
X0135107Y0056356D01*
X0134609Y0055857D02*
X0129147Y0055857D01*
X0129646Y0055359D02*
X0134130Y0055359D01*
X0134130Y0054860D02*
X0130144Y0054860D01*
X0130643Y0054362D02*
X0134130Y0054362D01*
X0137393Y0056356D02*
X0157630Y0056356D01*
X0157630Y0055857D02*
X0137891Y0055857D01*
X0138370Y0055359D02*
X0157630Y0055359D01*
X0157630Y0054860D02*
X0139888Y0054860D01*
X0140387Y0054362D02*
X0158049Y0054362D01*
X0158115Y0053863D02*
X0140885Y0053863D01*
X0141097Y0053365D02*
X0157630Y0053365D01*
X0157630Y0052866D02*
X0141097Y0052866D01*
X0141097Y0052368D02*
X0157630Y0052368D01*
X0157630Y0051869D02*
X0141071Y0051869D01*
X0140573Y0051370D02*
X0153366Y0051370D01*
X0152868Y0050872D02*
X0140074Y0050872D01*
X0138332Y0050373D02*
X0152369Y0050373D01*
X0157947Y0056854D02*
X0134102Y0056854D01*
X0134601Y0057353D02*
X0158222Y0057353D01*
X0157724Y0057851D02*
X0134870Y0057851D01*
X0134870Y0058350D02*
X0157644Y0058350D01*
X0157644Y0058848D02*
X0134870Y0058848D01*
X0134870Y0059347D02*
X0157644Y0059347D01*
X0157803Y0059845D02*
X0134403Y0059845D01*
X0133905Y0060344D02*
X0158301Y0060344D01*
X0161048Y0073803D02*
X0189055Y0073803D01*
X0201829Y0066824D02*
X0217543Y0066824D01*
X0217543Y0066326D02*
X0201330Y0066326D01*
X0200832Y0065827D02*
X0217543Y0065827D01*
X0217543Y0065329D02*
X0200333Y0065329D01*
X0199835Y0064830D02*
X0208582Y0064830D01*
X0210918Y0064830D02*
X0217543Y0064830D01*
X0217543Y0064332D02*
X0211416Y0064332D01*
X0211870Y0063833D02*
X0217543Y0063833D01*
X0217543Y0063335D02*
X0211870Y0063335D01*
X0211870Y0062836D02*
X0217543Y0062836D01*
X0217543Y0062338D02*
X0211870Y0062338D01*
X0213409Y0061839D02*
X0217543Y0061839D01*
X0217543Y0061341D02*
X0213908Y0061341D01*
X0214370Y0060842D02*
X0217543Y0060842D01*
X0217543Y0060344D02*
X0214370Y0060344D01*
X0214370Y0059845D02*
X0217543Y0059845D01*
X0217543Y0059347D02*
X0214370Y0059347D01*
X0214096Y0058848D02*
X0217543Y0058848D01*
X0217543Y0058350D02*
X0213598Y0058350D01*
X0211870Y0057851D02*
X0217543Y0057851D01*
X0217543Y0057353D02*
X0211870Y0057353D01*
X0211870Y0056854D02*
X0217543Y0056854D01*
X0217543Y0056356D02*
X0211604Y0056356D01*
X0211105Y0055857D02*
X0217543Y0055857D01*
X0217543Y0067323D02*
X0202327Y0067323D01*
X0202826Y0067821D02*
X0217543Y0067821D01*
X0217543Y0068320D02*
X0203324Y0068320D01*
X0203823Y0068818D02*
X0217543Y0068818D01*
X0217543Y0069317D02*
X0204321Y0069317D01*
X0204820Y0069815D02*
X0217543Y0069815D01*
X0217543Y0070314D02*
X0205318Y0070314D01*
X0207061Y0070812D02*
X0217543Y0070812D01*
X0217543Y0071311D02*
X0207559Y0071311D01*
X0207870Y0071809D02*
X0217543Y0071809D01*
X0217543Y0072308D02*
X0207870Y0072308D01*
X0207870Y0072806D02*
X0217543Y0072806D01*
X0217543Y0073305D02*
X0207870Y0073305D01*
X0207445Y0073803D02*
X0217543Y0073803D01*
X0217543Y0074302D02*
X0206946Y0074302D01*
X0217543Y0077792D02*
X0026991Y0077792D01*
X0026991Y0078290D02*
X0217543Y0078290D01*
X0217543Y0078789D02*
X0026991Y0078789D01*
X0026991Y0079287D02*
X0217543Y0079287D01*
X0217543Y0079786D02*
X0026991Y0079786D01*
X0026991Y0080284D02*
X0217543Y0080284D01*
X0217543Y0080783D02*
X0095787Y0080783D01*
X0096286Y0081281D02*
X0217543Y0081281D01*
X0217543Y0081780D02*
X0096491Y0081780D01*
X0096491Y0082278D02*
X0217543Y0082278D01*
X0217543Y0082777D02*
X0096491Y0082777D01*
X0096491Y0083275D02*
X0217543Y0083275D01*
X0217543Y0083774D02*
X0096491Y0083774D01*
X0096491Y0084272D02*
X0217543Y0084272D01*
X0217543Y0084771D02*
X0096491Y0084771D01*
X0096491Y0085269D02*
X0217543Y0085269D01*
X0217543Y0085768D02*
X0096491Y0085768D01*
X0096491Y0086266D02*
X0217543Y0086266D01*
X0217543Y0086765D02*
X0096491Y0086765D01*
X0096491Y0087263D02*
X0217543Y0087263D01*
X0217543Y0087762D02*
X0096491Y0087762D01*
X0096491Y0088260D02*
X0217543Y0088260D01*
X0217543Y0088759D02*
X0096491Y0088759D01*
X0096491Y0089257D02*
X0217543Y0089257D01*
X0217543Y0089756D02*
X0096491Y0089756D01*
X0096491Y0090254D02*
X0217543Y0090254D01*
X0217543Y0090753D02*
X0096491Y0090753D01*
X0096491Y0091251D02*
X0217543Y0091251D01*
X0217543Y0091750D02*
X0096491Y0091750D01*
X0096491Y0092248D02*
X0217543Y0092248D01*
X0217543Y0092747D02*
X0096491Y0092747D01*
X0096491Y0093245D02*
X0217543Y0093245D01*
X0217543Y0093744D02*
X0185887Y0093744D01*
X0186134Y0094242D02*
X0217543Y0094242D01*
X0217543Y0094741D02*
X0186134Y0094741D01*
X0186134Y0095239D02*
X0217543Y0095239D01*
X0217543Y0095738D02*
X0186134Y0095738D01*
X0186134Y0096237D02*
X0217543Y0096237D01*
X0217543Y0096735D02*
X0186134Y0096735D01*
X0186134Y0097234D02*
X0217543Y0097234D01*
X0217543Y0097732D02*
X0186134Y0097732D01*
X0186134Y0098231D02*
X0217543Y0098231D01*
X0217543Y0098729D02*
X0186134Y0098729D01*
X0186134Y0099228D02*
X0217543Y0099228D01*
X0217543Y0099726D02*
X0186134Y0099726D01*
X0186134Y0100225D02*
X0217543Y0100225D01*
X0217543Y0100723D02*
X0186134Y0100723D01*
X0185898Y0101222D02*
X0217543Y0101222D01*
X0217543Y0101720D02*
X0183870Y0101720D01*
X0183870Y0102219D02*
X0217543Y0102219D01*
X0217543Y0102717D02*
X0183870Y0102717D01*
X0183870Y0103216D02*
X0217543Y0103216D01*
X0217543Y0103714D02*
X0183534Y0103714D01*
X0183036Y0104213D02*
X0217543Y0104213D01*
X0217543Y0104711D02*
X0185831Y0104711D01*
X0186134Y0105210D02*
X0217543Y0105210D01*
X0217543Y0105708D02*
X0186134Y0105708D01*
X0186134Y0106207D02*
X0217543Y0106207D01*
X0217543Y0106705D02*
X0186134Y0106705D01*
X0186134Y0107204D02*
X0217543Y0107204D01*
X0217543Y0107702D02*
X0186134Y0107702D01*
X0186134Y0108201D02*
X0217543Y0108201D01*
X0217543Y0108699D02*
X0186134Y0108699D01*
X0186134Y0109198D02*
X0217543Y0109198D01*
X0217543Y0109696D02*
X0186134Y0109696D01*
X0186134Y0110195D02*
X0217543Y0110195D01*
X0217543Y0110693D02*
X0186134Y0110693D01*
X0186134Y0111192D02*
X0217543Y0111192D01*
X0217543Y0111690D02*
X0186134Y0111690D01*
X0185955Y0112189D02*
X0217543Y0112189D01*
X0217543Y0112687D02*
X0202720Y0112687D01*
X0203854Y0113186D02*
X0217543Y0113186D01*
X0217543Y0113684D02*
X0204352Y0113684D01*
X0204836Y0114183D02*
X0217543Y0114183D01*
X0217543Y0114681D02*
X0205043Y0114681D01*
X0205249Y0115180D02*
X0217543Y0115180D01*
X0217543Y0115678D02*
X0205378Y0115678D01*
X0205378Y0116177D02*
X0217543Y0116177D01*
X0217543Y0116675D02*
X0205378Y0116675D01*
X0205378Y0117174D02*
X0217543Y0117174D01*
X0217543Y0117672D02*
X0205378Y0117672D01*
X0205378Y0118171D02*
X0217543Y0118171D01*
X0217543Y0118670D02*
X0205378Y0118670D01*
X0205378Y0119168D02*
X0217543Y0119168D01*
X0217543Y0119667D02*
X0205378Y0119667D01*
X0205378Y0120165D02*
X0217543Y0120165D01*
X0217543Y0120664D02*
X0205378Y0120664D01*
X0205378Y0121162D02*
X0217543Y0121162D01*
X0217543Y0121661D02*
X0205378Y0121661D01*
X0205378Y0122159D02*
X0217543Y0122159D01*
X0217543Y0122658D02*
X0205316Y0122658D01*
X0205110Y0123156D02*
X0217543Y0123156D01*
X0217543Y0123655D02*
X0204903Y0123655D01*
X0204515Y0124153D02*
X0217543Y0124153D01*
X0217543Y0124652D02*
X0204016Y0124652D01*
X0199484Y0124652D02*
X0194016Y0124652D01*
X0194515Y0124153D02*
X0198985Y0124153D01*
X0198597Y0123655D02*
X0194903Y0123655D01*
X0195110Y0123156D02*
X0198390Y0123156D01*
X0198184Y0122658D02*
X0195316Y0122658D01*
X0195378Y0122159D02*
X0198122Y0122159D01*
X0198122Y0121661D02*
X0195378Y0121661D01*
X0195378Y0121162D02*
X0198122Y0121162D01*
X0198122Y0120664D02*
X0195378Y0120664D01*
X0195378Y0120165D02*
X0198122Y0120165D01*
X0198122Y0119667D02*
X0195378Y0119667D01*
X0195378Y0119168D02*
X0198122Y0119168D01*
X0198122Y0118670D02*
X0195378Y0118670D01*
X0195378Y0118171D02*
X0198122Y0118171D01*
X0198122Y0117672D02*
X0195378Y0117672D01*
X0195378Y0117174D02*
X0198122Y0117174D01*
X0198122Y0116675D02*
X0195378Y0116675D01*
X0195378Y0116177D02*
X0198122Y0116177D01*
X0198122Y0115678D02*
X0195378Y0115678D01*
X0195249Y0115180D02*
X0198251Y0115180D01*
X0198457Y0114681D02*
X0195043Y0114681D01*
X0194836Y0114183D02*
X0198664Y0114183D01*
X0199147Y0113684D02*
X0194352Y0113684D01*
X0193854Y0113186D02*
X0199646Y0113186D01*
X0200780Y0112687D02*
X0192720Y0112687D01*
X0190780Y0112687D02*
X0183591Y0112687D01*
X0183854Y0113186D02*
X0189646Y0113186D01*
X0189147Y0113684D02*
X0184352Y0113684D01*
X0184836Y0114183D02*
X0188664Y0114183D01*
X0188457Y0114681D02*
X0185043Y0114681D01*
X0185249Y0115180D02*
X0188251Y0115180D01*
X0188122Y0115678D02*
X0185378Y0115678D01*
X0185378Y0116177D02*
X0188122Y0116177D01*
X0188122Y0116675D02*
X0185378Y0116675D01*
X0185378Y0117174D02*
X0188122Y0117174D01*
X0188122Y0117672D02*
X0185378Y0117672D01*
X0185378Y0118171D02*
X0188122Y0118171D01*
X0188122Y0118670D02*
X0185378Y0118670D01*
X0185378Y0119168D02*
X0188122Y0119168D01*
X0188122Y0119667D02*
X0185378Y0119667D01*
X0185378Y0120165D02*
X0188122Y0120165D01*
X0188122Y0120664D02*
X0185378Y0120664D01*
X0185378Y0121162D02*
X0188122Y0121162D01*
X0188122Y0121661D02*
X0185378Y0121661D01*
X0185378Y0122159D02*
X0188122Y0122159D01*
X0188184Y0122658D02*
X0185316Y0122658D01*
X0185110Y0123156D02*
X0188390Y0123156D01*
X0188597Y0123655D02*
X0184903Y0123655D01*
X0184515Y0124153D02*
X0188985Y0124153D01*
X0189484Y0124652D02*
X0184016Y0124652D01*
X0179484Y0124652D02*
X0174016Y0124652D01*
X0174515Y0124153D02*
X0178985Y0124153D01*
X0178597Y0123655D02*
X0174903Y0123655D01*
X0175110Y0123156D02*
X0178390Y0123156D01*
X0178184Y0122658D02*
X0175316Y0122658D01*
X0175378Y0122159D02*
X0178122Y0122159D01*
X0178122Y0121661D02*
X0175378Y0121661D01*
X0175378Y0121162D02*
X0178122Y0121162D01*
X0178122Y0120664D02*
X0175378Y0120664D01*
X0175378Y0120165D02*
X0178122Y0120165D01*
X0178122Y0119667D02*
X0175378Y0119667D01*
X0175378Y0119168D02*
X0178122Y0119168D01*
X0178122Y0118670D02*
X0175378Y0118670D01*
X0175378Y0118171D02*
X0178122Y0118171D01*
X0178122Y0117672D02*
X0175378Y0117672D01*
X0175378Y0117174D02*
X0178122Y0117174D01*
X0178122Y0116675D02*
X0175378Y0116675D01*
X0175378Y0116177D02*
X0178122Y0116177D01*
X0178122Y0115678D02*
X0175378Y0115678D01*
X0175249Y0115180D02*
X0178251Y0115180D01*
X0178457Y0114681D02*
X0175043Y0114681D01*
X0174836Y0114183D02*
X0178664Y0114183D01*
X0179147Y0113684D02*
X0174352Y0113684D01*
X0173854Y0113186D02*
X0179646Y0113186D01*
X0179909Y0112687D02*
X0173591Y0112687D01*
X0175955Y0112189D02*
X0177545Y0112189D01*
X0177366Y0111690D02*
X0176134Y0111690D01*
X0176134Y0111192D02*
X0177366Y0111192D01*
X0177366Y0110693D02*
X0176134Y0110693D01*
X0176134Y0110195D02*
X0177366Y0110195D01*
X0177366Y0109696D02*
X0176134Y0109696D01*
X0176134Y0109198D02*
X0177366Y0109198D01*
X0177366Y0108699D02*
X0176134Y0108699D01*
X0176134Y0108201D02*
X0177366Y0108201D01*
X0177366Y0107702D02*
X0176134Y0107702D01*
X0176134Y0107204D02*
X0177366Y0107204D01*
X0177366Y0106705D02*
X0176134Y0106705D01*
X0176134Y0106207D02*
X0177366Y0106207D01*
X0177366Y0105708D02*
X0176134Y0105708D01*
X0176134Y0105210D02*
X0177366Y0105210D01*
X0177669Y0104711D02*
X0175831Y0104711D01*
X0173870Y0103216D02*
X0179630Y0103216D01*
X0179630Y0102717D02*
X0173870Y0102717D01*
X0173870Y0102219D02*
X0179630Y0102219D01*
X0179630Y0101720D02*
X0173870Y0101720D01*
X0175898Y0101222D02*
X0177602Y0101222D01*
X0177366Y0100723D02*
X0176134Y0100723D01*
X0176134Y0100225D02*
X0177366Y0100225D01*
X0177366Y0099726D02*
X0176134Y0099726D01*
X0176134Y0099228D02*
X0177366Y0099228D01*
X0177366Y0098729D02*
X0176134Y0098729D01*
X0176134Y0098231D02*
X0177366Y0098231D01*
X0177366Y0097732D02*
X0176134Y0097732D01*
X0176134Y0097234D02*
X0177366Y0097234D01*
X0177366Y0096735D02*
X0176134Y0096735D01*
X0176134Y0096237D02*
X0177366Y0096237D01*
X0177366Y0095738D02*
X0176134Y0095738D01*
X0176134Y0095239D02*
X0177366Y0095239D01*
X0177366Y0094741D02*
X0176134Y0094741D01*
X0176134Y0094242D02*
X0177366Y0094242D01*
X0177613Y0093744D02*
X0175887Y0093744D01*
X0167613Y0093744D02*
X0165887Y0093744D01*
X0166134Y0094242D02*
X0167366Y0094242D01*
X0167366Y0094741D02*
X0166134Y0094741D01*
X0166134Y0095239D02*
X0167366Y0095239D01*
X0167366Y0095738D02*
X0166134Y0095738D01*
X0166134Y0096237D02*
X0167366Y0096237D01*
X0167366Y0096735D02*
X0166134Y0096735D01*
X0166134Y0097234D02*
X0167366Y0097234D01*
X0167366Y0097732D02*
X0166134Y0097732D01*
X0166134Y0098231D02*
X0167366Y0098231D01*
X0167366Y0098729D02*
X0166134Y0098729D01*
X0166134Y0099228D02*
X0167366Y0099228D01*
X0167366Y0099726D02*
X0166134Y0099726D01*
X0166134Y0100225D02*
X0167366Y0100225D01*
X0167366Y0100723D02*
X0166134Y0100723D01*
X0165898Y0101222D02*
X0167602Y0101222D01*
X0169630Y0101720D02*
X0163870Y0101720D01*
X0163870Y0102219D02*
X0169630Y0102219D01*
X0169630Y0102717D02*
X0163870Y0102717D01*
X0163870Y0103216D02*
X0169630Y0103216D01*
X0169966Y0103714D02*
X0163534Y0103714D01*
X0163036Y0104213D02*
X0170464Y0104213D01*
X0173036Y0104213D02*
X0180464Y0104213D01*
X0179966Y0103714D02*
X0173534Y0103714D01*
X0167669Y0104711D02*
X0165831Y0104711D01*
X0166134Y0105210D02*
X0167366Y0105210D01*
X0167366Y0105708D02*
X0166134Y0105708D01*
X0166134Y0106207D02*
X0167366Y0106207D01*
X0167366Y0106705D02*
X0166134Y0106705D01*
X0166134Y0107204D02*
X0167366Y0107204D01*
X0167366Y0107702D02*
X0166134Y0107702D01*
X0166134Y0108201D02*
X0167366Y0108201D01*
X0167366Y0108699D02*
X0166134Y0108699D01*
X0166134Y0109198D02*
X0167366Y0109198D01*
X0167366Y0109696D02*
X0166134Y0109696D01*
X0166134Y0110195D02*
X0167366Y0110195D01*
X0167366Y0110693D02*
X0166134Y0110693D01*
X0166134Y0111192D02*
X0167366Y0111192D01*
X0167366Y0111690D02*
X0166134Y0111690D01*
X0165955Y0112189D02*
X0167545Y0112189D01*
X0169147Y0113684D02*
X0164352Y0113684D01*
X0164836Y0114183D02*
X0168664Y0114183D01*
X0168457Y0114681D02*
X0165043Y0114681D01*
X0165249Y0115180D02*
X0168251Y0115180D01*
X0168122Y0115678D02*
X0165378Y0115678D01*
X0165378Y0116177D02*
X0168122Y0116177D01*
X0168122Y0116675D02*
X0165378Y0116675D01*
X0165378Y0117174D02*
X0168122Y0117174D01*
X0168122Y0117672D02*
X0165378Y0117672D01*
X0165378Y0118171D02*
X0168122Y0118171D01*
X0168122Y0118670D02*
X0165378Y0118670D01*
X0165378Y0119168D02*
X0168122Y0119168D01*
X0168122Y0119667D02*
X0165378Y0119667D01*
X0165378Y0120165D02*
X0168122Y0120165D01*
X0168122Y0120664D02*
X0165378Y0120664D01*
X0165378Y0121162D02*
X0168122Y0121162D01*
X0168122Y0121661D02*
X0165378Y0121661D01*
X0165378Y0122159D02*
X0168122Y0122159D01*
X0168184Y0122658D02*
X0165316Y0122658D01*
X0165110Y0123156D02*
X0168390Y0123156D01*
X0168597Y0123655D02*
X0164903Y0123655D01*
X0164515Y0124153D02*
X0168985Y0124153D01*
X0169484Y0124652D02*
X0164016Y0124652D01*
X0159484Y0124652D02*
X0154016Y0124652D01*
X0154515Y0124153D02*
X0158985Y0124153D01*
X0158597Y0123655D02*
X0154903Y0123655D01*
X0155110Y0123156D02*
X0158390Y0123156D01*
X0158184Y0122658D02*
X0155316Y0122658D01*
X0155378Y0122159D02*
X0158122Y0122159D01*
X0158122Y0121661D02*
X0155378Y0121661D01*
X0155378Y0121162D02*
X0158122Y0121162D01*
X0158122Y0120664D02*
X0155378Y0120664D01*
X0155378Y0120165D02*
X0158122Y0120165D01*
X0158122Y0119667D02*
X0155378Y0119667D01*
X0155378Y0119168D02*
X0158122Y0119168D01*
X0158122Y0118670D02*
X0155378Y0118670D01*
X0155378Y0118171D02*
X0158122Y0118171D01*
X0158122Y0117672D02*
X0155378Y0117672D01*
X0155378Y0117174D02*
X0158122Y0117174D01*
X0158122Y0116675D02*
X0155378Y0116675D01*
X0155378Y0116177D02*
X0158122Y0116177D01*
X0158122Y0115678D02*
X0155378Y0115678D01*
X0155249Y0115180D02*
X0158251Y0115180D01*
X0158457Y0114681D02*
X0155043Y0114681D01*
X0154836Y0114183D02*
X0158664Y0114183D01*
X0159147Y0113684D02*
X0154352Y0113684D01*
X0153854Y0113186D02*
X0159646Y0113186D01*
X0159909Y0112687D02*
X0153591Y0112687D01*
X0155955Y0112189D02*
X0157545Y0112189D01*
X0157366Y0111690D02*
X0156134Y0111690D01*
X0156134Y0111192D02*
X0157366Y0111192D01*
X0157366Y0110693D02*
X0156134Y0110693D01*
X0156134Y0110195D02*
X0157366Y0110195D01*
X0157366Y0109696D02*
X0156134Y0109696D01*
X0156134Y0109198D02*
X0157366Y0109198D01*
X0157366Y0108699D02*
X0156134Y0108699D01*
X0156134Y0108201D02*
X0157366Y0108201D01*
X0157366Y0107702D02*
X0156134Y0107702D01*
X0156134Y0107204D02*
X0157366Y0107204D01*
X0157366Y0106705D02*
X0156134Y0106705D01*
X0156134Y0106207D02*
X0157366Y0106207D01*
X0157366Y0105708D02*
X0156134Y0105708D01*
X0156134Y0105210D02*
X0157366Y0105210D01*
X0157669Y0104711D02*
X0155831Y0104711D01*
X0153870Y0103216D02*
X0159630Y0103216D01*
X0159630Y0102717D02*
X0153870Y0102717D01*
X0153870Y0102219D02*
X0159630Y0102219D01*
X0159630Y0101720D02*
X0153870Y0101720D01*
X0155898Y0101222D02*
X0157602Y0101222D01*
X0157366Y0100723D02*
X0156134Y0100723D01*
X0156134Y0100225D02*
X0157366Y0100225D01*
X0157366Y0099726D02*
X0156134Y0099726D01*
X0156134Y0099228D02*
X0157366Y0099228D01*
X0157366Y0098729D02*
X0156134Y0098729D01*
X0156134Y0098231D02*
X0157366Y0098231D01*
X0157366Y0097732D02*
X0156134Y0097732D01*
X0156134Y0097234D02*
X0157366Y0097234D01*
X0157366Y0096735D02*
X0156134Y0096735D01*
X0156134Y0096237D02*
X0157366Y0096237D01*
X0157366Y0095738D02*
X0156134Y0095738D01*
X0156134Y0095239D02*
X0157366Y0095239D01*
X0157366Y0094741D02*
X0156134Y0094741D01*
X0156134Y0094242D02*
X0157366Y0094242D01*
X0157613Y0093744D02*
X0155887Y0093744D01*
X0147613Y0093744D02*
X0145887Y0093744D01*
X0146134Y0094242D02*
X0147366Y0094242D01*
X0147366Y0094741D02*
X0146134Y0094741D01*
X0146134Y0095239D02*
X0147366Y0095239D01*
X0147366Y0095738D02*
X0146134Y0095738D01*
X0146134Y0096237D02*
X0147366Y0096237D01*
X0147366Y0096735D02*
X0146134Y0096735D01*
X0146134Y0097234D02*
X0147366Y0097234D01*
X0147366Y0097732D02*
X0146134Y0097732D01*
X0146134Y0098231D02*
X0147366Y0098231D01*
X0147366Y0098729D02*
X0146134Y0098729D01*
X0146134Y0099228D02*
X0147366Y0099228D01*
X0147366Y0099726D02*
X0146134Y0099726D01*
X0146134Y0100225D02*
X0147366Y0100225D01*
X0147366Y0100723D02*
X0146134Y0100723D01*
X0145898Y0101222D02*
X0147602Y0101222D01*
X0149630Y0101720D02*
X0143870Y0101720D01*
X0143870Y0102219D02*
X0149630Y0102219D01*
X0149630Y0102717D02*
X0143870Y0102717D01*
X0143870Y0103216D02*
X0149630Y0103216D01*
X0149966Y0103714D02*
X0143534Y0103714D01*
X0143036Y0104213D02*
X0150464Y0104213D01*
X0153036Y0104213D02*
X0160464Y0104213D01*
X0159966Y0103714D02*
X0153534Y0103714D01*
X0147669Y0104711D02*
X0145831Y0104711D01*
X0146134Y0105210D02*
X0147366Y0105210D01*
X0147366Y0105708D02*
X0146134Y0105708D01*
X0146134Y0106207D02*
X0147366Y0106207D01*
X0147366Y0106705D02*
X0146134Y0106705D01*
X0146134Y0107204D02*
X0147366Y0107204D01*
X0147366Y0107702D02*
X0146134Y0107702D01*
X0146134Y0108201D02*
X0147366Y0108201D01*
X0147366Y0108699D02*
X0146134Y0108699D01*
X0146134Y0109198D02*
X0147366Y0109198D01*
X0147366Y0109696D02*
X0146134Y0109696D01*
X0146134Y0110195D02*
X0147366Y0110195D01*
X0147366Y0110693D02*
X0146134Y0110693D01*
X0146134Y0111192D02*
X0147366Y0111192D01*
X0147366Y0111690D02*
X0146134Y0111690D01*
X0145955Y0112189D02*
X0147545Y0112189D01*
X0149147Y0113684D02*
X0144352Y0113684D01*
X0144836Y0114183D02*
X0148664Y0114183D01*
X0148457Y0114681D02*
X0145043Y0114681D01*
X0145249Y0115180D02*
X0148251Y0115180D01*
X0148122Y0115678D02*
X0145378Y0115678D01*
X0145378Y0116177D02*
X0148122Y0116177D01*
X0148122Y0116675D02*
X0145378Y0116675D01*
X0145378Y0117174D02*
X0148122Y0117174D01*
X0148122Y0117672D02*
X0145378Y0117672D01*
X0145378Y0118171D02*
X0148122Y0118171D01*
X0148122Y0118670D02*
X0145378Y0118670D01*
X0145378Y0119168D02*
X0148122Y0119168D01*
X0148122Y0119667D02*
X0145378Y0119667D01*
X0145378Y0120165D02*
X0148122Y0120165D01*
X0148122Y0120664D02*
X0145378Y0120664D01*
X0145378Y0121162D02*
X0148122Y0121162D01*
X0148122Y0121661D02*
X0145378Y0121661D01*
X0145378Y0122159D02*
X0148122Y0122159D01*
X0148184Y0122658D02*
X0145316Y0122658D01*
X0145110Y0123156D02*
X0148390Y0123156D01*
X0148597Y0123655D02*
X0144903Y0123655D01*
X0144515Y0124153D02*
X0148985Y0124153D01*
X0149484Y0124652D02*
X0144016Y0124652D01*
X0139484Y0124652D02*
X0134016Y0124652D01*
X0134515Y0124153D02*
X0138985Y0124153D01*
X0138597Y0123655D02*
X0134903Y0123655D01*
X0135110Y0123156D02*
X0138390Y0123156D01*
X0138184Y0122658D02*
X0135316Y0122658D01*
X0135378Y0122159D02*
X0138122Y0122159D01*
X0138122Y0121661D02*
X0135378Y0121661D01*
X0135378Y0121162D02*
X0138122Y0121162D01*
X0138122Y0120664D02*
X0135378Y0120664D01*
X0135378Y0120165D02*
X0138122Y0120165D01*
X0138122Y0119667D02*
X0135378Y0119667D01*
X0135378Y0119168D02*
X0138122Y0119168D01*
X0138122Y0118670D02*
X0135378Y0118670D01*
X0135378Y0118171D02*
X0138122Y0118171D01*
X0138122Y0117672D02*
X0135378Y0117672D01*
X0135378Y0117174D02*
X0138122Y0117174D01*
X0138122Y0116675D02*
X0135378Y0116675D01*
X0135378Y0116177D02*
X0138122Y0116177D01*
X0138122Y0115678D02*
X0135378Y0115678D01*
X0135249Y0115180D02*
X0138251Y0115180D01*
X0138457Y0114681D02*
X0135043Y0114681D01*
X0134836Y0114183D02*
X0138664Y0114183D01*
X0139147Y0113684D02*
X0134352Y0113684D01*
X0133854Y0113186D02*
X0139646Y0113186D01*
X0139909Y0112687D02*
X0133591Y0112687D01*
X0135955Y0112189D02*
X0137545Y0112189D01*
X0137366Y0111690D02*
X0136134Y0111690D01*
X0136134Y0111192D02*
X0137366Y0111192D01*
X0137366Y0110693D02*
X0136134Y0110693D01*
X0136134Y0110195D02*
X0137366Y0110195D01*
X0137366Y0109696D02*
X0136134Y0109696D01*
X0136134Y0109198D02*
X0137366Y0109198D01*
X0137366Y0108699D02*
X0136134Y0108699D01*
X0136134Y0108201D02*
X0137366Y0108201D01*
X0137366Y0107702D02*
X0136134Y0107702D01*
X0136134Y0107204D02*
X0137366Y0107204D01*
X0137366Y0106705D02*
X0136134Y0106705D01*
X0136134Y0106207D02*
X0137366Y0106207D01*
X0137366Y0105708D02*
X0136134Y0105708D01*
X0136134Y0105210D02*
X0137366Y0105210D01*
X0137669Y0104711D02*
X0135831Y0104711D01*
X0133870Y0103216D02*
X0139630Y0103216D01*
X0139630Y0102717D02*
X0133870Y0102717D01*
X0133870Y0102219D02*
X0139630Y0102219D01*
X0139630Y0101720D02*
X0133870Y0101720D01*
X0135898Y0101222D02*
X0137602Y0101222D01*
X0137366Y0100723D02*
X0136134Y0100723D01*
X0136134Y0100225D02*
X0137366Y0100225D01*
X0137366Y0099726D02*
X0136134Y0099726D01*
X0136134Y0099228D02*
X0137366Y0099228D01*
X0137366Y0098729D02*
X0136134Y0098729D01*
X0136134Y0098231D02*
X0137366Y0098231D01*
X0137366Y0097732D02*
X0136134Y0097732D01*
X0136134Y0097234D02*
X0137366Y0097234D01*
X0137366Y0096735D02*
X0136134Y0096735D01*
X0136134Y0096237D02*
X0137366Y0096237D01*
X0137366Y0095738D02*
X0136134Y0095738D01*
X0136134Y0095239D02*
X0137366Y0095239D01*
X0137366Y0094741D02*
X0136134Y0094741D01*
X0136134Y0094242D02*
X0137366Y0094242D01*
X0137613Y0093744D02*
X0135887Y0093744D01*
X0127613Y0093744D02*
X0125887Y0093744D01*
X0126134Y0094242D02*
X0127366Y0094242D01*
X0127366Y0094741D02*
X0126134Y0094741D01*
X0126134Y0095239D02*
X0127366Y0095239D01*
X0127366Y0095738D02*
X0126134Y0095738D01*
X0126134Y0096237D02*
X0127366Y0096237D01*
X0127366Y0096735D02*
X0126134Y0096735D01*
X0126134Y0097234D02*
X0127366Y0097234D01*
X0127366Y0097732D02*
X0126134Y0097732D01*
X0126134Y0098231D02*
X0127366Y0098231D01*
X0127366Y0098729D02*
X0126134Y0098729D01*
X0126134Y0099228D02*
X0127366Y0099228D01*
X0127366Y0099726D02*
X0126134Y0099726D01*
X0126134Y0100225D02*
X0127366Y0100225D01*
X0127366Y0100723D02*
X0126134Y0100723D01*
X0125898Y0101222D02*
X0127602Y0101222D01*
X0129630Y0101720D02*
X0123870Y0101720D01*
X0123870Y0102219D02*
X0129630Y0102219D01*
X0129630Y0102717D02*
X0123870Y0102717D01*
X0123870Y0103216D02*
X0129630Y0103216D01*
X0129966Y0103714D02*
X0123534Y0103714D01*
X0123036Y0104213D02*
X0130464Y0104213D01*
X0133036Y0104213D02*
X0140464Y0104213D01*
X0139966Y0103714D02*
X0133534Y0103714D01*
X0127669Y0104711D02*
X0125831Y0104711D01*
X0126134Y0105210D02*
X0127366Y0105210D01*
X0127366Y0105708D02*
X0126134Y0105708D01*
X0126134Y0106207D02*
X0127366Y0106207D01*
X0127366Y0106705D02*
X0126134Y0106705D01*
X0126134Y0107204D02*
X0127366Y0107204D01*
X0127366Y0107702D02*
X0126134Y0107702D01*
X0126134Y0108201D02*
X0127366Y0108201D01*
X0127366Y0108699D02*
X0126134Y0108699D01*
X0126134Y0109198D02*
X0127366Y0109198D01*
X0127366Y0109696D02*
X0126134Y0109696D01*
X0126134Y0110195D02*
X0127366Y0110195D01*
X0127366Y0110693D02*
X0126134Y0110693D01*
X0126134Y0111192D02*
X0127366Y0111192D01*
X0127366Y0111690D02*
X0126134Y0111690D01*
X0125955Y0112189D02*
X0127545Y0112189D01*
X0129147Y0113684D02*
X0124352Y0113684D01*
X0124836Y0114183D02*
X0128664Y0114183D01*
X0128457Y0114681D02*
X0125043Y0114681D01*
X0125249Y0115180D02*
X0128251Y0115180D01*
X0128122Y0115678D02*
X0125378Y0115678D01*
X0125378Y0116177D02*
X0128122Y0116177D01*
X0128122Y0116675D02*
X0125378Y0116675D01*
X0125378Y0117174D02*
X0128122Y0117174D01*
X0128122Y0117672D02*
X0125378Y0117672D01*
X0125378Y0118171D02*
X0128122Y0118171D01*
X0128122Y0118670D02*
X0125378Y0118670D01*
X0125378Y0119168D02*
X0128122Y0119168D01*
X0128122Y0119667D02*
X0125378Y0119667D01*
X0125378Y0120165D02*
X0128122Y0120165D01*
X0128122Y0120664D02*
X0125378Y0120664D01*
X0125378Y0121162D02*
X0128122Y0121162D01*
X0128122Y0121661D02*
X0125378Y0121661D01*
X0125378Y0122159D02*
X0128122Y0122159D01*
X0128184Y0122658D02*
X0125316Y0122658D01*
X0125110Y0123156D02*
X0128390Y0123156D01*
X0128597Y0123655D02*
X0124903Y0123655D01*
X0124515Y0124153D02*
X0128985Y0124153D01*
X0129484Y0124652D02*
X0124016Y0124652D01*
X0119484Y0124652D02*
X0107491Y0124652D01*
X0107491Y0124153D02*
X0118985Y0124153D01*
X0118597Y0123655D02*
X0107491Y0123655D01*
X0107491Y0123156D02*
X0118390Y0123156D01*
X0118184Y0122658D02*
X0107491Y0122658D01*
X0107491Y0122159D02*
X0118122Y0122159D01*
X0118122Y0121661D02*
X0107491Y0121661D01*
X0107491Y0121162D02*
X0118122Y0121162D01*
X0118122Y0120664D02*
X0107491Y0120664D01*
X0107491Y0120165D02*
X0118122Y0120165D01*
X0118122Y0119667D02*
X0107491Y0119667D01*
X0107491Y0119168D02*
X0118122Y0119168D01*
X0118122Y0118670D02*
X0107491Y0118670D01*
X0107491Y0118171D02*
X0118122Y0118171D01*
X0118122Y0117672D02*
X0107491Y0117672D01*
X0107491Y0117174D02*
X0118122Y0117174D01*
X0118122Y0116675D02*
X0107491Y0116675D01*
X0107491Y0116177D02*
X0118122Y0116177D01*
X0118122Y0115678D02*
X0107491Y0115678D01*
X0107491Y0115180D02*
X0118251Y0115180D01*
X0118457Y0114681D02*
X0107491Y0114681D01*
X0107491Y0114183D02*
X0118664Y0114183D01*
X0119147Y0113684D02*
X0107491Y0113684D01*
X0107491Y0113186D02*
X0119646Y0113186D01*
X0119909Y0112687D02*
X0107491Y0112687D01*
X0107491Y0112189D02*
X0117545Y0112189D01*
X0117366Y0111690D02*
X0107491Y0111690D01*
X0107196Y0111192D02*
X0117366Y0111192D01*
X0117366Y0110693D02*
X0096491Y0110693D01*
X0096491Y0110195D02*
X0117366Y0110195D01*
X0117366Y0109696D02*
X0096491Y0109696D01*
X0096491Y0109198D02*
X0117366Y0109198D01*
X0117366Y0108699D02*
X0096491Y0108699D01*
X0096491Y0108201D02*
X0117366Y0108201D01*
X0117366Y0107702D02*
X0096491Y0107702D01*
X0096491Y0107204D02*
X0117366Y0107204D01*
X0117366Y0106705D02*
X0096491Y0106705D01*
X0096491Y0106207D02*
X0117366Y0106207D01*
X0117366Y0105708D02*
X0096491Y0105708D01*
X0096491Y0105210D02*
X0117366Y0105210D01*
X0117669Y0104711D02*
X0096491Y0104711D01*
X0096491Y0104213D02*
X0120464Y0104213D01*
X0119966Y0103714D02*
X0096491Y0103714D01*
X0096491Y0103216D02*
X0119630Y0103216D01*
X0119630Y0102717D02*
X0096491Y0102717D01*
X0096491Y0102219D02*
X0119630Y0102219D01*
X0119630Y0101720D02*
X0096491Y0101720D01*
X0096491Y0101222D02*
X0117602Y0101222D01*
X0117366Y0100723D02*
X0096491Y0100723D01*
X0096491Y0100225D02*
X0117366Y0100225D01*
X0117366Y0099726D02*
X0096491Y0099726D01*
X0096491Y0099228D02*
X0117366Y0099228D01*
X0117366Y0098729D02*
X0096491Y0098729D01*
X0096491Y0098231D02*
X0117366Y0098231D01*
X0117366Y0097732D02*
X0096491Y0097732D01*
X0096491Y0097234D02*
X0117366Y0097234D01*
X0117366Y0096735D02*
X0096491Y0096735D01*
X0096491Y0096237D02*
X0117366Y0096237D01*
X0117366Y0095738D02*
X0096491Y0095738D01*
X0096491Y0095239D02*
X0117366Y0095239D01*
X0117366Y0094741D02*
X0096491Y0094741D01*
X0096491Y0094242D02*
X0117366Y0094242D01*
X0117613Y0093744D02*
X0096491Y0093744D01*
X0066713Y0080783D02*
X0026991Y0080783D01*
X0026991Y0081281D02*
X0043008Y0081281D01*
X0043083Y0081207D02*
X0048897Y0081207D01*
X0049390Y0081699D01*
X0049390Y0082215D01*
X0055850Y0082215D01*
X0056343Y0082707D01*
X0056343Y0087340D01*
X0055850Y0087833D01*
X0049390Y0087833D01*
X0049390Y0088301D01*
X0048897Y0088793D01*
X0043083Y0088793D01*
X0042591Y0088301D01*
X0042591Y0081699D01*
X0043083Y0081207D01*
X0042591Y0081780D02*
X0026991Y0081780D01*
X0026991Y0082278D02*
X0042591Y0082278D01*
X0042591Y0082777D02*
X0026991Y0082777D01*
X0026991Y0083275D02*
X0042591Y0083275D01*
X0042591Y0083774D02*
X0026991Y0083774D01*
X0026991Y0084272D02*
X0042591Y0084272D01*
X0042591Y0084771D02*
X0026991Y0084771D01*
X0026991Y0085269D02*
X0042591Y0085269D01*
X0042591Y0085768D02*
X0026991Y0085768D01*
X0026991Y0086266D02*
X0042591Y0086266D01*
X0042591Y0086765D02*
X0026991Y0086765D01*
X0026991Y0087263D02*
X0042591Y0087263D01*
X0042591Y0087762D02*
X0026991Y0087762D01*
X0026991Y0088260D02*
X0042591Y0088260D01*
X0043048Y0088759D02*
X0026991Y0088759D01*
X0026991Y0089257D02*
X0066009Y0089257D01*
X0066009Y0088759D02*
X0048932Y0088759D01*
X0049390Y0088260D02*
X0066009Y0088260D01*
X0066009Y0087762D02*
X0055921Y0087762D01*
X0056343Y0087263D02*
X0066009Y0087263D01*
X0066009Y0086765D02*
X0056343Y0086765D01*
X0056343Y0086266D02*
X0066009Y0086266D01*
X0066009Y0085768D02*
X0056343Y0085768D01*
X0056343Y0085269D02*
X0066009Y0085269D01*
X0066009Y0084771D02*
X0056343Y0084771D01*
X0056343Y0084272D02*
X0066009Y0084272D01*
X0066009Y0083774D02*
X0056343Y0083774D01*
X0056343Y0083275D02*
X0066009Y0083275D01*
X0066009Y0082777D02*
X0056343Y0082777D01*
X0055914Y0082278D02*
X0066009Y0082278D01*
X0066009Y0081780D02*
X0049390Y0081780D01*
X0048972Y0081281D02*
X0066214Y0081281D01*
X0066009Y0089756D02*
X0026991Y0089756D01*
X0026991Y0090254D02*
X0066009Y0090254D01*
X0066009Y0090753D02*
X0026991Y0090753D01*
X0026991Y0091251D02*
X0066009Y0091251D01*
X0066009Y0091750D02*
X0026991Y0091750D01*
X0026991Y0092248D02*
X0066009Y0092248D01*
X0066009Y0092747D02*
X0026991Y0092747D01*
X0026991Y0093245D02*
X0035750Y0093245D01*
X0035509Y0093744D02*
X0026991Y0093744D01*
X0026991Y0094242D02*
X0035509Y0094242D01*
X0035509Y0094741D02*
X0026991Y0094741D01*
X0026991Y0095239D02*
X0035509Y0095239D01*
X0035509Y0095738D02*
X0026991Y0095738D01*
X0026991Y0096237D02*
X0035509Y0096237D01*
X0035509Y0096735D02*
X0026991Y0096735D01*
X0026991Y0097234D02*
X0035509Y0097234D01*
X0035509Y0097732D02*
X0026991Y0097732D01*
X0026991Y0098231D02*
X0035509Y0098231D01*
X0035509Y0098729D02*
X0026991Y0098729D01*
X0026991Y0099228D02*
X0035509Y0099228D01*
X0035509Y0099726D02*
X0026991Y0099726D01*
X0026991Y0100225D02*
X0035509Y0100225D01*
X0035509Y0100723D02*
X0026991Y0100723D01*
X0026991Y0101222D02*
X0035509Y0101222D01*
X0035509Y0101720D02*
X0026991Y0101720D01*
X0026991Y0102219D02*
X0035509Y0102219D01*
X0035509Y0102717D02*
X0026991Y0102717D01*
X0026991Y0103216D02*
X0035509Y0103216D01*
X0035509Y0103714D02*
X0026991Y0103714D01*
X0026991Y0104213D02*
X0035509Y0104213D01*
X0035509Y0104711D02*
X0026991Y0104711D01*
X0026991Y0105210D02*
X0035509Y0105210D01*
X0035509Y0105708D02*
X0026991Y0105708D01*
X0026991Y0106207D02*
X0035509Y0106207D01*
X0035509Y0106705D02*
X0026991Y0106705D01*
X0026991Y0107204D02*
X0035509Y0107204D01*
X0035509Y0107702D02*
X0026991Y0107702D01*
X0026991Y0108201D02*
X0035509Y0108201D01*
X0035509Y0108699D02*
X0026991Y0108699D01*
X0026991Y0109198D02*
X0035509Y0109198D01*
X0035509Y0109696D02*
X0026991Y0109696D01*
X0026991Y0110195D02*
X0035509Y0110195D01*
X0033792Y0076296D02*
X0026991Y0076296D01*
X0026991Y0075798D02*
X0033293Y0075798D01*
X0032795Y0075299D02*
X0026991Y0075299D01*
X0026991Y0074801D02*
X0032296Y0074801D01*
X0031798Y0074302D02*
X0026991Y0074302D01*
X0026991Y0073803D02*
X0031509Y0073803D01*
X0031509Y0073305D02*
X0026991Y0073305D01*
X0026991Y0072806D02*
X0031509Y0072806D01*
X0031509Y0072308D02*
X0026991Y0072308D01*
X0026991Y0071809D02*
X0031509Y0071809D01*
X0031509Y0071311D02*
X0026991Y0071311D01*
X0026991Y0070812D02*
X0031509Y0070812D01*
X0031509Y0070314D02*
X0026991Y0070314D01*
X0026991Y0069815D02*
X0031509Y0069815D01*
X0031509Y0069317D02*
X0026991Y0069317D01*
X0026991Y0068818D02*
X0031509Y0068818D01*
X0031509Y0068320D02*
X0026991Y0068320D01*
X0026991Y0067821D02*
X0031509Y0067821D01*
X0031509Y0067323D02*
X0026991Y0067323D01*
X0026991Y0066824D02*
X0031509Y0066824D01*
X0031509Y0066326D02*
X0026991Y0066326D01*
X0026991Y0065827D02*
X0031509Y0065827D01*
X0031509Y0065329D02*
X0026991Y0065329D01*
X0026991Y0064830D02*
X0031509Y0064830D01*
X0031509Y0064332D02*
X0026991Y0064332D01*
X0026991Y0063833D02*
X0031509Y0063833D01*
X0031509Y0063335D02*
X0026991Y0063335D01*
X0026991Y0062836D02*
X0031509Y0062836D01*
X0031509Y0062338D02*
X0026991Y0062338D01*
X0026991Y0061839D02*
X0031509Y0061839D01*
X0031509Y0061341D02*
X0026991Y0061341D01*
X0026991Y0060842D02*
X0031509Y0060842D01*
X0031509Y0060344D02*
X0026991Y0060344D01*
X0026991Y0059845D02*
X0031509Y0059845D01*
X0031509Y0059347D02*
X0026991Y0059347D01*
X0026991Y0058848D02*
X0031509Y0058848D01*
X0031509Y0058350D02*
X0026991Y0058350D01*
X0026991Y0057851D02*
X0031509Y0057851D01*
X0031509Y0057353D02*
X0026991Y0057353D01*
X0026991Y0056854D02*
X0031509Y0056854D01*
X0031509Y0056356D02*
X0026991Y0056356D01*
X0026991Y0055857D02*
X0031509Y0055857D01*
X0031509Y0055359D02*
X0026991Y0055359D01*
X0026991Y0054860D02*
X0031509Y0054860D01*
X0031509Y0054362D02*
X0026991Y0054362D01*
X0026991Y0053863D02*
X0031509Y0053863D01*
X0031509Y0053365D02*
X0026991Y0053365D01*
X0026991Y0052866D02*
X0031509Y0052866D01*
X0031509Y0052368D02*
X0026991Y0052368D01*
X0026991Y0051869D02*
X0031509Y0051869D01*
X0031509Y0051370D02*
X0026991Y0051370D01*
X0030009Y0050872D02*
X0031509Y0050872D01*
X0031509Y0050373D02*
X0030507Y0050373D01*
X0031006Y0049875D02*
X0031509Y0049875D01*
X0031504Y0049376D02*
X0031509Y0049376D01*
X0033991Y0049376D02*
X0034996Y0049376D01*
X0034622Y0048878D02*
X0033991Y0048878D01*
X0033991Y0048379D02*
X0034622Y0048379D01*
X0034622Y0047881D02*
X0033991Y0047881D01*
X0033991Y0047382D02*
X0034622Y0047382D01*
X0034622Y0046884D02*
X0033991Y0046884D01*
X0033991Y0046385D02*
X0034622Y0046385D01*
X0034732Y0045887D02*
X0033991Y0045887D01*
X0033991Y0045388D02*
X0035231Y0045388D01*
X0035729Y0044890D02*
X0033991Y0044890D01*
X0033991Y0044391D02*
X0036228Y0044391D01*
X0036726Y0043893D02*
X0033991Y0043893D01*
X0033991Y0043394D02*
X0041509Y0043394D01*
X0041509Y0042896D02*
X0033991Y0042896D01*
X0033991Y0042397D02*
X0041393Y0042397D01*
X0040894Y0041899D02*
X0033991Y0041899D01*
X0033905Y0041400D02*
X0040396Y0041400D01*
X0042409Y0039905D02*
X0045524Y0039905D01*
X0046023Y0040403D02*
X0042908Y0040403D01*
X0043406Y0040902D02*
X0046521Y0040902D01*
X0045026Y0039406D02*
X0041911Y0039406D01*
X0041878Y0038908D02*
X0044622Y0038908D01*
X0044622Y0038409D02*
X0041878Y0038409D01*
X0041878Y0037911D02*
X0044622Y0037911D01*
X0044622Y0037412D02*
X0041878Y0037412D01*
X0041878Y0036914D02*
X0044622Y0036914D01*
X0044622Y0036415D02*
X0041878Y0036415D01*
X0041797Y0035917D02*
X0044703Y0035917D01*
X0045201Y0035418D02*
X0041299Y0035418D01*
X0040800Y0034920D02*
X0045700Y0034920D01*
X0046198Y0034421D02*
X0040302Y0034421D01*
X0039803Y0033923D02*
X0046697Y0033923D01*
X0047265Y0032926D02*
X0071677Y0032926D01*
X0072176Y0033424D02*
X0026991Y0033424D01*
X0026991Y0032926D02*
X0032235Y0032926D01*
X0031957Y0032427D02*
X0026991Y0032427D01*
X0026991Y0031929D02*
X0031957Y0031929D01*
X0031957Y0031430D02*
X0026991Y0031430D01*
X0026991Y0030932D02*
X0031957Y0030932D01*
X0031957Y0030433D02*
X0026991Y0030433D01*
X0026991Y0029934D02*
X0031957Y0029934D01*
X0031957Y0029436D02*
X0026991Y0029436D01*
X0026991Y0028937D02*
X0031957Y0028937D01*
X0031957Y0028439D02*
X0026991Y0028439D01*
X0026991Y0027940D02*
X0031957Y0027940D01*
X0031957Y0027442D02*
X0026991Y0027442D01*
X0026991Y0026943D02*
X0031957Y0026943D01*
X0032345Y0026445D02*
X0026991Y0026445D01*
X0026991Y0025946D02*
X0029698Y0025946D01*
X0031802Y0025946D02*
X0059122Y0025946D01*
X0059122Y0026445D02*
X0047155Y0026445D01*
X0047543Y0026943D02*
X0059302Y0026943D01*
X0059508Y0027442D02*
X0047543Y0027442D01*
X0047543Y0027940D02*
X0059772Y0027940D01*
X0060271Y0028439D02*
X0047543Y0028439D01*
X0047543Y0028937D02*
X0060875Y0028937D01*
X0064625Y0028937D02*
X0070875Y0028937D01*
X0070271Y0028439D02*
X0065229Y0028439D01*
X0065728Y0027940D02*
X0069772Y0027940D01*
X0069508Y0027442D02*
X0065992Y0027442D01*
X0066198Y0026943D02*
X0069302Y0026943D01*
X0069122Y0026445D02*
X0066378Y0026445D01*
X0066378Y0025946D02*
X0069122Y0025946D01*
X0072316Y0029436D02*
X0047543Y0029436D01*
X0047543Y0029934D02*
X0071817Y0029934D01*
X0085443Y0028439D02*
X0117366Y0028439D01*
X0117366Y0028937D02*
X0085942Y0028937D01*
X0086440Y0029436D02*
X0117366Y0029436D01*
X0117815Y0029934D02*
X0086939Y0029934D01*
X0087437Y0030433D02*
X0120319Y0030433D01*
X0119820Y0030932D02*
X0087936Y0030932D01*
X0088434Y0031430D02*
X0095145Y0031430D01*
X0094948Y0031627D02*
X0095440Y0031135D01*
X0101312Y0031135D01*
X0101804Y0031627D01*
X0101804Y0037499D01*
X0101312Y0037991D01*
X0095440Y0037991D01*
X0094948Y0037499D01*
X0094948Y0031627D01*
X0094948Y0031929D02*
X0088933Y0031929D01*
X0089431Y0032427D02*
X0094948Y0032427D01*
X0094948Y0032926D02*
X0089930Y0032926D01*
X0090428Y0033424D02*
X0094948Y0033424D01*
X0094948Y0033923D02*
X0090491Y0033923D01*
X0090491Y0034421D02*
X0094948Y0034421D01*
X0094948Y0034920D02*
X0090491Y0034920D01*
X0090491Y0035418D02*
X0094948Y0035418D01*
X0094948Y0035917D02*
X0090491Y0035917D01*
X0090491Y0036415D02*
X0094948Y0036415D01*
X0094948Y0036914D02*
X0090491Y0036914D01*
X0090491Y0037412D02*
X0094948Y0037412D01*
X0095360Y0037911D02*
X0090491Y0037911D01*
X0090491Y0038409D02*
X0117366Y0038409D01*
X0117366Y0037911D02*
X0115000Y0037911D01*
X0116123Y0037412D02*
X0117366Y0037412D01*
X0117366Y0036914D02*
X0116621Y0036914D01*
X0117067Y0036415D02*
X0117366Y0036415D01*
X0117366Y0035917D02*
X0117274Y0035917D01*
X0113248Y0037911D02*
X0107126Y0037911D01*
X0106932Y0037991D02*
X0105568Y0037991D01*
X0104308Y0037469D01*
X0103344Y0036505D01*
X0102822Y0035245D01*
X0102822Y0033881D01*
X0103344Y0032621D01*
X0104308Y0031657D01*
X0105568Y0031135D01*
X0106932Y0031135D01*
X0108192Y0031657D01*
X0109156Y0032621D01*
X0109678Y0033881D01*
X0109678Y0035245D01*
X0109156Y0036505D01*
X0108192Y0037469D01*
X0106932Y0037991D01*
X0108249Y0037412D02*
X0112125Y0037412D01*
X0111627Y0036914D02*
X0108747Y0036914D01*
X0109193Y0036415D02*
X0111181Y0036415D01*
X0110974Y0035917D02*
X0109400Y0035917D01*
X0109606Y0035418D02*
X0110768Y0035418D01*
X0110696Y0034920D02*
X0109678Y0034920D01*
X0109678Y0034421D02*
X0110696Y0034421D01*
X0110696Y0033923D02*
X0109678Y0033923D01*
X0109489Y0033424D02*
X0110885Y0033424D01*
X0111092Y0032926D02*
X0109282Y0032926D01*
X0108962Y0032427D02*
X0111412Y0032427D01*
X0111911Y0031929D02*
X0108463Y0031929D01*
X0107644Y0031430D02*
X0112730Y0031430D01*
X0115518Y0031430D02*
X0119630Y0031430D01*
X0119630Y0031929D02*
X0116337Y0031929D01*
X0116836Y0032427D02*
X0119630Y0032427D01*
X0119677Y0032926D02*
X0117156Y0032926D01*
X0117363Y0033424D02*
X0117456Y0033424D01*
X0123823Y0032926D02*
X0129677Y0032926D01*
X0129630Y0032427D02*
X0123870Y0032427D01*
X0123870Y0031929D02*
X0129630Y0031929D01*
X0129630Y0031430D02*
X0123870Y0031430D01*
X0123680Y0030932D02*
X0129820Y0030932D01*
X0130319Y0030433D02*
X0123181Y0030433D01*
X0125685Y0029934D02*
X0127815Y0029934D01*
X0127366Y0029436D02*
X0126134Y0029436D01*
X0126134Y0028937D02*
X0127366Y0028937D01*
X0127366Y0028439D02*
X0126134Y0028439D01*
X0126134Y0027940D02*
X0127366Y0027940D01*
X0127366Y0027442D02*
X0126134Y0027442D01*
X0126134Y0026943D02*
X0127366Y0026943D01*
X0127366Y0026445D02*
X0126134Y0026445D01*
X0126134Y0025946D02*
X0127366Y0025946D01*
X0127366Y0025448D02*
X0126134Y0025448D01*
X0126134Y0024949D02*
X0127366Y0024949D01*
X0127366Y0024451D02*
X0126134Y0024451D01*
X0126134Y0023952D02*
X0127366Y0023952D01*
X0127366Y0023454D02*
X0126134Y0023454D01*
X0126134Y0022955D02*
X0127366Y0022955D01*
X0127400Y0022457D02*
X0126100Y0022457D01*
X0124207Y0020961D02*
X0129293Y0020961D01*
X0128795Y0020463D02*
X0124705Y0020463D01*
X0124982Y0019964D02*
X0128518Y0019964D01*
X0128311Y0019466D02*
X0125189Y0019466D01*
X0125378Y0018967D02*
X0128122Y0018967D01*
X0128122Y0018469D02*
X0125378Y0018469D01*
X0125378Y0017970D02*
X0128122Y0017970D01*
X0128122Y0017472D02*
X0125378Y0017472D01*
X0125378Y0016973D02*
X0128122Y0016973D01*
X0128122Y0016475D02*
X0125378Y0016475D01*
X0125378Y0015976D02*
X0128122Y0015976D01*
X0128122Y0015478D02*
X0125378Y0015478D01*
X0125378Y0014979D02*
X0128122Y0014979D01*
X0128122Y0014481D02*
X0125378Y0014481D01*
X0125378Y0013982D02*
X0128122Y0013982D01*
X0128122Y0013484D02*
X0125378Y0013484D01*
X0125378Y0012985D02*
X0128122Y0012985D01*
X0128122Y0012487D02*
X0125378Y0012487D01*
X0125377Y0011988D02*
X0128123Y0011988D01*
X0128330Y0011490D02*
X0125170Y0011490D01*
X0124964Y0010991D02*
X0128536Y0010991D01*
X0128839Y0010493D02*
X0124661Y0010493D01*
X0124162Y0009994D02*
X0129338Y0009994D01*
X0130036Y0009496D02*
X0123464Y0009496D01*
X0120036Y0009496D02*
X0107491Y0009496D01*
X0107491Y0009994D02*
X0119338Y0009994D01*
X0118839Y0010493D02*
X0107491Y0010493D01*
X0107491Y0010991D02*
X0118536Y0010991D01*
X0118330Y0011490D02*
X0107491Y0011490D01*
X0107491Y0011988D02*
X0118123Y0011988D01*
X0118122Y0012487D02*
X0107491Y0012487D01*
X0107491Y0012985D02*
X0118122Y0012985D01*
X0118122Y0013484D02*
X0107491Y0013484D01*
X0107491Y0013982D02*
X0118122Y0013982D01*
X0118122Y0014481D02*
X0107491Y0014481D01*
X0107491Y0014979D02*
X0118122Y0014979D01*
X0118122Y0015478D02*
X0107491Y0015478D01*
X0107491Y0015976D02*
X0118122Y0015976D01*
X0118122Y0016475D02*
X0107491Y0016475D01*
X0107491Y0016973D02*
X0118122Y0016973D01*
X0118122Y0017472D02*
X0107491Y0017472D01*
X0107491Y0017970D02*
X0118122Y0017970D01*
X0118122Y0018469D02*
X0107491Y0018469D01*
X0107491Y0018967D02*
X0118122Y0018967D01*
X0118311Y0019466D02*
X0107491Y0019466D01*
X0107491Y0019964D02*
X0118518Y0019964D01*
X0118795Y0020463D02*
X0107491Y0020463D01*
X0107491Y0020961D02*
X0119293Y0020961D01*
X0119909Y0021460D02*
X0107491Y0021460D01*
X0107491Y0021958D02*
X0119909Y0021958D01*
X0117400Y0022457D02*
X0107491Y0022457D01*
X0107491Y0022955D02*
X0117366Y0022955D01*
X0117366Y0023454D02*
X0107491Y0023454D01*
X0107491Y0023952D02*
X0117366Y0023952D01*
X0117366Y0024451D02*
X0107491Y0024451D01*
X0107491Y0024949D02*
X0117366Y0024949D01*
X0117366Y0025448D02*
X0107056Y0025448D01*
X0117366Y0025946D02*
X0086378Y0025946D01*
X0086378Y0026445D02*
X0117366Y0026445D01*
X0117366Y0026943D02*
X0086198Y0026943D01*
X0085992Y0027442D02*
X0117366Y0027442D01*
X0117366Y0027940D02*
X0085728Y0027940D01*
X0101607Y0031430D02*
X0104856Y0031430D01*
X0104037Y0031929D02*
X0101804Y0031929D01*
X0101804Y0032427D02*
X0103538Y0032427D01*
X0103218Y0032926D02*
X0101804Y0032926D01*
X0101804Y0033424D02*
X0103011Y0033424D01*
X0102822Y0033923D02*
X0101804Y0033923D01*
X0101804Y0034421D02*
X0102822Y0034421D01*
X0102822Y0034920D02*
X0101804Y0034920D01*
X0101804Y0035418D02*
X0102894Y0035418D01*
X0103100Y0035917D02*
X0101804Y0035917D01*
X0101804Y0036415D02*
X0103307Y0036415D01*
X0103753Y0036914D02*
X0101804Y0036914D01*
X0101804Y0037412D02*
X0104251Y0037412D01*
X0105374Y0037911D02*
X0101392Y0037911D01*
X0100017Y0039406D02*
X0104609Y0039406D01*
X0103934Y0039905D02*
X0100692Y0039905D01*
X0101190Y0040403D02*
X0103436Y0040403D01*
X0103176Y0040902D02*
X0101450Y0040902D01*
X0101657Y0041400D02*
X0102969Y0041400D01*
X0102822Y0041899D02*
X0101804Y0041899D01*
X0101804Y0042397D02*
X0102822Y0042397D01*
X0102822Y0042896D02*
X0101804Y0042896D01*
X0101690Y0043394D02*
X0102936Y0043394D01*
X0103143Y0043893D02*
X0101483Y0043893D01*
X0101270Y0044391D02*
X0103356Y0044391D01*
X0103855Y0044890D02*
X0100771Y0044890D01*
X0095981Y0044890D02*
X0090491Y0044890D01*
X0090491Y0044391D02*
X0095482Y0044391D01*
X0095269Y0043893D02*
X0090491Y0043893D01*
X0090491Y0043394D02*
X0095062Y0043394D01*
X0094948Y0042896D02*
X0090491Y0042896D01*
X0090491Y0042397D02*
X0094948Y0042397D01*
X0094948Y0041899D02*
X0090491Y0041899D01*
X0090491Y0041400D02*
X0095095Y0041400D01*
X0095302Y0040902D02*
X0090491Y0040902D01*
X0090491Y0040403D02*
X0095562Y0040403D01*
X0096060Y0039905D02*
X0090491Y0039905D01*
X0090491Y0039406D02*
X0096735Y0039406D01*
X0090491Y0038908D02*
X0117366Y0038908D01*
X0117366Y0039406D02*
X0107891Y0039406D01*
X0108566Y0039905D02*
X0117366Y0039905D01*
X0117366Y0040403D02*
X0109064Y0040403D01*
X0109324Y0040902D02*
X0117758Y0040902D01*
X0125742Y0040902D02*
X0127758Y0040902D01*
X0127366Y0040403D02*
X0126134Y0040403D01*
X0126134Y0039905D02*
X0127366Y0039905D01*
X0127366Y0039406D02*
X0126134Y0039406D01*
X0126134Y0038908D02*
X0127366Y0038908D01*
X0127366Y0038409D02*
X0126134Y0038409D01*
X0126134Y0037911D02*
X0127366Y0037911D01*
X0127366Y0037412D02*
X0126134Y0037412D01*
X0126134Y0036914D02*
X0127366Y0036914D01*
X0127366Y0036415D02*
X0126134Y0036415D01*
X0126134Y0035917D02*
X0127366Y0035917D01*
X0127366Y0035418D02*
X0126134Y0035418D01*
X0126134Y0034920D02*
X0127366Y0034920D01*
X0127366Y0034421D02*
X0126134Y0034421D01*
X0126134Y0033923D02*
X0127366Y0033923D01*
X0127456Y0033424D02*
X0126044Y0033424D01*
X0133181Y0030433D02*
X0140319Y0030433D01*
X0139820Y0030932D02*
X0133680Y0030932D01*
X0133870Y0031430D02*
X0139630Y0031430D01*
X0139630Y0031929D02*
X0133870Y0031929D01*
X0133870Y0032427D02*
X0139630Y0032427D01*
X0139677Y0032926D02*
X0133823Y0032926D01*
X0136044Y0033424D02*
X0137456Y0033424D01*
X0137366Y0033923D02*
X0136134Y0033923D01*
X0136134Y0034421D02*
X0137366Y0034421D01*
X0137366Y0034920D02*
X0136134Y0034920D01*
X0136134Y0035418D02*
X0137366Y0035418D01*
X0137366Y0035917D02*
X0136134Y0035917D01*
X0136134Y0036415D02*
X0137366Y0036415D01*
X0137366Y0036914D02*
X0136134Y0036914D01*
X0136134Y0037412D02*
X0137366Y0037412D01*
X0137366Y0037911D02*
X0136134Y0037911D01*
X0136134Y0038409D02*
X0137366Y0038409D01*
X0137366Y0038908D02*
X0136134Y0038908D01*
X0136134Y0039406D02*
X0137366Y0039406D01*
X0137366Y0039905D02*
X0136134Y0039905D01*
X0136134Y0040403D02*
X0137366Y0040403D01*
X0137758Y0040902D02*
X0135742Y0040902D01*
X0145742Y0040902D02*
X0147758Y0040902D01*
X0147366Y0040403D02*
X0146134Y0040403D01*
X0146134Y0039905D02*
X0147366Y0039905D01*
X0147366Y0039406D02*
X0146134Y0039406D01*
X0146134Y0038908D02*
X0147366Y0038908D01*
X0147366Y0038409D02*
X0146134Y0038409D01*
X0146134Y0037911D02*
X0147366Y0037911D01*
X0147366Y0037412D02*
X0146134Y0037412D01*
X0146134Y0036914D02*
X0147366Y0036914D01*
X0147366Y0036415D02*
X0146134Y0036415D01*
X0146134Y0035917D02*
X0147366Y0035917D01*
X0147366Y0035418D02*
X0146134Y0035418D01*
X0146134Y0034920D02*
X0147366Y0034920D01*
X0147366Y0034421D02*
X0146134Y0034421D01*
X0146134Y0033923D02*
X0147366Y0033923D01*
X0147456Y0033424D02*
X0146044Y0033424D01*
X0143823Y0032926D02*
X0149677Y0032926D01*
X0149630Y0032427D02*
X0143870Y0032427D01*
X0143870Y0031929D02*
X0149630Y0031929D01*
X0149630Y0031430D02*
X0143870Y0031430D01*
X0143680Y0030932D02*
X0149820Y0030932D01*
X0150319Y0030433D02*
X0143181Y0030433D01*
X0145685Y0029934D02*
X0147815Y0029934D01*
X0147366Y0029436D02*
X0146134Y0029436D01*
X0146134Y0028937D02*
X0147366Y0028937D01*
X0147366Y0028439D02*
X0146134Y0028439D01*
X0146134Y0027940D02*
X0147366Y0027940D01*
X0147366Y0027442D02*
X0146134Y0027442D01*
X0146134Y0026943D02*
X0147366Y0026943D01*
X0147366Y0026445D02*
X0146134Y0026445D01*
X0146134Y0025946D02*
X0147366Y0025946D01*
X0147366Y0025448D02*
X0146134Y0025448D01*
X0146134Y0024949D02*
X0147366Y0024949D01*
X0147366Y0024451D02*
X0146134Y0024451D01*
X0146134Y0023952D02*
X0147366Y0023952D01*
X0147366Y0023454D02*
X0146134Y0023454D01*
X0146134Y0022955D02*
X0147366Y0022955D01*
X0147400Y0022457D02*
X0146100Y0022457D01*
X0144207Y0020961D02*
X0149293Y0020961D01*
X0148795Y0020463D02*
X0144705Y0020463D01*
X0144982Y0019964D02*
X0148518Y0019964D01*
X0148311Y0019466D02*
X0145189Y0019466D01*
X0145378Y0018967D02*
X0148122Y0018967D01*
X0148122Y0018469D02*
X0145378Y0018469D01*
X0145378Y0017970D02*
X0148122Y0017970D01*
X0148122Y0017472D02*
X0145378Y0017472D01*
X0145378Y0016973D02*
X0148122Y0016973D01*
X0148122Y0016475D02*
X0145378Y0016475D01*
X0145378Y0015976D02*
X0148122Y0015976D01*
X0148122Y0015478D02*
X0145378Y0015478D01*
X0145378Y0014979D02*
X0148122Y0014979D01*
X0148122Y0014481D02*
X0145378Y0014481D01*
X0145378Y0013982D02*
X0148122Y0013982D01*
X0148122Y0013484D02*
X0145378Y0013484D01*
X0145378Y0012985D02*
X0148122Y0012985D01*
X0148122Y0012487D02*
X0145378Y0012487D01*
X0145377Y0011988D02*
X0148123Y0011988D01*
X0148330Y0011490D02*
X0145170Y0011490D01*
X0144964Y0010991D02*
X0148536Y0010991D01*
X0148839Y0010493D02*
X0144661Y0010493D01*
X0144162Y0009994D02*
X0149338Y0009994D01*
X0150036Y0009496D02*
X0143464Y0009496D01*
X0140036Y0009496D02*
X0133464Y0009496D01*
X0134162Y0009994D02*
X0139338Y0009994D01*
X0138839Y0010493D02*
X0134661Y0010493D01*
X0134964Y0010991D02*
X0138536Y0010991D01*
X0138330Y0011490D02*
X0135170Y0011490D01*
X0135377Y0011988D02*
X0138123Y0011988D01*
X0138122Y0012487D02*
X0135378Y0012487D01*
X0135378Y0012985D02*
X0138122Y0012985D01*
X0138122Y0013484D02*
X0135378Y0013484D01*
X0135378Y0013982D02*
X0138122Y0013982D01*
X0138122Y0014481D02*
X0135378Y0014481D01*
X0135378Y0014979D02*
X0138122Y0014979D01*
X0138122Y0015478D02*
X0135378Y0015478D01*
X0135378Y0015976D02*
X0138122Y0015976D01*
X0138122Y0016475D02*
X0135378Y0016475D01*
X0135378Y0016973D02*
X0138122Y0016973D01*
X0138122Y0017472D02*
X0135378Y0017472D01*
X0135378Y0017970D02*
X0138122Y0017970D01*
X0138122Y0018469D02*
X0135378Y0018469D01*
X0135378Y0018967D02*
X0138122Y0018967D01*
X0138311Y0019466D02*
X0135189Y0019466D01*
X0134982Y0019964D02*
X0138518Y0019964D01*
X0138795Y0020463D02*
X0134705Y0020463D01*
X0134207Y0020961D02*
X0139293Y0020961D01*
X0139909Y0021460D02*
X0133591Y0021460D01*
X0133591Y0021958D02*
X0139909Y0021958D01*
X0137400Y0022457D02*
X0136100Y0022457D01*
X0136134Y0022955D02*
X0137366Y0022955D01*
X0137366Y0023454D02*
X0136134Y0023454D01*
X0136134Y0023952D02*
X0137366Y0023952D01*
X0137366Y0024451D02*
X0136134Y0024451D01*
X0136134Y0024949D02*
X0137366Y0024949D01*
X0137366Y0025448D02*
X0136134Y0025448D01*
X0136134Y0025946D02*
X0137366Y0025946D01*
X0137366Y0026445D02*
X0136134Y0026445D01*
X0136134Y0026943D02*
X0137366Y0026943D01*
X0137366Y0027442D02*
X0136134Y0027442D01*
X0136134Y0027940D02*
X0137366Y0027940D01*
X0137366Y0028439D02*
X0136134Y0028439D01*
X0136134Y0028937D02*
X0137366Y0028937D01*
X0137366Y0029436D02*
X0136134Y0029436D01*
X0135685Y0029934D02*
X0137815Y0029934D01*
X0143591Y0021958D02*
X0149909Y0021958D01*
X0149909Y0021460D02*
X0143591Y0021460D01*
X0153591Y0021460D02*
X0159909Y0021460D01*
X0159909Y0021958D02*
X0153591Y0021958D01*
X0154207Y0020961D02*
X0159293Y0020961D01*
X0158795Y0020463D02*
X0154705Y0020463D01*
X0154982Y0019964D02*
X0158518Y0019964D01*
X0158311Y0019466D02*
X0155189Y0019466D01*
X0155378Y0018967D02*
X0158122Y0018967D01*
X0158122Y0018469D02*
X0155378Y0018469D01*
X0155378Y0017970D02*
X0158122Y0017970D01*
X0158122Y0017472D02*
X0155378Y0017472D01*
X0155378Y0016973D02*
X0158122Y0016973D01*
X0158122Y0016475D02*
X0155378Y0016475D01*
X0155378Y0015976D02*
X0158122Y0015976D01*
X0158122Y0015478D02*
X0155378Y0015478D01*
X0155378Y0014979D02*
X0158122Y0014979D01*
X0158122Y0014481D02*
X0155378Y0014481D01*
X0155378Y0013982D02*
X0158122Y0013982D01*
X0158122Y0013484D02*
X0155378Y0013484D01*
X0155378Y0012985D02*
X0158122Y0012985D01*
X0158122Y0012487D02*
X0155378Y0012487D01*
X0155377Y0011988D02*
X0158123Y0011988D01*
X0158330Y0011490D02*
X0155170Y0011490D01*
X0154964Y0010991D02*
X0158536Y0010991D01*
X0158839Y0010493D02*
X0154661Y0010493D01*
X0154162Y0009994D02*
X0159338Y0009994D01*
X0160036Y0009496D02*
X0153464Y0009496D01*
X0163464Y0009496D02*
X0170036Y0009496D01*
X0169338Y0009994D02*
X0164162Y0009994D01*
X0164661Y0010493D02*
X0168839Y0010493D01*
X0168536Y0010991D02*
X0164964Y0010991D01*
X0165170Y0011490D02*
X0168330Y0011490D01*
X0168123Y0011988D02*
X0165377Y0011988D01*
X0165378Y0012487D02*
X0168122Y0012487D01*
X0168122Y0012985D02*
X0165378Y0012985D01*
X0165378Y0013484D02*
X0168122Y0013484D01*
X0168122Y0013982D02*
X0165378Y0013982D01*
X0165378Y0014481D02*
X0168122Y0014481D01*
X0168122Y0014979D02*
X0165378Y0014979D01*
X0165378Y0015478D02*
X0168122Y0015478D01*
X0168122Y0015976D02*
X0165378Y0015976D01*
X0165378Y0016475D02*
X0168122Y0016475D01*
X0168122Y0016973D02*
X0165378Y0016973D01*
X0165378Y0017472D02*
X0168122Y0017472D01*
X0168122Y0017970D02*
X0165378Y0017970D01*
X0165378Y0018469D02*
X0168122Y0018469D01*
X0168122Y0018967D02*
X0165378Y0018967D01*
X0165189Y0019466D02*
X0168311Y0019466D01*
X0168518Y0019964D02*
X0164982Y0019964D01*
X0164705Y0020463D02*
X0168795Y0020463D01*
X0169293Y0020961D02*
X0164207Y0020961D01*
X0163591Y0021460D02*
X0169909Y0021460D01*
X0169909Y0021958D02*
X0163591Y0021958D01*
X0166100Y0022457D02*
X0167400Y0022457D01*
X0167366Y0022955D02*
X0166134Y0022955D01*
X0166134Y0023454D02*
X0167366Y0023454D01*
X0167366Y0023952D02*
X0166134Y0023952D01*
X0166134Y0024451D02*
X0167366Y0024451D01*
X0167366Y0024949D02*
X0166134Y0024949D01*
X0166134Y0025448D02*
X0167366Y0025448D01*
X0167366Y0025946D02*
X0166134Y0025946D01*
X0166134Y0026445D02*
X0167366Y0026445D01*
X0167366Y0026943D02*
X0166134Y0026943D01*
X0166134Y0027442D02*
X0167366Y0027442D01*
X0167366Y0027940D02*
X0166134Y0027940D01*
X0166134Y0028439D02*
X0167366Y0028439D01*
X0167366Y0028937D02*
X0166134Y0028937D01*
X0166134Y0029436D02*
X0167366Y0029436D01*
X0167815Y0029934D02*
X0165685Y0029934D01*
X0163680Y0030932D02*
X0169820Y0030932D01*
X0169630Y0031430D02*
X0163870Y0031430D01*
X0163870Y0031929D02*
X0169630Y0031929D01*
X0169630Y0032427D02*
X0163870Y0032427D01*
X0163823Y0032926D02*
X0169677Y0032926D01*
X0167456Y0033424D02*
X0166044Y0033424D01*
X0166134Y0033923D02*
X0167366Y0033923D01*
X0167366Y0034421D02*
X0166134Y0034421D01*
X0166134Y0034920D02*
X0167366Y0034920D01*
X0167366Y0035418D02*
X0166134Y0035418D01*
X0166134Y0035917D02*
X0167366Y0035917D01*
X0167366Y0036415D02*
X0166134Y0036415D01*
X0166134Y0036914D02*
X0167366Y0036914D01*
X0167366Y0037412D02*
X0166134Y0037412D01*
X0166134Y0037911D02*
X0167366Y0037911D01*
X0167366Y0038409D02*
X0166134Y0038409D01*
X0166134Y0038908D02*
X0167366Y0038908D01*
X0167366Y0039406D02*
X0166134Y0039406D01*
X0166134Y0039905D02*
X0167366Y0039905D01*
X0167366Y0040403D02*
X0166134Y0040403D01*
X0165742Y0040902D02*
X0167758Y0040902D01*
X0175742Y0040902D02*
X0177758Y0040902D01*
X0177366Y0040403D02*
X0176134Y0040403D01*
X0176134Y0039905D02*
X0177366Y0039905D01*
X0177366Y0039406D02*
X0176134Y0039406D01*
X0176134Y0038908D02*
X0177366Y0038908D01*
X0177366Y0038409D02*
X0176134Y0038409D01*
X0176134Y0037911D02*
X0177366Y0037911D01*
X0177366Y0037412D02*
X0176134Y0037412D01*
X0176134Y0036914D02*
X0177366Y0036914D01*
X0177366Y0036415D02*
X0176134Y0036415D01*
X0176134Y0035917D02*
X0177366Y0035917D01*
X0177366Y0035418D02*
X0176134Y0035418D01*
X0176134Y0034920D02*
X0177366Y0034920D01*
X0177366Y0034421D02*
X0176134Y0034421D01*
X0176134Y0033923D02*
X0177366Y0033923D01*
X0177456Y0033424D02*
X0176044Y0033424D01*
X0173823Y0032926D02*
X0179677Y0032926D01*
X0179630Y0032427D02*
X0173870Y0032427D01*
X0173870Y0031929D02*
X0179630Y0031929D01*
X0179630Y0031430D02*
X0173870Y0031430D01*
X0173680Y0030932D02*
X0179820Y0030932D01*
X0180319Y0030433D02*
X0173181Y0030433D01*
X0175685Y0029934D02*
X0177815Y0029934D01*
X0177366Y0029436D02*
X0176134Y0029436D01*
X0176134Y0028937D02*
X0177366Y0028937D01*
X0177366Y0028439D02*
X0176134Y0028439D01*
X0176134Y0027940D02*
X0177366Y0027940D01*
X0177366Y0027442D02*
X0176134Y0027442D01*
X0176134Y0026943D02*
X0177366Y0026943D01*
X0177366Y0026445D02*
X0176134Y0026445D01*
X0176134Y0025946D02*
X0177366Y0025946D01*
X0177366Y0025448D02*
X0176134Y0025448D01*
X0176134Y0024949D02*
X0177366Y0024949D01*
X0177366Y0024451D02*
X0176134Y0024451D01*
X0176134Y0023952D02*
X0177366Y0023952D01*
X0177366Y0023454D02*
X0176134Y0023454D01*
X0176134Y0022955D02*
X0177366Y0022955D01*
X0177400Y0022457D02*
X0176100Y0022457D01*
X0174207Y0020961D02*
X0179293Y0020961D01*
X0178795Y0020463D02*
X0174705Y0020463D01*
X0174982Y0019964D02*
X0178518Y0019964D01*
X0178311Y0019466D02*
X0175189Y0019466D01*
X0175378Y0018967D02*
X0178122Y0018967D01*
X0178122Y0018469D02*
X0175378Y0018469D01*
X0175378Y0017970D02*
X0178122Y0017970D01*
X0178122Y0017472D02*
X0175378Y0017472D01*
X0175378Y0016973D02*
X0178122Y0016973D01*
X0178122Y0016475D02*
X0175378Y0016475D01*
X0175378Y0015976D02*
X0178122Y0015976D01*
X0178122Y0015478D02*
X0175378Y0015478D01*
X0175378Y0014979D02*
X0178122Y0014979D01*
X0178122Y0014481D02*
X0175378Y0014481D01*
X0175378Y0013982D02*
X0178122Y0013982D01*
X0178122Y0013484D02*
X0175378Y0013484D01*
X0175378Y0012985D02*
X0178122Y0012985D01*
X0178122Y0012487D02*
X0175378Y0012487D01*
X0175377Y0011988D02*
X0178123Y0011988D01*
X0178330Y0011490D02*
X0175170Y0011490D01*
X0174964Y0010991D02*
X0178536Y0010991D01*
X0178839Y0010493D02*
X0174661Y0010493D01*
X0174162Y0009994D02*
X0179338Y0009994D01*
X0180036Y0009496D02*
X0173464Y0009496D01*
X0183464Y0009496D02*
X0190036Y0009496D01*
X0189338Y0009994D02*
X0184162Y0009994D01*
X0184661Y0010493D02*
X0188839Y0010493D01*
X0188536Y0010991D02*
X0184964Y0010991D01*
X0185170Y0011490D02*
X0188330Y0011490D01*
X0188123Y0011988D02*
X0185377Y0011988D01*
X0185378Y0012487D02*
X0188122Y0012487D01*
X0188122Y0012985D02*
X0185378Y0012985D01*
X0185378Y0013484D02*
X0188122Y0013484D01*
X0188122Y0013982D02*
X0185378Y0013982D01*
X0185378Y0014481D02*
X0188122Y0014481D01*
X0188122Y0014979D02*
X0185378Y0014979D01*
X0185378Y0015478D02*
X0188122Y0015478D01*
X0188122Y0015976D02*
X0185378Y0015976D01*
X0185378Y0016475D02*
X0188122Y0016475D01*
X0188122Y0016973D02*
X0185378Y0016973D01*
X0185378Y0017472D02*
X0188122Y0017472D01*
X0188122Y0017970D02*
X0185378Y0017970D01*
X0185378Y0018469D02*
X0188122Y0018469D01*
X0188122Y0018967D02*
X0185378Y0018967D01*
X0185189Y0019466D02*
X0188311Y0019466D01*
X0188518Y0019964D02*
X0184982Y0019964D01*
X0184705Y0020463D02*
X0188795Y0020463D01*
X0189293Y0020961D02*
X0184207Y0020961D01*
X0183591Y0021460D02*
X0189929Y0021460D01*
X0193571Y0021460D02*
X0199929Y0021460D01*
X0199293Y0020961D02*
X0194207Y0020961D01*
X0194705Y0020463D02*
X0198795Y0020463D01*
X0198518Y0019964D02*
X0194982Y0019964D01*
X0195189Y0019466D02*
X0198311Y0019466D01*
X0198122Y0018967D02*
X0195378Y0018967D01*
X0195378Y0018469D02*
X0198122Y0018469D01*
X0198122Y0017970D02*
X0195378Y0017970D01*
X0195378Y0017472D02*
X0198122Y0017472D01*
X0198122Y0016973D02*
X0195378Y0016973D01*
X0195378Y0016475D02*
X0198122Y0016475D01*
X0198122Y0015976D02*
X0195378Y0015976D01*
X0195378Y0015478D02*
X0198122Y0015478D01*
X0198122Y0014979D02*
X0195378Y0014979D01*
X0195378Y0014481D02*
X0198122Y0014481D01*
X0198122Y0013982D02*
X0195378Y0013982D01*
X0195378Y0013484D02*
X0198122Y0013484D01*
X0198122Y0012985D02*
X0195378Y0012985D01*
X0195378Y0012487D02*
X0198122Y0012487D01*
X0198123Y0011988D02*
X0195377Y0011988D01*
X0195170Y0011490D02*
X0198330Y0011490D01*
X0198536Y0010991D02*
X0194964Y0010991D01*
X0194661Y0010493D02*
X0198839Y0010493D01*
X0199338Y0009994D02*
X0194162Y0009994D01*
X0193464Y0009496D02*
X0200036Y0009496D01*
X0203464Y0009496D02*
X0217543Y0009496D01*
X0217543Y0009994D02*
X0204162Y0009994D01*
X0204661Y0010493D02*
X0217543Y0010493D01*
X0217543Y0010991D02*
X0204964Y0010991D01*
X0205170Y0011490D02*
X0217543Y0011490D01*
X0217543Y0011988D02*
X0205377Y0011988D01*
X0205378Y0012487D02*
X0217543Y0012487D01*
X0217543Y0012985D02*
X0205378Y0012985D01*
X0205378Y0013484D02*
X0217543Y0013484D01*
X0217543Y0013982D02*
X0205378Y0013982D01*
X0205378Y0014481D02*
X0217543Y0014481D01*
X0217543Y0014979D02*
X0205378Y0014979D01*
X0205378Y0015478D02*
X0217543Y0015478D01*
X0217543Y0015976D02*
X0205378Y0015976D01*
X0205378Y0016475D02*
X0217543Y0016475D01*
X0217543Y0016973D02*
X0205378Y0016973D01*
X0205378Y0017472D02*
X0217543Y0017472D01*
X0217543Y0017970D02*
X0205378Y0017970D01*
X0205378Y0018469D02*
X0217543Y0018469D01*
X0217543Y0018967D02*
X0205378Y0018967D01*
X0205189Y0019466D02*
X0217543Y0019466D01*
X0217543Y0019964D02*
X0204982Y0019964D01*
X0204705Y0020463D02*
X0217543Y0020463D01*
X0217543Y0020961D02*
X0204207Y0020961D01*
X0203571Y0021460D02*
X0217543Y0021460D01*
X0217543Y0021958D02*
X0183591Y0021958D01*
X0186100Y0022457D02*
X0217543Y0022457D01*
X0217543Y0022955D02*
X0186134Y0022955D01*
X0186134Y0023454D02*
X0217543Y0023454D01*
X0217543Y0023952D02*
X0186134Y0023952D01*
X0186134Y0024451D02*
X0217543Y0024451D01*
X0217543Y0024949D02*
X0186134Y0024949D01*
X0186134Y0025448D02*
X0217543Y0025448D01*
X0217543Y0025946D02*
X0186134Y0025946D01*
X0186134Y0026445D02*
X0217543Y0026445D01*
X0217543Y0026943D02*
X0186134Y0026943D01*
X0186134Y0027442D02*
X0217543Y0027442D01*
X0217543Y0027940D02*
X0186134Y0027940D01*
X0186134Y0028439D02*
X0217543Y0028439D01*
X0217543Y0028937D02*
X0186134Y0028937D01*
X0186134Y0029436D02*
X0217543Y0029436D01*
X0217543Y0029934D02*
X0185685Y0029934D01*
X0183680Y0030932D02*
X0217543Y0030932D01*
X0217543Y0031430D02*
X0183870Y0031430D01*
X0183181Y0030433D02*
X0217543Y0030433D01*
X0179909Y0021958D02*
X0173591Y0021958D01*
X0173591Y0021460D02*
X0179909Y0021460D01*
X0170319Y0030433D02*
X0163181Y0030433D01*
X0160319Y0030433D02*
X0153181Y0030433D01*
X0153680Y0030932D02*
X0159820Y0030932D01*
X0159630Y0031430D02*
X0153870Y0031430D01*
X0153870Y0031929D02*
X0159630Y0031929D01*
X0159630Y0032427D02*
X0153870Y0032427D01*
X0153823Y0032926D02*
X0159677Y0032926D01*
X0157456Y0033424D02*
X0156044Y0033424D01*
X0156134Y0033923D02*
X0157366Y0033923D01*
X0157366Y0034421D02*
X0156134Y0034421D01*
X0156134Y0034920D02*
X0157366Y0034920D01*
X0157366Y0035418D02*
X0156134Y0035418D01*
X0156134Y0035917D02*
X0157366Y0035917D01*
X0157366Y0036415D02*
X0156134Y0036415D01*
X0156134Y0036914D02*
X0157366Y0036914D01*
X0157366Y0037412D02*
X0156134Y0037412D01*
X0156134Y0037911D02*
X0157366Y0037911D01*
X0157366Y0038409D02*
X0156134Y0038409D01*
X0156134Y0038908D02*
X0157366Y0038908D01*
X0157366Y0039406D02*
X0156134Y0039406D01*
X0156134Y0039905D02*
X0157366Y0039905D01*
X0157366Y0040403D02*
X0156134Y0040403D01*
X0155742Y0040902D02*
X0157758Y0040902D01*
X0157815Y0029934D02*
X0155685Y0029934D01*
X0156134Y0029436D02*
X0157366Y0029436D01*
X0157366Y0028937D02*
X0156134Y0028937D01*
X0156134Y0028439D02*
X0157366Y0028439D01*
X0157366Y0027940D02*
X0156134Y0027940D01*
X0156134Y0027442D02*
X0157366Y0027442D01*
X0157366Y0026943D02*
X0156134Y0026943D01*
X0156134Y0026445D02*
X0157366Y0026445D01*
X0157366Y0025946D02*
X0156134Y0025946D01*
X0156134Y0025448D02*
X0157366Y0025448D01*
X0157366Y0024949D02*
X0156134Y0024949D01*
X0156134Y0024451D02*
X0157366Y0024451D01*
X0157366Y0023952D02*
X0156134Y0023952D01*
X0156134Y0023454D02*
X0157366Y0023454D01*
X0157366Y0022955D02*
X0156134Y0022955D01*
X0156100Y0022457D02*
X0157400Y0022457D01*
X0129909Y0021958D02*
X0123591Y0021958D01*
X0123591Y0021460D02*
X0129909Y0021460D01*
X0086372Y0049376D02*
X0085491Y0049376D01*
X0085491Y0048878D02*
X0085874Y0048878D01*
X0085491Y0049875D02*
X0086871Y0049875D01*
X0088120Y0050872D02*
X0088529Y0050872D01*
X0051509Y0045388D02*
X0051269Y0045388D01*
X0051509Y0044890D02*
X0050771Y0044890D01*
X0050272Y0044391D02*
X0051509Y0044391D01*
X0051509Y0043893D02*
X0049773Y0043893D01*
X0041509Y0043893D02*
X0039773Y0043893D01*
X0040272Y0044391D02*
X0041509Y0044391D01*
X0041509Y0044890D02*
X0040771Y0044890D01*
X0041269Y0045388D02*
X0041509Y0045388D01*
X0036491Y0050872D02*
X0033991Y0050872D01*
X0033991Y0050373D02*
X0035993Y0050373D01*
X0035494Y0049875D02*
X0033991Y0049875D01*
X0033406Y0040902D02*
X0036521Y0040902D01*
X0036023Y0040403D02*
X0032908Y0040403D01*
X0032409Y0039905D02*
X0035524Y0039905D01*
X0035026Y0039406D02*
X0031911Y0039406D01*
X0031878Y0038908D02*
X0034622Y0038908D01*
X0034622Y0038409D02*
X0031878Y0038409D01*
X0031878Y0037911D02*
X0034622Y0037911D01*
X0034622Y0037412D02*
X0031878Y0037412D01*
X0031878Y0036914D02*
X0034622Y0036914D01*
X0034622Y0036415D02*
X0031878Y0036415D01*
X0031797Y0035917D02*
X0034703Y0035917D01*
X0035201Y0035418D02*
X0031299Y0035418D01*
X0030800Y0034920D02*
X0035700Y0034920D01*
X0036198Y0034421D02*
X0030302Y0034421D01*
X0029803Y0033923D02*
X0036697Y0033923D01*
X0039265Y0032926D02*
X0040235Y0032926D01*
X0039957Y0032427D02*
X0039543Y0032427D01*
X0039543Y0031929D02*
X0039957Y0031929D01*
X0039957Y0031430D02*
X0039543Y0031430D01*
X0039543Y0028439D02*
X0039957Y0028439D01*
X0039957Y0027940D02*
X0039543Y0027940D01*
X0039543Y0027442D02*
X0039957Y0027442D01*
X0039957Y0026943D02*
X0039543Y0026943D01*
X0039155Y0026445D02*
X0040345Y0026445D01*
X0128150Y0056854D02*
X0131398Y0056854D01*
X0129909Y0112687D02*
X0123591Y0112687D01*
X0123854Y0113186D02*
X0129646Y0113186D01*
X0143591Y0112687D02*
X0149909Y0112687D01*
X0149646Y0113186D02*
X0143854Y0113186D01*
X0163591Y0112687D02*
X0169909Y0112687D01*
X0169646Y0113186D02*
X0163854Y0113186D01*
D21*
X0020831Y0124529D02*
X0020831Y0009581D01*
X0106250Y0009581D01*
X0106250Y0024500D01*
X0086528Y0024500D01*
X0086528Y0019461D01*
X0085953Y0018073D01*
X0084890Y0017010D01*
X0083501Y0016435D01*
X0081999Y0016435D01*
X0080610Y0017010D01*
X0079547Y0018073D01*
X0078972Y0019461D01*
X0078972Y0024500D01*
X0076528Y0024500D01*
X0076528Y0019461D01*
X0075953Y0018073D01*
X0074890Y0017010D01*
X0073501Y0016435D01*
X0071999Y0016435D01*
X0070610Y0017010D01*
X0069547Y0018073D01*
X0068972Y0019461D01*
X0068972Y0024500D01*
X0066528Y0024500D01*
X0066528Y0019461D01*
X0065953Y0018073D01*
X0064890Y0017010D01*
X0063501Y0016435D01*
X0063391Y0016435D01*
X0063326Y0016369D01*
X0062641Y0015684D01*
X0061826Y0014869D01*
X0046674Y0014869D01*
X0043174Y0018369D01*
X0042833Y0018710D01*
X0040387Y0018710D01*
X0039807Y0019290D01*
X0039807Y0024500D01*
X0039693Y0024500D01*
X0039693Y0019290D01*
X0039113Y0018710D01*
X0032387Y0018710D01*
X0031807Y0019290D01*
X0031807Y0021846D01*
X0031690Y0021730D01*
X0029810Y0021730D01*
X0028480Y0023060D01*
X0028480Y0024500D01*
X0025750Y0024500D01*
X0025750Y0034657D01*
X0024472Y0035935D01*
X0024472Y0039065D01*
X0025750Y0040343D01*
X0025750Y0044657D01*
X0024472Y0045935D01*
X0024472Y0049065D01*
X0025750Y0050343D01*
X0025750Y0054657D01*
X0024472Y0055935D01*
X0024472Y0059065D01*
X0025750Y0060343D01*
X0025750Y0111506D01*
X0067250Y0111506D01*
X0067250Y0082000D01*
X0095250Y0082000D01*
X0095250Y0112000D01*
X0106250Y0112000D01*
X0106250Y0124529D01*
X0020831Y0124529D01*
X0020831Y0123784D02*
X0106250Y0123784D01*
X0106250Y0122986D02*
X0020831Y0122986D01*
X0020831Y0122187D02*
X0106250Y0122187D01*
X0106250Y0121389D02*
X0020831Y0121389D01*
X0020831Y0120590D02*
X0106250Y0120590D01*
X0106250Y0119792D02*
X0020831Y0119792D01*
X0020831Y0118993D02*
X0106250Y0118993D01*
X0106250Y0118195D02*
X0020831Y0118195D01*
X0020831Y0117396D02*
X0106250Y0117396D01*
X0106250Y0116598D02*
X0020831Y0116598D01*
X0020831Y0115799D02*
X0106250Y0115799D01*
X0106250Y0115001D02*
X0020831Y0115001D01*
X0020831Y0114202D02*
X0106250Y0114202D01*
X0106250Y0113403D02*
X0020831Y0113403D01*
X0020831Y0112605D02*
X0106250Y0112605D01*
X0095250Y0111806D02*
X0020831Y0111806D01*
X0020831Y0111008D02*
X0025750Y0111008D01*
X0025750Y0110209D02*
X0020831Y0110209D01*
X0020831Y0109411D02*
X0025750Y0109411D01*
X0025750Y0108612D02*
X0020831Y0108612D01*
X0020831Y0107814D02*
X0025750Y0107814D01*
X0025750Y0107015D02*
X0020831Y0107015D01*
X0020831Y0106217D02*
X0025750Y0106217D01*
X0025750Y0105418D02*
X0020831Y0105418D01*
X0020831Y0104620D02*
X0025750Y0104620D01*
X0025750Y0103821D02*
X0020831Y0103821D01*
X0020831Y0103023D02*
X0025750Y0103023D01*
X0025750Y0102224D02*
X0020831Y0102224D01*
X0020831Y0101426D02*
X0025750Y0101426D01*
X0025750Y0100627D02*
X0020831Y0100627D01*
X0020831Y0099829D02*
X0025750Y0099829D01*
X0025750Y0099030D02*
X0020831Y0099030D01*
X0020831Y0098232D02*
X0025750Y0098232D01*
X0025750Y0097433D02*
X0020831Y0097433D01*
X0020831Y0096635D02*
X0025750Y0096635D01*
X0025750Y0095836D02*
X0020831Y0095836D01*
X0020831Y0095038D02*
X0025750Y0095038D01*
X0025750Y0094239D02*
X0020831Y0094239D01*
X0020831Y0093441D02*
X0025750Y0093441D01*
X0025750Y0092642D02*
X0020831Y0092642D01*
X0020831Y0091844D02*
X0025750Y0091844D01*
X0025750Y0091045D02*
X0020831Y0091045D01*
X0020831Y0090247D02*
X0025750Y0090247D01*
X0025750Y0089448D02*
X0020831Y0089448D01*
X0020831Y0088650D02*
X0025750Y0088650D01*
X0025750Y0087851D02*
X0020831Y0087851D01*
X0020831Y0087053D02*
X0025750Y0087053D01*
X0025750Y0086254D02*
X0020831Y0086254D01*
X0020831Y0085456D02*
X0025750Y0085456D01*
X0025750Y0084657D02*
X0020831Y0084657D01*
X0020831Y0083859D02*
X0025750Y0083859D01*
X0025750Y0083060D02*
X0020831Y0083060D01*
X0020831Y0082262D02*
X0025750Y0082262D01*
X0025750Y0081463D02*
X0020831Y0081463D01*
X0020831Y0080665D02*
X0025750Y0080665D01*
X0025750Y0079866D02*
X0020831Y0079866D01*
X0020831Y0079068D02*
X0025750Y0079068D01*
X0025750Y0078269D02*
X0020831Y0078269D01*
X0020831Y0077470D02*
X0025750Y0077470D01*
X0025750Y0076672D02*
X0020831Y0076672D01*
X0020831Y0075873D02*
X0025750Y0075873D01*
X0025750Y0075075D02*
X0020831Y0075075D01*
X0020831Y0074276D02*
X0025750Y0074276D01*
X0025750Y0073478D02*
X0020831Y0073478D01*
X0020831Y0072679D02*
X0025750Y0072679D01*
X0025750Y0071881D02*
X0020831Y0071881D01*
X0020831Y0071082D02*
X0025750Y0071082D01*
X0025750Y0070284D02*
X0020831Y0070284D01*
X0020831Y0069485D02*
X0025750Y0069485D01*
X0025750Y0068687D02*
X0020831Y0068687D01*
X0020831Y0067888D02*
X0025750Y0067888D01*
X0025750Y0067090D02*
X0020831Y0067090D01*
X0020831Y0066291D02*
X0025750Y0066291D01*
X0025750Y0065493D02*
X0020831Y0065493D01*
X0020831Y0064694D02*
X0025750Y0064694D01*
X0025750Y0063896D02*
X0020831Y0063896D01*
X0020831Y0063097D02*
X0025750Y0063097D01*
X0025750Y0062299D02*
X0020831Y0062299D01*
X0020831Y0061500D02*
X0025750Y0061500D01*
X0025750Y0060702D02*
X0020831Y0060702D01*
X0020831Y0059903D02*
X0025310Y0059903D01*
X0024512Y0059105D02*
X0020831Y0059105D01*
X0020831Y0058306D02*
X0024472Y0058306D01*
X0024472Y0057508D02*
X0020831Y0057508D01*
X0020831Y0056709D02*
X0024472Y0056709D01*
X0024496Y0055911D02*
X0020831Y0055911D01*
X0020831Y0055112D02*
X0025295Y0055112D01*
X0025750Y0054314D02*
X0020831Y0054314D01*
X0020831Y0053515D02*
X0025750Y0053515D01*
X0025750Y0052717D02*
X0020831Y0052717D01*
X0020831Y0051918D02*
X0025750Y0051918D01*
X0025750Y0051120D02*
X0020831Y0051120D01*
X0020831Y0050321D02*
X0025728Y0050321D01*
X0024930Y0049523D02*
X0020831Y0049523D01*
X0020831Y0048724D02*
X0024472Y0048724D01*
X0024472Y0047926D02*
X0020831Y0047926D01*
X0020831Y0047127D02*
X0024472Y0047127D01*
X0024472Y0046329D02*
X0020831Y0046329D01*
X0020831Y0045530D02*
X0024877Y0045530D01*
X0025676Y0044732D02*
X0020831Y0044732D01*
X0020831Y0043933D02*
X0025750Y0043933D01*
X0025750Y0043134D02*
X0020831Y0043134D01*
X0020831Y0042336D02*
X0025750Y0042336D01*
X0025750Y0041537D02*
X0020831Y0041537D01*
X0020831Y0040739D02*
X0025750Y0040739D01*
X0025348Y0039940D02*
X0020831Y0039940D01*
X0020831Y0039142D02*
X0024549Y0039142D01*
X0024472Y0038343D02*
X0020831Y0038343D01*
X0020831Y0037545D02*
X0024472Y0037545D01*
X0024472Y0036746D02*
X0020831Y0036746D01*
X0020831Y0035948D02*
X0024472Y0035948D01*
X0025258Y0035149D02*
X0020831Y0035149D01*
X0020831Y0034351D02*
X0025750Y0034351D01*
X0025750Y0033552D02*
X0020831Y0033552D01*
X0020831Y0032754D02*
X0025750Y0032754D01*
X0025750Y0031955D02*
X0020831Y0031955D01*
X0020831Y0031157D02*
X0025750Y0031157D01*
X0025750Y0030358D02*
X0020831Y0030358D01*
X0020831Y0029560D02*
X0025750Y0029560D01*
X0025750Y0028761D02*
X0020831Y0028761D01*
X0020831Y0027963D02*
X0025750Y0027963D01*
X0025750Y0027164D02*
X0020831Y0027164D01*
X0020831Y0026366D02*
X0025750Y0026366D01*
X0025750Y0025567D02*
X0020831Y0025567D01*
X0020831Y0024769D02*
X0025750Y0024769D01*
X0028480Y0023970D02*
X0020831Y0023970D01*
X0020831Y0023172D02*
X0028480Y0023172D01*
X0029166Y0022373D02*
X0020831Y0022373D01*
X0020831Y0021575D02*
X0031807Y0021575D01*
X0031807Y0020776D02*
X0020831Y0020776D01*
X0020831Y0019978D02*
X0031807Y0019978D01*
X0031918Y0019179D02*
X0020831Y0019179D01*
X0020831Y0018381D02*
X0043163Y0018381D01*
X0043961Y0017582D02*
X0020831Y0017582D01*
X0020831Y0016784D02*
X0044760Y0016784D01*
X0045558Y0015985D02*
X0020831Y0015985D01*
X0020831Y0015187D02*
X0046357Y0015187D01*
X0047250Y0016260D02*
X0043750Y0019760D01*
X0043750Y0022260D01*
X0039807Y0022373D02*
X0039693Y0022373D01*
X0039693Y0021575D02*
X0039807Y0021575D01*
X0039807Y0020776D02*
X0039693Y0020776D01*
X0039693Y0019978D02*
X0039807Y0019978D01*
X0039918Y0019179D02*
X0039582Y0019179D01*
X0035750Y0022260D02*
X0034010Y0024000D01*
X0030750Y0024000D01*
X0035750Y0029740D02*
X0043750Y0029740D01*
X0045510Y0031500D01*
X0073250Y0031500D01*
X0080900Y0031500D01*
X0082250Y0031500D01*
X0086250Y0035500D01*
X0086250Y0047500D01*
X0087750Y0049000D01*
X0152750Y0049000D01*
X0153980Y0050230D01*
X0161946Y0050230D01*
X0175446Y0063730D01*
X0183750Y0063730D01*
X0184690Y0061460D02*
X0175210Y0061460D01*
X0161359Y0047609D01*
X0088859Y0047609D01*
X0087750Y0046500D01*
X0087750Y0034500D01*
X0083359Y0030109D01*
X0075859Y0030109D01*
X0072750Y0027000D01*
X0072750Y0023000D01*
X0076528Y0023172D02*
X0078972Y0023172D01*
X0078972Y0023970D02*
X0076528Y0023970D01*
X0076528Y0022373D02*
X0078972Y0022373D01*
X0078972Y0021575D02*
X0076528Y0021575D01*
X0076528Y0020776D02*
X0078972Y0020776D01*
X0078972Y0019978D02*
X0076528Y0019978D01*
X0076411Y0019179D02*
X0079089Y0019179D01*
X0079420Y0018381D02*
X0076080Y0018381D01*
X0075462Y0017582D02*
X0080038Y0017582D01*
X0081156Y0016784D02*
X0074344Y0016784D01*
X0071156Y0016784D02*
X0064344Y0016784D01*
X0065462Y0017582D02*
X0070038Y0017582D01*
X0069420Y0018381D02*
X0066080Y0018381D01*
X0066411Y0019179D02*
X0069089Y0019179D01*
X0068972Y0019978D02*
X0066528Y0019978D01*
X0066528Y0020776D02*
X0068972Y0020776D01*
X0068972Y0021575D02*
X0066528Y0021575D01*
X0066528Y0022373D02*
X0068972Y0022373D01*
X0068972Y0023172D02*
X0066528Y0023172D01*
X0066528Y0023970D02*
X0068972Y0023970D01*
X0062750Y0023000D02*
X0062750Y0017760D01*
X0061250Y0016260D01*
X0047250Y0016260D01*
X0039807Y0023172D02*
X0039693Y0023172D01*
X0039693Y0023970D02*
X0039807Y0023970D01*
X0020831Y0014388D02*
X0106250Y0014388D01*
X0106250Y0013590D02*
X0020831Y0013590D01*
X0020831Y0012791D02*
X0106250Y0012791D01*
X0106250Y0011993D02*
X0020831Y0011993D01*
X0020831Y0011194D02*
X0106250Y0011194D01*
X0106250Y0010396D02*
X0020831Y0010396D01*
X0020831Y0009597D02*
X0106250Y0009597D01*
X0106250Y0015187D02*
X0062143Y0015187D01*
X0062942Y0015985D02*
X0106250Y0015985D01*
X0106250Y0016784D02*
X0084344Y0016784D01*
X0085462Y0017582D02*
X0106250Y0017582D01*
X0106250Y0018381D02*
X0086080Y0018381D01*
X0086411Y0019179D02*
X0106250Y0019179D01*
X0106250Y0019978D02*
X0086528Y0019978D01*
X0086528Y0020776D02*
X0106250Y0020776D01*
X0106250Y0021575D02*
X0086528Y0021575D01*
X0086528Y0022373D02*
X0106250Y0022373D01*
X0106250Y0023172D02*
X0086528Y0023172D01*
X0086528Y0023970D02*
X0106250Y0023970D01*
X0089250Y0034000D02*
X0089000Y0033750D01*
X0082750Y0027500D01*
X0082750Y0023000D01*
X0089250Y0034000D02*
X0089250Y0045500D01*
X0089969Y0046219D01*
X0162239Y0046219D01*
X0175750Y0059730D01*
X0186750Y0059730D01*
X0190750Y0063730D01*
X0187250Y0063730D02*
X0186960Y0063730D01*
X0184690Y0061460D01*
X0175750Y0066000D02*
X0199250Y0066000D01*
X0205750Y0072500D01*
X0200750Y0072500D02*
X0196250Y0068000D01*
X0174750Y0068000D01*
X0162409Y0055659D01*
X0159750Y0055659D01*
X0159764Y0058809D02*
X0159963Y0059007D01*
X0162690Y0059007D01*
X0173683Y0070000D01*
X0193250Y0070000D01*
X0195750Y0072500D01*
X0190750Y0072500D02*
X0172973Y0072500D01*
X0161750Y0061277D01*
X0162250Y0052500D02*
X0175750Y0066000D01*
X0159498Y0075252D02*
X0034502Y0075252D01*
X0032750Y0073500D01*
X0032750Y0042000D01*
X0028250Y0037500D01*
X0038250Y0037500D02*
X0042750Y0042000D01*
X0042750Y0068000D01*
X0044250Y0069500D01*
X0093750Y0069500D01*
X0098750Y0066500D02*
X0054750Y0066500D01*
X0052750Y0064500D01*
X0052750Y0042000D01*
X0048250Y0037500D01*
X0059750Y0037500D02*
X0064250Y0042000D01*
X0064250Y0062000D01*
X0066250Y0064000D01*
X0114250Y0064000D01*
X0118750Y0061500D02*
X0075750Y0061500D01*
X0074250Y0060000D01*
X0074250Y0042000D01*
X0069750Y0037500D01*
X0079750Y0037500D02*
X0084250Y0042000D01*
X0084250Y0057000D01*
X0085750Y0058500D01*
X0132750Y0058500D01*
X0130250Y0053000D02*
X0126750Y0056500D01*
X0089250Y0056500D01*
X0086750Y0054000D01*
X0086750Y0052500D01*
X0089900Y0052500D02*
X0092400Y0055000D01*
X0125750Y0055000D01*
X0129250Y0051500D01*
X0137704Y0051500D01*
X0138977Y0052773D01*
X0136250Y0054500D02*
X0134750Y0053000D01*
X0130250Y0053000D01*
X0159750Y0052500D02*
X0162250Y0052500D01*
X0209750Y0057500D02*
X0209750Y0063000D01*
X0095250Y0082262D02*
X0067250Y0082262D01*
X0067250Y0083060D02*
X0095250Y0083060D01*
X0095250Y0083859D02*
X0067250Y0083859D01*
X0067250Y0084657D02*
X0095250Y0084657D01*
X0095250Y0085456D02*
X0067250Y0085456D01*
X0067250Y0086254D02*
X0095250Y0086254D01*
X0095250Y0087053D02*
X0067250Y0087053D01*
X0067250Y0087851D02*
X0095250Y0087851D01*
X0095250Y0088650D02*
X0067250Y0088650D01*
X0067250Y0089448D02*
X0095250Y0089448D01*
X0095250Y0090247D02*
X0067250Y0090247D01*
X0067250Y0091045D02*
X0095250Y0091045D01*
X0095250Y0091844D02*
X0067250Y0091844D01*
X0067250Y0092642D02*
X0095250Y0092642D01*
X0095250Y0093441D02*
X0067250Y0093441D01*
X0067250Y0094239D02*
X0095250Y0094239D01*
X0095250Y0095038D02*
X0067250Y0095038D01*
X0067250Y0095836D02*
X0095250Y0095836D01*
X0095250Y0096635D02*
X0067250Y0096635D01*
X0067250Y0097433D02*
X0095250Y0097433D01*
X0095250Y0098232D02*
X0067250Y0098232D01*
X0067250Y0099030D02*
X0095250Y0099030D01*
X0095250Y0099829D02*
X0067250Y0099829D01*
X0067250Y0100627D02*
X0095250Y0100627D01*
X0095250Y0101426D02*
X0067250Y0101426D01*
X0067250Y0102224D02*
X0095250Y0102224D01*
X0095250Y0103023D02*
X0067250Y0103023D01*
X0067250Y0103821D02*
X0095250Y0103821D01*
X0095250Y0104620D02*
X0067250Y0104620D01*
X0067250Y0105418D02*
X0095250Y0105418D01*
X0095250Y0106217D02*
X0067250Y0106217D01*
X0067250Y0107015D02*
X0095250Y0107015D01*
X0095250Y0107814D02*
X0067250Y0107814D01*
X0067250Y0108612D02*
X0095250Y0108612D01*
X0095250Y0109411D02*
X0067250Y0109411D01*
X0067250Y0110209D02*
X0095250Y0110209D01*
X0095250Y0111008D02*
X0067250Y0111008D01*
X0065750Y0110000D02*
X0036750Y0110000D01*
X0036750Y0094000D01*
X0065750Y0094000D01*
X0065750Y0110000D01*
X0065750Y0109411D02*
X0036750Y0109411D01*
X0036750Y0108612D02*
X0065750Y0108612D01*
X0065750Y0107814D02*
X0036750Y0107814D01*
X0036750Y0107015D02*
X0065750Y0107015D01*
X0065750Y0106217D02*
X0036750Y0106217D01*
X0036750Y0105418D02*
X0065750Y0105418D01*
X0065750Y0104620D02*
X0036750Y0104620D01*
X0036750Y0103821D02*
X0065750Y0103821D01*
X0065750Y0103023D02*
X0036750Y0103023D01*
X0036750Y0102224D02*
X0065750Y0102224D01*
X0065750Y0101426D02*
X0036750Y0101426D01*
X0036750Y0100627D02*
X0065750Y0100627D01*
X0065750Y0099829D02*
X0036750Y0099829D01*
X0036750Y0099030D02*
X0065750Y0099030D01*
X0065750Y0098232D02*
X0036750Y0098232D01*
X0036750Y0097433D02*
X0065750Y0097433D01*
X0065750Y0096635D02*
X0036750Y0096635D01*
X0036750Y0095836D02*
X0065750Y0095836D01*
X0065750Y0095038D02*
X0036750Y0095038D01*
X0036750Y0094239D02*
X0065750Y0094239D01*
D22*
X0121750Y0108512D02*
X0121750Y0119000D01*
X0131750Y0119000D02*
X0131750Y0108512D01*
X0141750Y0108512D02*
X0141750Y0119000D01*
X0151750Y0119000D02*
X0151750Y0108512D01*
X0161750Y0108512D02*
X0161750Y0119000D01*
X0171750Y0119000D02*
X0171750Y0108512D01*
X0181750Y0108512D02*
X0181750Y0119000D01*
X0181750Y0025988D02*
X0181750Y0015500D01*
X0171750Y0015500D02*
X0171750Y0025988D01*
X0161750Y0025988D02*
X0161750Y0015500D01*
X0151750Y0015500D02*
X0151750Y0025988D01*
X0141750Y0025988D02*
X0141750Y0015500D01*
X0131750Y0015500D02*
X0131750Y0025988D01*
X0121750Y0025988D02*
X0121750Y0015500D01*
D23*
X0121750Y0032000D02*
X0121750Y0037012D01*
X0131750Y0037012D02*
X0131750Y0032000D01*
X0141750Y0032000D02*
X0141750Y0037012D01*
X0151750Y0037012D02*
X0151750Y0032000D01*
X0161750Y0032000D02*
X0161750Y0037012D01*
X0171750Y0037012D02*
X0171750Y0032000D01*
X0181750Y0032000D02*
X0181750Y0037012D01*
X0181750Y0097488D02*
X0181750Y0102500D01*
X0171750Y0102500D02*
X0171750Y0097488D01*
X0161750Y0097488D02*
X0161750Y0102500D01*
X0151750Y0102500D02*
X0151750Y0097488D01*
X0141750Y0097488D02*
X0141750Y0102500D01*
X0131750Y0102500D02*
X0131750Y0097488D01*
X0121750Y0097488D02*
X0121750Y0102500D01*
D24*
X0052352Y0085024D02*
X0052352Y0085000D01*
X0045990Y0085000D01*
M02*
