%
M48
M72
T01C0.01378
T02C0.03600
T03C0.04000
%
T01
X30750Y24000
X73250Y31500
X86750Y52500
X89900Y52500
X98750Y66500
X93750Y69500
X114250Y64000
X118750Y61500
X132750Y58500
X132750Y55350
X136250Y54500
X138977Y52773
X146250Y53500
X159750Y52500
X159750Y55659
X159764Y58809
X161750Y61277
X183750Y63730
X187250Y63730
X190750Y63730
X190750Y72500
X195750Y72500
X200750Y72500
X205750Y72500
X209750Y63000
X212250Y60000
X209750Y57500
X167250Y79500
X159498Y75252
X149645Y78605
X137550Y78100
X141750Y102500
X131750Y102500
X121750Y102500
X151750Y102500
X161750Y102500
X171750Y102500
X181750Y102500
X56750Y98500
X53250Y98500
X49750Y98500
X46250Y99500
X46250Y103000
X42750Y103000
X39250Y103000
X39250Y99500
X42750Y99500
X42750Y96000
X39250Y96000
X46250Y96000
X46250Y106500
X42750Y106500
X39250Y106500
X121750Y32000
X131750Y32000
X141750Y32000
X151750Y32000
X161750Y32000
X171750Y32000
X181750Y32000
T02
X114124Y34563
X106250Y34563
X98376Y34563
X98376Y42437
X106250Y42437
X114124Y42437
T03
X79750Y37500
X69750Y37500
X59750Y37500
X48250Y37500
X38250Y37500
X28250Y37500
X28250Y47500
X38250Y47500
X48250Y47500
X59750Y47500
X69750Y47500
X79750Y47500
X79750Y57500
X69750Y57500
X59750Y57500
X48250Y57500
X38250Y57500
X28250Y57500
X52750Y23000
X62750Y23000
X72750Y23000
X82750Y23000
X101750Y15500
X111750Y15500
X121750Y15500
X131750Y15500
X141750Y15500
X151750Y15500
X161750Y15500
X171750Y15500
X181750Y15500
X191750Y15500
X201750Y15500
X211750Y15500
X211750Y119000
X201750Y119000
X191750Y119000
X181750Y119000
X171750Y119000
X161750Y119000
X151750Y119000
X141750Y119000
X131750Y119000
X121750Y119000
X111750Y119000
X101750Y119000
M30
