%
M48
M72
T01C0.01378
T02C0.04000
%
T01
X9045Y29545
X12545Y29545
X16045Y29545
X19545Y29545
X23045Y29545
X23045Y33045
X19545Y33045
X16045Y33045
X12545Y33045
X9045Y33045
X9045Y36545
X12545Y36545
X16045Y36545
X19545Y36545
X23045Y36545
X65045Y36045
X65045Y39545
X85545Y53045
X89045Y32545
X93045Y74045
X54045Y74545
T02
X13045Y14045
X23045Y14045
X33045Y14045
X43045Y14045
X53045Y14045
X63045Y14045
X73045Y14045
X83045Y14045
X93045Y14045
X103045Y14045
X103545Y34045
X103545Y44045
X103545Y54045
X103545Y64045
X103045Y84045
X93045Y84045
X83045Y84045
X73045Y84045
X63045Y84045
X53045Y84045
X43045Y84045
X33045Y84045
X23045Y84045
X13045Y84045
X14045Y54045
X14045Y44045
M30
