G75*
%MOIN*%
%OFA0B0*%
%FSLAX25Y25*%
%IPPOS*%
%LPD*%
%AMOC8*
5,1,8,0,0,1.08239X$1,22.5*
%
%ADD10R,0.06496X0.05709*%
%ADD11C,0.06165*%
%ADD12R,0.21850X0.25000*%
%ADD13R,0.04528X0.06890*%
%ADD14R,0.05709X0.06496*%
%ADD15OC8,0.03150*%
D10*
X0085545Y0038305D03*
X0085545Y0045785D03*
X0093545Y0045805D03*
X0093545Y0053285D03*
D11*
X0013045Y0016833D02*
X0013045Y0011258D01*
X0023045Y0011258D02*
X0023045Y0016833D01*
X0033045Y0016833D02*
X0033045Y0011258D01*
X0043045Y0011258D02*
X0043045Y0016833D01*
X0053045Y0016833D02*
X0053045Y0011258D01*
X0063045Y0011258D02*
X0063045Y0016833D01*
X0073045Y0016833D02*
X0073045Y0011258D01*
X0083045Y0011258D02*
X0083045Y0016833D01*
X0093045Y0016833D02*
X0093045Y0011258D01*
X0103045Y0011258D02*
X0103045Y0016833D01*
X0100758Y0034045D02*
X0106333Y0034045D01*
X0106333Y0044045D02*
X0100758Y0044045D01*
X0100758Y0054045D02*
X0106333Y0054045D01*
X0106333Y0064045D02*
X0100758Y0064045D01*
X0103045Y0081258D02*
X0103045Y0086833D01*
X0093045Y0086833D02*
X0093045Y0081258D01*
X0083045Y0081258D02*
X0083045Y0086833D01*
X0073045Y0086833D02*
X0073045Y0081258D01*
X0063045Y0081258D02*
X0063045Y0086833D01*
X0053045Y0086833D02*
X0053045Y0081258D01*
X0043045Y0081258D02*
X0043045Y0086833D01*
X0033045Y0086833D02*
X0033045Y0081258D01*
X0023045Y0081258D02*
X0023045Y0086833D01*
X0013045Y0086833D02*
X0013045Y0081258D01*
X0011258Y0054045D02*
X0016833Y0054045D01*
X0016833Y0044045D02*
X0011258Y0044045D01*
D12*
X0036045Y0061388D03*
D13*
X0027069Y0032648D03*
X0045022Y0032648D03*
D14*
X0043285Y0024045D03*
X0035805Y0024045D03*
D15*
X0023045Y0029545D03*
X0019545Y0029545D03*
X0016045Y0029545D03*
X0012545Y0029545D03*
X0009045Y0029545D03*
X0009045Y0033045D03*
X0009045Y0036545D03*
X0012545Y0036545D03*
X0012545Y0033045D03*
X0016045Y0033045D03*
X0016045Y0036545D03*
X0019545Y0036545D03*
X0019545Y0033045D03*
X0023045Y0033045D03*
X0023045Y0036545D03*
X0065045Y0036045D03*
X0065045Y0039545D03*
X0085545Y0053045D03*
X0089045Y0032545D03*
X0093045Y0074045D03*
X0054045Y0074545D03*
M02*
