G75*
%MOIN*%
%OFA0B0*%
%FSLAX25Y25*%
%IPPOS*%
%LPD*%
%AMOC8*
5,1,8,0,0,1.08239X$1,22.5*
%
%ADD10R,0.05906X0.05118*%
%ADD11C,0.05575*%
%ADD12R,0.21260X0.24409*%
%ADD13R,0.03937X0.06299*%
%ADD14R,0.05118X0.05906*%
%ADD15C,0.00500*%
%ADD16OC8,0.02559*%
%ADD17C,0.01200*%
%ADD18C,0.00800*%
%ADD19C,0.03200*%
D10*
X0085545Y0038305D03*
X0085545Y0045785D03*
X0093545Y0045805D03*
X0093545Y0053285D03*
D11*
X0100758Y0054045D02*
X0106333Y0054045D01*
X0106333Y0044045D02*
X0100758Y0044045D01*
X0100758Y0034045D02*
X0106333Y0034045D01*
X0103045Y0016833D02*
X0103045Y0011258D01*
X0093045Y0011258D02*
X0093045Y0016833D01*
X0083045Y0016833D02*
X0083045Y0011258D01*
X0073045Y0011258D02*
X0073045Y0016833D01*
X0063045Y0016833D02*
X0063045Y0011258D01*
X0053045Y0011258D02*
X0053045Y0016833D01*
X0043045Y0016833D02*
X0043045Y0011258D01*
X0033045Y0011258D02*
X0033045Y0016833D01*
X0023045Y0016833D02*
X0023045Y0011258D01*
X0013045Y0011258D02*
X0013045Y0016833D01*
X0011258Y0044045D02*
X0016833Y0044045D01*
X0016833Y0054045D02*
X0011258Y0054045D01*
X0013045Y0081258D02*
X0013045Y0086833D01*
X0023045Y0086833D02*
X0023045Y0081258D01*
X0033045Y0081258D02*
X0033045Y0086833D01*
X0043045Y0086833D02*
X0043045Y0081258D01*
X0053045Y0081258D02*
X0053045Y0086833D01*
X0063045Y0086833D02*
X0063045Y0081258D01*
X0073045Y0081258D02*
X0073045Y0086833D01*
X0083045Y0086833D02*
X0083045Y0081258D01*
X0093045Y0081258D02*
X0093045Y0086833D01*
X0103045Y0086833D02*
X0103045Y0081258D01*
X0100758Y0064045D02*
X0106333Y0064045D01*
D12*
X0036045Y0061388D03*
D13*
X0027069Y0032648D03*
X0045022Y0032648D03*
D14*
X0043285Y0024045D03*
X0035805Y0024045D03*
D15*
X0006976Y0026305D02*
X0006976Y0006976D01*
X0109339Y0006976D01*
X0109339Y0041920D01*
X0108388Y0040970D01*
X0107054Y0040417D01*
X0100036Y0040417D01*
X0098703Y0040970D01*
X0097682Y0041990D01*
X0097316Y0042875D01*
X0096846Y0042406D01*
X0090244Y0042406D01*
X0089752Y0042898D01*
X0089752Y0048712D01*
X0090244Y0049205D01*
X0096846Y0049205D01*
X0097339Y0048712D01*
X0097339Y0047246D01*
X0099004Y0047246D01*
X0100036Y0047673D01*
X0107054Y0047673D01*
X0108388Y0047121D01*
X0109339Y0046170D01*
X0109339Y0051920D01*
X0108388Y0050970D01*
X0107054Y0050417D01*
X0100036Y0050417D01*
X0098703Y0050970D01*
X0097682Y0051990D01*
X0097339Y0052820D01*
X0097339Y0050378D01*
X0096846Y0049886D01*
X0090244Y0049886D01*
X0089752Y0050378D01*
X0089752Y0051605D01*
X0087103Y0051605D01*
X0086986Y0051488D01*
X0086986Y0049185D01*
X0088846Y0049185D01*
X0089339Y0048693D01*
X0089339Y0042878D01*
X0088846Y0042386D01*
X0082244Y0042386D01*
X0081752Y0042878D01*
X0081752Y0048693D01*
X0082244Y0049185D01*
X0084105Y0049185D01*
X0084105Y0051488D01*
X0083425Y0052167D01*
X0083425Y0053923D01*
X0084667Y0055165D01*
X0086423Y0055165D01*
X0087103Y0054486D01*
X0089752Y0054486D01*
X0089752Y0056193D01*
X0090244Y0056685D01*
X0096846Y0056685D01*
X0097339Y0056193D01*
X0097339Y0055271D01*
X0097682Y0056100D01*
X0098703Y0057121D01*
X0100036Y0057673D01*
X0107054Y0057673D01*
X0108388Y0057121D01*
X0109339Y0056170D01*
X0109339Y0061920D01*
X0108388Y0060970D01*
X0107054Y0060417D01*
X0100036Y0060417D01*
X0098703Y0060970D01*
X0097682Y0061990D01*
X0097130Y0063324D01*
X0097130Y0064767D01*
X0097682Y0066100D01*
X0098318Y0066736D01*
X0093128Y0071925D01*
X0092167Y0071925D01*
X0090925Y0073167D01*
X0090925Y0074923D01*
X0092167Y0076165D01*
X0093923Y0076165D01*
X0095165Y0074923D01*
X0095165Y0073962D01*
X0101455Y0067673D01*
X0107054Y0067673D01*
X0108388Y0067121D01*
X0109339Y0066170D01*
X0109339Y0090724D01*
X0006976Y0090724D01*
X0006976Y0050286D01*
X0022805Y0050286D01*
X0022805Y0075559D01*
X0023531Y0076286D01*
X0048559Y0076286D01*
X0049286Y0075559D01*
X0049286Y0039531D01*
X0048559Y0038805D01*
X0031786Y0038805D01*
X0031786Y0027031D01*
X0031059Y0026305D01*
X0006976Y0026305D01*
X0006976Y0025984D02*
X0039886Y0025984D01*
X0039886Y0025486D02*
X0006976Y0025486D01*
X0006976Y0024987D02*
X0039886Y0024987D01*
X0039886Y0024489D02*
X0006976Y0024489D01*
X0006976Y0023990D02*
X0039886Y0023990D01*
X0039886Y0023492D02*
X0006976Y0023492D01*
X0006976Y0022993D02*
X0039886Y0022993D01*
X0039886Y0022495D02*
X0006976Y0022495D01*
X0006976Y0021996D02*
X0039886Y0021996D01*
X0039886Y0021498D02*
X0006976Y0021498D01*
X0006976Y0020999D02*
X0039886Y0020999D01*
X0039886Y0020744D02*
X0040378Y0020252D01*
X0041820Y0020252D01*
X0040990Y0019908D01*
X0039970Y0018888D01*
X0039417Y0017554D01*
X0039417Y0010536D01*
X0039970Y0009203D01*
X0040990Y0008182D01*
X0042324Y0007630D01*
X0043767Y0007630D01*
X0045100Y0008182D01*
X0046121Y0009203D01*
X0046673Y0010536D01*
X0046673Y0017554D01*
X0046121Y0018888D01*
X0045100Y0019908D01*
X0044271Y0020252D01*
X0046193Y0020252D01*
X0046685Y0020744D01*
X0046685Y0023993D01*
X0047091Y0024399D01*
X0047462Y0025296D01*
X0047462Y0028781D01*
X0047831Y0029150D01*
X0047831Y0036145D01*
X0047338Y0036638D01*
X0042705Y0036638D01*
X0042213Y0036145D01*
X0042213Y0029150D01*
X0042581Y0028781D01*
X0042581Y0027839D01*
X0040378Y0027839D01*
X0039886Y0027346D01*
X0039886Y0020744D01*
X0040130Y0020501D02*
X0006976Y0020501D01*
X0006976Y0020002D02*
X0011217Y0020002D01*
X0010990Y0019908D02*
X0009970Y0018888D01*
X0009417Y0017554D01*
X0009417Y0010536D01*
X0009970Y0009203D01*
X0010990Y0008182D01*
X0012324Y0007630D01*
X0013767Y0007630D01*
X0015100Y0008182D01*
X0016121Y0009203D01*
X0016673Y0010536D01*
X0016673Y0017554D01*
X0016121Y0018888D01*
X0015100Y0019908D01*
X0013767Y0020461D01*
X0012324Y0020461D01*
X0010990Y0019908D01*
X0010585Y0019504D02*
X0006976Y0019504D01*
X0006976Y0019005D02*
X0010087Y0019005D01*
X0009812Y0018507D02*
X0006976Y0018507D01*
X0006976Y0018008D02*
X0009605Y0018008D01*
X0009417Y0017510D02*
X0006976Y0017510D01*
X0006976Y0017011D02*
X0009417Y0017011D01*
X0009417Y0016513D02*
X0006976Y0016513D01*
X0006976Y0016014D02*
X0009417Y0016014D01*
X0009417Y0015516D02*
X0006976Y0015516D01*
X0006976Y0015017D02*
X0009417Y0015017D01*
X0009417Y0014518D02*
X0006976Y0014518D01*
X0006976Y0014020D02*
X0009417Y0014020D01*
X0009417Y0013521D02*
X0006976Y0013521D01*
X0006976Y0013023D02*
X0009417Y0013023D01*
X0009417Y0012524D02*
X0006976Y0012524D01*
X0006976Y0012026D02*
X0009417Y0012026D01*
X0009417Y0011527D02*
X0006976Y0011527D01*
X0006976Y0011029D02*
X0009417Y0011029D01*
X0009420Y0010530D02*
X0006976Y0010530D01*
X0006976Y0010032D02*
X0009626Y0010032D01*
X0009833Y0009533D02*
X0006976Y0009533D01*
X0006976Y0009035D02*
X0010138Y0009035D01*
X0010636Y0008536D02*
X0006976Y0008536D01*
X0006976Y0008038D02*
X0011339Y0008038D01*
X0014752Y0008038D02*
X0021339Y0008038D01*
X0020990Y0008182D02*
X0022324Y0007630D01*
X0023767Y0007630D01*
X0025100Y0008182D01*
X0026121Y0009203D01*
X0026673Y0010536D01*
X0026673Y0017554D01*
X0026121Y0018888D01*
X0025100Y0019908D01*
X0023767Y0020461D01*
X0022324Y0020461D01*
X0020990Y0019908D01*
X0019970Y0018888D01*
X0019417Y0017554D01*
X0019417Y0010536D01*
X0019970Y0009203D01*
X0020990Y0008182D01*
X0020636Y0008536D02*
X0015454Y0008536D01*
X0015953Y0009035D02*
X0020138Y0009035D01*
X0019833Y0009533D02*
X0016258Y0009533D01*
X0016464Y0010032D02*
X0019626Y0010032D01*
X0019420Y0010530D02*
X0016671Y0010530D01*
X0016673Y0011029D02*
X0019417Y0011029D01*
X0019417Y0011527D02*
X0016673Y0011527D01*
X0016673Y0012026D02*
X0019417Y0012026D01*
X0019417Y0012524D02*
X0016673Y0012524D01*
X0016673Y0013023D02*
X0019417Y0013023D01*
X0019417Y0013521D02*
X0016673Y0013521D01*
X0016673Y0014020D02*
X0019417Y0014020D01*
X0019417Y0014518D02*
X0016673Y0014518D01*
X0016673Y0015017D02*
X0019417Y0015017D01*
X0019417Y0015516D02*
X0016673Y0015516D01*
X0016673Y0016014D02*
X0019417Y0016014D01*
X0019417Y0016513D02*
X0016673Y0016513D01*
X0016673Y0017011D02*
X0019417Y0017011D01*
X0019417Y0017510D02*
X0016673Y0017510D01*
X0016485Y0018008D02*
X0019605Y0018008D01*
X0019812Y0018507D02*
X0016279Y0018507D01*
X0016004Y0019005D02*
X0020087Y0019005D01*
X0020585Y0019504D02*
X0015505Y0019504D01*
X0014874Y0020002D02*
X0021217Y0020002D01*
X0024874Y0020002D02*
X0031217Y0020002D01*
X0030990Y0019908D02*
X0029970Y0018888D01*
X0029417Y0017554D01*
X0029417Y0010536D01*
X0029970Y0009203D01*
X0030990Y0008182D01*
X0032324Y0007630D01*
X0033767Y0007630D01*
X0035100Y0008182D01*
X0036121Y0009203D01*
X0036673Y0010536D01*
X0036673Y0017554D01*
X0036121Y0018888D01*
X0035100Y0019908D01*
X0033767Y0020461D01*
X0032324Y0020461D01*
X0030990Y0019908D01*
X0030585Y0019504D02*
X0025505Y0019504D01*
X0026004Y0019005D02*
X0030087Y0019005D01*
X0029812Y0018507D02*
X0026279Y0018507D01*
X0026485Y0018008D02*
X0029605Y0018008D01*
X0029417Y0017510D02*
X0026673Y0017510D01*
X0026673Y0017011D02*
X0029417Y0017011D01*
X0029417Y0016513D02*
X0026673Y0016513D01*
X0026673Y0016014D02*
X0029417Y0016014D01*
X0029417Y0015516D02*
X0026673Y0015516D01*
X0026673Y0015017D02*
X0029417Y0015017D01*
X0029417Y0014518D02*
X0026673Y0014518D01*
X0026673Y0014020D02*
X0029417Y0014020D01*
X0029417Y0013521D02*
X0026673Y0013521D01*
X0026673Y0013023D02*
X0029417Y0013023D01*
X0029417Y0012524D02*
X0026673Y0012524D01*
X0026673Y0012026D02*
X0029417Y0012026D01*
X0029417Y0011527D02*
X0026673Y0011527D01*
X0026673Y0011029D02*
X0029417Y0011029D01*
X0029420Y0010530D02*
X0026671Y0010530D01*
X0026464Y0010032D02*
X0029626Y0010032D01*
X0029833Y0009533D02*
X0026258Y0009533D01*
X0025953Y0009035D02*
X0030138Y0009035D01*
X0030636Y0008536D02*
X0025454Y0008536D01*
X0024752Y0008038D02*
X0031339Y0008038D01*
X0034752Y0008038D02*
X0041339Y0008038D01*
X0040636Y0008536D02*
X0035454Y0008536D01*
X0035953Y0009035D02*
X0040138Y0009035D01*
X0039833Y0009533D02*
X0036258Y0009533D01*
X0036464Y0010032D02*
X0039626Y0010032D01*
X0039420Y0010530D02*
X0036671Y0010530D01*
X0036673Y0011029D02*
X0039417Y0011029D01*
X0039417Y0011527D02*
X0036673Y0011527D01*
X0036673Y0012026D02*
X0039417Y0012026D01*
X0039417Y0012524D02*
X0036673Y0012524D01*
X0036673Y0013023D02*
X0039417Y0013023D01*
X0039417Y0013521D02*
X0036673Y0013521D01*
X0036673Y0014020D02*
X0039417Y0014020D01*
X0039417Y0014518D02*
X0036673Y0014518D01*
X0036673Y0015017D02*
X0039417Y0015017D01*
X0039417Y0015516D02*
X0036673Y0015516D01*
X0036673Y0016014D02*
X0039417Y0016014D01*
X0039417Y0016513D02*
X0036673Y0016513D01*
X0036673Y0017011D02*
X0039417Y0017011D01*
X0039417Y0017510D02*
X0036673Y0017510D01*
X0036485Y0018008D02*
X0039605Y0018008D01*
X0039812Y0018507D02*
X0036279Y0018507D01*
X0036004Y0019005D02*
X0040087Y0019005D01*
X0040585Y0019504D02*
X0035505Y0019504D01*
X0034874Y0020002D02*
X0041217Y0020002D01*
X0044874Y0020002D02*
X0051217Y0020002D01*
X0050990Y0019908D02*
X0049970Y0018888D01*
X0049417Y0017554D01*
X0049417Y0010536D01*
X0049970Y0009203D01*
X0050990Y0008182D01*
X0052324Y0007630D01*
X0053767Y0007630D01*
X0055100Y0008182D01*
X0056121Y0009203D01*
X0056673Y0010536D01*
X0056673Y0017554D01*
X0056121Y0018888D01*
X0055100Y0019908D01*
X0053767Y0020461D01*
X0052324Y0020461D01*
X0050990Y0019908D01*
X0050585Y0019504D02*
X0045505Y0019504D01*
X0046004Y0019005D02*
X0050087Y0019005D01*
X0049812Y0018507D02*
X0046279Y0018507D01*
X0046485Y0018008D02*
X0049605Y0018008D01*
X0049417Y0017510D02*
X0046673Y0017510D01*
X0046673Y0017011D02*
X0049417Y0017011D01*
X0049417Y0016513D02*
X0046673Y0016513D01*
X0046673Y0016014D02*
X0049417Y0016014D01*
X0049417Y0015516D02*
X0046673Y0015516D01*
X0046673Y0015017D02*
X0049417Y0015017D01*
X0049417Y0014518D02*
X0046673Y0014518D01*
X0046673Y0014020D02*
X0049417Y0014020D01*
X0049417Y0013521D02*
X0046673Y0013521D01*
X0046673Y0013023D02*
X0049417Y0013023D01*
X0049417Y0012524D02*
X0046673Y0012524D01*
X0046673Y0012026D02*
X0049417Y0012026D01*
X0049417Y0011527D02*
X0046673Y0011527D01*
X0046673Y0011029D02*
X0049417Y0011029D01*
X0049420Y0010530D02*
X0046671Y0010530D01*
X0046464Y0010032D02*
X0049626Y0010032D01*
X0049833Y0009533D02*
X0046258Y0009533D01*
X0045953Y0009035D02*
X0050138Y0009035D01*
X0050636Y0008536D02*
X0045454Y0008536D01*
X0044752Y0008038D02*
X0051339Y0008038D01*
X0054752Y0008038D02*
X0061339Y0008038D01*
X0060990Y0008182D02*
X0062324Y0007630D01*
X0063767Y0007630D01*
X0065100Y0008182D01*
X0066121Y0009203D01*
X0066673Y0010536D01*
X0066673Y0017554D01*
X0066121Y0018888D01*
X0065100Y0019908D01*
X0063767Y0020461D01*
X0062324Y0020461D01*
X0060990Y0019908D01*
X0059970Y0018888D01*
X0059417Y0017554D01*
X0059417Y0010536D01*
X0059970Y0009203D01*
X0060990Y0008182D01*
X0060636Y0008536D02*
X0055454Y0008536D01*
X0055953Y0009035D02*
X0060138Y0009035D01*
X0059833Y0009533D02*
X0056258Y0009533D01*
X0056464Y0010032D02*
X0059626Y0010032D01*
X0059420Y0010530D02*
X0056671Y0010530D01*
X0056673Y0011029D02*
X0059417Y0011029D01*
X0059417Y0011527D02*
X0056673Y0011527D01*
X0056673Y0012026D02*
X0059417Y0012026D01*
X0059417Y0012524D02*
X0056673Y0012524D01*
X0056673Y0013023D02*
X0059417Y0013023D01*
X0059417Y0013521D02*
X0056673Y0013521D01*
X0056673Y0014020D02*
X0059417Y0014020D01*
X0059417Y0014518D02*
X0056673Y0014518D01*
X0056673Y0015017D02*
X0059417Y0015017D01*
X0059417Y0015516D02*
X0056673Y0015516D01*
X0056673Y0016014D02*
X0059417Y0016014D01*
X0059417Y0016513D02*
X0056673Y0016513D01*
X0056673Y0017011D02*
X0059417Y0017011D01*
X0059417Y0017510D02*
X0056673Y0017510D01*
X0056485Y0018008D02*
X0059605Y0018008D01*
X0059812Y0018507D02*
X0056279Y0018507D01*
X0056004Y0019005D02*
X0060087Y0019005D01*
X0060585Y0019504D02*
X0055505Y0019504D01*
X0054874Y0020002D02*
X0061217Y0020002D01*
X0064874Y0020002D02*
X0071217Y0020002D01*
X0070990Y0019908D02*
X0069970Y0018888D01*
X0069417Y0017554D01*
X0069417Y0010536D01*
X0069970Y0009203D01*
X0070990Y0008182D01*
X0072324Y0007630D01*
X0073767Y0007630D01*
X0075100Y0008182D01*
X0076121Y0009203D01*
X0076673Y0010536D01*
X0076673Y0017554D01*
X0076121Y0018888D01*
X0075100Y0019908D01*
X0073767Y0020461D01*
X0072324Y0020461D01*
X0070990Y0019908D01*
X0070585Y0019504D02*
X0065505Y0019504D01*
X0066004Y0019005D02*
X0070087Y0019005D01*
X0069812Y0018507D02*
X0066279Y0018507D01*
X0066485Y0018008D02*
X0069605Y0018008D01*
X0069417Y0017510D02*
X0066673Y0017510D01*
X0066673Y0017011D02*
X0069417Y0017011D01*
X0069417Y0016513D02*
X0066673Y0016513D01*
X0066673Y0016014D02*
X0069417Y0016014D01*
X0069417Y0015516D02*
X0066673Y0015516D01*
X0066673Y0015017D02*
X0069417Y0015017D01*
X0069417Y0014518D02*
X0066673Y0014518D01*
X0066673Y0014020D02*
X0069417Y0014020D01*
X0069417Y0013521D02*
X0066673Y0013521D01*
X0066673Y0013023D02*
X0069417Y0013023D01*
X0069417Y0012524D02*
X0066673Y0012524D01*
X0066673Y0012026D02*
X0069417Y0012026D01*
X0069417Y0011527D02*
X0066673Y0011527D01*
X0066673Y0011029D02*
X0069417Y0011029D01*
X0069420Y0010530D02*
X0066671Y0010530D01*
X0066464Y0010032D02*
X0069626Y0010032D01*
X0069833Y0009533D02*
X0066258Y0009533D01*
X0065953Y0009035D02*
X0070138Y0009035D01*
X0070636Y0008536D02*
X0065454Y0008536D01*
X0064752Y0008038D02*
X0071339Y0008038D01*
X0074752Y0008038D02*
X0081339Y0008038D01*
X0080990Y0008182D02*
X0082324Y0007630D01*
X0083767Y0007630D01*
X0085100Y0008182D01*
X0086121Y0009203D01*
X0086673Y0010536D01*
X0086673Y0017554D01*
X0086121Y0018888D01*
X0085100Y0019908D01*
X0083767Y0020461D01*
X0082324Y0020461D01*
X0080990Y0019908D01*
X0079970Y0018888D01*
X0079417Y0017554D01*
X0079417Y0010536D01*
X0079970Y0009203D01*
X0080990Y0008182D01*
X0080636Y0008536D02*
X0075454Y0008536D01*
X0075953Y0009035D02*
X0080138Y0009035D01*
X0079833Y0009533D02*
X0076258Y0009533D01*
X0076464Y0010032D02*
X0079626Y0010032D01*
X0079420Y0010530D02*
X0076671Y0010530D01*
X0076673Y0011029D02*
X0079417Y0011029D01*
X0079417Y0011527D02*
X0076673Y0011527D01*
X0076673Y0012026D02*
X0079417Y0012026D01*
X0079417Y0012524D02*
X0076673Y0012524D01*
X0076673Y0013023D02*
X0079417Y0013023D01*
X0079417Y0013521D02*
X0076673Y0013521D01*
X0076673Y0014020D02*
X0079417Y0014020D01*
X0079417Y0014518D02*
X0076673Y0014518D01*
X0076673Y0015017D02*
X0079417Y0015017D01*
X0079417Y0015516D02*
X0076673Y0015516D01*
X0076673Y0016014D02*
X0079417Y0016014D01*
X0079417Y0016513D02*
X0076673Y0016513D01*
X0076673Y0017011D02*
X0079417Y0017011D01*
X0079417Y0017510D02*
X0076673Y0017510D01*
X0076485Y0018008D02*
X0079605Y0018008D01*
X0079812Y0018507D02*
X0076279Y0018507D01*
X0076004Y0019005D02*
X0080087Y0019005D01*
X0080585Y0019504D02*
X0075505Y0019504D01*
X0074874Y0020002D02*
X0081217Y0020002D01*
X0084874Y0020002D02*
X0091217Y0020002D01*
X0090990Y0019908D02*
X0089970Y0018888D01*
X0089417Y0017554D01*
X0089417Y0010536D01*
X0089970Y0009203D01*
X0090990Y0008182D01*
X0092324Y0007630D01*
X0093767Y0007630D01*
X0095100Y0008182D01*
X0096121Y0009203D01*
X0096673Y0010536D01*
X0096673Y0017554D01*
X0096121Y0018888D01*
X0095100Y0019908D01*
X0093767Y0020461D01*
X0092324Y0020461D01*
X0090990Y0019908D01*
X0090585Y0019504D02*
X0085505Y0019504D01*
X0086004Y0019005D02*
X0090087Y0019005D01*
X0089812Y0018507D02*
X0086279Y0018507D01*
X0086485Y0018008D02*
X0089605Y0018008D01*
X0089417Y0017510D02*
X0086673Y0017510D01*
X0086673Y0017011D02*
X0089417Y0017011D01*
X0089417Y0016513D02*
X0086673Y0016513D01*
X0086673Y0016014D02*
X0089417Y0016014D01*
X0089417Y0015516D02*
X0086673Y0015516D01*
X0086673Y0015017D02*
X0089417Y0015017D01*
X0089417Y0014518D02*
X0086673Y0014518D01*
X0086673Y0014020D02*
X0089417Y0014020D01*
X0089417Y0013521D02*
X0086673Y0013521D01*
X0086673Y0013023D02*
X0089417Y0013023D01*
X0089417Y0012524D02*
X0086673Y0012524D01*
X0086673Y0012026D02*
X0089417Y0012026D01*
X0089417Y0011527D02*
X0086673Y0011527D01*
X0086673Y0011029D02*
X0089417Y0011029D01*
X0089420Y0010530D02*
X0086671Y0010530D01*
X0086464Y0010032D02*
X0089626Y0010032D01*
X0089833Y0009533D02*
X0086258Y0009533D01*
X0085953Y0009035D02*
X0090138Y0009035D01*
X0090636Y0008536D02*
X0085454Y0008536D01*
X0084752Y0008038D02*
X0091339Y0008038D01*
X0094752Y0008038D02*
X0101339Y0008038D01*
X0100990Y0008182D02*
X0102324Y0007630D01*
X0103767Y0007630D01*
X0105100Y0008182D01*
X0106121Y0009203D01*
X0106673Y0010536D01*
X0106673Y0017554D01*
X0106121Y0018888D01*
X0105100Y0019908D01*
X0103767Y0020461D01*
X0102324Y0020461D01*
X0100990Y0019908D01*
X0099970Y0018888D01*
X0099417Y0017554D01*
X0099417Y0010536D01*
X0099970Y0009203D01*
X0100990Y0008182D01*
X0100636Y0008536D02*
X0095454Y0008536D01*
X0095953Y0009035D02*
X0100138Y0009035D01*
X0099833Y0009533D02*
X0096258Y0009533D01*
X0096464Y0010032D02*
X0099626Y0010032D01*
X0099420Y0010530D02*
X0096671Y0010530D01*
X0096673Y0011029D02*
X0099417Y0011029D01*
X0099417Y0011527D02*
X0096673Y0011527D01*
X0096673Y0012026D02*
X0099417Y0012026D01*
X0099417Y0012524D02*
X0096673Y0012524D01*
X0096673Y0013023D02*
X0099417Y0013023D01*
X0099417Y0013521D02*
X0096673Y0013521D01*
X0096673Y0014020D02*
X0099417Y0014020D01*
X0099417Y0014518D02*
X0096673Y0014518D01*
X0096673Y0015017D02*
X0099417Y0015017D01*
X0099417Y0015516D02*
X0096673Y0015516D01*
X0096673Y0016014D02*
X0099417Y0016014D01*
X0099417Y0016513D02*
X0096673Y0016513D01*
X0096673Y0017011D02*
X0099417Y0017011D01*
X0099417Y0017510D02*
X0096673Y0017510D01*
X0096485Y0018008D02*
X0099605Y0018008D01*
X0099812Y0018507D02*
X0096279Y0018507D01*
X0096004Y0019005D02*
X0100087Y0019005D01*
X0100585Y0019504D02*
X0095505Y0019504D01*
X0094874Y0020002D02*
X0101217Y0020002D01*
X0104874Y0020002D02*
X0109339Y0020002D01*
X0109339Y0019504D02*
X0105505Y0019504D01*
X0106004Y0019005D02*
X0109339Y0019005D01*
X0109339Y0018507D02*
X0106279Y0018507D01*
X0106485Y0018008D02*
X0109339Y0018008D01*
X0109339Y0017510D02*
X0106673Y0017510D01*
X0106673Y0017011D02*
X0109339Y0017011D01*
X0109339Y0016513D02*
X0106673Y0016513D01*
X0106673Y0016014D02*
X0109339Y0016014D01*
X0109339Y0015516D02*
X0106673Y0015516D01*
X0106673Y0015017D02*
X0109339Y0015017D01*
X0109339Y0014518D02*
X0106673Y0014518D01*
X0106673Y0014020D02*
X0109339Y0014020D01*
X0109339Y0013521D02*
X0106673Y0013521D01*
X0106673Y0013023D02*
X0109339Y0013023D01*
X0109339Y0012524D02*
X0106673Y0012524D01*
X0106673Y0012026D02*
X0109339Y0012026D01*
X0109339Y0011527D02*
X0106673Y0011527D01*
X0106673Y0011029D02*
X0109339Y0011029D01*
X0109339Y0010530D02*
X0106671Y0010530D01*
X0106464Y0010032D02*
X0109339Y0010032D01*
X0109339Y0009533D02*
X0106258Y0009533D01*
X0105953Y0009035D02*
X0109339Y0009035D01*
X0109339Y0008536D02*
X0105454Y0008536D01*
X0104752Y0008038D02*
X0109339Y0008038D01*
X0109339Y0007539D02*
X0006976Y0007539D01*
X0006976Y0007041D02*
X0109339Y0007041D01*
X0109339Y0020501D02*
X0046441Y0020501D01*
X0046685Y0020999D02*
X0109339Y0020999D01*
X0109339Y0021498D02*
X0046685Y0021498D01*
X0046685Y0021996D02*
X0109339Y0021996D01*
X0109339Y0022495D02*
X0046685Y0022495D01*
X0046685Y0022993D02*
X0109339Y0022993D01*
X0109339Y0023492D02*
X0046685Y0023492D01*
X0046685Y0023990D02*
X0109339Y0023990D01*
X0109339Y0024489D02*
X0047128Y0024489D01*
X0047334Y0024987D02*
X0109339Y0024987D01*
X0109339Y0025486D02*
X0047462Y0025486D01*
X0047462Y0025984D02*
X0109339Y0025984D01*
X0109339Y0026483D02*
X0047462Y0026483D01*
X0047462Y0026981D02*
X0109339Y0026981D01*
X0109339Y0027480D02*
X0047462Y0027480D01*
X0047462Y0027978D02*
X0109339Y0027978D01*
X0109339Y0028477D02*
X0047462Y0028477D01*
X0047656Y0028975D02*
X0109339Y0028975D01*
X0109339Y0029474D02*
X0047831Y0029474D01*
X0047831Y0029972D02*
X0109339Y0029972D01*
X0109339Y0030471D02*
X0089969Y0030471D01*
X0089923Y0030425D02*
X0091165Y0031667D01*
X0091165Y0033423D01*
X0089923Y0034665D01*
X0088962Y0034665D01*
X0088722Y0034906D01*
X0088846Y0034906D01*
X0089339Y0035398D01*
X0089339Y0041212D01*
X0088846Y0041705D01*
X0082244Y0041705D01*
X0081752Y0041212D01*
X0081752Y0035398D01*
X0082244Y0034906D01*
X0084648Y0034906D01*
X0086925Y0032628D01*
X0086925Y0031667D01*
X0088167Y0030425D01*
X0089923Y0030425D01*
X0090468Y0030969D02*
X0109339Y0030969D01*
X0109339Y0031468D02*
X0090966Y0031468D01*
X0091165Y0031966D02*
X0109339Y0031966D01*
X0109339Y0032465D02*
X0091165Y0032465D01*
X0091165Y0032963D02*
X0109339Y0032963D01*
X0109339Y0033462D02*
X0091127Y0033462D01*
X0090628Y0033960D02*
X0109339Y0033960D01*
X0109339Y0034459D02*
X0090130Y0034459D01*
X0089339Y0035456D02*
X0109339Y0035456D01*
X0109339Y0035954D02*
X0089339Y0035954D01*
X0089339Y0036453D02*
X0109339Y0036453D01*
X0109339Y0036951D02*
X0089339Y0036951D01*
X0089339Y0037450D02*
X0109339Y0037450D01*
X0109339Y0037949D02*
X0089339Y0037949D01*
X0089339Y0038447D02*
X0109339Y0038447D01*
X0109339Y0038946D02*
X0089339Y0038946D01*
X0089339Y0039444D02*
X0109339Y0039444D01*
X0109339Y0039943D02*
X0089339Y0039943D01*
X0089339Y0040441D02*
X0099979Y0040441D01*
X0098775Y0040940D02*
X0089339Y0040940D01*
X0089113Y0041438D02*
X0098234Y0041438D01*
X0097736Y0041937D02*
X0049286Y0041937D01*
X0049286Y0042435D02*
X0082195Y0042435D01*
X0081752Y0042934D02*
X0049286Y0042934D01*
X0049286Y0043432D02*
X0081752Y0043432D01*
X0081752Y0043931D02*
X0049286Y0043931D01*
X0049286Y0044429D02*
X0081752Y0044429D01*
X0081752Y0044928D02*
X0049286Y0044928D01*
X0049286Y0045426D02*
X0081752Y0045426D01*
X0081752Y0045925D02*
X0049286Y0045925D01*
X0049286Y0046423D02*
X0081752Y0046423D01*
X0081752Y0046922D02*
X0049286Y0046922D01*
X0049286Y0047420D02*
X0081752Y0047420D01*
X0081752Y0047919D02*
X0049286Y0047919D01*
X0049286Y0048417D02*
X0081752Y0048417D01*
X0081975Y0048916D02*
X0049286Y0048916D01*
X0049286Y0049414D02*
X0084105Y0049414D01*
X0084105Y0049913D02*
X0049286Y0049913D01*
X0049286Y0050411D02*
X0084105Y0050411D01*
X0084105Y0050910D02*
X0049286Y0050910D01*
X0049286Y0051408D02*
X0084105Y0051408D01*
X0083685Y0051907D02*
X0049286Y0051907D01*
X0049286Y0052405D02*
X0083425Y0052405D01*
X0083425Y0052904D02*
X0049286Y0052904D01*
X0049286Y0053402D02*
X0083425Y0053402D01*
X0083425Y0053901D02*
X0049286Y0053901D01*
X0049286Y0054399D02*
X0083901Y0054399D01*
X0084400Y0054898D02*
X0049286Y0054898D01*
X0049286Y0055396D02*
X0089752Y0055396D01*
X0089752Y0054898D02*
X0086691Y0054898D01*
X0089752Y0055895D02*
X0049286Y0055895D01*
X0049286Y0056393D02*
X0089953Y0056393D01*
X0089752Y0051408D02*
X0086986Y0051408D01*
X0086986Y0050910D02*
X0089752Y0050910D01*
X0089752Y0050411D02*
X0086986Y0050411D01*
X0086986Y0049913D02*
X0090217Y0049913D01*
X0089955Y0048916D02*
X0089115Y0048916D01*
X0089339Y0048417D02*
X0089752Y0048417D01*
X0089752Y0047919D02*
X0089339Y0047919D01*
X0089339Y0047420D02*
X0089752Y0047420D01*
X0089752Y0046922D02*
X0089339Y0046922D01*
X0089339Y0046423D02*
X0089752Y0046423D01*
X0089752Y0045925D02*
X0089339Y0045925D01*
X0089339Y0045426D02*
X0089752Y0045426D01*
X0089752Y0044928D02*
X0089339Y0044928D01*
X0089339Y0044429D02*
X0089752Y0044429D01*
X0089752Y0043931D02*
X0089339Y0043931D01*
X0089339Y0043432D02*
X0089752Y0043432D01*
X0089752Y0042934D02*
X0089339Y0042934D01*
X0088895Y0042435D02*
X0090215Y0042435D01*
X0096876Y0042435D02*
X0097498Y0042435D01*
X0097339Y0047420D02*
X0099425Y0047420D01*
X0097339Y0047919D02*
X0109339Y0047919D01*
X0109339Y0048417D02*
X0097339Y0048417D01*
X0097135Y0048916D02*
X0109339Y0048916D01*
X0109339Y0049414D02*
X0086986Y0049414D01*
X0081978Y0041438D02*
X0049286Y0041438D01*
X0049286Y0040940D02*
X0081752Y0040940D01*
X0081752Y0040441D02*
X0049286Y0040441D01*
X0049286Y0039943D02*
X0081752Y0039943D01*
X0081752Y0039444D02*
X0049198Y0039444D01*
X0048700Y0038946D02*
X0081752Y0038946D01*
X0081752Y0038447D02*
X0031786Y0038447D01*
X0031786Y0037949D02*
X0081752Y0037949D01*
X0081752Y0037450D02*
X0031786Y0037450D01*
X0031786Y0036951D02*
X0081752Y0036951D01*
X0081752Y0036453D02*
X0047523Y0036453D01*
X0047831Y0035954D02*
X0081752Y0035954D01*
X0081752Y0035456D02*
X0047831Y0035456D01*
X0047831Y0034957D02*
X0082192Y0034957D01*
X0085094Y0034459D02*
X0047831Y0034459D01*
X0047831Y0033960D02*
X0085593Y0033960D01*
X0086091Y0033462D02*
X0047831Y0033462D01*
X0047831Y0032963D02*
X0086590Y0032963D01*
X0086925Y0032465D02*
X0047831Y0032465D01*
X0047831Y0031966D02*
X0086925Y0031966D01*
X0087124Y0031468D02*
X0047831Y0031468D01*
X0047831Y0030969D02*
X0087623Y0030969D01*
X0088121Y0030471D02*
X0047831Y0030471D01*
X0042581Y0028477D02*
X0031786Y0028477D01*
X0031786Y0028975D02*
X0042387Y0028975D01*
X0042213Y0029474D02*
X0031786Y0029474D01*
X0031786Y0029972D02*
X0042213Y0029972D01*
X0042213Y0030471D02*
X0031786Y0030471D01*
X0031786Y0030969D02*
X0042213Y0030969D01*
X0042213Y0031468D02*
X0031786Y0031468D01*
X0031786Y0031966D02*
X0042213Y0031966D01*
X0042213Y0032465D02*
X0031786Y0032465D01*
X0031786Y0032963D02*
X0042213Y0032963D01*
X0042213Y0033462D02*
X0031786Y0033462D01*
X0031786Y0033960D02*
X0042213Y0033960D01*
X0042213Y0034459D02*
X0031786Y0034459D01*
X0031786Y0034957D02*
X0042213Y0034957D01*
X0042213Y0035456D02*
X0031786Y0035456D01*
X0031786Y0035954D02*
X0042213Y0035954D01*
X0042520Y0036453D02*
X0031786Y0036453D01*
X0031786Y0027978D02*
X0042581Y0027978D01*
X0040019Y0027480D02*
X0031786Y0027480D01*
X0031736Y0026981D02*
X0039886Y0026981D01*
X0039886Y0026483D02*
X0031237Y0026483D01*
X0022805Y0050411D02*
X0006976Y0050411D01*
X0006976Y0050910D02*
X0022805Y0050910D01*
X0022805Y0051408D02*
X0006976Y0051408D01*
X0006976Y0051907D02*
X0022805Y0051907D01*
X0022805Y0052405D02*
X0006976Y0052405D01*
X0006976Y0052904D02*
X0022805Y0052904D01*
X0022805Y0053402D02*
X0006976Y0053402D01*
X0006976Y0053901D02*
X0022805Y0053901D01*
X0022805Y0054399D02*
X0006976Y0054399D01*
X0006976Y0054898D02*
X0022805Y0054898D01*
X0022805Y0055396D02*
X0006976Y0055396D01*
X0006976Y0055895D02*
X0022805Y0055895D01*
X0022805Y0056393D02*
X0006976Y0056393D01*
X0006976Y0056892D02*
X0022805Y0056892D01*
X0022805Y0057390D02*
X0006976Y0057390D01*
X0006976Y0057889D02*
X0022805Y0057889D01*
X0022805Y0058387D02*
X0006976Y0058387D01*
X0006976Y0058886D02*
X0022805Y0058886D01*
X0022805Y0059384D02*
X0006976Y0059384D01*
X0006976Y0059883D02*
X0022805Y0059883D01*
X0022805Y0060382D02*
X0006976Y0060382D01*
X0006976Y0060880D02*
X0022805Y0060880D01*
X0022805Y0061379D02*
X0006976Y0061379D01*
X0006976Y0061877D02*
X0022805Y0061877D01*
X0022805Y0062376D02*
X0006976Y0062376D01*
X0006976Y0062874D02*
X0022805Y0062874D01*
X0022805Y0063373D02*
X0006976Y0063373D01*
X0006976Y0063871D02*
X0022805Y0063871D01*
X0022805Y0064370D02*
X0006976Y0064370D01*
X0006976Y0064868D02*
X0022805Y0064868D01*
X0022805Y0065367D02*
X0006976Y0065367D01*
X0006976Y0065865D02*
X0022805Y0065865D01*
X0022805Y0066364D02*
X0006976Y0066364D01*
X0006976Y0066862D02*
X0022805Y0066862D01*
X0022805Y0067361D02*
X0006976Y0067361D01*
X0006976Y0067859D02*
X0022805Y0067859D01*
X0022805Y0068358D02*
X0006976Y0068358D01*
X0006976Y0068856D02*
X0022805Y0068856D01*
X0022805Y0069355D02*
X0006976Y0069355D01*
X0006976Y0069853D02*
X0022805Y0069853D01*
X0022805Y0070352D02*
X0006976Y0070352D01*
X0006976Y0070850D02*
X0022805Y0070850D01*
X0022805Y0071349D02*
X0006976Y0071349D01*
X0006976Y0071847D02*
X0022805Y0071847D01*
X0022805Y0072346D02*
X0006976Y0072346D01*
X0006976Y0072844D02*
X0022805Y0072844D01*
X0022805Y0073343D02*
X0006976Y0073343D01*
X0006976Y0073841D02*
X0022805Y0073841D01*
X0022805Y0074340D02*
X0006976Y0074340D01*
X0006976Y0074838D02*
X0022805Y0074838D01*
X0022805Y0075337D02*
X0006976Y0075337D01*
X0006976Y0075835D02*
X0023081Y0075835D01*
X0023767Y0077630D02*
X0022324Y0077630D01*
X0020990Y0078182D01*
X0019970Y0079203D01*
X0019417Y0080536D01*
X0019417Y0087554D01*
X0019970Y0088888D01*
X0020990Y0089908D01*
X0022324Y0090461D01*
X0023767Y0090461D01*
X0025100Y0089908D01*
X0026121Y0088888D01*
X0026673Y0087554D01*
X0026673Y0080536D01*
X0026121Y0079203D01*
X0025100Y0078182D01*
X0023767Y0077630D01*
X0024249Y0077829D02*
X0031842Y0077829D01*
X0032324Y0077630D02*
X0033767Y0077630D01*
X0035100Y0078182D01*
X0036121Y0079203D01*
X0036673Y0080536D01*
X0036673Y0087554D01*
X0036121Y0088888D01*
X0035100Y0089908D01*
X0033767Y0090461D01*
X0032324Y0090461D01*
X0030990Y0089908D01*
X0029970Y0088888D01*
X0029417Y0087554D01*
X0029417Y0080536D01*
X0029970Y0079203D01*
X0030990Y0078182D01*
X0032324Y0077630D01*
X0030845Y0078328D02*
X0025246Y0078328D01*
X0025745Y0078826D02*
X0030346Y0078826D01*
X0029919Y0079325D02*
X0026171Y0079325D01*
X0026378Y0079823D02*
X0029713Y0079823D01*
X0029506Y0080322D02*
X0026584Y0080322D01*
X0026673Y0080820D02*
X0029417Y0080820D01*
X0029417Y0081319D02*
X0026673Y0081319D01*
X0026673Y0081818D02*
X0029417Y0081818D01*
X0029417Y0082316D02*
X0026673Y0082316D01*
X0026673Y0082815D02*
X0029417Y0082815D01*
X0029417Y0083313D02*
X0026673Y0083313D01*
X0026673Y0083812D02*
X0029417Y0083812D01*
X0029417Y0084310D02*
X0026673Y0084310D01*
X0026673Y0084809D02*
X0029417Y0084809D01*
X0029417Y0085307D02*
X0026673Y0085307D01*
X0026673Y0085806D02*
X0029417Y0085806D01*
X0029417Y0086304D02*
X0026673Y0086304D01*
X0026673Y0086803D02*
X0029417Y0086803D01*
X0029417Y0087301D02*
X0026673Y0087301D01*
X0026572Y0087800D02*
X0029519Y0087800D01*
X0029725Y0088298D02*
X0026365Y0088298D01*
X0026159Y0088797D02*
X0029932Y0088797D01*
X0030377Y0089295D02*
X0025713Y0089295D01*
X0025215Y0089794D02*
X0030876Y0089794D01*
X0031917Y0090292D02*
X0024174Y0090292D01*
X0021917Y0090292D02*
X0014174Y0090292D01*
X0013767Y0090461D02*
X0012324Y0090461D01*
X0010990Y0089908D01*
X0009970Y0088888D01*
X0009417Y0087554D01*
X0009417Y0080536D01*
X0009970Y0079203D01*
X0010990Y0078182D01*
X0012324Y0077630D01*
X0013767Y0077630D01*
X0015100Y0078182D01*
X0016121Y0079203D01*
X0016673Y0080536D01*
X0016673Y0087554D01*
X0016121Y0088888D01*
X0015100Y0089908D01*
X0013767Y0090461D01*
X0015215Y0089794D02*
X0020876Y0089794D01*
X0020377Y0089295D02*
X0015713Y0089295D01*
X0016159Y0088797D02*
X0019932Y0088797D01*
X0019725Y0088298D02*
X0016365Y0088298D01*
X0016572Y0087800D02*
X0019519Y0087800D01*
X0019417Y0087301D02*
X0016673Y0087301D01*
X0016673Y0086803D02*
X0019417Y0086803D01*
X0019417Y0086304D02*
X0016673Y0086304D01*
X0016673Y0085806D02*
X0019417Y0085806D01*
X0019417Y0085307D02*
X0016673Y0085307D01*
X0016673Y0084809D02*
X0019417Y0084809D01*
X0019417Y0084310D02*
X0016673Y0084310D01*
X0016673Y0083812D02*
X0019417Y0083812D01*
X0019417Y0083313D02*
X0016673Y0083313D01*
X0016673Y0082815D02*
X0019417Y0082815D01*
X0019417Y0082316D02*
X0016673Y0082316D01*
X0016673Y0081818D02*
X0019417Y0081818D01*
X0019417Y0081319D02*
X0016673Y0081319D01*
X0016673Y0080820D02*
X0019417Y0080820D01*
X0019506Y0080322D02*
X0016584Y0080322D01*
X0016378Y0079823D02*
X0019713Y0079823D01*
X0019919Y0079325D02*
X0016171Y0079325D01*
X0015745Y0078826D02*
X0020346Y0078826D01*
X0020845Y0078328D02*
X0015246Y0078328D01*
X0014249Y0077829D02*
X0021842Y0077829D01*
X0011842Y0077829D02*
X0006976Y0077829D01*
X0006976Y0077331D02*
X0109339Y0077331D01*
X0109339Y0077829D02*
X0104249Y0077829D01*
X0103767Y0077630D02*
X0105100Y0078182D01*
X0106121Y0079203D01*
X0106673Y0080536D01*
X0106673Y0087554D01*
X0106121Y0088888D01*
X0105100Y0089908D01*
X0103767Y0090461D01*
X0102324Y0090461D01*
X0100990Y0089908D01*
X0099970Y0088888D01*
X0099417Y0087554D01*
X0099417Y0080536D01*
X0099970Y0079203D01*
X0100990Y0078182D01*
X0102324Y0077630D01*
X0103767Y0077630D01*
X0105246Y0078328D02*
X0109339Y0078328D01*
X0109339Y0078826D02*
X0105745Y0078826D01*
X0106171Y0079325D02*
X0109339Y0079325D01*
X0109339Y0079823D02*
X0106378Y0079823D01*
X0106584Y0080322D02*
X0109339Y0080322D01*
X0109339Y0080820D02*
X0106673Y0080820D01*
X0106673Y0081319D02*
X0109339Y0081319D01*
X0109339Y0081818D02*
X0106673Y0081818D01*
X0106673Y0082316D02*
X0109339Y0082316D01*
X0109339Y0082815D02*
X0106673Y0082815D01*
X0106673Y0083313D02*
X0109339Y0083313D01*
X0109339Y0083812D02*
X0106673Y0083812D01*
X0106673Y0084310D02*
X0109339Y0084310D01*
X0109339Y0084809D02*
X0106673Y0084809D01*
X0106673Y0085307D02*
X0109339Y0085307D01*
X0109339Y0085806D02*
X0106673Y0085806D01*
X0106673Y0086304D02*
X0109339Y0086304D01*
X0109339Y0086803D02*
X0106673Y0086803D01*
X0106673Y0087301D02*
X0109339Y0087301D01*
X0109339Y0087800D02*
X0106572Y0087800D01*
X0106365Y0088298D02*
X0109339Y0088298D01*
X0109339Y0088797D02*
X0106159Y0088797D01*
X0105713Y0089295D02*
X0109339Y0089295D01*
X0109339Y0089794D02*
X0105215Y0089794D01*
X0104174Y0090292D02*
X0109339Y0090292D01*
X0101917Y0090292D02*
X0094174Y0090292D01*
X0093767Y0090461D02*
X0095100Y0089908D01*
X0096121Y0088888D01*
X0096673Y0087554D01*
X0096673Y0080536D01*
X0096121Y0079203D01*
X0095100Y0078182D01*
X0093767Y0077630D01*
X0092324Y0077630D01*
X0090990Y0078182D01*
X0089970Y0079203D01*
X0089417Y0080536D01*
X0089417Y0087554D01*
X0089970Y0088888D01*
X0090990Y0089908D01*
X0092324Y0090461D01*
X0093767Y0090461D01*
X0095215Y0089794D02*
X0100876Y0089794D01*
X0100377Y0089295D02*
X0095713Y0089295D01*
X0096159Y0088797D02*
X0099932Y0088797D01*
X0099725Y0088298D02*
X0096365Y0088298D01*
X0096572Y0087800D02*
X0099519Y0087800D01*
X0099417Y0087301D02*
X0096673Y0087301D01*
X0096673Y0086803D02*
X0099417Y0086803D01*
X0099417Y0086304D02*
X0096673Y0086304D01*
X0096673Y0085806D02*
X0099417Y0085806D01*
X0099417Y0085307D02*
X0096673Y0085307D01*
X0096673Y0084809D02*
X0099417Y0084809D01*
X0099417Y0084310D02*
X0096673Y0084310D01*
X0096673Y0083812D02*
X0099417Y0083812D01*
X0099417Y0083313D02*
X0096673Y0083313D01*
X0096673Y0082815D02*
X0099417Y0082815D01*
X0099417Y0082316D02*
X0096673Y0082316D01*
X0096673Y0081818D02*
X0099417Y0081818D01*
X0099417Y0081319D02*
X0096673Y0081319D01*
X0096673Y0080820D02*
X0099417Y0080820D01*
X0099506Y0080322D02*
X0096584Y0080322D01*
X0096378Y0079823D02*
X0099713Y0079823D01*
X0099919Y0079325D02*
X0096171Y0079325D01*
X0095745Y0078826D02*
X0100346Y0078826D01*
X0100845Y0078328D02*
X0095246Y0078328D01*
X0094249Y0077829D02*
X0101842Y0077829D01*
X0096283Y0072844D02*
X0109339Y0072844D01*
X0109339Y0072346D02*
X0096782Y0072346D01*
X0097280Y0071847D02*
X0109339Y0071847D01*
X0109339Y0071349D02*
X0097779Y0071349D01*
X0098278Y0070850D02*
X0109339Y0070850D01*
X0109339Y0070352D02*
X0098776Y0070352D01*
X0099275Y0069853D02*
X0109339Y0069853D01*
X0109339Y0069355D02*
X0099773Y0069355D01*
X0100272Y0068856D02*
X0109339Y0068856D01*
X0109339Y0068358D02*
X0100770Y0068358D01*
X0101269Y0067859D02*
X0109339Y0067859D01*
X0109339Y0067361D02*
X0107809Y0067361D01*
X0108646Y0066862D02*
X0109339Y0066862D01*
X0109339Y0066364D02*
X0109145Y0066364D01*
X0109295Y0061877D02*
X0109339Y0061877D01*
X0109339Y0061379D02*
X0108797Y0061379D01*
X0109339Y0060880D02*
X0108171Y0060880D01*
X0109339Y0060382D02*
X0049286Y0060382D01*
X0049286Y0060880D02*
X0098919Y0060880D01*
X0098294Y0061379D02*
X0049286Y0061379D01*
X0049286Y0061877D02*
X0097795Y0061877D01*
X0097523Y0062376D02*
X0049286Y0062376D01*
X0049286Y0062874D02*
X0097316Y0062874D01*
X0097130Y0063373D02*
X0049286Y0063373D01*
X0049286Y0063871D02*
X0097130Y0063871D01*
X0097130Y0064370D02*
X0049286Y0064370D01*
X0049286Y0064868D02*
X0097172Y0064868D01*
X0097378Y0065367D02*
X0049286Y0065367D01*
X0049286Y0065865D02*
X0097585Y0065865D01*
X0097946Y0066364D02*
X0049286Y0066364D01*
X0049286Y0066862D02*
X0098191Y0066862D01*
X0097693Y0067361D02*
X0049286Y0067361D01*
X0049286Y0067859D02*
X0097194Y0067859D01*
X0096696Y0068358D02*
X0049286Y0068358D01*
X0049286Y0068856D02*
X0096197Y0068856D01*
X0095699Y0069355D02*
X0049286Y0069355D01*
X0049286Y0069853D02*
X0095200Y0069853D01*
X0094702Y0070352D02*
X0049286Y0070352D01*
X0049286Y0070850D02*
X0094203Y0070850D01*
X0093705Y0071349D02*
X0049286Y0071349D01*
X0049286Y0071847D02*
X0093206Y0071847D01*
X0091747Y0072346D02*
X0049286Y0072346D01*
X0049286Y0072844D02*
X0091248Y0072844D01*
X0090925Y0073343D02*
X0049286Y0073343D01*
X0049286Y0073841D02*
X0090925Y0073841D01*
X0090925Y0074340D02*
X0049286Y0074340D01*
X0049286Y0074838D02*
X0090925Y0074838D01*
X0091339Y0075337D02*
X0049286Y0075337D01*
X0049010Y0075835D02*
X0091837Y0075835D01*
X0091842Y0077829D02*
X0084249Y0077829D01*
X0083767Y0077630D02*
X0085100Y0078182D01*
X0086121Y0079203D01*
X0086673Y0080536D01*
X0086673Y0087554D01*
X0086121Y0088888D01*
X0085100Y0089908D01*
X0083767Y0090461D01*
X0082324Y0090461D01*
X0080990Y0089908D01*
X0079970Y0088888D01*
X0079417Y0087554D01*
X0079417Y0080536D01*
X0079970Y0079203D01*
X0080990Y0078182D01*
X0082324Y0077630D01*
X0083767Y0077630D01*
X0081842Y0077829D02*
X0074249Y0077829D01*
X0073767Y0077630D02*
X0075100Y0078182D01*
X0076121Y0079203D01*
X0076673Y0080536D01*
X0076673Y0087554D01*
X0076121Y0088888D01*
X0075100Y0089908D01*
X0073767Y0090461D01*
X0072324Y0090461D01*
X0070990Y0089908D01*
X0069970Y0088888D01*
X0069417Y0087554D01*
X0069417Y0080536D01*
X0069970Y0079203D01*
X0070990Y0078182D01*
X0072324Y0077630D01*
X0073767Y0077630D01*
X0071842Y0077829D02*
X0064249Y0077829D01*
X0063767Y0077630D02*
X0065100Y0078182D01*
X0066121Y0079203D01*
X0066673Y0080536D01*
X0066673Y0087554D01*
X0066121Y0088888D01*
X0065100Y0089908D01*
X0063767Y0090461D01*
X0062324Y0090461D01*
X0060990Y0089908D01*
X0059970Y0088888D01*
X0059417Y0087554D01*
X0059417Y0080536D01*
X0059970Y0079203D01*
X0060990Y0078182D01*
X0062324Y0077630D01*
X0063767Y0077630D01*
X0061842Y0077829D02*
X0054249Y0077829D01*
X0053767Y0077630D02*
X0055100Y0078182D01*
X0056121Y0079203D01*
X0056673Y0080536D01*
X0056673Y0087554D01*
X0056121Y0088888D01*
X0055100Y0089908D01*
X0053767Y0090461D01*
X0052324Y0090461D01*
X0050990Y0089908D01*
X0049970Y0088888D01*
X0049417Y0087554D01*
X0049417Y0080536D01*
X0049970Y0079203D01*
X0050990Y0078182D01*
X0052324Y0077630D01*
X0053767Y0077630D01*
X0051842Y0077829D02*
X0044249Y0077829D01*
X0043767Y0077630D02*
X0045100Y0078182D01*
X0046121Y0079203D01*
X0046673Y0080536D01*
X0046673Y0087554D01*
X0046121Y0088888D01*
X0045100Y0089908D01*
X0043767Y0090461D01*
X0042324Y0090461D01*
X0040990Y0089908D01*
X0039970Y0088888D01*
X0039417Y0087554D01*
X0039417Y0080536D01*
X0039970Y0079203D01*
X0040990Y0078182D01*
X0042324Y0077630D01*
X0043767Y0077630D01*
X0045246Y0078328D02*
X0050845Y0078328D01*
X0050346Y0078826D02*
X0045745Y0078826D01*
X0046171Y0079325D02*
X0049919Y0079325D01*
X0049713Y0079823D02*
X0046378Y0079823D01*
X0046584Y0080322D02*
X0049506Y0080322D01*
X0049417Y0080820D02*
X0046673Y0080820D01*
X0046673Y0081319D02*
X0049417Y0081319D01*
X0049417Y0081818D02*
X0046673Y0081818D01*
X0046673Y0082316D02*
X0049417Y0082316D01*
X0049417Y0082815D02*
X0046673Y0082815D01*
X0046673Y0083313D02*
X0049417Y0083313D01*
X0049417Y0083812D02*
X0046673Y0083812D01*
X0046673Y0084310D02*
X0049417Y0084310D01*
X0049417Y0084809D02*
X0046673Y0084809D01*
X0046673Y0085307D02*
X0049417Y0085307D01*
X0049417Y0085806D02*
X0046673Y0085806D01*
X0046673Y0086304D02*
X0049417Y0086304D01*
X0049417Y0086803D02*
X0046673Y0086803D01*
X0046673Y0087301D02*
X0049417Y0087301D01*
X0049519Y0087800D02*
X0046572Y0087800D01*
X0046365Y0088298D02*
X0049725Y0088298D01*
X0049932Y0088797D02*
X0046159Y0088797D01*
X0045713Y0089295D02*
X0050377Y0089295D01*
X0050876Y0089794D02*
X0045215Y0089794D01*
X0044174Y0090292D02*
X0051917Y0090292D01*
X0054174Y0090292D02*
X0061917Y0090292D01*
X0060876Y0089794D02*
X0055215Y0089794D01*
X0055713Y0089295D02*
X0060377Y0089295D01*
X0059932Y0088797D02*
X0056159Y0088797D01*
X0056365Y0088298D02*
X0059725Y0088298D01*
X0059519Y0087800D02*
X0056572Y0087800D01*
X0056673Y0087301D02*
X0059417Y0087301D01*
X0059417Y0086803D02*
X0056673Y0086803D01*
X0056673Y0086304D02*
X0059417Y0086304D01*
X0059417Y0085806D02*
X0056673Y0085806D01*
X0056673Y0085307D02*
X0059417Y0085307D01*
X0059417Y0084809D02*
X0056673Y0084809D01*
X0056673Y0084310D02*
X0059417Y0084310D01*
X0059417Y0083812D02*
X0056673Y0083812D01*
X0056673Y0083313D02*
X0059417Y0083313D01*
X0059417Y0082815D02*
X0056673Y0082815D01*
X0056673Y0082316D02*
X0059417Y0082316D01*
X0059417Y0081818D02*
X0056673Y0081818D01*
X0056673Y0081319D02*
X0059417Y0081319D01*
X0059417Y0080820D02*
X0056673Y0080820D01*
X0056584Y0080322D02*
X0059506Y0080322D01*
X0059713Y0079823D02*
X0056378Y0079823D01*
X0056171Y0079325D02*
X0059919Y0079325D01*
X0060346Y0078826D02*
X0055745Y0078826D01*
X0055246Y0078328D02*
X0060845Y0078328D01*
X0065246Y0078328D02*
X0070845Y0078328D01*
X0070346Y0078826D02*
X0065745Y0078826D01*
X0066171Y0079325D02*
X0069919Y0079325D01*
X0069713Y0079823D02*
X0066378Y0079823D01*
X0066584Y0080322D02*
X0069506Y0080322D01*
X0069417Y0080820D02*
X0066673Y0080820D01*
X0066673Y0081319D02*
X0069417Y0081319D01*
X0069417Y0081818D02*
X0066673Y0081818D01*
X0066673Y0082316D02*
X0069417Y0082316D01*
X0069417Y0082815D02*
X0066673Y0082815D01*
X0066673Y0083313D02*
X0069417Y0083313D01*
X0069417Y0083812D02*
X0066673Y0083812D01*
X0066673Y0084310D02*
X0069417Y0084310D01*
X0069417Y0084809D02*
X0066673Y0084809D01*
X0066673Y0085307D02*
X0069417Y0085307D01*
X0069417Y0085806D02*
X0066673Y0085806D01*
X0066673Y0086304D02*
X0069417Y0086304D01*
X0069417Y0086803D02*
X0066673Y0086803D01*
X0066673Y0087301D02*
X0069417Y0087301D01*
X0069519Y0087800D02*
X0066572Y0087800D01*
X0066365Y0088298D02*
X0069725Y0088298D01*
X0069932Y0088797D02*
X0066159Y0088797D01*
X0065713Y0089295D02*
X0070377Y0089295D01*
X0070876Y0089794D02*
X0065215Y0089794D01*
X0064174Y0090292D02*
X0071917Y0090292D01*
X0074174Y0090292D02*
X0081917Y0090292D01*
X0080876Y0089794D02*
X0075215Y0089794D01*
X0075713Y0089295D02*
X0080377Y0089295D01*
X0079932Y0088797D02*
X0076159Y0088797D01*
X0076365Y0088298D02*
X0079725Y0088298D01*
X0079519Y0087800D02*
X0076572Y0087800D01*
X0076673Y0087301D02*
X0079417Y0087301D01*
X0079417Y0086803D02*
X0076673Y0086803D01*
X0076673Y0086304D02*
X0079417Y0086304D01*
X0079417Y0085806D02*
X0076673Y0085806D01*
X0076673Y0085307D02*
X0079417Y0085307D01*
X0079417Y0084809D02*
X0076673Y0084809D01*
X0076673Y0084310D02*
X0079417Y0084310D01*
X0079417Y0083812D02*
X0076673Y0083812D01*
X0076673Y0083313D02*
X0079417Y0083313D01*
X0079417Y0082815D02*
X0076673Y0082815D01*
X0076673Y0082316D02*
X0079417Y0082316D01*
X0079417Y0081818D02*
X0076673Y0081818D01*
X0076673Y0081319D02*
X0079417Y0081319D01*
X0079417Y0080820D02*
X0076673Y0080820D01*
X0076584Y0080322D02*
X0079506Y0080322D01*
X0079713Y0079823D02*
X0076378Y0079823D01*
X0076171Y0079325D02*
X0079919Y0079325D01*
X0080346Y0078826D02*
X0075745Y0078826D01*
X0075246Y0078328D02*
X0080845Y0078328D01*
X0085246Y0078328D02*
X0090845Y0078328D01*
X0090346Y0078826D02*
X0085745Y0078826D01*
X0086171Y0079325D02*
X0089919Y0079325D01*
X0089713Y0079823D02*
X0086378Y0079823D01*
X0086584Y0080322D02*
X0089506Y0080322D01*
X0089417Y0080820D02*
X0086673Y0080820D01*
X0086673Y0081319D02*
X0089417Y0081319D01*
X0089417Y0081818D02*
X0086673Y0081818D01*
X0086673Y0082316D02*
X0089417Y0082316D01*
X0089417Y0082815D02*
X0086673Y0082815D01*
X0086673Y0083313D02*
X0089417Y0083313D01*
X0089417Y0083812D02*
X0086673Y0083812D01*
X0086673Y0084310D02*
X0089417Y0084310D01*
X0089417Y0084809D02*
X0086673Y0084809D01*
X0086673Y0085307D02*
X0089417Y0085307D01*
X0089417Y0085806D02*
X0086673Y0085806D01*
X0086673Y0086304D02*
X0089417Y0086304D01*
X0089417Y0086803D02*
X0086673Y0086803D01*
X0086673Y0087301D02*
X0089417Y0087301D01*
X0089519Y0087800D02*
X0086572Y0087800D01*
X0086365Y0088298D02*
X0089725Y0088298D01*
X0089932Y0088797D02*
X0086159Y0088797D01*
X0085713Y0089295D02*
X0090377Y0089295D01*
X0090876Y0089794D02*
X0085215Y0089794D01*
X0084174Y0090292D02*
X0091917Y0090292D01*
X0094253Y0075835D02*
X0109339Y0075835D01*
X0109339Y0075337D02*
X0094752Y0075337D01*
X0095165Y0074838D02*
X0109339Y0074838D01*
X0109339Y0074340D02*
X0095165Y0074340D01*
X0095286Y0073841D02*
X0109339Y0073841D01*
X0109339Y0073343D02*
X0095785Y0073343D01*
X0109339Y0076334D02*
X0006976Y0076334D01*
X0006976Y0076832D02*
X0109339Y0076832D01*
X0109339Y0059883D02*
X0049286Y0059883D01*
X0049286Y0059384D02*
X0109339Y0059384D01*
X0109339Y0058886D02*
X0049286Y0058886D01*
X0049286Y0058387D02*
X0109339Y0058387D01*
X0109339Y0057889D02*
X0049286Y0057889D01*
X0049286Y0057390D02*
X0099354Y0057390D01*
X0098474Y0056892D02*
X0049286Y0056892D01*
X0041842Y0077829D02*
X0034249Y0077829D01*
X0035246Y0078328D02*
X0040845Y0078328D01*
X0040346Y0078826D02*
X0035745Y0078826D01*
X0036171Y0079325D02*
X0039919Y0079325D01*
X0039713Y0079823D02*
X0036378Y0079823D01*
X0036584Y0080322D02*
X0039506Y0080322D01*
X0039417Y0080820D02*
X0036673Y0080820D01*
X0036673Y0081319D02*
X0039417Y0081319D01*
X0039417Y0081818D02*
X0036673Y0081818D01*
X0036673Y0082316D02*
X0039417Y0082316D01*
X0039417Y0082815D02*
X0036673Y0082815D01*
X0036673Y0083313D02*
X0039417Y0083313D01*
X0039417Y0083812D02*
X0036673Y0083812D01*
X0036673Y0084310D02*
X0039417Y0084310D01*
X0039417Y0084809D02*
X0036673Y0084809D01*
X0036673Y0085307D02*
X0039417Y0085307D01*
X0039417Y0085806D02*
X0036673Y0085806D01*
X0036673Y0086304D02*
X0039417Y0086304D01*
X0039417Y0086803D02*
X0036673Y0086803D01*
X0036673Y0087301D02*
X0039417Y0087301D01*
X0039519Y0087800D02*
X0036572Y0087800D01*
X0036365Y0088298D02*
X0039725Y0088298D01*
X0039932Y0088797D02*
X0036159Y0088797D01*
X0035713Y0089295D02*
X0040377Y0089295D01*
X0040876Y0089794D02*
X0035215Y0089794D01*
X0034174Y0090292D02*
X0041917Y0090292D01*
X0011917Y0090292D02*
X0006976Y0090292D01*
X0006976Y0089794D02*
X0010876Y0089794D01*
X0010377Y0089295D02*
X0006976Y0089295D01*
X0006976Y0088797D02*
X0009932Y0088797D01*
X0009725Y0088298D02*
X0006976Y0088298D01*
X0006976Y0087800D02*
X0009519Y0087800D01*
X0009417Y0087301D02*
X0006976Y0087301D01*
X0006976Y0086803D02*
X0009417Y0086803D01*
X0009417Y0086304D02*
X0006976Y0086304D01*
X0006976Y0085806D02*
X0009417Y0085806D01*
X0009417Y0085307D02*
X0006976Y0085307D01*
X0006976Y0084809D02*
X0009417Y0084809D01*
X0009417Y0084310D02*
X0006976Y0084310D01*
X0006976Y0083812D02*
X0009417Y0083812D01*
X0009417Y0083313D02*
X0006976Y0083313D01*
X0006976Y0082815D02*
X0009417Y0082815D01*
X0009417Y0082316D02*
X0006976Y0082316D01*
X0006976Y0081818D02*
X0009417Y0081818D01*
X0009417Y0081319D02*
X0006976Y0081319D01*
X0006976Y0080820D02*
X0009417Y0080820D01*
X0009506Y0080322D02*
X0006976Y0080322D01*
X0006976Y0079823D02*
X0009713Y0079823D01*
X0009919Y0079325D02*
X0006976Y0079325D01*
X0006976Y0078826D02*
X0010346Y0078826D01*
X0010845Y0078328D02*
X0006976Y0078328D01*
X0088898Y0034957D02*
X0109339Y0034957D01*
X0109339Y0040441D02*
X0107112Y0040441D01*
X0108315Y0040940D02*
X0109339Y0040940D01*
X0109339Y0041438D02*
X0108856Y0041438D01*
X0109085Y0046423D02*
X0109339Y0046423D01*
X0109339Y0046922D02*
X0108587Y0046922D01*
X0109339Y0047420D02*
X0107665Y0047420D01*
X0109339Y0049913D02*
X0096873Y0049913D01*
X0097339Y0050411D02*
X0109339Y0050411D01*
X0109339Y0050910D02*
X0108243Y0050910D01*
X0108826Y0051408D02*
X0109339Y0051408D01*
X0109325Y0051907D02*
X0109339Y0051907D01*
X0109339Y0056393D02*
X0109115Y0056393D01*
X0109339Y0056892D02*
X0108617Y0056892D01*
X0109339Y0057390D02*
X0107737Y0057390D01*
X0098847Y0050910D02*
X0097339Y0050910D01*
X0097339Y0051408D02*
X0098264Y0051408D01*
X0097766Y0051907D02*
X0097339Y0051907D01*
X0097339Y0052405D02*
X0097510Y0052405D01*
X0097391Y0055396D02*
X0097339Y0055396D01*
X0097339Y0055895D02*
X0097597Y0055895D01*
X0097975Y0056393D02*
X0097138Y0056393D01*
D16*
X0085545Y0053045D03*
X0065045Y0039545D03*
X0065045Y0036045D03*
X0089045Y0032545D03*
X0093045Y0074045D03*
X0054045Y0074545D03*
X0023045Y0036545D03*
X0023045Y0033045D03*
X0019545Y0033045D03*
X0016045Y0033045D03*
X0012545Y0033045D03*
X0009045Y0033045D03*
X0009045Y0036545D03*
X0012545Y0036545D03*
X0016045Y0036545D03*
X0019545Y0036545D03*
X0019545Y0029545D03*
X0016045Y0029545D03*
X0012545Y0029545D03*
X0009045Y0029545D03*
X0023045Y0029545D03*
D17*
X0085545Y0036045D02*
X0089045Y0032545D01*
X0085545Y0036045D02*
X0085545Y0038305D01*
X0085545Y0045785D02*
X0085545Y0053045D01*
X0093305Y0053045D01*
X0093545Y0053285D01*
X0093545Y0045805D02*
X0101785Y0045805D01*
X0103545Y0044045D01*
X0103545Y0064045D02*
X0103045Y0064045D01*
X0093045Y0074045D01*
D18*
X0048045Y0074217D02*
X0024045Y0074217D01*
X0024045Y0073419D02*
X0048045Y0073419D01*
X0048045Y0072620D02*
X0024045Y0072620D01*
X0024045Y0071822D02*
X0048045Y0071822D01*
X0048045Y0071023D02*
X0024045Y0071023D01*
X0024045Y0070225D02*
X0048045Y0070225D01*
X0048045Y0069426D02*
X0024045Y0069426D01*
X0024045Y0068628D02*
X0048045Y0068628D01*
X0048045Y0067829D02*
X0024045Y0067829D01*
X0024045Y0067031D02*
X0048045Y0067031D01*
X0048045Y0066232D02*
X0024045Y0066232D01*
X0024045Y0065434D02*
X0048045Y0065434D01*
X0048045Y0064635D02*
X0024045Y0064635D01*
X0024045Y0063837D02*
X0048045Y0063837D01*
X0048045Y0063038D02*
X0024045Y0063038D01*
X0024045Y0062240D02*
X0048045Y0062240D01*
X0048045Y0061441D02*
X0024045Y0061441D01*
X0024045Y0060643D02*
X0048045Y0060643D01*
X0048045Y0059844D02*
X0024045Y0059844D01*
X0024045Y0059046D02*
X0048045Y0059046D01*
X0048045Y0058247D02*
X0024045Y0058247D01*
X0024045Y0057449D02*
X0048045Y0057449D01*
X0048045Y0056650D02*
X0024045Y0056650D01*
X0024045Y0055851D02*
X0048045Y0055851D01*
X0048045Y0055053D02*
X0024045Y0055053D01*
X0024045Y0054254D02*
X0048045Y0054254D01*
X0048045Y0053456D02*
X0024045Y0053456D01*
X0024045Y0052657D02*
X0048045Y0052657D01*
X0048045Y0051859D02*
X0024045Y0051859D01*
X0024045Y0051060D02*
X0048045Y0051060D01*
X0048045Y0050262D02*
X0024045Y0050262D01*
X0024045Y0049463D02*
X0048045Y0049463D01*
X0048045Y0048665D02*
X0007126Y0048665D01*
X0007126Y0049045D02*
X0024045Y0049045D01*
X0024045Y0075045D01*
X0048045Y0075045D01*
X0048045Y0040045D01*
X0007126Y0040045D01*
X0007126Y0049045D01*
X0007126Y0047866D02*
X0048045Y0047866D01*
X0048045Y0047068D02*
X0007126Y0047068D01*
X0007126Y0046269D02*
X0048045Y0046269D01*
X0048045Y0045471D02*
X0007126Y0045471D01*
X0007126Y0044672D02*
X0048045Y0044672D01*
X0048045Y0043874D02*
X0007126Y0043874D01*
X0007126Y0043075D02*
X0048045Y0043075D01*
X0048045Y0042277D02*
X0007126Y0042277D01*
X0007126Y0041478D02*
X0048045Y0041478D01*
X0048045Y0040680D02*
X0007126Y0040680D01*
X0007126Y0038545D02*
X0030545Y0038545D01*
X0030545Y0027545D01*
X0007126Y0027545D01*
X0007126Y0038545D01*
X0007126Y0038284D02*
X0030545Y0038284D01*
X0030545Y0037486D02*
X0007126Y0037486D01*
X0007126Y0036687D02*
X0030545Y0036687D01*
X0030545Y0035889D02*
X0007126Y0035889D01*
X0007126Y0035090D02*
X0030545Y0035090D01*
X0030545Y0034292D02*
X0007126Y0034292D01*
X0007126Y0033493D02*
X0030545Y0033493D01*
X0030545Y0032695D02*
X0007126Y0032695D01*
X0007126Y0031896D02*
X0030545Y0031896D01*
X0030545Y0031098D02*
X0007126Y0031098D01*
X0007126Y0030299D02*
X0030545Y0030299D01*
X0030545Y0029501D02*
X0007126Y0029501D01*
X0007126Y0028702D02*
X0030545Y0028702D01*
X0030545Y0027904D02*
X0007126Y0027904D01*
X0024045Y0075016D02*
X0048045Y0075016D01*
D19*
X0045022Y0032648D02*
X0045022Y0025781D01*
X0043285Y0024045D01*
M02*
