G75*
%MOIN*%
%OFA0B0*%
%FSLAX25Y25*%
%IPPOS*%
%LPD*%
%AMOC8*
5,1,8,0,0,1.08239X$1,22.5*
%
%ADD10C,0.00000*%
%ADD11C,0.01100*%
%ADD12C,0.00600*%
%ADD13C,0.00500*%
D10*
X0005951Y0002200D02*
X0005951Y0161137D01*
X0200872Y0161137D01*
X0200479Y0001924D01*
X0005951Y0002200D01*
D11*
X0105550Y0140427D02*
X0105550Y0146327D01*
X0107189Y0146327D01*
X0107268Y0146325D01*
X0107347Y0146319D01*
X0107426Y0146310D01*
X0107504Y0146296D01*
X0107581Y0146279D01*
X0107658Y0146259D01*
X0107733Y0146234D01*
X0107807Y0146206D01*
X0107880Y0146174D01*
X0107951Y0146139D01*
X0108020Y0146101D01*
X0108087Y0146059D01*
X0108152Y0146014D01*
X0108215Y0145966D01*
X0108276Y0145915D01*
X0108334Y0145861D01*
X0108389Y0145804D01*
X0108442Y0145745D01*
X0108491Y0145683D01*
X0108538Y0145619D01*
X0108581Y0145553D01*
X0108621Y0145485D01*
X0108658Y0145414D01*
X0108692Y0145343D01*
X0108721Y0145269D01*
X0108748Y0145194D01*
X0108770Y0145119D01*
X0108789Y0145042D01*
X0108805Y0144964D01*
X0108816Y0144886D01*
X0108824Y0144807D01*
X0108828Y0144728D01*
X0108828Y0144648D01*
X0108824Y0144569D01*
X0108816Y0144490D01*
X0108805Y0144412D01*
X0108789Y0144334D01*
X0108770Y0144257D01*
X0108748Y0144182D01*
X0108721Y0144107D01*
X0108692Y0144033D01*
X0108658Y0143962D01*
X0108621Y0143891D01*
X0108581Y0143823D01*
X0108538Y0143757D01*
X0108491Y0143693D01*
X0108442Y0143631D01*
X0108389Y0143572D01*
X0108334Y0143515D01*
X0108276Y0143461D01*
X0108215Y0143410D01*
X0108152Y0143362D01*
X0108087Y0143317D01*
X0108020Y0143275D01*
X0107951Y0143237D01*
X0107880Y0143202D01*
X0107807Y0143170D01*
X0107733Y0143142D01*
X0107658Y0143117D01*
X0107581Y0143097D01*
X0107504Y0143080D01*
X0107426Y0143066D01*
X0107347Y0143057D01*
X0107268Y0143051D01*
X0107189Y0143049D01*
X0105550Y0143049D01*
X0107517Y0143049D02*
X0108828Y0140427D01*
X0111872Y0140427D02*
X0111872Y0146327D01*
X0114495Y0146327D01*
X0113839Y0143705D02*
X0111872Y0143705D01*
X0111872Y0140427D02*
X0114495Y0140427D01*
X0116655Y0140427D02*
X0118622Y0146327D01*
X0120589Y0140427D01*
X0120097Y0141902D02*
X0117147Y0141902D01*
X0123342Y0140427D02*
X0123342Y0146327D01*
X0124981Y0146327D01*
X0125059Y0146325D01*
X0125137Y0146320D01*
X0125214Y0146310D01*
X0125291Y0146297D01*
X0125367Y0146281D01*
X0125443Y0146261D01*
X0125517Y0146237D01*
X0125590Y0146210D01*
X0125662Y0146179D01*
X0125732Y0146145D01*
X0125801Y0146107D01*
X0125867Y0146067D01*
X0125932Y0146023D01*
X0125994Y0145976D01*
X0126054Y0145927D01*
X0126112Y0145874D01*
X0126167Y0145819D01*
X0126220Y0145761D01*
X0126269Y0145701D01*
X0126316Y0145639D01*
X0126360Y0145574D01*
X0126400Y0145508D01*
X0126438Y0145439D01*
X0126472Y0145369D01*
X0126503Y0145297D01*
X0126530Y0145224D01*
X0126554Y0145150D01*
X0126574Y0145074D01*
X0126590Y0144998D01*
X0126603Y0144921D01*
X0126613Y0144844D01*
X0126618Y0144766D01*
X0126620Y0144688D01*
X0126620Y0142066D01*
X0126618Y0141988D01*
X0126613Y0141910D01*
X0126603Y0141833D01*
X0126590Y0141756D01*
X0126574Y0141680D01*
X0126554Y0141604D01*
X0126530Y0141530D01*
X0126503Y0141457D01*
X0126472Y0141385D01*
X0126438Y0141315D01*
X0126400Y0141247D01*
X0126360Y0141180D01*
X0126316Y0141115D01*
X0126269Y0141053D01*
X0126220Y0140993D01*
X0126167Y0140935D01*
X0126112Y0140880D01*
X0126054Y0140827D01*
X0125994Y0140778D01*
X0125932Y0140731D01*
X0125867Y0140687D01*
X0125801Y0140647D01*
X0125732Y0140609D01*
X0125662Y0140575D01*
X0125590Y0140544D01*
X0125517Y0140517D01*
X0125443Y0140493D01*
X0125367Y0140473D01*
X0125291Y0140457D01*
X0125214Y0140444D01*
X0125137Y0140434D01*
X0125059Y0140429D01*
X0124981Y0140427D01*
X0123342Y0140427D01*
X0129924Y0140427D02*
X0129924Y0146327D01*
X0132546Y0146327D01*
X0135294Y0146327D02*
X0136933Y0146327D01*
X0135294Y0146327D02*
X0135294Y0140427D01*
X0132546Y0140427D02*
X0129924Y0140427D01*
X0129924Y0143705D02*
X0131891Y0143705D01*
X0135294Y0143049D02*
X0136933Y0143049D01*
X0137261Y0143049D02*
X0138572Y0140427D01*
X0136933Y0143049D02*
X0137012Y0143051D01*
X0137091Y0143057D01*
X0137170Y0143066D01*
X0137248Y0143080D01*
X0137325Y0143097D01*
X0137402Y0143117D01*
X0137477Y0143142D01*
X0137551Y0143170D01*
X0137624Y0143202D01*
X0137695Y0143237D01*
X0137764Y0143275D01*
X0137831Y0143317D01*
X0137896Y0143362D01*
X0137959Y0143410D01*
X0138020Y0143461D01*
X0138078Y0143515D01*
X0138133Y0143572D01*
X0138186Y0143631D01*
X0138235Y0143693D01*
X0138282Y0143757D01*
X0138325Y0143823D01*
X0138365Y0143891D01*
X0138402Y0143962D01*
X0138436Y0144033D01*
X0138465Y0144107D01*
X0138492Y0144182D01*
X0138514Y0144257D01*
X0138533Y0144334D01*
X0138549Y0144412D01*
X0138560Y0144490D01*
X0138568Y0144569D01*
X0138572Y0144648D01*
X0138572Y0144728D01*
X0138568Y0144807D01*
X0138560Y0144886D01*
X0138549Y0144964D01*
X0138533Y0145042D01*
X0138514Y0145119D01*
X0138492Y0145194D01*
X0138465Y0145269D01*
X0138436Y0145343D01*
X0138402Y0145414D01*
X0138365Y0145485D01*
X0138325Y0145553D01*
X0138282Y0145619D01*
X0138235Y0145683D01*
X0138186Y0145745D01*
X0138133Y0145804D01*
X0138078Y0145861D01*
X0138020Y0145915D01*
X0137959Y0145966D01*
X0137896Y0146014D01*
X0137831Y0146059D01*
X0137764Y0146101D01*
X0137695Y0146139D01*
X0137624Y0146174D01*
X0137551Y0146206D01*
X0137477Y0146234D01*
X0137402Y0146259D01*
X0137325Y0146279D01*
X0137248Y0146296D01*
X0137170Y0146310D01*
X0137091Y0146319D01*
X0137012Y0146325D01*
X0136933Y0146327D01*
X0112176Y0150927D02*
X0112176Y0156827D01*
X0110209Y0153549D01*
X0108242Y0156827D01*
X0108242Y0150927D01*
X0103930Y0150927D02*
X0105241Y0156827D01*
X0102619Y0154860D02*
X0103930Y0150927D01*
X0101308Y0150927D02*
X0102619Y0154860D01*
X0099997Y0156827D02*
X0101308Y0150927D01*
X0095975Y0153549D02*
X0094336Y0153549D01*
X0095975Y0153549D02*
X0096054Y0153551D01*
X0096133Y0153557D01*
X0096212Y0153566D01*
X0096290Y0153580D01*
X0096367Y0153597D01*
X0096444Y0153617D01*
X0096519Y0153642D01*
X0096593Y0153670D01*
X0096666Y0153702D01*
X0096737Y0153737D01*
X0096806Y0153775D01*
X0096873Y0153817D01*
X0096938Y0153862D01*
X0097001Y0153910D01*
X0097062Y0153961D01*
X0097120Y0154015D01*
X0097175Y0154072D01*
X0097228Y0154131D01*
X0097277Y0154193D01*
X0097324Y0154257D01*
X0097367Y0154323D01*
X0097407Y0154391D01*
X0097444Y0154462D01*
X0097478Y0154533D01*
X0097507Y0154607D01*
X0097534Y0154682D01*
X0097556Y0154757D01*
X0097575Y0154834D01*
X0097591Y0154912D01*
X0097602Y0154990D01*
X0097610Y0155069D01*
X0097614Y0155148D01*
X0097614Y0155228D01*
X0097610Y0155307D01*
X0097602Y0155386D01*
X0097591Y0155464D01*
X0097575Y0155542D01*
X0097556Y0155619D01*
X0097534Y0155694D01*
X0097507Y0155769D01*
X0097478Y0155843D01*
X0097444Y0155914D01*
X0097407Y0155985D01*
X0097367Y0156053D01*
X0097324Y0156119D01*
X0097277Y0156183D01*
X0097228Y0156245D01*
X0097175Y0156304D01*
X0097120Y0156361D01*
X0097062Y0156415D01*
X0097001Y0156466D01*
X0096938Y0156514D01*
X0096873Y0156559D01*
X0096806Y0156601D01*
X0096737Y0156639D01*
X0096666Y0156674D01*
X0096593Y0156706D01*
X0096519Y0156734D01*
X0096444Y0156759D01*
X0096367Y0156779D01*
X0096290Y0156796D01*
X0096212Y0156810D01*
X0096133Y0156819D01*
X0096054Y0156825D01*
X0095975Y0156827D01*
X0094336Y0156827D01*
X0094336Y0150927D01*
D12*
X0053194Y0152500D02*
X0051061Y0152500D01*
X0050987Y0152502D01*
X0050912Y0152508D01*
X0050839Y0152518D01*
X0050765Y0152531D01*
X0050693Y0152548D01*
X0050622Y0152570D01*
X0050551Y0152594D01*
X0050483Y0152623D01*
X0050415Y0152655D01*
X0050350Y0152691D01*
X0050287Y0152729D01*
X0050225Y0152772D01*
X0050166Y0152817D01*
X0050109Y0152865D01*
X0050055Y0152916D01*
X0050004Y0152970D01*
X0049956Y0153027D01*
X0049911Y0153086D01*
X0049868Y0153148D01*
X0049830Y0153211D01*
X0049794Y0153276D01*
X0049762Y0153344D01*
X0049733Y0153412D01*
X0049709Y0153483D01*
X0049687Y0153554D01*
X0049670Y0153626D01*
X0049657Y0153700D01*
X0049647Y0153773D01*
X0049641Y0153848D01*
X0049639Y0153922D01*
X0049638Y0153922D02*
X0049638Y0157478D01*
X0049639Y0157478D02*
X0049641Y0157552D01*
X0049647Y0157627D01*
X0049657Y0157700D01*
X0049670Y0157774D01*
X0049687Y0157846D01*
X0049709Y0157917D01*
X0049733Y0157988D01*
X0049762Y0158056D01*
X0049794Y0158124D01*
X0049830Y0158189D01*
X0049868Y0158252D01*
X0049911Y0158314D01*
X0049956Y0158373D01*
X0050004Y0158429D01*
X0050055Y0158484D01*
X0050109Y0158535D01*
X0050166Y0158583D01*
X0050225Y0158628D01*
X0050287Y0158671D01*
X0050350Y0158709D01*
X0050415Y0158745D01*
X0050483Y0158777D01*
X0050551Y0158806D01*
X0050622Y0158830D01*
X0050693Y0158852D01*
X0050765Y0158869D01*
X0050839Y0158882D01*
X0050912Y0158892D01*
X0050987Y0158898D01*
X0051061Y0158900D01*
X0053194Y0158900D01*
X0053194Y0156056D02*
X0052127Y0156056D01*
X0053194Y0156056D02*
X0053194Y0152500D01*
X0046835Y0154278D02*
X0046835Y0157122D01*
X0046833Y0157205D01*
X0046827Y0157288D01*
X0046817Y0157371D01*
X0046804Y0157454D01*
X0046786Y0157535D01*
X0046765Y0157616D01*
X0046740Y0157695D01*
X0046711Y0157773D01*
X0046679Y0157850D01*
X0046643Y0157925D01*
X0046604Y0157999D01*
X0046561Y0158070D01*
X0046515Y0158140D01*
X0046465Y0158207D01*
X0046413Y0158272D01*
X0046358Y0158334D01*
X0046299Y0158394D01*
X0046238Y0158451D01*
X0046175Y0158505D01*
X0046109Y0158556D01*
X0046040Y0158603D01*
X0045970Y0158648D01*
X0045897Y0158689D01*
X0045823Y0158726D01*
X0045747Y0158761D01*
X0045669Y0158791D01*
X0045591Y0158818D01*
X0045510Y0158841D01*
X0045429Y0158861D01*
X0045347Y0158876D01*
X0045265Y0158888D01*
X0045182Y0158896D01*
X0045099Y0158900D01*
X0045015Y0158900D01*
X0044932Y0158896D01*
X0044849Y0158888D01*
X0044767Y0158876D01*
X0044685Y0158861D01*
X0044604Y0158841D01*
X0044523Y0158818D01*
X0044445Y0158791D01*
X0044367Y0158761D01*
X0044291Y0158726D01*
X0044217Y0158689D01*
X0044144Y0158648D01*
X0044074Y0158603D01*
X0044005Y0158556D01*
X0043939Y0158505D01*
X0043876Y0158451D01*
X0043815Y0158394D01*
X0043756Y0158334D01*
X0043701Y0158272D01*
X0043649Y0158207D01*
X0043599Y0158140D01*
X0043553Y0158070D01*
X0043510Y0157999D01*
X0043471Y0157925D01*
X0043435Y0157850D01*
X0043403Y0157773D01*
X0043374Y0157695D01*
X0043349Y0157616D01*
X0043328Y0157535D01*
X0043310Y0157454D01*
X0043297Y0157371D01*
X0043287Y0157288D01*
X0043281Y0157205D01*
X0043279Y0157122D01*
X0043279Y0154278D01*
X0043281Y0154195D01*
X0043287Y0154112D01*
X0043297Y0154029D01*
X0043310Y0153946D01*
X0043328Y0153865D01*
X0043349Y0153784D01*
X0043374Y0153705D01*
X0043403Y0153627D01*
X0043435Y0153550D01*
X0043471Y0153475D01*
X0043510Y0153401D01*
X0043553Y0153330D01*
X0043599Y0153260D01*
X0043649Y0153193D01*
X0043701Y0153128D01*
X0043756Y0153066D01*
X0043815Y0153006D01*
X0043876Y0152949D01*
X0043939Y0152895D01*
X0044005Y0152844D01*
X0044074Y0152797D01*
X0044144Y0152752D01*
X0044217Y0152711D01*
X0044291Y0152674D01*
X0044367Y0152639D01*
X0044445Y0152609D01*
X0044523Y0152582D01*
X0044604Y0152559D01*
X0044685Y0152539D01*
X0044767Y0152524D01*
X0044849Y0152512D01*
X0044932Y0152504D01*
X0045015Y0152500D01*
X0045099Y0152500D01*
X0045182Y0152504D01*
X0045265Y0152512D01*
X0045347Y0152524D01*
X0045429Y0152539D01*
X0045510Y0152559D01*
X0045591Y0152582D01*
X0045669Y0152609D01*
X0045747Y0152639D01*
X0045823Y0152674D01*
X0045897Y0152711D01*
X0045970Y0152752D01*
X0046040Y0152797D01*
X0046109Y0152844D01*
X0046175Y0152895D01*
X0046238Y0152949D01*
X0046299Y0153006D01*
X0046358Y0153066D01*
X0046413Y0153128D01*
X0046465Y0153193D01*
X0046515Y0153260D01*
X0046561Y0153330D01*
X0046604Y0153401D01*
X0046643Y0153475D01*
X0046679Y0153550D01*
X0046711Y0153627D01*
X0046740Y0153705D01*
X0046765Y0153784D01*
X0046786Y0153865D01*
X0046804Y0153946D01*
X0046817Y0154029D01*
X0046827Y0154112D01*
X0046833Y0154195D01*
X0046835Y0154278D01*
X0040717Y0152500D02*
X0039295Y0155344D01*
X0038939Y0155344D02*
X0037161Y0155344D01*
X0038939Y0155344D02*
X0039022Y0155346D01*
X0039105Y0155352D01*
X0039188Y0155362D01*
X0039271Y0155375D01*
X0039352Y0155393D01*
X0039433Y0155414D01*
X0039512Y0155439D01*
X0039590Y0155468D01*
X0039667Y0155500D01*
X0039742Y0155536D01*
X0039816Y0155575D01*
X0039887Y0155618D01*
X0039957Y0155664D01*
X0040024Y0155714D01*
X0040089Y0155766D01*
X0040151Y0155821D01*
X0040211Y0155880D01*
X0040268Y0155941D01*
X0040322Y0156004D01*
X0040373Y0156070D01*
X0040420Y0156139D01*
X0040465Y0156209D01*
X0040506Y0156282D01*
X0040543Y0156356D01*
X0040578Y0156432D01*
X0040608Y0156510D01*
X0040635Y0156588D01*
X0040658Y0156669D01*
X0040678Y0156750D01*
X0040693Y0156832D01*
X0040705Y0156914D01*
X0040713Y0156997D01*
X0040717Y0157080D01*
X0040717Y0157164D01*
X0040713Y0157247D01*
X0040705Y0157330D01*
X0040693Y0157412D01*
X0040678Y0157494D01*
X0040658Y0157575D01*
X0040635Y0157656D01*
X0040608Y0157734D01*
X0040578Y0157812D01*
X0040543Y0157888D01*
X0040506Y0157962D01*
X0040465Y0158035D01*
X0040420Y0158105D01*
X0040373Y0158174D01*
X0040322Y0158240D01*
X0040268Y0158303D01*
X0040211Y0158364D01*
X0040151Y0158423D01*
X0040089Y0158478D01*
X0040024Y0158530D01*
X0039957Y0158580D01*
X0039887Y0158626D01*
X0039816Y0158669D01*
X0039742Y0158708D01*
X0039667Y0158744D01*
X0039590Y0158776D01*
X0039512Y0158805D01*
X0039433Y0158830D01*
X0039352Y0158851D01*
X0039271Y0158869D01*
X0039188Y0158882D01*
X0039105Y0158892D01*
X0039022Y0158898D01*
X0038939Y0158900D01*
X0037161Y0158900D01*
X0037161Y0152500D01*
X0032832Y0155344D02*
X0031054Y0155344D01*
X0032832Y0155344D02*
X0032915Y0155346D01*
X0032998Y0155352D01*
X0033081Y0155362D01*
X0033164Y0155375D01*
X0033245Y0155393D01*
X0033326Y0155414D01*
X0033405Y0155439D01*
X0033483Y0155468D01*
X0033560Y0155500D01*
X0033635Y0155536D01*
X0033709Y0155575D01*
X0033780Y0155618D01*
X0033850Y0155664D01*
X0033917Y0155714D01*
X0033982Y0155766D01*
X0034044Y0155821D01*
X0034104Y0155880D01*
X0034161Y0155941D01*
X0034215Y0156004D01*
X0034266Y0156070D01*
X0034313Y0156139D01*
X0034358Y0156209D01*
X0034399Y0156282D01*
X0034436Y0156356D01*
X0034471Y0156432D01*
X0034501Y0156510D01*
X0034528Y0156588D01*
X0034551Y0156669D01*
X0034571Y0156750D01*
X0034586Y0156832D01*
X0034598Y0156914D01*
X0034606Y0156997D01*
X0034610Y0157080D01*
X0034610Y0157164D01*
X0034606Y0157247D01*
X0034598Y0157330D01*
X0034586Y0157412D01*
X0034571Y0157494D01*
X0034551Y0157575D01*
X0034528Y0157656D01*
X0034501Y0157734D01*
X0034471Y0157812D01*
X0034436Y0157888D01*
X0034399Y0157962D01*
X0034358Y0158035D01*
X0034313Y0158105D01*
X0034266Y0158174D01*
X0034215Y0158240D01*
X0034161Y0158303D01*
X0034104Y0158364D01*
X0034044Y0158423D01*
X0033982Y0158478D01*
X0033917Y0158530D01*
X0033850Y0158580D01*
X0033780Y0158626D01*
X0033709Y0158669D01*
X0033635Y0158708D01*
X0033560Y0158744D01*
X0033483Y0158776D01*
X0033405Y0158805D01*
X0033326Y0158830D01*
X0033245Y0158851D01*
X0033164Y0158869D01*
X0033081Y0158882D01*
X0032998Y0158892D01*
X0032915Y0158898D01*
X0032832Y0158900D01*
X0031054Y0158900D01*
X0031054Y0152500D01*
X0027368Y0152137D02*
X0023968Y0152137D01*
X0020794Y0152771D02*
X0018294Y0155271D01*
X0013294Y0155271D01*
X0010794Y0152771D01*
X0010794Y0147771D01*
X0013294Y0145271D01*
X0010794Y0142771D01*
X0010794Y0137771D01*
X0013294Y0135271D01*
X0018294Y0135271D01*
X0020794Y0137771D01*
X0020794Y0142771D01*
X0018294Y0145271D01*
X0013294Y0145271D01*
X0018294Y0145271D02*
X0020794Y0147771D01*
X0020794Y0152771D01*
X0023968Y0149910D02*
X0027368Y0147643D01*
X0027368Y0149910D02*
X0023968Y0147643D01*
X0027368Y0151192D02*
X0027368Y0153081D01*
X0027761Y0142845D02*
X0024361Y0142845D01*
X0025873Y0142845D02*
X0025873Y0141900D01*
X0025873Y0141712D02*
X0024361Y0140956D01*
X0024361Y0139467D02*
X0027761Y0137200D01*
X0027761Y0139467D02*
X0024361Y0137200D01*
X0020794Y0132771D02*
X0020794Y0127771D01*
X0018294Y0125271D01*
X0020794Y0122771D01*
X0020794Y0117771D01*
X0018294Y0115271D01*
X0013294Y0115271D01*
X0010794Y0117771D01*
X0010794Y0122771D01*
X0013294Y0125271D01*
X0010794Y0127771D01*
X0010794Y0132771D01*
X0013294Y0135271D01*
X0018294Y0135271D02*
X0020794Y0132771D01*
X0018294Y0125271D02*
X0013294Y0125271D01*
X0025543Y0123192D02*
X0025543Y0122058D01*
X0027431Y0122058D01*
X0027431Y0122625D01*
X0028187Y0123948D02*
X0028241Y0123946D01*
X0028295Y0123940D01*
X0028348Y0123931D01*
X0028400Y0123917D01*
X0028451Y0123900D01*
X0028501Y0123880D01*
X0028549Y0123856D01*
X0028596Y0123828D01*
X0028640Y0123797D01*
X0028682Y0123763D01*
X0028722Y0123727D01*
X0028758Y0123687D01*
X0028792Y0123645D01*
X0028823Y0123601D01*
X0028851Y0123554D01*
X0028875Y0123506D01*
X0028895Y0123456D01*
X0028912Y0123405D01*
X0028926Y0123353D01*
X0028935Y0123300D01*
X0028941Y0123246D01*
X0028943Y0123192D01*
X0028943Y0122058D01*
X0028943Y0120107D02*
X0025543Y0118218D01*
X0028943Y0118218D01*
X0028943Y0120107D02*
X0025543Y0120107D01*
X0025542Y0123192D02*
X0025544Y0123246D01*
X0025550Y0123300D01*
X0025559Y0123353D01*
X0025573Y0123405D01*
X0025590Y0123456D01*
X0025610Y0123506D01*
X0025634Y0123554D01*
X0025662Y0123601D01*
X0025693Y0123645D01*
X0025727Y0123687D01*
X0025763Y0123727D01*
X0025803Y0123763D01*
X0025845Y0123797D01*
X0025889Y0123828D01*
X0025936Y0123856D01*
X0025984Y0123880D01*
X0026034Y0123900D01*
X0026085Y0123917D01*
X0026137Y0123931D01*
X0026190Y0123940D01*
X0026244Y0123946D01*
X0026298Y0123948D01*
X0026298Y0123947D02*
X0028187Y0123947D01*
X0028943Y0116267D02*
X0025543Y0116267D01*
X0025543Y0115323D01*
X0025545Y0115264D01*
X0025550Y0115205D01*
X0025560Y0115146D01*
X0025573Y0115088D01*
X0025589Y0115031D01*
X0025609Y0114975D01*
X0025633Y0114921D01*
X0025660Y0114868D01*
X0025690Y0114817D01*
X0025723Y0114768D01*
X0025760Y0114721D01*
X0025799Y0114677D01*
X0025841Y0114635D01*
X0025885Y0114596D01*
X0025932Y0114559D01*
X0025981Y0114526D01*
X0026032Y0114496D01*
X0026085Y0114469D01*
X0026139Y0114445D01*
X0026195Y0114425D01*
X0026252Y0114409D01*
X0026310Y0114396D01*
X0026369Y0114386D01*
X0026428Y0114381D01*
X0026487Y0114379D01*
X0026487Y0114378D02*
X0027998Y0114378D01*
X0027998Y0114379D02*
X0028057Y0114381D01*
X0028116Y0114386D01*
X0028175Y0114396D01*
X0028233Y0114409D01*
X0028290Y0114425D01*
X0028346Y0114445D01*
X0028400Y0114469D01*
X0028453Y0114496D01*
X0028504Y0114526D01*
X0028553Y0114559D01*
X0028600Y0114596D01*
X0028644Y0114635D01*
X0028686Y0114677D01*
X0028725Y0114721D01*
X0028762Y0114768D01*
X0028795Y0114817D01*
X0028825Y0114868D01*
X0028852Y0114921D01*
X0028876Y0114975D01*
X0028896Y0115031D01*
X0028912Y0115088D01*
X0028925Y0115146D01*
X0028935Y0115205D01*
X0028940Y0115264D01*
X0028942Y0115323D01*
X0028943Y0115323D02*
X0028943Y0116267D01*
X0034959Y0107098D02*
X0035012Y0107100D01*
X0035065Y0107105D01*
X0035117Y0107114D01*
X0035169Y0107127D01*
X0035219Y0107143D01*
X0035268Y0107163D01*
X0035316Y0107186D01*
X0035362Y0107213D01*
X0035407Y0107242D01*
X0035449Y0107275D01*
X0035488Y0107310D01*
X0035525Y0107348D01*
X0035560Y0107388D01*
X0035591Y0107431D01*
X0035620Y0107476D01*
X0035621Y0107476D02*
X0036187Y0108514D01*
X0037604Y0108137D02*
X0037602Y0108067D01*
X0037597Y0107997D01*
X0037588Y0107927D01*
X0037576Y0107858D01*
X0037561Y0107790D01*
X0037542Y0107722D01*
X0037520Y0107656D01*
X0037494Y0107590D01*
X0037466Y0107526D01*
X0037434Y0107464D01*
X0037399Y0107403D01*
X0037361Y0107344D01*
X0037321Y0107287D01*
X0036187Y0108514D02*
X0036216Y0108559D01*
X0036247Y0108602D01*
X0036282Y0108642D01*
X0036319Y0108680D01*
X0036358Y0108715D01*
X0036400Y0108748D01*
X0036445Y0108777D01*
X0036491Y0108804D01*
X0036539Y0108827D01*
X0036588Y0108847D01*
X0036638Y0108863D01*
X0036690Y0108876D01*
X0036742Y0108885D01*
X0036795Y0108890D01*
X0036848Y0108892D01*
X0036848Y0108893D02*
X0036902Y0108891D01*
X0036956Y0108885D01*
X0037009Y0108876D01*
X0037061Y0108862D01*
X0037112Y0108845D01*
X0037162Y0108825D01*
X0037210Y0108801D01*
X0037257Y0108773D01*
X0037301Y0108742D01*
X0037343Y0108708D01*
X0037383Y0108672D01*
X0037419Y0108632D01*
X0037453Y0108590D01*
X0037484Y0108546D01*
X0037512Y0108499D01*
X0037536Y0108451D01*
X0037556Y0108401D01*
X0037573Y0108350D01*
X0037587Y0108298D01*
X0037596Y0108245D01*
X0037602Y0108191D01*
X0037604Y0108137D01*
X0034676Y0108986D02*
X0034622Y0108929D01*
X0034570Y0108870D01*
X0034521Y0108808D01*
X0034476Y0108744D01*
X0034433Y0108677D01*
X0034394Y0108609D01*
X0034359Y0108539D01*
X0034327Y0108467D01*
X0034298Y0108393D01*
X0034273Y0108319D01*
X0034252Y0108243D01*
X0034235Y0108166D01*
X0034221Y0108088D01*
X0034212Y0108010D01*
X0034206Y0107932D01*
X0034204Y0107853D01*
X0034203Y0107853D02*
X0034205Y0107799D01*
X0034211Y0107745D01*
X0034220Y0107692D01*
X0034234Y0107640D01*
X0034251Y0107589D01*
X0034271Y0107539D01*
X0034295Y0107491D01*
X0034323Y0107444D01*
X0034354Y0107400D01*
X0034388Y0107358D01*
X0034424Y0107318D01*
X0034464Y0107282D01*
X0034506Y0107248D01*
X0034550Y0107217D01*
X0034597Y0107189D01*
X0034645Y0107165D01*
X0034695Y0107145D01*
X0034746Y0107128D01*
X0034798Y0107114D01*
X0034851Y0107105D01*
X0034905Y0107099D01*
X0034959Y0107097D01*
X0034959Y0105522D02*
X0036848Y0105522D01*
X0036902Y0105520D01*
X0036956Y0105514D01*
X0037009Y0105505D01*
X0037061Y0105491D01*
X0037112Y0105474D01*
X0037162Y0105454D01*
X0037210Y0105430D01*
X0037257Y0105402D01*
X0037301Y0105371D01*
X0037343Y0105337D01*
X0037383Y0105301D01*
X0037419Y0105261D01*
X0037453Y0105219D01*
X0037484Y0105175D01*
X0037512Y0105128D01*
X0037536Y0105080D01*
X0037556Y0105030D01*
X0037573Y0104979D01*
X0037587Y0104927D01*
X0037596Y0104874D01*
X0037602Y0104820D01*
X0037604Y0104766D01*
X0037604Y0104011D01*
X0037604Y0102376D02*
X0034204Y0102376D01*
X0034204Y0100865D01*
X0031857Y0098278D02*
X0031290Y0097239D01*
X0029873Y0097617D02*
X0029875Y0097696D01*
X0029881Y0097774D01*
X0029890Y0097852D01*
X0029904Y0097930D01*
X0029921Y0098007D01*
X0029942Y0098083D01*
X0029967Y0098157D01*
X0029996Y0098231D01*
X0030028Y0098303D01*
X0030063Y0098373D01*
X0030102Y0098441D01*
X0030145Y0098508D01*
X0030190Y0098572D01*
X0030239Y0098634D01*
X0030291Y0098693D01*
X0030345Y0098750D01*
X0031290Y0097240D02*
X0031261Y0097195D01*
X0031230Y0097152D01*
X0031195Y0097112D01*
X0031158Y0097074D01*
X0031119Y0097039D01*
X0031077Y0097006D01*
X0031032Y0096977D01*
X0030986Y0096950D01*
X0030938Y0096927D01*
X0030889Y0096907D01*
X0030839Y0096891D01*
X0030787Y0096878D01*
X0030735Y0096869D01*
X0030682Y0096864D01*
X0030629Y0096862D01*
X0030629Y0096861D02*
X0030575Y0096863D01*
X0030521Y0096869D01*
X0030468Y0096878D01*
X0030416Y0096892D01*
X0030365Y0096909D01*
X0030315Y0096929D01*
X0030267Y0096953D01*
X0030220Y0096981D01*
X0030176Y0097012D01*
X0030134Y0097046D01*
X0030094Y0097082D01*
X0030058Y0097122D01*
X0030024Y0097164D01*
X0029993Y0097208D01*
X0029965Y0097255D01*
X0029941Y0097303D01*
X0029921Y0097353D01*
X0029904Y0097404D01*
X0029890Y0097456D01*
X0029881Y0097509D01*
X0029875Y0097563D01*
X0029873Y0097617D01*
X0032991Y0097050D02*
X0033031Y0097107D01*
X0033069Y0097166D01*
X0033104Y0097227D01*
X0033136Y0097289D01*
X0033164Y0097353D01*
X0033190Y0097419D01*
X0033212Y0097485D01*
X0033231Y0097553D01*
X0033246Y0097621D01*
X0033258Y0097690D01*
X0033267Y0097760D01*
X0033272Y0097830D01*
X0033274Y0097900D01*
X0033272Y0097954D01*
X0033266Y0098008D01*
X0033257Y0098061D01*
X0033243Y0098113D01*
X0033226Y0098164D01*
X0033206Y0098214D01*
X0033182Y0098262D01*
X0033154Y0098309D01*
X0033123Y0098353D01*
X0033089Y0098395D01*
X0033053Y0098435D01*
X0033013Y0098471D01*
X0032971Y0098505D01*
X0032927Y0098536D01*
X0032880Y0098564D01*
X0032832Y0098588D01*
X0032782Y0098608D01*
X0032731Y0098625D01*
X0032679Y0098639D01*
X0032626Y0098648D01*
X0032572Y0098654D01*
X0032518Y0098656D01*
X0032465Y0098654D01*
X0032412Y0098649D01*
X0032360Y0098640D01*
X0032308Y0098627D01*
X0032258Y0098611D01*
X0032209Y0098591D01*
X0032161Y0098568D01*
X0032115Y0098541D01*
X0032070Y0098512D01*
X0032028Y0098479D01*
X0031989Y0098444D01*
X0031952Y0098406D01*
X0031917Y0098366D01*
X0031886Y0098323D01*
X0031857Y0098278D01*
X0033273Y0095150D02*
X0029873Y0095150D01*
X0029873Y0094206D01*
X0029874Y0094206D02*
X0029876Y0094147D01*
X0029881Y0094088D01*
X0029891Y0094029D01*
X0029904Y0093971D01*
X0029920Y0093914D01*
X0029940Y0093858D01*
X0029964Y0093804D01*
X0029991Y0093751D01*
X0030021Y0093700D01*
X0030054Y0093651D01*
X0030091Y0093604D01*
X0030130Y0093560D01*
X0030172Y0093518D01*
X0030216Y0093479D01*
X0030263Y0093442D01*
X0030312Y0093409D01*
X0030363Y0093379D01*
X0030416Y0093352D01*
X0030470Y0093328D01*
X0030526Y0093308D01*
X0030583Y0093292D01*
X0030641Y0093279D01*
X0030700Y0093269D01*
X0030759Y0093264D01*
X0030818Y0093262D01*
X0032329Y0093262D01*
X0032388Y0093264D01*
X0032447Y0093269D01*
X0032506Y0093279D01*
X0032564Y0093292D01*
X0032621Y0093308D01*
X0032677Y0093328D01*
X0032731Y0093352D01*
X0032784Y0093379D01*
X0032835Y0093409D01*
X0032884Y0093442D01*
X0032931Y0093479D01*
X0032975Y0093518D01*
X0033017Y0093560D01*
X0033056Y0093604D01*
X0033093Y0093651D01*
X0033126Y0093700D01*
X0033156Y0093751D01*
X0033183Y0093804D01*
X0033207Y0093858D01*
X0033227Y0093914D01*
X0033243Y0093971D01*
X0033256Y0094029D01*
X0033266Y0094088D01*
X0033271Y0094147D01*
X0033273Y0094206D01*
X0033273Y0095150D01*
X0033273Y0090486D02*
X0029873Y0091619D01*
X0030723Y0091336D02*
X0030723Y0089636D01*
X0029873Y0089353D02*
X0033273Y0090486D01*
X0032518Y0084183D02*
X0030629Y0084183D01*
X0030629Y0084184D02*
X0030575Y0084182D01*
X0030521Y0084176D01*
X0030468Y0084167D01*
X0030416Y0084153D01*
X0030365Y0084136D01*
X0030315Y0084116D01*
X0030267Y0084092D01*
X0030220Y0084064D01*
X0030176Y0084033D01*
X0030134Y0083999D01*
X0030094Y0083963D01*
X0030058Y0083923D01*
X0030024Y0083881D01*
X0029993Y0083837D01*
X0029965Y0083790D01*
X0029941Y0083742D01*
X0029921Y0083692D01*
X0029904Y0083641D01*
X0029890Y0083589D01*
X0029881Y0083536D01*
X0029875Y0083482D01*
X0029873Y0083428D01*
X0029873Y0082295D01*
X0031762Y0082295D01*
X0031762Y0082861D01*
X0032518Y0084184D02*
X0032572Y0084182D01*
X0032626Y0084176D01*
X0032679Y0084167D01*
X0032731Y0084153D01*
X0032782Y0084136D01*
X0032832Y0084116D01*
X0032880Y0084092D01*
X0032927Y0084064D01*
X0032971Y0084033D01*
X0033013Y0083999D01*
X0033053Y0083963D01*
X0033089Y0083923D01*
X0033123Y0083881D01*
X0033154Y0083837D01*
X0033182Y0083790D01*
X0033206Y0083742D01*
X0033226Y0083692D01*
X0033243Y0083641D01*
X0033257Y0083589D01*
X0033266Y0083536D01*
X0033272Y0083482D01*
X0033274Y0083428D01*
X0033273Y0083428D02*
X0033273Y0082295D01*
X0033273Y0080343D02*
X0029873Y0078455D01*
X0033273Y0078455D01*
X0033273Y0080343D02*
X0029873Y0080343D01*
X0029873Y0076503D02*
X0029873Y0075559D01*
X0029873Y0076503D02*
X0033273Y0076503D01*
X0033273Y0075559D01*
X0033271Y0075500D01*
X0033266Y0075441D01*
X0033256Y0075382D01*
X0033243Y0075324D01*
X0033227Y0075267D01*
X0033207Y0075211D01*
X0033183Y0075157D01*
X0033156Y0075104D01*
X0033126Y0075053D01*
X0033093Y0075004D01*
X0033056Y0074957D01*
X0033017Y0074913D01*
X0032975Y0074871D01*
X0032931Y0074832D01*
X0032884Y0074795D01*
X0032835Y0074762D01*
X0032784Y0074732D01*
X0032731Y0074705D01*
X0032677Y0074681D01*
X0032621Y0074661D01*
X0032564Y0074645D01*
X0032506Y0074632D01*
X0032447Y0074622D01*
X0032388Y0074617D01*
X0032329Y0074615D01*
X0030818Y0074615D01*
X0030759Y0074617D01*
X0030700Y0074622D01*
X0030641Y0074632D01*
X0030583Y0074645D01*
X0030526Y0074661D01*
X0030470Y0074681D01*
X0030416Y0074705D01*
X0030363Y0074732D01*
X0030312Y0074762D01*
X0030263Y0074795D01*
X0030216Y0074832D01*
X0030172Y0074871D01*
X0030130Y0074913D01*
X0030091Y0074957D01*
X0030054Y0075004D01*
X0030021Y0075053D01*
X0029991Y0075104D01*
X0029964Y0075157D01*
X0029940Y0075211D01*
X0029920Y0075267D01*
X0029904Y0075324D01*
X0029891Y0075382D01*
X0029881Y0075441D01*
X0029876Y0075500D01*
X0029874Y0075559D01*
X0020400Y0077377D02*
X0020400Y0072377D01*
X0017900Y0069877D01*
X0020400Y0067377D01*
X0020400Y0062377D01*
X0017900Y0059877D01*
X0012900Y0059877D01*
X0010400Y0062377D01*
X0010400Y0067377D01*
X0012900Y0069877D01*
X0010400Y0072377D01*
X0010400Y0077377D01*
X0012900Y0079877D01*
X0017900Y0079877D01*
X0020400Y0077377D01*
X0017900Y0079877D02*
X0020400Y0082377D01*
X0020400Y0087377D01*
X0017900Y0089877D01*
X0020400Y0092377D01*
X0020400Y0097377D01*
X0017900Y0099877D01*
X0020400Y0102377D01*
X0020400Y0107377D01*
X0017900Y0109877D01*
X0012900Y0109877D01*
X0010400Y0107377D01*
X0010400Y0102377D01*
X0012900Y0099877D01*
X0017900Y0099877D01*
X0012900Y0099877D02*
X0010400Y0097377D01*
X0010400Y0092377D01*
X0012900Y0089877D01*
X0017900Y0089877D01*
X0012900Y0089877D02*
X0010400Y0087377D01*
X0010400Y0082377D01*
X0012900Y0079877D01*
X0012900Y0069877D02*
X0017900Y0069877D01*
X0030267Y0067648D02*
X0030267Y0066515D01*
X0030266Y0066515D02*
X0030268Y0066461D01*
X0030274Y0066407D01*
X0030283Y0066354D01*
X0030297Y0066302D01*
X0030314Y0066251D01*
X0030334Y0066201D01*
X0030358Y0066153D01*
X0030386Y0066106D01*
X0030417Y0066062D01*
X0030451Y0066020D01*
X0030487Y0065980D01*
X0030527Y0065944D01*
X0030569Y0065910D01*
X0030613Y0065879D01*
X0030660Y0065851D01*
X0030708Y0065827D01*
X0030758Y0065807D01*
X0030809Y0065790D01*
X0030861Y0065776D01*
X0030914Y0065767D01*
X0030968Y0065761D01*
X0031022Y0065759D01*
X0031400Y0065759D01*
X0031454Y0065761D01*
X0031508Y0065767D01*
X0031561Y0065776D01*
X0031613Y0065790D01*
X0031664Y0065807D01*
X0031714Y0065827D01*
X0031762Y0065851D01*
X0031809Y0065879D01*
X0031853Y0065910D01*
X0031895Y0065944D01*
X0031935Y0065980D01*
X0031971Y0066020D01*
X0032005Y0066062D01*
X0032036Y0066106D01*
X0032064Y0066153D01*
X0032088Y0066201D01*
X0032108Y0066251D01*
X0032125Y0066302D01*
X0032139Y0066354D01*
X0032148Y0066407D01*
X0032154Y0066461D01*
X0032156Y0066515D01*
X0032156Y0067648D01*
X0033667Y0067648D01*
X0033667Y0065759D01*
X0033667Y0064237D02*
X0030267Y0063104D01*
X0033667Y0061970D01*
X0028399Y0057806D02*
X0028399Y0056383D01*
X0028399Y0057094D02*
X0021999Y0057094D01*
X0021999Y0056383D02*
X0021999Y0057806D01*
X0021999Y0053949D02*
X0021999Y0050393D01*
X0023421Y0047810D02*
X0026977Y0047810D01*
X0027051Y0047808D01*
X0027126Y0047802D01*
X0027199Y0047792D01*
X0027273Y0047779D01*
X0027345Y0047762D01*
X0027416Y0047740D01*
X0027487Y0047716D01*
X0027555Y0047687D01*
X0027623Y0047655D01*
X0027688Y0047619D01*
X0027751Y0047581D01*
X0027813Y0047538D01*
X0027872Y0047493D01*
X0027928Y0047445D01*
X0027983Y0047394D01*
X0028034Y0047340D01*
X0028082Y0047283D01*
X0028127Y0047224D01*
X0028170Y0047162D01*
X0028208Y0047099D01*
X0028244Y0047034D01*
X0028276Y0046966D01*
X0028305Y0046898D01*
X0028329Y0046827D01*
X0028351Y0046756D01*
X0028368Y0046684D01*
X0028381Y0046610D01*
X0028391Y0046537D01*
X0028397Y0046462D01*
X0028399Y0046388D01*
X0028399Y0044966D01*
X0023421Y0047810D02*
X0023347Y0047808D01*
X0023272Y0047802D01*
X0023199Y0047792D01*
X0023125Y0047779D01*
X0023053Y0047762D01*
X0022982Y0047740D01*
X0022911Y0047716D01*
X0022843Y0047687D01*
X0022775Y0047655D01*
X0022710Y0047619D01*
X0022647Y0047581D01*
X0022585Y0047538D01*
X0022526Y0047493D01*
X0022469Y0047445D01*
X0022415Y0047394D01*
X0022364Y0047340D01*
X0022316Y0047283D01*
X0022271Y0047224D01*
X0022228Y0047162D01*
X0022190Y0047099D01*
X0022154Y0047034D01*
X0022122Y0046966D01*
X0022093Y0046898D01*
X0022069Y0046827D01*
X0022047Y0046756D01*
X0022030Y0046684D01*
X0022017Y0046610D01*
X0022007Y0046537D01*
X0022001Y0046462D01*
X0021999Y0046388D01*
X0021999Y0044966D01*
X0025555Y0050927D02*
X0021999Y0053949D01*
X0026977Y0053949D02*
X0027062Y0053920D01*
X0027144Y0053887D01*
X0027226Y0053850D01*
X0027306Y0053810D01*
X0027383Y0053767D01*
X0027459Y0053720D01*
X0027533Y0053670D01*
X0027605Y0053617D01*
X0027674Y0053561D01*
X0027741Y0053502D01*
X0027805Y0053440D01*
X0027866Y0053375D01*
X0027925Y0053308D01*
X0027980Y0053238D01*
X0028033Y0053166D01*
X0028082Y0053092D01*
X0028128Y0053015D01*
X0028170Y0052937D01*
X0028210Y0052857D01*
X0028245Y0052775D01*
X0028278Y0052692D01*
X0028306Y0052608D01*
X0028331Y0052522D01*
X0028352Y0052435D01*
X0028369Y0052348D01*
X0028383Y0052260D01*
X0028392Y0052171D01*
X0028398Y0052082D01*
X0028400Y0051993D01*
X0028399Y0051993D02*
X0028397Y0051914D01*
X0028391Y0051836D01*
X0028382Y0051758D01*
X0028368Y0051681D01*
X0028351Y0051604D01*
X0028330Y0051529D01*
X0028305Y0051454D01*
X0028277Y0051381D01*
X0028245Y0051309D01*
X0028210Y0051239D01*
X0028171Y0051170D01*
X0028129Y0051104D01*
X0028084Y0051040D01*
X0028036Y0050978D01*
X0027985Y0050919D01*
X0027930Y0050862D01*
X0027873Y0050807D01*
X0027814Y0050756D01*
X0027752Y0050708D01*
X0027688Y0050663D01*
X0027622Y0050621D01*
X0027553Y0050582D01*
X0027483Y0050547D01*
X0027411Y0050515D01*
X0027338Y0050487D01*
X0027263Y0050462D01*
X0027188Y0050441D01*
X0027111Y0050424D01*
X0027034Y0050410D01*
X0026956Y0050401D01*
X0026878Y0050395D01*
X0026799Y0050393D01*
X0026717Y0050395D01*
X0026635Y0050401D01*
X0026554Y0050411D01*
X0026473Y0050424D01*
X0026393Y0050442D01*
X0026314Y0050463D01*
X0026236Y0050488D01*
X0026160Y0050516D01*
X0026084Y0050549D01*
X0026011Y0050584D01*
X0025939Y0050624D01*
X0025869Y0050666D01*
X0025801Y0050712D01*
X0025736Y0050761D01*
X0025673Y0050813D01*
X0025612Y0050869D01*
X0025554Y0050926D01*
X0053432Y0044158D02*
X0054188Y0043213D01*
X0053432Y0044158D02*
X0056832Y0044158D01*
X0056832Y0045102D02*
X0056832Y0043213D01*
X0056832Y0041382D02*
X0053432Y0041382D01*
X0054943Y0041382D02*
X0054943Y0039493D01*
X0053432Y0039493D02*
X0056832Y0039493D01*
X0056832Y0037869D02*
X0056832Y0037114D01*
X0056833Y0037114D02*
X0056831Y0037060D01*
X0056825Y0037006D01*
X0056816Y0036953D01*
X0056802Y0036901D01*
X0056785Y0036850D01*
X0056765Y0036800D01*
X0056741Y0036752D01*
X0056713Y0036705D01*
X0056682Y0036661D01*
X0056648Y0036619D01*
X0056612Y0036579D01*
X0056572Y0036543D01*
X0056530Y0036509D01*
X0056486Y0036478D01*
X0056439Y0036450D01*
X0056391Y0036426D01*
X0056341Y0036406D01*
X0056290Y0036389D01*
X0056238Y0036375D01*
X0056185Y0036366D01*
X0056131Y0036360D01*
X0056077Y0036358D01*
X0054188Y0036358D01*
X0054134Y0036360D01*
X0054080Y0036366D01*
X0054027Y0036375D01*
X0053975Y0036389D01*
X0053924Y0036406D01*
X0053874Y0036426D01*
X0053826Y0036450D01*
X0053779Y0036478D01*
X0053735Y0036509D01*
X0053693Y0036543D01*
X0053653Y0036579D01*
X0053617Y0036619D01*
X0053583Y0036661D01*
X0053552Y0036705D01*
X0053524Y0036752D01*
X0053500Y0036800D01*
X0053480Y0036850D01*
X0053463Y0036901D01*
X0053449Y0036953D01*
X0053440Y0037006D01*
X0053434Y0037060D01*
X0053432Y0037114D01*
X0053432Y0037869D01*
X0056832Y0046813D02*
X0056832Y0048702D01*
X0056832Y0046813D02*
X0054943Y0048419D01*
X0053432Y0047852D02*
X0053434Y0047787D01*
X0053440Y0047722D01*
X0053450Y0047657D01*
X0053463Y0047593D01*
X0053481Y0047530D01*
X0053502Y0047468D01*
X0053527Y0047408D01*
X0053555Y0047349D01*
X0053587Y0047292D01*
X0053622Y0047236D01*
X0053660Y0047184D01*
X0053702Y0047133D01*
X0053747Y0047085D01*
X0053794Y0047040D01*
X0053844Y0046998D01*
X0053896Y0046959D01*
X0053951Y0046923D01*
X0054007Y0046890D01*
X0054066Y0046861D01*
X0054126Y0046835D01*
X0054188Y0046813D01*
X0054943Y0048419D02*
X0054903Y0048459D01*
X0054860Y0048496D01*
X0054815Y0048531D01*
X0054767Y0048562D01*
X0054718Y0048591D01*
X0054668Y0048617D01*
X0054615Y0048639D01*
X0054562Y0048658D01*
X0054507Y0048674D01*
X0054452Y0048686D01*
X0054395Y0048695D01*
X0054339Y0048700D01*
X0054282Y0048702D01*
X0054226Y0048700D01*
X0054171Y0048695D01*
X0054116Y0048686D01*
X0054062Y0048673D01*
X0054009Y0048657D01*
X0053957Y0048637D01*
X0053906Y0048614D01*
X0053857Y0048588D01*
X0053810Y0048559D01*
X0053765Y0048526D01*
X0053722Y0048491D01*
X0053681Y0048453D01*
X0053643Y0048412D01*
X0053608Y0048369D01*
X0053575Y0048324D01*
X0053546Y0048277D01*
X0053520Y0048228D01*
X0053497Y0048177D01*
X0053477Y0048125D01*
X0053461Y0048072D01*
X0053448Y0048018D01*
X0053439Y0047963D01*
X0053434Y0047908D01*
X0053432Y0047852D01*
X0064062Y0048151D02*
X0064818Y0047207D01*
X0064062Y0048151D02*
X0067462Y0048151D01*
X0067462Y0047207D02*
X0067462Y0049096D01*
X0067462Y0045496D02*
X0067462Y0043607D01*
X0067462Y0044551D02*
X0064062Y0044551D01*
X0064818Y0043607D01*
X0065573Y0041776D02*
X0065573Y0039887D01*
X0064062Y0039887D02*
X0067462Y0039887D01*
X0067462Y0038263D02*
X0067462Y0037508D01*
X0067463Y0037508D02*
X0067461Y0037454D01*
X0067455Y0037400D01*
X0067446Y0037347D01*
X0067432Y0037295D01*
X0067415Y0037244D01*
X0067395Y0037194D01*
X0067371Y0037146D01*
X0067343Y0037099D01*
X0067312Y0037055D01*
X0067278Y0037013D01*
X0067242Y0036973D01*
X0067202Y0036937D01*
X0067160Y0036903D01*
X0067116Y0036872D01*
X0067069Y0036844D01*
X0067021Y0036820D01*
X0066971Y0036800D01*
X0066920Y0036783D01*
X0066868Y0036769D01*
X0066815Y0036760D01*
X0066761Y0036754D01*
X0066707Y0036752D01*
X0064818Y0036752D01*
X0064764Y0036754D01*
X0064710Y0036760D01*
X0064657Y0036769D01*
X0064605Y0036783D01*
X0064554Y0036800D01*
X0064504Y0036820D01*
X0064456Y0036844D01*
X0064409Y0036872D01*
X0064365Y0036903D01*
X0064323Y0036937D01*
X0064283Y0036973D01*
X0064247Y0037013D01*
X0064213Y0037055D01*
X0064182Y0037099D01*
X0064154Y0037146D01*
X0064130Y0037194D01*
X0064110Y0037244D01*
X0064093Y0037295D01*
X0064079Y0037347D01*
X0064070Y0037400D01*
X0064064Y0037454D01*
X0064062Y0037508D01*
X0064062Y0038263D01*
X0064062Y0041776D02*
X0067462Y0041776D01*
X0077448Y0041776D02*
X0080848Y0041776D01*
X0080848Y0043607D02*
X0080848Y0045496D01*
X0080848Y0044551D02*
X0077448Y0044551D01*
X0078204Y0043607D01*
X0078959Y0041776D02*
X0078959Y0039887D01*
X0077448Y0039887D02*
X0080848Y0039887D01*
X0080848Y0038263D02*
X0080848Y0037508D01*
X0080846Y0037454D01*
X0080840Y0037400D01*
X0080831Y0037347D01*
X0080817Y0037295D01*
X0080800Y0037244D01*
X0080780Y0037194D01*
X0080756Y0037146D01*
X0080728Y0037099D01*
X0080697Y0037055D01*
X0080663Y0037013D01*
X0080627Y0036973D01*
X0080587Y0036937D01*
X0080545Y0036903D01*
X0080501Y0036872D01*
X0080454Y0036844D01*
X0080406Y0036820D01*
X0080356Y0036800D01*
X0080305Y0036783D01*
X0080253Y0036769D01*
X0080200Y0036760D01*
X0080146Y0036754D01*
X0080092Y0036752D01*
X0078204Y0036752D01*
X0078150Y0036754D01*
X0078096Y0036760D01*
X0078043Y0036769D01*
X0077991Y0036783D01*
X0077940Y0036800D01*
X0077890Y0036820D01*
X0077842Y0036844D01*
X0077795Y0036872D01*
X0077751Y0036903D01*
X0077709Y0036937D01*
X0077669Y0036973D01*
X0077633Y0037013D01*
X0077599Y0037055D01*
X0077568Y0037099D01*
X0077540Y0037146D01*
X0077516Y0037194D01*
X0077496Y0037244D01*
X0077479Y0037295D01*
X0077465Y0037347D01*
X0077456Y0037400D01*
X0077450Y0037454D01*
X0077448Y0037508D01*
X0077448Y0038263D01*
X0087291Y0037901D02*
X0087291Y0038657D01*
X0087290Y0037901D02*
X0087292Y0037847D01*
X0087298Y0037793D01*
X0087307Y0037740D01*
X0087321Y0037688D01*
X0087338Y0037637D01*
X0087358Y0037587D01*
X0087382Y0037539D01*
X0087410Y0037492D01*
X0087441Y0037448D01*
X0087475Y0037406D01*
X0087511Y0037366D01*
X0087551Y0037330D01*
X0087593Y0037296D01*
X0087637Y0037265D01*
X0087684Y0037237D01*
X0087732Y0037213D01*
X0087782Y0037193D01*
X0087833Y0037176D01*
X0087885Y0037162D01*
X0087938Y0037153D01*
X0087992Y0037147D01*
X0088046Y0037145D01*
X0088046Y0037146D02*
X0089935Y0037146D01*
X0089935Y0037145D02*
X0089989Y0037147D01*
X0090043Y0037153D01*
X0090096Y0037162D01*
X0090148Y0037176D01*
X0090199Y0037193D01*
X0090249Y0037213D01*
X0090297Y0037237D01*
X0090344Y0037265D01*
X0090388Y0037296D01*
X0090430Y0037330D01*
X0090470Y0037366D01*
X0090506Y0037406D01*
X0090540Y0037448D01*
X0090571Y0037492D01*
X0090599Y0037539D01*
X0090623Y0037587D01*
X0090643Y0037637D01*
X0090660Y0037688D01*
X0090674Y0037740D01*
X0090683Y0037793D01*
X0090689Y0037847D01*
X0090691Y0037901D01*
X0090691Y0038657D01*
X0090691Y0040281D02*
X0087291Y0040281D01*
X0088802Y0040281D02*
X0088802Y0042170D01*
X0087291Y0042170D02*
X0090691Y0042170D01*
X0088424Y0044001D02*
X0088235Y0044001D01*
X0088424Y0044000D02*
X0088478Y0044002D01*
X0088532Y0044008D01*
X0088585Y0044017D01*
X0088637Y0044031D01*
X0088688Y0044048D01*
X0088738Y0044068D01*
X0088786Y0044092D01*
X0088833Y0044120D01*
X0088877Y0044151D01*
X0088919Y0044185D01*
X0088959Y0044221D01*
X0088995Y0044261D01*
X0089029Y0044303D01*
X0089060Y0044347D01*
X0089088Y0044394D01*
X0089112Y0044442D01*
X0089132Y0044492D01*
X0089149Y0044543D01*
X0089163Y0044595D01*
X0089172Y0044648D01*
X0089178Y0044702D01*
X0089180Y0044756D01*
X0089179Y0044756D02*
X0089179Y0045890D01*
X0088235Y0045890D01*
X0088235Y0045889D02*
X0088175Y0045887D01*
X0088114Y0045881D01*
X0088055Y0045872D01*
X0087996Y0045858D01*
X0087938Y0045841D01*
X0087881Y0045820D01*
X0087825Y0045796D01*
X0087772Y0045768D01*
X0087720Y0045736D01*
X0087670Y0045702D01*
X0087623Y0045664D01*
X0087578Y0045623D01*
X0087536Y0045580D01*
X0087497Y0045534D01*
X0087461Y0045485D01*
X0087428Y0045434D01*
X0087398Y0045382D01*
X0087372Y0045327D01*
X0087349Y0045271D01*
X0087330Y0045214D01*
X0087315Y0045155D01*
X0087303Y0045096D01*
X0087295Y0045036D01*
X0087291Y0044975D01*
X0087291Y0044915D01*
X0087295Y0044854D01*
X0087303Y0044794D01*
X0087315Y0044735D01*
X0087330Y0044676D01*
X0087349Y0044619D01*
X0087372Y0044563D01*
X0087398Y0044508D01*
X0087428Y0044456D01*
X0087461Y0044405D01*
X0087497Y0044356D01*
X0087536Y0044310D01*
X0087578Y0044267D01*
X0087623Y0044226D01*
X0087670Y0044188D01*
X0087720Y0044154D01*
X0087772Y0044122D01*
X0087825Y0044094D01*
X0087881Y0044070D01*
X0087938Y0044049D01*
X0087996Y0044032D01*
X0088055Y0044018D01*
X0088114Y0044009D01*
X0088175Y0044003D01*
X0088235Y0044001D01*
X0089179Y0045889D02*
X0089256Y0045887D01*
X0089332Y0045881D01*
X0089408Y0045872D01*
X0089483Y0045858D01*
X0089558Y0045841D01*
X0089631Y0045820D01*
X0089704Y0045795D01*
X0089775Y0045767D01*
X0089844Y0045735D01*
X0089912Y0045699D01*
X0089978Y0045660D01*
X0090042Y0045618D01*
X0090104Y0045573D01*
X0090163Y0045524D01*
X0090220Y0045473D01*
X0090274Y0045419D01*
X0090325Y0045362D01*
X0090374Y0045303D01*
X0090419Y0045241D01*
X0090461Y0045177D01*
X0090500Y0045111D01*
X0090536Y0045043D01*
X0090568Y0044974D01*
X0090596Y0044903D01*
X0090621Y0044830D01*
X0090642Y0044757D01*
X0090659Y0044682D01*
X0090673Y0044607D01*
X0090682Y0044531D01*
X0090688Y0044455D01*
X0090690Y0044378D01*
X0100283Y0042170D02*
X0103683Y0042170D01*
X0101794Y0042170D02*
X0101794Y0040281D01*
X0100283Y0040281D02*
X0103683Y0040281D01*
X0103683Y0038657D02*
X0103683Y0037901D01*
X0103681Y0037847D01*
X0103675Y0037793D01*
X0103666Y0037740D01*
X0103652Y0037688D01*
X0103635Y0037637D01*
X0103615Y0037587D01*
X0103591Y0037539D01*
X0103563Y0037492D01*
X0103532Y0037448D01*
X0103498Y0037406D01*
X0103462Y0037366D01*
X0103422Y0037330D01*
X0103380Y0037296D01*
X0103336Y0037265D01*
X0103289Y0037237D01*
X0103241Y0037213D01*
X0103191Y0037193D01*
X0103140Y0037176D01*
X0103088Y0037162D01*
X0103035Y0037153D01*
X0102981Y0037147D01*
X0102927Y0037145D01*
X0102927Y0037146D02*
X0101038Y0037146D01*
X0101038Y0037145D02*
X0100984Y0037147D01*
X0100930Y0037153D01*
X0100877Y0037162D01*
X0100825Y0037176D01*
X0100774Y0037193D01*
X0100724Y0037213D01*
X0100676Y0037237D01*
X0100629Y0037265D01*
X0100585Y0037296D01*
X0100543Y0037330D01*
X0100503Y0037366D01*
X0100467Y0037406D01*
X0100433Y0037448D01*
X0100402Y0037492D01*
X0100374Y0037539D01*
X0100350Y0037587D01*
X0100330Y0037637D01*
X0100313Y0037688D01*
X0100299Y0037740D01*
X0100290Y0037793D01*
X0100284Y0037847D01*
X0100282Y0037901D01*
X0100283Y0037901D02*
X0100283Y0038657D01*
X0101038Y0044189D02*
X0101092Y0044191D01*
X0101146Y0044197D01*
X0101199Y0044206D01*
X0101251Y0044220D01*
X0101302Y0044237D01*
X0101352Y0044257D01*
X0101400Y0044281D01*
X0101447Y0044309D01*
X0101491Y0044340D01*
X0101533Y0044374D01*
X0101573Y0044410D01*
X0101609Y0044450D01*
X0101643Y0044492D01*
X0101674Y0044536D01*
X0101702Y0044583D01*
X0101726Y0044631D01*
X0101746Y0044681D01*
X0101763Y0044732D01*
X0101777Y0044784D01*
X0101786Y0044837D01*
X0101792Y0044891D01*
X0101794Y0044945D01*
X0101792Y0044999D01*
X0101786Y0045053D01*
X0101777Y0045106D01*
X0101763Y0045158D01*
X0101746Y0045209D01*
X0101726Y0045259D01*
X0101702Y0045307D01*
X0101674Y0045354D01*
X0101643Y0045398D01*
X0101609Y0045440D01*
X0101573Y0045480D01*
X0101533Y0045516D01*
X0101491Y0045550D01*
X0101447Y0045581D01*
X0101400Y0045609D01*
X0101352Y0045633D01*
X0101302Y0045653D01*
X0101251Y0045670D01*
X0101199Y0045684D01*
X0101146Y0045693D01*
X0101092Y0045699D01*
X0101038Y0045701D01*
X0100984Y0045699D01*
X0100930Y0045693D01*
X0100877Y0045684D01*
X0100825Y0045670D01*
X0100774Y0045653D01*
X0100724Y0045633D01*
X0100676Y0045609D01*
X0100629Y0045581D01*
X0100585Y0045550D01*
X0100543Y0045516D01*
X0100503Y0045480D01*
X0100467Y0045440D01*
X0100433Y0045398D01*
X0100402Y0045354D01*
X0100374Y0045307D01*
X0100350Y0045259D01*
X0100330Y0045209D01*
X0100313Y0045158D01*
X0100299Y0045106D01*
X0100290Y0045053D01*
X0100284Y0044999D01*
X0100282Y0044945D01*
X0100284Y0044891D01*
X0100290Y0044837D01*
X0100299Y0044784D01*
X0100313Y0044732D01*
X0100330Y0044681D01*
X0100350Y0044631D01*
X0100374Y0044583D01*
X0100402Y0044536D01*
X0100433Y0044492D01*
X0100467Y0044450D01*
X0100503Y0044410D01*
X0100543Y0044374D01*
X0100585Y0044340D01*
X0100629Y0044309D01*
X0100676Y0044281D01*
X0100724Y0044257D01*
X0100774Y0044237D01*
X0100825Y0044220D01*
X0100877Y0044206D01*
X0100930Y0044197D01*
X0100984Y0044191D01*
X0101038Y0044189D01*
X0102738Y0044001D02*
X0102798Y0044003D01*
X0102859Y0044009D01*
X0102918Y0044018D01*
X0102977Y0044032D01*
X0103035Y0044049D01*
X0103092Y0044070D01*
X0103148Y0044094D01*
X0103201Y0044122D01*
X0103253Y0044154D01*
X0103303Y0044188D01*
X0103350Y0044226D01*
X0103395Y0044267D01*
X0103437Y0044310D01*
X0103476Y0044356D01*
X0103512Y0044405D01*
X0103545Y0044456D01*
X0103575Y0044508D01*
X0103601Y0044563D01*
X0103624Y0044619D01*
X0103643Y0044676D01*
X0103658Y0044735D01*
X0103670Y0044794D01*
X0103678Y0044854D01*
X0103682Y0044915D01*
X0103682Y0044975D01*
X0103678Y0045036D01*
X0103670Y0045096D01*
X0103658Y0045155D01*
X0103643Y0045214D01*
X0103624Y0045271D01*
X0103601Y0045327D01*
X0103575Y0045382D01*
X0103545Y0045434D01*
X0103512Y0045485D01*
X0103476Y0045534D01*
X0103437Y0045580D01*
X0103395Y0045623D01*
X0103350Y0045664D01*
X0103303Y0045702D01*
X0103253Y0045736D01*
X0103201Y0045768D01*
X0103148Y0045796D01*
X0103092Y0045820D01*
X0103035Y0045841D01*
X0102977Y0045858D01*
X0102918Y0045872D01*
X0102859Y0045881D01*
X0102798Y0045887D01*
X0102738Y0045889D01*
X0102678Y0045887D01*
X0102617Y0045881D01*
X0102558Y0045872D01*
X0102499Y0045858D01*
X0102441Y0045841D01*
X0102384Y0045820D01*
X0102328Y0045796D01*
X0102275Y0045768D01*
X0102223Y0045736D01*
X0102173Y0045702D01*
X0102126Y0045664D01*
X0102081Y0045623D01*
X0102039Y0045580D01*
X0102000Y0045534D01*
X0101964Y0045485D01*
X0101931Y0045434D01*
X0101901Y0045382D01*
X0101875Y0045327D01*
X0101852Y0045271D01*
X0101833Y0045214D01*
X0101818Y0045155D01*
X0101806Y0045096D01*
X0101798Y0045036D01*
X0101794Y0044975D01*
X0101794Y0044915D01*
X0101798Y0044854D01*
X0101806Y0044794D01*
X0101818Y0044735D01*
X0101833Y0044676D01*
X0101852Y0044619D01*
X0101875Y0044563D01*
X0101901Y0044508D01*
X0101931Y0044456D01*
X0101964Y0044405D01*
X0102000Y0044356D01*
X0102039Y0044310D01*
X0102081Y0044267D01*
X0102126Y0044226D01*
X0102173Y0044188D01*
X0102223Y0044154D01*
X0102275Y0044122D01*
X0102328Y0044094D01*
X0102384Y0044070D01*
X0102441Y0044049D01*
X0102499Y0044032D01*
X0102558Y0044018D01*
X0102617Y0044009D01*
X0102678Y0044003D01*
X0102738Y0044001D01*
X0110519Y0044001D02*
X0110519Y0045890D01*
X0113919Y0044945D01*
X0113919Y0042170D02*
X0110519Y0042170D01*
X0112030Y0042170D02*
X0112030Y0040281D01*
X0110519Y0040281D02*
X0113919Y0040281D01*
X0113919Y0038657D02*
X0113919Y0037901D01*
X0113917Y0037847D01*
X0113911Y0037793D01*
X0113902Y0037740D01*
X0113888Y0037688D01*
X0113871Y0037637D01*
X0113851Y0037587D01*
X0113827Y0037539D01*
X0113799Y0037492D01*
X0113768Y0037448D01*
X0113734Y0037406D01*
X0113698Y0037366D01*
X0113658Y0037330D01*
X0113616Y0037296D01*
X0113572Y0037265D01*
X0113525Y0037237D01*
X0113477Y0037213D01*
X0113427Y0037193D01*
X0113376Y0037176D01*
X0113324Y0037162D01*
X0113271Y0037153D01*
X0113217Y0037147D01*
X0113163Y0037145D01*
X0113163Y0037146D02*
X0111274Y0037146D01*
X0111274Y0037145D02*
X0111220Y0037147D01*
X0111166Y0037153D01*
X0111113Y0037162D01*
X0111061Y0037176D01*
X0111010Y0037193D01*
X0110960Y0037213D01*
X0110912Y0037237D01*
X0110865Y0037265D01*
X0110821Y0037296D01*
X0110779Y0037330D01*
X0110739Y0037366D01*
X0110703Y0037406D01*
X0110669Y0037448D01*
X0110638Y0037492D01*
X0110610Y0037539D01*
X0110586Y0037587D01*
X0110566Y0037637D01*
X0110549Y0037688D01*
X0110535Y0037740D01*
X0110526Y0037793D01*
X0110520Y0037847D01*
X0110518Y0037901D01*
X0110519Y0037901D02*
X0110519Y0038657D01*
X0110519Y0044001D02*
X0110897Y0044001D01*
X0122724Y0042957D02*
X0126124Y0042957D01*
X0126124Y0041068D02*
X0122724Y0041068D01*
X0124235Y0041068D02*
X0124235Y0042957D01*
X0124235Y0044788D02*
X0125179Y0044788D01*
X0124235Y0044788D02*
X0124235Y0045921D01*
X0124235Y0044788D02*
X0124158Y0044790D01*
X0124082Y0044796D01*
X0124006Y0044805D01*
X0123931Y0044819D01*
X0123856Y0044836D01*
X0123783Y0044857D01*
X0123710Y0044882D01*
X0123639Y0044910D01*
X0123570Y0044942D01*
X0123502Y0044978D01*
X0123436Y0045017D01*
X0123372Y0045059D01*
X0123310Y0045104D01*
X0123251Y0045153D01*
X0123194Y0045204D01*
X0123140Y0045258D01*
X0123089Y0045315D01*
X0123040Y0045374D01*
X0122995Y0045436D01*
X0122953Y0045500D01*
X0122914Y0045566D01*
X0122878Y0045634D01*
X0122846Y0045703D01*
X0122818Y0045774D01*
X0122793Y0045847D01*
X0122772Y0045920D01*
X0122755Y0045995D01*
X0122741Y0046070D01*
X0122732Y0046146D01*
X0122726Y0046222D01*
X0122724Y0046299D01*
X0124234Y0045921D02*
X0124236Y0045975D01*
X0124242Y0046029D01*
X0124251Y0046082D01*
X0124265Y0046134D01*
X0124282Y0046185D01*
X0124302Y0046235D01*
X0124326Y0046283D01*
X0124354Y0046330D01*
X0124385Y0046374D01*
X0124419Y0046416D01*
X0124455Y0046456D01*
X0124495Y0046492D01*
X0124537Y0046526D01*
X0124581Y0046557D01*
X0124628Y0046585D01*
X0124676Y0046609D01*
X0124726Y0046629D01*
X0124777Y0046646D01*
X0124829Y0046660D01*
X0124882Y0046669D01*
X0124936Y0046675D01*
X0124990Y0046677D01*
X0125179Y0046677D01*
X0125239Y0046675D01*
X0125300Y0046669D01*
X0125359Y0046660D01*
X0125418Y0046646D01*
X0125476Y0046629D01*
X0125533Y0046608D01*
X0125589Y0046584D01*
X0125642Y0046556D01*
X0125694Y0046524D01*
X0125744Y0046490D01*
X0125791Y0046452D01*
X0125836Y0046411D01*
X0125878Y0046368D01*
X0125917Y0046322D01*
X0125953Y0046273D01*
X0125986Y0046222D01*
X0126016Y0046170D01*
X0126042Y0046115D01*
X0126065Y0046059D01*
X0126084Y0046002D01*
X0126099Y0045943D01*
X0126111Y0045884D01*
X0126119Y0045824D01*
X0126123Y0045763D01*
X0126123Y0045703D01*
X0126119Y0045642D01*
X0126111Y0045582D01*
X0126099Y0045523D01*
X0126084Y0045464D01*
X0126065Y0045407D01*
X0126042Y0045351D01*
X0126016Y0045296D01*
X0125986Y0045244D01*
X0125953Y0045193D01*
X0125917Y0045144D01*
X0125878Y0045098D01*
X0125836Y0045055D01*
X0125791Y0045014D01*
X0125744Y0044976D01*
X0125694Y0044942D01*
X0125642Y0044910D01*
X0125589Y0044882D01*
X0125533Y0044858D01*
X0125476Y0044837D01*
X0125418Y0044820D01*
X0125359Y0044806D01*
X0125300Y0044797D01*
X0125239Y0044791D01*
X0125179Y0044789D01*
X0126124Y0039444D02*
X0126124Y0038689D01*
X0126122Y0038635D01*
X0126116Y0038581D01*
X0126107Y0038528D01*
X0126093Y0038476D01*
X0126076Y0038425D01*
X0126056Y0038375D01*
X0126032Y0038327D01*
X0126004Y0038280D01*
X0125973Y0038236D01*
X0125939Y0038194D01*
X0125903Y0038154D01*
X0125863Y0038118D01*
X0125821Y0038084D01*
X0125777Y0038053D01*
X0125730Y0038025D01*
X0125682Y0038001D01*
X0125632Y0037981D01*
X0125581Y0037964D01*
X0125529Y0037950D01*
X0125476Y0037941D01*
X0125422Y0037935D01*
X0125368Y0037933D01*
X0123479Y0037933D01*
X0123425Y0037935D01*
X0123371Y0037941D01*
X0123318Y0037950D01*
X0123266Y0037964D01*
X0123215Y0037981D01*
X0123165Y0038001D01*
X0123117Y0038025D01*
X0123070Y0038053D01*
X0123026Y0038084D01*
X0122984Y0038118D01*
X0122944Y0038154D01*
X0122908Y0038194D01*
X0122874Y0038236D01*
X0122843Y0038280D01*
X0122815Y0038327D01*
X0122791Y0038375D01*
X0122771Y0038425D01*
X0122754Y0038476D01*
X0122740Y0038528D01*
X0122731Y0038581D01*
X0122725Y0038635D01*
X0122723Y0038689D01*
X0122724Y0038689D02*
X0122724Y0039444D01*
X0132960Y0039444D02*
X0132960Y0038689D01*
X0132959Y0038689D02*
X0132961Y0038635D01*
X0132967Y0038581D01*
X0132976Y0038528D01*
X0132990Y0038476D01*
X0133007Y0038425D01*
X0133027Y0038375D01*
X0133051Y0038327D01*
X0133079Y0038280D01*
X0133110Y0038236D01*
X0133144Y0038194D01*
X0133180Y0038154D01*
X0133220Y0038118D01*
X0133262Y0038084D01*
X0133306Y0038053D01*
X0133353Y0038025D01*
X0133401Y0038001D01*
X0133451Y0037981D01*
X0133502Y0037964D01*
X0133554Y0037950D01*
X0133607Y0037941D01*
X0133661Y0037935D01*
X0133715Y0037933D01*
X0135604Y0037933D01*
X0135658Y0037935D01*
X0135712Y0037941D01*
X0135765Y0037950D01*
X0135817Y0037964D01*
X0135868Y0037981D01*
X0135918Y0038001D01*
X0135966Y0038025D01*
X0136013Y0038053D01*
X0136057Y0038084D01*
X0136099Y0038118D01*
X0136139Y0038154D01*
X0136175Y0038194D01*
X0136209Y0038236D01*
X0136240Y0038280D01*
X0136268Y0038327D01*
X0136292Y0038375D01*
X0136312Y0038425D01*
X0136329Y0038476D01*
X0136343Y0038528D01*
X0136352Y0038581D01*
X0136358Y0038635D01*
X0136360Y0038689D01*
X0136360Y0039444D01*
X0136360Y0041068D02*
X0132960Y0041068D01*
X0134471Y0041068D02*
X0134471Y0042957D01*
X0132960Y0042957D02*
X0136360Y0042957D01*
X0136360Y0044788D02*
X0136360Y0045921D01*
X0136358Y0045975D01*
X0136352Y0046029D01*
X0136343Y0046082D01*
X0136329Y0046134D01*
X0136312Y0046185D01*
X0136292Y0046235D01*
X0136268Y0046283D01*
X0136240Y0046330D01*
X0136209Y0046374D01*
X0136175Y0046416D01*
X0136139Y0046456D01*
X0136099Y0046492D01*
X0136057Y0046526D01*
X0136013Y0046557D01*
X0135966Y0046585D01*
X0135918Y0046609D01*
X0135868Y0046629D01*
X0135817Y0046646D01*
X0135765Y0046660D01*
X0135712Y0046669D01*
X0135658Y0046675D01*
X0135604Y0046677D01*
X0135227Y0046677D01*
X0135173Y0046675D01*
X0135119Y0046669D01*
X0135066Y0046660D01*
X0135014Y0046646D01*
X0134963Y0046629D01*
X0134913Y0046609D01*
X0134865Y0046585D01*
X0134818Y0046557D01*
X0134774Y0046526D01*
X0134732Y0046492D01*
X0134692Y0046456D01*
X0134656Y0046416D01*
X0134622Y0046374D01*
X0134591Y0046330D01*
X0134563Y0046283D01*
X0134539Y0046235D01*
X0134519Y0046185D01*
X0134502Y0046134D01*
X0134488Y0046082D01*
X0134479Y0046029D01*
X0134473Y0045975D01*
X0134471Y0045921D01*
X0134471Y0044788D01*
X0132960Y0044788D01*
X0132960Y0046677D01*
X0145558Y0045544D02*
X0148203Y0044788D01*
X0148203Y0046677D01*
X0148958Y0046110D02*
X0147447Y0046110D01*
X0147069Y0042957D02*
X0147069Y0041068D01*
X0145558Y0041068D02*
X0148958Y0041068D01*
X0148958Y0039444D02*
X0148958Y0038689D01*
X0148959Y0038689D02*
X0148957Y0038635D01*
X0148951Y0038581D01*
X0148942Y0038528D01*
X0148928Y0038476D01*
X0148911Y0038425D01*
X0148891Y0038375D01*
X0148867Y0038327D01*
X0148839Y0038280D01*
X0148808Y0038236D01*
X0148774Y0038194D01*
X0148738Y0038154D01*
X0148698Y0038118D01*
X0148656Y0038084D01*
X0148612Y0038053D01*
X0148565Y0038025D01*
X0148517Y0038001D01*
X0148467Y0037981D01*
X0148416Y0037964D01*
X0148364Y0037950D01*
X0148311Y0037941D01*
X0148257Y0037935D01*
X0148203Y0037933D01*
X0146314Y0037933D01*
X0146260Y0037935D01*
X0146206Y0037941D01*
X0146153Y0037950D01*
X0146101Y0037964D01*
X0146050Y0037981D01*
X0146000Y0038001D01*
X0145952Y0038025D01*
X0145905Y0038053D01*
X0145861Y0038084D01*
X0145819Y0038118D01*
X0145779Y0038154D01*
X0145743Y0038194D01*
X0145709Y0038236D01*
X0145678Y0038280D01*
X0145650Y0038327D01*
X0145626Y0038375D01*
X0145606Y0038425D01*
X0145589Y0038476D01*
X0145575Y0038528D01*
X0145566Y0038581D01*
X0145560Y0038635D01*
X0145558Y0038689D01*
X0145558Y0039444D01*
X0145558Y0042957D02*
X0148958Y0042957D01*
X0156188Y0042957D02*
X0159588Y0042957D01*
X0159588Y0044788D02*
X0159588Y0045733D01*
X0159586Y0045793D01*
X0159580Y0045854D01*
X0159571Y0045913D01*
X0159557Y0045972D01*
X0159540Y0046030D01*
X0159519Y0046087D01*
X0159495Y0046143D01*
X0159467Y0046196D01*
X0159435Y0046248D01*
X0159401Y0046298D01*
X0159363Y0046345D01*
X0159322Y0046390D01*
X0159279Y0046432D01*
X0159233Y0046471D01*
X0159184Y0046507D01*
X0159133Y0046540D01*
X0159081Y0046570D01*
X0159026Y0046596D01*
X0158970Y0046619D01*
X0158913Y0046638D01*
X0158854Y0046653D01*
X0158795Y0046665D01*
X0158735Y0046673D01*
X0158674Y0046677D01*
X0158614Y0046677D01*
X0158553Y0046673D01*
X0158493Y0046665D01*
X0158434Y0046653D01*
X0158375Y0046638D01*
X0158318Y0046619D01*
X0158262Y0046596D01*
X0158207Y0046570D01*
X0158155Y0046540D01*
X0158104Y0046507D01*
X0158055Y0046471D01*
X0158009Y0046432D01*
X0157966Y0046390D01*
X0157925Y0046345D01*
X0157887Y0046298D01*
X0157853Y0046248D01*
X0157821Y0046196D01*
X0157793Y0046143D01*
X0157769Y0046087D01*
X0157748Y0046030D01*
X0157731Y0045972D01*
X0157717Y0045913D01*
X0157708Y0045854D01*
X0157702Y0045793D01*
X0157700Y0045733D01*
X0157699Y0045921D02*
X0157699Y0045166D01*
X0157700Y0045921D02*
X0157698Y0045975D01*
X0157692Y0046029D01*
X0157683Y0046082D01*
X0157669Y0046134D01*
X0157652Y0046185D01*
X0157632Y0046235D01*
X0157608Y0046283D01*
X0157580Y0046330D01*
X0157549Y0046374D01*
X0157515Y0046416D01*
X0157479Y0046456D01*
X0157439Y0046492D01*
X0157397Y0046526D01*
X0157353Y0046557D01*
X0157306Y0046585D01*
X0157258Y0046609D01*
X0157208Y0046629D01*
X0157157Y0046646D01*
X0157105Y0046660D01*
X0157052Y0046669D01*
X0156998Y0046675D01*
X0156944Y0046677D01*
X0156890Y0046675D01*
X0156836Y0046669D01*
X0156783Y0046660D01*
X0156731Y0046646D01*
X0156680Y0046629D01*
X0156630Y0046609D01*
X0156582Y0046585D01*
X0156535Y0046557D01*
X0156491Y0046526D01*
X0156449Y0046492D01*
X0156409Y0046456D01*
X0156373Y0046416D01*
X0156339Y0046374D01*
X0156308Y0046330D01*
X0156280Y0046283D01*
X0156256Y0046235D01*
X0156236Y0046185D01*
X0156219Y0046134D01*
X0156205Y0046082D01*
X0156196Y0046029D01*
X0156190Y0045975D01*
X0156188Y0045921D01*
X0156188Y0044788D01*
X0157699Y0042957D02*
X0157699Y0041068D01*
X0156188Y0041068D02*
X0159588Y0041068D01*
X0159588Y0039444D02*
X0159588Y0038689D01*
X0159589Y0038689D02*
X0159587Y0038635D01*
X0159581Y0038581D01*
X0159572Y0038528D01*
X0159558Y0038476D01*
X0159541Y0038425D01*
X0159521Y0038375D01*
X0159497Y0038327D01*
X0159469Y0038280D01*
X0159438Y0038236D01*
X0159404Y0038194D01*
X0159368Y0038154D01*
X0159328Y0038118D01*
X0159286Y0038084D01*
X0159242Y0038053D01*
X0159195Y0038025D01*
X0159147Y0038001D01*
X0159097Y0037981D01*
X0159046Y0037964D01*
X0158994Y0037950D01*
X0158941Y0037941D01*
X0158887Y0037935D01*
X0158833Y0037933D01*
X0156944Y0037933D01*
X0156890Y0037935D01*
X0156836Y0037941D01*
X0156783Y0037950D01*
X0156731Y0037964D01*
X0156680Y0037981D01*
X0156630Y0038001D01*
X0156582Y0038025D01*
X0156535Y0038053D01*
X0156491Y0038084D01*
X0156449Y0038118D01*
X0156409Y0038154D01*
X0156373Y0038194D01*
X0156339Y0038236D01*
X0156308Y0038280D01*
X0156280Y0038327D01*
X0156256Y0038375D01*
X0156236Y0038425D01*
X0156219Y0038476D01*
X0156205Y0038528D01*
X0156196Y0038581D01*
X0156190Y0038635D01*
X0156188Y0038689D01*
X0156188Y0039444D01*
X0167999Y0039082D02*
X0167999Y0039838D01*
X0167999Y0039082D02*
X0168001Y0039028D01*
X0168007Y0038974D01*
X0168016Y0038921D01*
X0168030Y0038869D01*
X0168047Y0038818D01*
X0168067Y0038768D01*
X0168091Y0038720D01*
X0168119Y0038673D01*
X0168150Y0038629D01*
X0168184Y0038587D01*
X0168220Y0038547D01*
X0168260Y0038511D01*
X0168302Y0038477D01*
X0168346Y0038446D01*
X0168393Y0038418D01*
X0168441Y0038394D01*
X0168491Y0038374D01*
X0168542Y0038357D01*
X0168594Y0038343D01*
X0168647Y0038334D01*
X0168701Y0038328D01*
X0168755Y0038326D01*
X0168755Y0038327D02*
X0170644Y0038327D01*
X0170644Y0038326D02*
X0170698Y0038328D01*
X0170752Y0038334D01*
X0170805Y0038343D01*
X0170857Y0038357D01*
X0170908Y0038374D01*
X0170958Y0038394D01*
X0171006Y0038418D01*
X0171053Y0038446D01*
X0171097Y0038477D01*
X0171139Y0038511D01*
X0171179Y0038547D01*
X0171215Y0038587D01*
X0171249Y0038629D01*
X0171280Y0038673D01*
X0171308Y0038720D01*
X0171332Y0038768D01*
X0171352Y0038818D01*
X0171369Y0038869D01*
X0171383Y0038921D01*
X0171392Y0038974D01*
X0171398Y0039028D01*
X0171400Y0039082D01*
X0171399Y0039082D02*
X0171399Y0039838D01*
X0171399Y0041462D02*
X0167999Y0041462D01*
X0169510Y0041462D02*
X0169510Y0043351D01*
X0167999Y0043351D02*
X0171399Y0043351D01*
X0171399Y0045182D02*
X0171399Y0047071D01*
X0171399Y0045182D02*
X0169510Y0046787D01*
X0167999Y0046221D02*
X0168001Y0046156D01*
X0168007Y0046091D01*
X0168017Y0046026D01*
X0168030Y0045962D01*
X0168048Y0045899D01*
X0168069Y0045837D01*
X0168094Y0045777D01*
X0168122Y0045718D01*
X0168154Y0045661D01*
X0168189Y0045605D01*
X0168227Y0045553D01*
X0168269Y0045502D01*
X0168314Y0045454D01*
X0168361Y0045409D01*
X0168411Y0045367D01*
X0168463Y0045328D01*
X0168518Y0045292D01*
X0168574Y0045259D01*
X0168633Y0045230D01*
X0168693Y0045204D01*
X0168755Y0045182D01*
X0169510Y0046788D02*
X0169470Y0046828D01*
X0169427Y0046865D01*
X0169382Y0046900D01*
X0169334Y0046931D01*
X0169285Y0046960D01*
X0169235Y0046986D01*
X0169182Y0047008D01*
X0169129Y0047027D01*
X0169074Y0047043D01*
X0169019Y0047055D01*
X0168962Y0047064D01*
X0168906Y0047069D01*
X0168849Y0047071D01*
X0168793Y0047069D01*
X0168738Y0047064D01*
X0168683Y0047055D01*
X0168629Y0047042D01*
X0168576Y0047026D01*
X0168524Y0047006D01*
X0168473Y0046983D01*
X0168424Y0046957D01*
X0168377Y0046928D01*
X0168332Y0046895D01*
X0168289Y0046860D01*
X0168248Y0046822D01*
X0168210Y0046781D01*
X0168175Y0046738D01*
X0168142Y0046693D01*
X0168113Y0046646D01*
X0168087Y0046597D01*
X0168064Y0046546D01*
X0168044Y0046494D01*
X0168028Y0046441D01*
X0168015Y0046387D01*
X0168006Y0046332D01*
X0168001Y0046277D01*
X0167999Y0046221D01*
X0179417Y0046520D02*
X0180172Y0045575D01*
X0179417Y0046520D02*
X0182817Y0046520D01*
X0182817Y0047464D02*
X0182817Y0045575D01*
X0182817Y0043744D02*
X0179417Y0043744D01*
X0180928Y0043744D02*
X0180928Y0041855D01*
X0179417Y0041855D02*
X0182817Y0041855D01*
X0182817Y0040232D02*
X0182817Y0039476D01*
X0182815Y0039422D01*
X0182809Y0039368D01*
X0182800Y0039315D01*
X0182786Y0039263D01*
X0182769Y0039212D01*
X0182749Y0039162D01*
X0182725Y0039114D01*
X0182697Y0039067D01*
X0182666Y0039023D01*
X0182632Y0038981D01*
X0182596Y0038941D01*
X0182556Y0038905D01*
X0182514Y0038871D01*
X0182470Y0038840D01*
X0182423Y0038812D01*
X0182375Y0038788D01*
X0182325Y0038768D01*
X0182274Y0038751D01*
X0182222Y0038737D01*
X0182169Y0038728D01*
X0182115Y0038722D01*
X0182061Y0038720D01*
X0180172Y0038720D01*
X0180118Y0038722D01*
X0180064Y0038728D01*
X0180011Y0038737D01*
X0179959Y0038751D01*
X0179908Y0038768D01*
X0179858Y0038788D01*
X0179810Y0038812D01*
X0179763Y0038840D01*
X0179719Y0038871D01*
X0179677Y0038905D01*
X0179637Y0038941D01*
X0179601Y0038981D01*
X0179567Y0039023D01*
X0179536Y0039067D01*
X0179508Y0039114D01*
X0179484Y0039162D01*
X0179464Y0039212D01*
X0179447Y0039263D01*
X0179433Y0039315D01*
X0179424Y0039368D01*
X0179418Y0039422D01*
X0179416Y0039476D01*
X0179417Y0039476D02*
X0179417Y0040232D01*
X0080092Y0047396D02*
X0078204Y0048907D01*
X0077920Y0048812D02*
X0077873Y0048794D01*
X0077827Y0048772D01*
X0077782Y0048747D01*
X0077740Y0048719D01*
X0077699Y0048688D01*
X0077661Y0048654D01*
X0077626Y0048617D01*
X0077593Y0048578D01*
X0077564Y0048536D01*
X0077537Y0048493D01*
X0077514Y0048447D01*
X0077494Y0048400D01*
X0077478Y0048352D01*
X0077465Y0048303D01*
X0077455Y0048253D01*
X0077450Y0048202D01*
X0077448Y0048151D01*
X0077450Y0048100D01*
X0077455Y0048049D01*
X0077465Y0047999D01*
X0077478Y0047950D01*
X0077494Y0047902D01*
X0077514Y0047855D01*
X0077537Y0047809D01*
X0077564Y0047766D01*
X0077593Y0047724D01*
X0077626Y0047685D01*
X0077661Y0047648D01*
X0077699Y0047614D01*
X0077740Y0047583D01*
X0077782Y0047555D01*
X0077827Y0047530D01*
X0077873Y0047508D01*
X0077920Y0047490D01*
X0077920Y0048813D02*
X0078009Y0048854D01*
X0078099Y0048892D01*
X0078190Y0048927D01*
X0078282Y0048959D01*
X0078376Y0048988D01*
X0078470Y0049013D01*
X0078566Y0049035D01*
X0078662Y0049053D01*
X0078758Y0049069D01*
X0078855Y0049081D01*
X0078953Y0049089D01*
X0079050Y0049094D01*
X0079148Y0049096D01*
X0079148Y0047207D02*
X0079050Y0047209D01*
X0078953Y0047214D01*
X0078855Y0047222D01*
X0078758Y0047234D01*
X0078662Y0047250D01*
X0078566Y0047268D01*
X0078470Y0047290D01*
X0078376Y0047315D01*
X0078282Y0047344D01*
X0078190Y0047376D01*
X0078099Y0047411D01*
X0078009Y0047449D01*
X0077920Y0047490D01*
X0079148Y0049096D02*
X0079246Y0049094D01*
X0079343Y0049089D01*
X0079441Y0049081D01*
X0079538Y0049069D01*
X0079634Y0049053D01*
X0079730Y0049035D01*
X0079826Y0049013D01*
X0079920Y0048988D01*
X0080014Y0048959D01*
X0080106Y0048927D01*
X0080197Y0048892D01*
X0080287Y0048854D01*
X0080376Y0048813D01*
X0080376Y0048812D02*
X0080423Y0048794D01*
X0080469Y0048772D01*
X0080514Y0048747D01*
X0080556Y0048719D01*
X0080597Y0048688D01*
X0080635Y0048654D01*
X0080670Y0048617D01*
X0080703Y0048578D01*
X0080732Y0048536D01*
X0080759Y0048493D01*
X0080782Y0048447D01*
X0080802Y0048400D01*
X0080818Y0048352D01*
X0080831Y0048303D01*
X0080841Y0048253D01*
X0080846Y0048202D01*
X0080848Y0048151D01*
X0080846Y0048100D01*
X0080841Y0048049D01*
X0080831Y0047999D01*
X0080818Y0047950D01*
X0080802Y0047902D01*
X0080782Y0047855D01*
X0080759Y0047809D01*
X0080732Y0047766D01*
X0080703Y0047724D01*
X0080670Y0047685D01*
X0080635Y0047648D01*
X0080597Y0047614D01*
X0080556Y0047583D01*
X0080514Y0047555D01*
X0080469Y0047530D01*
X0080423Y0047508D01*
X0080376Y0047490D01*
X0080287Y0047449D01*
X0080197Y0047411D01*
X0080106Y0047376D01*
X0080014Y0047344D01*
X0079920Y0047315D01*
X0079826Y0047290D01*
X0079730Y0047268D01*
X0079634Y0047250D01*
X0079538Y0047234D01*
X0079441Y0047222D01*
X0079343Y0047214D01*
X0079246Y0047209D01*
X0079148Y0047207D01*
X0034204Y0104011D02*
X0034204Y0104766D01*
X0034203Y0104766D02*
X0034205Y0104820D01*
X0034211Y0104874D01*
X0034220Y0104927D01*
X0034234Y0104979D01*
X0034251Y0105030D01*
X0034271Y0105080D01*
X0034295Y0105128D01*
X0034323Y0105175D01*
X0034354Y0105219D01*
X0034388Y0105261D01*
X0034424Y0105301D01*
X0034464Y0105337D01*
X0034506Y0105371D01*
X0034550Y0105402D01*
X0034597Y0105430D01*
X0034645Y0105454D01*
X0034695Y0105474D01*
X0034746Y0105491D01*
X0034798Y0105505D01*
X0034851Y0105514D01*
X0034905Y0105520D01*
X0034959Y0105522D01*
X0042328Y0126789D02*
X0042328Y0128678D01*
X0042328Y0127733D02*
X0038928Y0127733D01*
X0040345Y0130407D02*
X0040912Y0131446D01*
X0042329Y0131068D02*
X0042327Y0130998D01*
X0042322Y0130928D01*
X0042313Y0130858D01*
X0042301Y0130789D01*
X0042286Y0130721D01*
X0042267Y0130653D01*
X0042245Y0130587D01*
X0042219Y0130521D01*
X0042191Y0130457D01*
X0042159Y0130395D01*
X0042124Y0130334D01*
X0042086Y0130275D01*
X0042046Y0130218D01*
X0040912Y0131445D02*
X0040941Y0131490D01*
X0040972Y0131533D01*
X0041007Y0131573D01*
X0041044Y0131611D01*
X0041083Y0131646D01*
X0041125Y0131679D01*
X0041170Y0131708D01*
X0041216Y0131735D01*
X0041264Y0131758D01*
X0041313Y0131778D01*
X0041363Y0131794D01*
X0041415Y0131807D01*
X0041467Y0131816D01*
X0041520Y0131821D01*
X0041573Y0131823D01*
X0041573Y0131824D02*
X0041627Y0131822D01*
X0041681Y0131816D01*
X0041734Y0131807D01*
X0041786Y0131793D01*
X0041837Y0131776D01*
X0041887Y0131756D01*
X0041935Y0131732D01*
X0041982Y0131704D01*
X0042026Y0131673D01*
X0042068Y0131639D01*
X0042108Y0131603D01*
X0042144Y0131563D01*
X0042178Y0131521D01*
X0042209Y0131477D01*
X0042237Y0131430D01*
X0042261Y0131382D01*
X0042281Y0131332D01*
X0042298Y0131281D01*
X0042312Y0131229D01*
X0042321Y0131176D01*
X0042327Y0131122D01*
X0042329Y0131068D01*
X0039400Y0131918D02*
X0039346Y0131861D01*
X0039294Y0131802D01*
X0039245Y0131740D01*
X0039200Y0131676D01*
X0039157Y0131609D01*
X0039118Y0131541D01*
X0039083Y0131471D01*
X0039051Y0131399D01*
X0039022Y0131325D01*
X0038997Y0131251D01*
X0038976Y0131175D01*
X0038959Y0131098D01*
X0038945Y0131020D01*
X0038936Y0130942D01*
X0038930Y0130864D01*
X0038928Y0130785D01*
X0038930Y0130731D01*
X0038936Y0130677D01*
X0038945Y0130624D01*
X0038959Y0130572D01*
X0038976Y0130521D01*
X0038996Y0130471D01*
X0039020Y0130423D01*
X0039048Y0130376D01*
X0039079Y0130332D01*
X0039113Y0130290D01*
X0039149Y0130250D01*
X0039189Y0130214D01*
X0039231Y0130180D01*
X0039275Y0130149D01*
X0039322Y0130121D01*
X0039370Y0130097D01*
X0039420Y0130077D01*
X0039471Y0130060D01*
X0039523Y0130046D01*
X0039576Y0130037D01*
X0039630Y0130031D01*
X0039684Y0130029D01*
X0039737Y0130031D01*
X0039790Y0130036D01*
X0039842Y0130045D01*
X0039894Y0130058D01*
X0039944Y0130074D01*
X0039993Y0130094D01*
X0040041Y0130117D01*
X0040087Y0130144D01*
X0040132Y0130173D01*
X0040174Y0130206D01*
X0040213Y0130241D01*
X0040250Y0130279D01*
X0040285Y0130319D01*
X0040316Y0130362D01*
X0040345Y0130407D01*
X0038928Y0133476D02*
X0040439Y0134231D01*
X0040439Y0134420D02*
X0040439Y0135365D01*
X0040440Y0134420D02*
X0040442Y0134360D01*
X0040448Y0134299D01*
X0040457Y0134240D01*
X0040471Y0134181D01*
X0040488Y0134123D01*
X0040509Y0134066D01*
X0040533Y0134010D01*
X0040561Y0133957D01*
X0040593Y0133905D01*
X0040627Y0133855D01*
X0040665Y0133808D01*
X0040706Y0133763D01*
X0040749Y0133721D01*
X0040795Y0133682D01*
X0040844Y0133646D01*
X0040895Y0133613D01*
X0040947Y0133583D01*
X0041002Y0133557D01*
X0041058Y0133534D01*
X0041115Y0133515D01*
X0041174Y0133500D01*
X0041233Y0133488D01*
X0041293Y0133480D01*
X0041354Y0133476D01*
X0041414Y0133476D01*
X0041475Y0133480D01*
X0041535Y0133488D01*
X0041594Y0133500D01*
X0041653Y0133515D01*
X0041710Y0133534D01*
X0041766Y0133557D01*
X0041821Y0133583D01*
X0041873Y0133613D01*
X0041924Y0133646D01*
X0041973Y0133682D01*
X0042019Y0133721D01*
X0042062Y0133763D01*
X0042103Y0133808D01*
X0042141Y0133855D01*
X0042175Y0133905D01*
X0042207Y0133957D01*
X0042235Y0134010D01*
X0042259Y0134066D01*
X0042280Y0134123D01*
X0042297Y0134181D01*
X0042311Y0134240D01*
X0042320Y0134299D01*
X0042326Y0134360D01*
X0042328Y0134420D01*
X0042328Y0135365D01*
X0038928Y0135365D01*
X0027761Y0141900D02*
X0027761Y0142845D01*
X0027761Y0141900D02*
X0027759Y0141840D01*
X0027753Y0141779D01*
X0027744Y0141720D01*
X0027730Y0141661D01*
X0027713Y0141603D01*
X0027692Y0141546D01*
X0027668Y0141490D01*
X0027640Y0141437D01*
X0027608Y0141385D01*
X0027574Y0141335D01*
X0027536Y0141288D01*
X0027495Y0141243D01*
X0027452Y0141201D01*
X0027406Y0141162D01*
X0027357Y0141126D01*
X0027306Y0141093D01*
X0027254Y0141063D01*
X0027199Y0141037D01*
X0027143Y0141014D01*
X0027086Y0140995D01*
X0027027Y0140980D01*
X0026968Y0140968D01*
X0026908Y0140960D01*
X0026847Y0140956D01*
X0026787Y0140956D01*
X0026726Y0140960D01*
X0026666Y0140968D01*
X0026607Y0140980D01*
X0026548Y0140995D01*
X0026491Y0141014D01*
X0026435Y0141037D01*
X0026380Y0141063D01*
X0026328Y0141093D01*
X0026277Y0141126D01*
X0026228Y0141162D01*
X0026182Y0141201D01*
X0026139Y0141243D01*
X0026098Y0141288D01*
X0026060Y0141335D01*
X0026026Y0141385D01*
X0025994Y0141437D01*
X0025966Y0141490D01*
X0025942Y0141546D01*
X0025921Y0141603D01*
X0025904Y0141661D01*
X0025890Y0141720D01*
X0025881Y0141779D01*
X0025875Y0141840D01*
X0025873Y0141900D01*
D13*
X0007950Y0070877D02*
X0007950Y0068377D01*
X0005450Y0070502D01*
X0003450Y0069752D02*
X0003452Y0069679D01*
X0003457Y0069607D01*
X0003466Y0069535D01*
X0003479Y0069463D01*
X0003495Y0069392D01*
X0003515Y0069322D01*
X0003539Y0069254D01*
X0003565Y0069186D01*
X0003596Y0069120D01*
X0003629Y0069055D01*
X0003666Y0068993D01*
X0003705Y0068932D01*
X0003748Y0068873D01*
X0003794Y0068816D01*
X0003842Y0068762D01*
X0003893Y0068711D01*
X0003947Y0068661D01*
X0004003Y0068615D01*
X0004061Y0068572D01*
X0004122Y0068531D01*
X0004184Y0068494D01*
X0004248Y0068460D01*
X0004314Y0068429D01*
X0004381Y0068401D01*
X0004450Y0068377D01*
X0005450Y0070502D02*
X0005404Y0070548D01*
X0005355Y0070592D01*
X0005304Y0070632D01*
X0005251Y0070670D01*
X0005196Y0070705D01*
X0005139Y0070737D01*
X0005081Y0070766D01*
X0005021Y0070792D01*
X0004959Y0070814D01*
X0004897Y0070833D01*
X0004834Y0070849D01*
X0004770Y0070861D01*
X0004705Y0070870D01*
X0004640Y0070875D01*
X0004575Y0070877D01*
X0004510Y0070875D01*
X0004444Y0070869D01*
X0004380Y0070860D01*
X0004316Y0070847D01*
X0004252Y0070830D01*
X0004190Y0070809D01*
X0004129Y0070785D01*
X0004070Y0070757D01*
X0004013Y0070726D01*
X0003957Y0070692D01*
X0003903Y0070654D01*
X0003852Y0070614D01*
X0003803Y0070570D01*
X0003757Y0070524D01*
X0003713Y0070475D01*
X0003673Y0070424D01*
X0003635Y0070370D01*
X0003601Y0070315D01*
X0003570Y0070257D01*
X0003542Y0070198D01*
X0003518Y0070137D01*
X0003497Y0070075D01*
X0003480Y0070011D01*
X0003467Y0069947D01*
X0003458Y0069883D01*
X0003452Y0069817D01*
X0003450Y0069752D01*
X0003450Y0065427D02*
X0007950Y0065427D01*
X0007450Y0065802D02*
X0007438Y0065854D01*
X0007423Y0065905D01*
X0007405Y0065955D01*
X0007383Y0066003D01*
X0007357Y0066050D01*
X0007328Y0066095D01*
X0007296Y0066137D01*
X0007261Y0066177D01*
X0007224Y0066215D01*
X0007184Y0066250D01*
X0007141Y0066282D01*
X0007096Y0066310D01*
X0007050Y0066336D01*
X0007001Y0066358D01*
X0006952Y0066377D01*
X0006901Y0066392D01*
X0006849Y0066403D01*
X0006796Y0066411D01*
X0006743Y0066414D01*
X0006690Y0066415D01*
X0006637Y0066411D01*
X0006584Y0066403D01*
X0006532Y0066392D01*
X0006481Y0066377D01*
X0006431Y0066359D01*
X0006383Y0066337D01*
X0006336Y0066312D01*
X0006291Y0066283D01*
X0006249Y0066251D01*
X0006208Y0066217D01*
X0006170Y0066179D01*
X0006135Y0066139D01*
X0006103Y0066097D01*
X0006074Y0066052D01*
X0006075Y0066052D02*
X0005700Y0065427D01*
X0005325Y0064802D01*
X0007201Y0064427D02*
X0007242Y0064500D01*
X0007281Y0064574D01*
X0007316Y0064651D01*
X0007348Y0064728D01*
X0007377Y0064807D01*
X0007403Y0064887D01*
X0007425Y0064968D01*
X0007443Y0065050D01*
X0007458Y0065133D01*
X0007470Y0065216D01*
X0007478Y0065300D01*
X0007482Y0065384D01*
X0007483Y0065468D01*
X0007480Y0065552D01*
X0007474Y0065636D01*
X0007464Y0065719D01*
X0007451Y0065802D01*
X0004199Y0066427D02*
X0004158Y0066354D01*
X0004119Y0066280D01*
X0004084Y0066203D01*
X0004052Y0066126D01*
X0004023Y0066047D01*
X0003997Y0065967D01*
X0003975Y0065886D01*
X0003957Y0065804D01*
X0003942Y0065721D01*
X0003930Y0065638D01*
X0003922Y0065554D01*
X0003918Y0065470D01*
X0003917Y0065386D01*
X0003920Y0065302D01*
X0003926Y0065218D01*
X0003936Y0065135D01*
X0003949Y0065052D01*
X0003950Y0065052D02*
X0003962Y0065000D01*
X0003977Y0064949D01*
X0003995Y0064899D01*
X0004017Y0064851D01*
X0004043Y0064804D01*
X0004072Y0064759D01*
X0004104Y0064717D01*
X0004139Y0064677D01*
X0004176Y0064639D01*
X0004216Y0064604D01*
X0004259Y0064572D01*
X0004304Y0064544D01*
X0004350Y0064518D01*
X0004399Y0064496D01*
X0004448Y0064477D01*
X0004499Y0064462D01*
X0004551Y0064451D01*
X0004604Y0064443D01*
X0004657Y0064440D01*
X0004710Y0064439D01*
X0004763Y0064443D01*
X0004816Y0064451D01*
X0004868Y0064462D01*
X0004919Y0064477D01*
X0004969Y0064495D01*
X0005017Y0064517D01*
X0005064Y0064542D01*
X0005109Y0064571D01*
X0005151Y0064603D01*
X0005192Y0064637D01*
X0005230Y0064675D01*
X0005265Y0064715D01*
X0005297Y0064757D01*
X0005326Y0064802D01*
X0006700Y0062327D02*
X0003450Y0062327D01*
X0003450Y0059827D02*
X0006700Y0059827D01*
X0006769Y0059829D01*
X0006838Y0059835D01*
X0006906Y0059844D01*
X0006973Y0059857D01*
X0007040Y0059874D01*
X0007106Y0059895D01*
X0007170Y0059919D01*
X0007233Y0059947D01*
X0007295Y0059978D01*
X0007355Y0060012D01*
X0007412Y0060050D01*
X0007468Y0060091D01*
X0007521Y0060134D01*
X0007572Y0060181D01*
X0007620Y0060230D01*
X0007665Y0060282D01*
X0007707Y0060337D01*
X0007746Y0060393D01*
X0007783Y0060452D01*
X0007815Y0060513D01*
X0007845Y0060575D01*
X0007871Y0060639D01*
X0007893Y0060704D01*
X0007912Y0060770D01*
X0007927Y0060837D01*
X0007938Y0060905D01*
X0007946Y0060974D01*
X0007950Y0061043D01*
X0007950Y0061111D01*
X0007946Y0061180D01*
X0007938Y0061249D01*
X0007927Y0061317D01*
X0007912Y0061384D01*
X0007893Y0061450D01*
X0007871Y0061515D01*
X0007845Y0061579D01*
X0007815Y0061641D01*
X0007783Y0061702D01*
X0007746Y0061761D01*
X0007707Y0061817D01*
X0007665Y0061872D01*
X0007620Y0061924D01*
X0007572Y0061973D01*
X0007521Y0062020D01*
X0007468Y0062063D01*
X0007412Y0062104D01*
X0007355Y0062142D01*
X0007295Y0062176D01*
X0007233Y0062207D01*
X0007170Y0062235D01*
X0007106Y0062259D01*
X0007040Y0062280D01*
X0006973Y0062297D01*
X0006906Y0062310D01*
X0006838Y0062319D01*
X0006769Y0062325D01*
X0006700Y0062327D01*
M02*
