G75*
%MOIN*%
%OFA0B0*%
%FSLAX25Y25*%
%IPPOS*%
%LPD*%
%AMOC8*
5,1,8,0,0,1.08239X$1,22.5*
%
%ADD10OC8,0.06165*%
%ADD11C,0.01087*%
%ADD12R,0.13189X0.13189*%
%ADD13R,0.03346X0.07283*%
%ADD14R,0.05709X0.06496*%
%ADD15C,0.06165*%
%ADD16R,0.21850X0.25000*%
%ADD17R,0.04528X0.06890*%
%ADD18R,0.06496X0.05709*%
%ADD19OC8,0.03150*%
D10*
X0055802Y0011137D03*
X0065802Y0011137D03*
X0065802Y0021137D03*
X0055802Y0021137D03*
X0055802Y0031137D03*
X0065802Y0031137D03*
X0078951Y0031137D03*
X0088951Y0031137D03*
X0088951Y0021137D03*
X0078951Y0021137D03*
X0078951Y0011137D03*
X0088951Y0011137D03*
X0101920Y0011137D03*
X0111920Y0011137D03*
X0111920Y0021137D03*
X0101920Y0021137D03*
X0101920Y0031137D03*
X0111920Y0031137D03*
X0124888Y0031137D03*
X0134888Y0031137D03*
X0147857Y0031137D03*
X0157857Y0031137D03*
X0157857Y0021137D03*
X0147857Y0021137D03*
X0147857Y0011137D03*
X0157857Y0011137D03*
X0170825Y0011137D03*
X0180825Y0011137D03*
X0180825Y0021137D03*
X0170825Y0021137D03*
X0170825Y0031137D03*
X0180825Y0031137D03*
X0134888Y0021137D03*
X0124888Y0021137D03*
X0124888Y0011137D03*
X0134888Y0011137D03*
D11*
X0124667Y0045811D02*
X0124667Y0048071D01*
X0125155Y0048071D01*
X0125155Y0045811D01*
X0124667Y0045811D01*
X0124667Y0046844D02*
X0125155Y0046844D01*
X0125155Y0047877D02*
X0124667Y0047877D01*
X0122699Y0048071D02*
X0122699Y0045811D01*
X0122699Y0048071D02*
X0123187Y0048071D01*
X0123187Y0045811D01*
X0122699Y0045811D01*
X0122699Y0046844D02*
X0123187Y0046844D01*
X0123187Y0047877D02*
X0122699Y0047877D01*
X0120730Y0048071D02*
X0120730Y0045811D01*
X0120730Y0048071D02*
X0121218Y0048071D01*
X0121218Y0045811D01*
X0120730Y0045811D01*
X0120730Y0046844D02*
X0121218Y0046844D01*
X0121218Y0047877D02*
X0120730Y0047877D01*
X0118762Y0048071D02*
X0118762Y0045811D01*
X0118762Y0048071D02*
X0119250Y0048071D01*
X0119250Y0045811D01*
X0118762Y0045811D01*
X0118762Y0046844D02*
X0119250Y0046844D01*
X0119250Y0047877D02*
X0118762Y0047877D01*
X0116793Y0048071D02*
X0116793Y0045811D01*
X0116793Y0048071D02*
X0117281Y0048071D01*
X0117281Y0045811D01*
X0116793Y0045811D01*
X0116793Y0046844D02*
X0117281Y0046844D01*
X0117281Y0047877D02*
X0116793Y0047877D01*
X0114825Y0048071D02*
X0114825Y0045811D01*
X0114825Y0048071D02*
X0115313Y0048071D01*
X0115313Y0045811D01*
X0114825Y0045811D01*
X0114825Y0046844D02*
X0115313Y0046844D01*
X0115313Y0047877D02*
X0114825Y0047877D01*
X0112856Y0048071D02*
X0112856Y0045811D01*
X0112856Y0048071D02*
X0113344Y0048071D01*
X0113344Y0045811D01*
X0112856Y0045811D01*
X0112856Y0046844D02*
X0113344Y0046844D01*
X0113344Y0047877D02*
X0112856Y0047877D01*
X0110888Y0048071D02*
X0110888Y0045811D01*
X0110888Y0048071D02*
X0111376Y0048071D01*
X0111376Y0045811D01*
X0110888Y0045811D01*
X0110888Y0046844D02*
X0111376Y0046844D01*
X0111376Y0047877D02*
X0110888Y0047877D01*
X0107639Y0049059D02*
X0107639Y0049547D01*
X0109899Y0049547D01*
X0109899Y0049059D01*
X0107639Y0049059D01*
X0107639Y0051027D02*
X0107639Y0051515D01*
X0109899Y0051515D01*
X0109899Y0051027D01*
X0107639Y0051027D01*
X0107639Y0052996D02*
X0107639Y0053484D01*
X0109899Y0053484D01*
X0109899Y0052996D01*
X0107639Y0052996D01*
X0107639Y0054964D02*
X0107639Y0055452D01*
X0109899Y0055452D01*
X0109899Y0054964D01*
X0107639Y0054964D01*
X0107639Y0056933D02*
X0107639Y0057421D01*
X0109899Y0057421D01*
X0109899Y0056933D01*
X0107639Y0056933D01*
X0107639Y0058901D02*
X0107639Y0059389D01*
X0109899Y0059389D01*
X0109899Y0058901D01*
X0107639Y0058901D01*
X0107639Y0060870D02*
X0107639Y0061358D01*
X0109899Y0061358D01*
X0109899Y0060870D01*
X0107639Y0060870D01*
X0107639Y0062838D02*
X0107639Y0063326D01*
X0109899Y0063326D01*
X0109899Y0062838D01*
X0107639Y0062838D01*
X0110888Y0064315D02*
X0110888Y0066575D01*
X0111376Y0066575D01*
X0111376Y0064315D01*
X0110888Y0064315D01*
X0110888Y0065348D02*
X0111376Y0065348D01*
X0111376Y0066381D02*
X0110888Y0066381D01*
X0112856Y0066575D02*
X0112856Y0064315D01*
X0112856Y0066575D02*
X0113344Y0066575D01*
X0113344Y0064315D01*
X0112856Y0064315D01*
X0112856Y0065348D02*
X0113344Y0065348D01*
X0113344Y0066381D02*
X0112856Y0066381D01*
X0114825Y0066575D02*
X0114825Y0064315D01*
X0114825Y0066575D02*
X0115313Y0066575D01*
X0115313Y0064315D01*
X0114825Y0064315D01*
X0114825Y0065348D02*
X0115313Y0065348D01*
X0115313Y0066381D02*
X0114825Y0066381D01*
X0116793Y0066575D02*
X0116793Y0064315D01*
X0116793Y0066575D02*
X0117281Y0066575D01*
X0117281Y0064315D01*
X0116793Y0064315D01*
X0116793Y0065348D02*
X0117281Y0065348D01*
X0117281Y0066381D02*
X0116793Y0066381D01*
X0118762Y0066575D02*
X0118762Y0064315D01*
X0118762Y0066575D02*
X0119250Y0066575D01*
X0119250Y0064315D01*
X0118762Y0064315D01*
X0118762Y0065348D02*
X0119250Y0065348D01*
X0119250Y0066381D02*
X0118762Y0066381D01*
X0120730Y0066575D02*
X0120730Y0064315D01*
X0120730Y0066575D02*
X0121218Y0066575D01*
X0121218Y0064315D01*
X0120730Y0064315D01*
X0120730Y0065348D02*
X0121218Y0065348D01*
X0121218Y0066381D02*
X0120730Y0066381D01*
X0122699Y0066575D02*
X0122699Y0064315D01*
X0122699Y0066575D02*
X0123187Y0066575D01*
X0123187Y0064315D01*
X0122699Y0064315D01*
X0122699Y0065348D02*
X0123187Y0065348D01*
X0123187Y0066381D02*
X0122699Y0066381D01*
X0124667Y0066575D02*
X0124667Y0064315D01*
X0124667Y0066575D02*
X0125155Y0066575D01*
X0125155Y0064315D01*
X0124667Y0064315D01*
X0124667Y0065348D02*
X0125155Y0065348D01*
X0125155Y0066381D02*
X0124667Y0066381D01*
X0126143Y0063326D02*
X0126143Y0062838D01*
X0126143Y0063326D02*
X0128403Y0063326D01*
X0128403Y0062838D01*
X0126143Y0062838D01*
X0126143Y0061358D02*
X0126143Y0060870D01*
X0126143Y0061358D02*
X0128403Y0061358D01*
X0128403Y0060870D01*
X0126143Y0060870D01*
X0126143Y0059389D02*
X0126143Y0058901D01*
X0126143Y0059389D02*
X0128403Y0059389D01*
X0128403Y0058901D01*
X0126143Y0058901D01*
X0126143Y0057421D02*
X0126143Y0056933D01*
X0126143Y0057421D02*
X0128403Y0057421D01*
X0128403Y0056933D01*
X0126143Y0056933D01*
X0126143Y0055452D02*
X0126143Y0054964D01*
X0126143Y0055452D02*
X0128403Y0055452D01*
X0128403Y0054964D01*
X0126143Y0054964D01*
X0126143Y0053484D02*
X0126143Y0052996D01*
X0126143Y0053484D02*
X0128403Y0053484D01*
X0128403Y0052996D01*
X0126143Y0052996D01*
X0126143Y0051515D02*
X0126143Y0051027D01*
X0126143Y0051515D02*
X0128403Y0051515D01*
X0128403Y0051027D01*
X0126143Y0051027D01*
X0126143Y0049547D02*
X0126143Y0049059D01*
X0126143Y0049547D02*
X0128403Y0049547D01*
X0128403Y0049059D01*
X0126143Y0049059D01*
D12*
X0118021Y0056193D03*
D13*
X0123274Y0073460D03*
X0127998Y0073460D03*
X0132723Y0073460D03*
D14*
X0042369Y0123460D03*
X0034888Y0123460D03*
X0034888Y0130153D03*
X0027408Y0130153D03*
D15*
X0018581Y0130271D02*
X0013006Y0130271D01*
X0013006Y0140271D02*
X0018581Y0140271D01*
X0018581Y0150271D02*
X0013006Y0150271D01*
X0013006Y0120271D02*
X0018581Y0120271D01*
X0018187Y0104877D02*
X0012613Y0104877D01*
X0012613Y0094877D02*
X0018187Y0094877D01*
X0018187Y0084877D02*
X0012613Y0084877D01*
X0012613Y0074877D02*
X0018187Y0074877D01*
X0018187Y0064877D02*
X0012613Y0064877D01*
D16*
X0034298Y0019523D03*
D17*
X0043274Y0048263D03*
X0025321Y0048263D03*
D18*
X0026817Y0059483D03*
X0026817Y0066964D03*
D19*
X0039022Y0057318D03*
X0039022Y0054169D03*
X0039022Y0051019D03*
X0039022Y0047869D03*
X0039022Y0044720D03*
X0039022Y0041570D03*
X0047683Y0041570D03*
X0047683Y0044720D03*
X0047683Y0047869D03*
X0047683Y0051019D03*
X0047683Y0054169D03*
X0047683Y0057318D03*
X0043353Y0057318D03*
X0043353Y0054169D03*
X0110282Y0071491D03*
X0118943Y0069129D03*
X0131935Y0065192D03*
X0134691Y0058106D03*
X0047290Y0123460D03*
M02*
