G75*
%MOIN*%
%OFA0B0*%
%FSLAX25Y25*%
%IPPOS*%
%LPD*%
%AMOC8*
5,1,8,0,0,1.08239X$1,22.5*
%
%ADD10OC8,0.05575*%
%ADD11C,0.00492*%
%ADD12R,0.12598X0.12598*%
%ADD13R,0.02756X0.06693*%
%ADD14R,0.05118X0.05906*%
%ADD15C,0.05575*%
%ADD16R,0.21260X0.24409*%
%ADD17R,0.03937X0.06299*%
%ADD18R,0.05906X0.05118*%
%ADD19C,0.02400*%
%ADD20C,0.01200*%
%ADD21OC8,0.02559*%
D10*
X0055802Y0011137D03*
X0065802Y0011137D03*
X0065802Y0021137D03*
X0055802Y0021137D03*
X0055802Y0031137D03*
X0065802Y0031137D03*
X0078951Y0031137D03*
X0088951Y0031137D03*
X0088951Y0021137D03*
X0078951Y0021137D03*
X0078951Y0011137D03*
X0088951Y0011137D03*
X0101920Y0011137D03*
X0111920Y0011137D03*
X0111920Y0021137D03*
X0101920Y0021137D03*
X0101920Y0031137D03*
X0111920Y0031137D03*
X0124888Y0031137D03*
X0134888Y0031137D03*
X0147857Y0031137D03*
X0157857Y0031137D03*
X0157857Y0021137D03*
X0147857Y0021137D03*
X0147857Y0011137D03*
X0157857Y0011137D03*
X0170825Y0011137D03*
X0180825Y0011137D03*
X0180825Y0021137D03*
X0170825Y0021137D03*
X0170825Y0031137D03*
X0180825Y0031137D03*
X0134888Y0021137D03*
X0124888Y0021137D03*
X0124888Y0011137D03*
X0134888Y0011137D03*
D11*
X0124665Y0045809D02*
X0124665Y0048073D01*
X0125157Y0048073D01*
X0125157Y0045809D01*
X0124665Y0045809D01*
X0124665Y0046276D02*
X0125157Y0046276D01*
X0125157Y0046743D02*
X0124665Y0046743D01*
X0124665Y0047210D02*
X0125157Y0047210D01*
X0125157Y0047677D02*
X0124665Y0047677D01*
X0122697Y0048073D02*
X0122697Y0045809D01*
X0122697Y0048073D02*
X0123189Y0048073D01*
X0123189Y0045809D01*
X0122697Y0045809D01*
X0122697Y0046276D02*
X0123189Y0046276D01*
X0123189Y0046743D02*
X0122697Y0046743D01*
X0122697Y0047210D02*
X0123189Y0047210D01*
X0123189Y0047677D02*
X0122697Y0047677D01*
X0120728Y0048073D02*
X0120728Y0045809D01*
X0120728Y0048073D02*
X0121220Y0048073D01*
X0121220Y0045809D01*
X0120728Y0045809D01*
X0120728Y0046276D02*
X0121220Y0046276D01*
X0121220Y0046743D02*
X0120728Y0046743D01*
X0120728Y0047210D02*
X0121220Y0047210D01*
X0121220Y0047677D02*
X0120728Y0047677D01*
X0118760Y0048073D02*
X0118760Y0045809D01*
X0118760Y0048073D02*
X0119252Y0048073D01*
X0119252Y0045809D01*
X0118760Y0045809D01*
X0118760Y0046276D02*
X0119252Y0046276D01*
X0119252Y0046743D02*
X0118760Y0046743D01*
X0118760Y0047210D02*
X0119252Y0047210D01*
X0119252Y0047677D02*
X0118760Y0047677D01*
X0116791Y0048073D02*
X0116791Y0045809D01*
X0116791Y0048073D02*
X0117283Y0048073D01*
X0117283Y0045809D01*
X0116791Y0045809D01*
X0116791Y0046276D02*
X0117283Y0046276D01*
X0117283Y0046743D02*
X0116791Y0046743D01*
X0116791Y0047210D02*
X0117283Y0047210D01*
X0117283Y0047677D02*
X0116791Y0047677D01*
X0114823Y0048073D02*
X0114823Y0045809D01*
X0114823Y0048073D02*
X0115315Y0048073D01*
X0115315Y0045809D01*
X0114823Y0045809D01*
X0114823Y0046276D02*
X0115315Y0046276D01*
X0115315Y0046743D02*
X0114823Y0046743D01*
X0114823Y0047210D02*
X0115315Y0047210D01*
X0115315Y0047677D02*
X0114823Y0047677D01*
X0112854Y0048073D02*
X0112854Y0045809D01*
X0112854Y0048073D02*
X0113346Y0048073D01*
X0113346Y0045809D01*
X0112854Y0045809D01*
X0112854Y0046276D02*
X0113346Y0046276D01*
X0113346Y0046743D02*
X0112854Y0046743D01*
X0112854Y0047210D02*
X0113346Y0047210D01*
X0113346Y0047677D02*
X0112854Y0047677D01*
X0110886Y0048073D02*
X0110886Y0045809D01*
X0110886Y0048073D02*
X0111378Y0048073D01*
X0111378Y0045809D01*
X0110886Y0045809D01*
X0110886Y0046276D02*
X0111378Y0046276D01*
X0111378Y0046743D02*
X0110886Y0046743D01*
X0110886Y0047210D02*
X0111378Y0047210D01*
X0111378Y0047677D02*
X0110886Y0047677D01*
X0107637Y0049057D02*
X0107637Y0049549D01*
X0109901Y0049549D01*
X0109901Y0049057D01*
X0107637Y0049057D01*
X0107637Y0049524D02*
X0109901Y0049524D01*
X0107637Y0051025D02*
X0107637Y0051517D01*
X0109901Y0051517D01*
X0109901Y0051025D01*
X0107637Y0051025D01*
X0107637Y0051492D02*
X0109901Y0051492D01*
X0107637Y0052994D02*
X0107637Y0053486D01*
X0109901Y0053486D01*
X0109901Y0052994D01*
X0107637Y0052994D01*
X0107637Y0053461D02*
X0109901Y0053461D01*
X0107637Y0054962D02*
X0107637Y0055454D01*
X0109901Y0055454D01*
X0109901Y0054962D01*
X0107637Y0054962D01*
X0107637Y0055429D02*
X0109901Y0055429D01*
X0107637Y0056931D02*
X0107637Y0057423D01*
X0109901Y0057423D01*
X0109901Y0056931D01*
X0107637Y0056931D01*
X0107637Y0057398D02*
X0109901Y0057398D01*
X0107637Y0058899D02*
X0107637Y0059391D01*
X0109901Y0059391D01*
X0109901Y0058899D01*
X0107637Y0058899D01*
X0107637Y0059366D02*
X0109901Y0059366D01*
X0107637Y0060868D02*
X0107637Y0061360D01*
X0109901Y0061360D01*
X0109901Y0060868D01*
X0107637Y0060868D01*
X0107637Y0061335D02*
X0109901Y0061335D01*
X0107637Y0062836D02*
X0107637Y0063328D01*
X0109901Y0063328D01*
X0109901Y0062836D01*
X0107637Y0062836D01*
X0107637Y0063303D02*
X0109901Y0063303D01*
X0110886Y0064313D02*
X0110886Y0066577D01*
X0111378Y0066577D01*
X0111378Y0064313D01*
X0110886Y0064313D01*
X0110886Y0064780D02*
X0111378Y0064780D01*
X0111378Y0065247D02*
X0110886Y0065247D01*
X0110886Y0065714D02*
X0111378Y0065714D01*
X0111378Y0066181D02*
X0110886Y0066181D01*
X0112854Y0066577D02*
X0112854Y0064313D01*
X0112854Y0066577D02*
X0113346Y0066577D01*
X0113346Y0064313D01*
X0112854Y0064313D01*
X0112854Y0064780D02*
X0113346Y0064780D01*
X0113346Y0065247D02*
X0112854Y0065247D01*
X0112854Y0065714D02*
X0113346Y0065714D01*
X0113346Y0066181D02*
X0112854Y0066181D01*
X0114823Y0066577D02*
X0114823Y0064313D01*
X0114823Y0066577D02*
X0115315Y0066577D01*
X0115315Y0064313D01*
X0114823Y0064313D01*
X0114823Y0064780D02*
X0115315Y0064780D01*
X0115315Y0065247D02*
X0114823Y0065247D01*
X0114823Y0065714D02*
X0115315Y0065714D01*
X0115315Y0066181D02*
X0114823Y0066181D01*
X0116791Y0066577D02*
X0116791Y0064313D01*
X0116791Y0066577D02*
X0117283Y0066577D01*
X0117283Y0064313D01*
X0116791Y0064313D01*
X0116791Y0064780D02*
X0117283Y0064780D01*
X0117283Y0065247D02*
X0116791Y0065247D01*
X0116791Y0065714D02*
X0117283Y0065714D01*
X0117283Y0066181D02*
X0116791Y0066181D01*
X0118760Y0066577D02*
X0118760Y0064313D01*
X0118760Y0066577D02*
X0119252Y0066577D01*
X0119252Y0064313D01*
X0118760Y0064313D01*
X0118760Y0064780D02*
X0119252Y0064780D01*
X0119252Y0065247D02*
X0118760Y0065247D01*
X0118760Y0065714D02*
X0119252Y0065714D01*
X0119252Y0066181D02*
X0118760Y0066181D01*
X0120728Y0066577D02*
X0120728Y0064313D01*
X0120728Y0066577D02*
X0121220Y0066577D01*
X0121220Y0064313D01*
X0120728Y0064313D01*
X0120728Y0064780D02*
X0121220Y0064780D01*
X0121220Y0065247D02*
X0120728Y0065247D01*
X0120728Y0065714D02*
X0121220Y0065714D01*
X0121220Y0066181D02*
X0120728Y0066181D01*
X0122697Y0066577D02*
X0122697Y0064313D01*
X0122697Y0066577D02*
X0123189Y0066577D01*
X0123189Y0064313D01*
X0122697Y0064313D01*
X0122697Y0064780D02*
X0123189Y0064780D01*
X0123189Y0065247D02*
X0122697Y0065247D01*
X0122697Y0065714D02*
X0123189Y0065714D01*
X0123189Y0066181D02*
X0122697Y0066181D01*
X0124665Y0066577D02*
X0124665Y0064313D01*
X0124665Y0066577D02*
X0125157Y0066577D01*
X0125157Y0064313D01*
X0124665Y0064313D01*
X0124665Y0064780D02*
X0125157Y0064780D01*
X0125157Y0065247D02*
X0124665Y0065247D01*
X0124665Y0065714D02*
X0125157Y0065714D01*
X0125157Y0066181D02*
X0124665Y0066181D01*
X0126141Y0063328D02*
X0126141Y0062836D01*
X0126141Y0063328D02*
X0128405Y0063328D01*
X0128405Y0062836D01*
X0126141Y0062836D01*
X0126141Y0063303D02*
X0128405Y0063303D01*
X0126141Y0061360D02*
X0126141Y0060868D01*
X0126141Y0061360D02*
X0128405Y0061360D01*
X0128405Y0060868D01*
X0126141Y0060868D01*
X0126141Y0061335D02*
X0128405Y0061335D01*
X0126141Y0059391D02*
X0126141Y0058899D01*
X0126141Y0059391D02*
X0128405Y0059391D01*
X0128405Y0058899D01*
X0126141Y0058899D01*
X0126141Y0059366D02*
X0128405Y0059366D01*
X0126141Y0057423D02*
X0126141Y0056931D01*
X0126141Y0057423D02*
X0128405Y0057423D01*
X0128405Y0056931D01*
X0126141Y0056931D01*
X0126141Y0057398D02*
X0128405Y0057398D01*
X0126141Y0055454D02*
X0126141Y0054962D01*
X0126141Y0055454D02*
X0128405Y0055454D01*
X0128405Y0054962D01*
X0126141Y0054962D01*
X0126141Y0055429D02*
X0128405Y0055429D01*
X0126141Y0053486D02*
X0126141Y0052994D01*
X0126141Y0053486D02*
X0128405Y0053486D01*
X0128405Y0052994D01*
X0126141Y0052994D01*
X0126141Y0053461D02*
X0128405Y0053461D01*
X0126141Y0051517D02*
X0126141Y0051025D01*
X0126141Y0051517D02*
X0128405Y0051517D01*
X0128405Y0051025D01*
X0126141Y0051025D01*
X0126141Y0051492D02*
X0128405Y0051492D01*
X0126141Y0049549D02*
X0126141Y0049057D01*
X0126141Y0049549D02*
X0128405Y0049549D01*
X0128405Y0049057D01*
X0126141Y0049057D01*
X0126141Y0049524D02*
X0128405Y0049524D01*
D12*
X0118021Y0056193D03*
D13*
X0123274Y0073460D03*
X0127998Y0073460D03*
X0132723Y0073460D03*
D14*
X0042369Y0123460D03*
X0034888Y0123460D03*
X0034888Y0130153D03*
X0027408Y0130153D03*
D15*
X0018581Y0130271D02*
X0013006Y0130271D01*
X0013006Y0140271D02*
X0018581Y0140271D01*
X0018581Y0150271D02*
X0013006Y0150271D01*
X0013006Y0120271D02*
X0018581Y0120271D01*
X0018187Y0104877D02*
X0012613Y0104877D01*
X0012613Y0094877D02*
X0018187Y0094877D01*
X0018187Y0084877D02*
X0012613Y0084877D01*
X0012613Y0074877D02*
X0018187Y0074877D01*
X0018187Y0064877D02*
X0012613Y0064877D01*
D16*
X0034298Y0019523D03*
D17*
X0043274Y0048263D03*
X0025321Y0048263D03*
D18*
X0026817Y0059483D03*
X0026817Y0066964D03*
D19*
X0024483Y0066960D02*
X0061039Y0066960D01*
X0063437Y0064561D02*
X0024483Y0064561D01*
X0024483Y0063833D02*
X0024483Y0069998D01*
X0024120Y0070877D01*
X0023447Y0071549D01*
X0022568Y0071913D01*
X0008332Y0071913D01*
X0008332Y0093248D01*
X0008732Y0092284D01*
X0010019Y0090996D01*
X0011702Y0090299D01*
X0019098Y0090299D01*
X0020781Y0090996D01*
X0022068Y0092284D01*
X0022152Y0092487D01*
X0035512Y0092487D01*
X0074337Y0053662D01*
X0060453Y0053662D01*
X0059574Y0053298D01*
X0053775Y0047499D01*
X0053411Y0046620D01*
X0053411Y0035221D01*
X0051224Y0033033D01*
X0051224Y0029241D01*
X0053905Y0026559D01*
X0057698Y0026559D01*
X0060380Y0029241D01*
X0060380Y0033033D01*
X0058192Y0035221D01*
X0058192Y0045155D01*
X0061918Y0048881D01*
X0070905Y0048881D01*
X0063775Y0041751D01*
X0063411Y0040872D01*
X0063411Y0035221D01*
X0061224Y0033033D01*
X0061224Y0029241D01*
X0063905Y0026559D01*
X0067698Y0026559D01*
X0070380Y0029241D01*
X0070380Y0033033D01*
X0068192Y0035221D01*
X0068192Y0039407D01*
X0075698Y0046912D01*
X0081535Y0046912D01*
X0076925Y0042302D01*
X0076561Y0041424D01*
X0076561Y0035221D01*
X0074373Y0033033D01*
X0074373Y0029241D01*
X0077055Y0026559D01*
X0080847Y0026559D01*
X0083529Y0029241D01*
X0083529Y0033033D01*
X0081342Y0035221D01*
X0081342Y0039958D01*
X0085934Y0044550D01*
X0109264Y0044550D01*
X0109769Y0044045D01*
X0108898Y0043173D01*
X0105082Y0043173D01*
X0104203Y0042809D01*
X0100566Y0039171D01*
X0099893Y0038499D01*
X0099529Y0037620D01*
X0099529Y0035221D01*
X0097342Y0033033D01*
X0097342Y0029241D01*
X0100023Y0026559D01*
X0103816Y0026559D01*
X0106498Y0029241D01*
X0106498Y0033033D01*
X0104310Y0035221D01*
X0104310Y0036155D01*
X0106548Y0038392D01*
X0110364Y0038392D01*
X0111242Y0038756D01*
X0115127Y0042640D01*
X0115491Y0043519D01*
X0115491Y0043772D01*
X0116158Y0043772D01*
X0117351Y0044965D01*
X0117351Y0048916D01*
X0116158Y0050109D01*
X0111938Y0050109D01*
X0111938Y0062276D01*
X0114190Y0062276D01*
X0115069Y0063155D01*
X0115947Y0062276D01*
X0118127Y0062276D01*
X0119006Y0063155D01*
X0119884Y0062276D01*
X0124105Y0062276D01*
X0124105Y0050109D01*
X0119884Y0050109D01*
X0118691Y0048916D01*
X0118691Y0044965D01*
X0119884Y0043772D01*
X0120552Y0043772D01*
X0120552Y0036323D01*
X0119164Y0034935D01*
X0118491Y0034263D01*
X0118128Y0033384D01*
X0118128Y0025032D01*
X0118491Y0024153D01*
X0120310Y0022334D01*
X0120310Y0019241D01*
X0122992Y0016559D01*
X0126784Y0016559D01*
X0129466Y0019241D01*
X0129466Y0023033D01*
X0126784Y0025715D01*
X0123691Y0025715D01*
X0122909Y0026497D01*
X0122909Y0026642D01*
X0122992Y0026559D01*
X0126784Y0026559D01*
X0129466Y0029241D01*
X0129466Y0033033D01*
X0126784Y0035715D01*
X0125333Y0035715D01*
X0125333Y0040461D01*
X0131536Y0034259D01*
X0130310Y0033033D01*
X0130310Y0029241D01*
X0132992Y0026559D01*
X0136784Y0026559D01*
X0139466Y0029241D01*
X0139466Y0033033D01*
X0136955Y0035545D01*
X0136915Y0035641D01*
X0127302Y0045254D01*
X0127302Y0046912D01*
X0137386Y0046912D01*
X0145466Y0038832D01*
X0145466Y0035221D01*
X0143279Y0033033D01*
X0143279Y0029241D01*
X0145960Y0026559D01*
X0149753Y0026559D01*
X0152435Y0029241D01*
X0152435Y0033033D01*
X0150247Y0035221D01*
X0150247Y0040298D01*
X0149883Y0041176D01*
X0142179Y0048881D01*
X0145260Y0048881D01*
X0155466Y0038674D01*
X0155466Y0035221D01*
X0153279Y0033033D01*
X0153279Y0029241D01*
X0155960Y0026559D01*
X0159753Y0026559D01*
X0162435Y0029241D01*
X0162435Y0033033D01*
X0160247Y0035221D01*
X0160247Y0040140D01*
X0159883Y0041019D01*
X0150053Y0050849D01*
X0155102Y0050849D01*
X0168435Y0037517D01*
X0168435Y0035221D01*
X0166247Y0033033D01*
X0166247Y0029241D01*
X0168929Y0026559D01*
X0172721Y0026559D01*
X0175403Y0029241D01*
X0175403Y0033033D01*
X0173216Y0035221D01*
X0173216Y0038983D01*
X0172852Y0039861D01*
X0159895Y0052818D01*
X0162583Y0052818D01*
X0178435Y0036966D01*
X0178435Y0035221D01*
X0176247Y0033033D01*
X0176247Y0029241D01*
X0178929Y0026559D01*
X0182721Y0026559D01*
X0185403Y0029241D01*
X0185403Y0033033D01*
X0183216Y0035221D01*
X0183216Y0038431D01*
X0182852Y0039310D01*
X0164927Y0057235D01*
X0164048Y0057599D01*
X0137761Y0057599D01*
X0137761Y0059377D01*
X0135963Y0061176D01*
X0135002Y0061176D01*
X0133710Y0062468D01*
X0133631Y0062546D01*
X0135005Y0063920D01*
X0135005Y0066464D01*
X0134025Y0067444D01*
X0134077Y0067496D01*
X0134749Y0068169D01*
X0134813Y0068323D01*
X0134842Y0068323D01*
X0135891Y0069372D01*
X0135891Y0077548D01*
X0134842Y0078597D01*
X0130603Y0078597D01*
X0129554Y0077548D01*
X0129554Y0070732D01*
X0126443Y0070732D01*
X0126443Y0077548D01*
X0125394Y0078597D01*
X0121154Y0078597D01*
X0120106Y0077548D01*
X0120106Y0072199D01*
X0117672Y0072199D01*
X0115873Y0070401D01*
X0115873Y0069440D01*
X0115491Y0069057D01*
X0115491Y0069149D01*
X0115127Y0070027D01*
X0114454Y0070700D01*
X0113352Y0071802D01*
X0113352Y0072763D01*
X0111554Y0074561D01*
X0109010Y0074561D01*
X0107212Y0072763D01*
X0107212Y0070220D01*
X0109010Y0068421D01*
X0109850Y0068421D01*
X0108849Y0067420D01*
X0108849Y0065365D01*
X0106794Y0065365D01*
X0105601Y0064172D01*
X0105601Y0063504D01*
X0104327Y0063504D01*
X0091806Y0076025D01*
X0091806Y0093620D01*
X0091442Y0094499D01*
X0033644Y0152297D01*
X0032765Y0152661D01*
X0022546Y0152661D01*
X0022462Y0152864D01*
X0021174Y0154152D01*
X0019492Y0154849D01*
X0012096Y0154849D01*
X0010413Y0154152D01*
X0009125Y0152864D01*
X0008428Y0151181D01*
X0008428Y0149360D01*
X0009125Y0147678D01*
X0010413Y0146390D01*
X0012096Y0145693D01*
X0019492Y0145693D01*
X0021174Y0146390D01*
X0022462Y0147678D01*
X0022546Y0147880D01*
X0031300Y0147880D01*
X0036518Y0142661D01*
X0022546Y0142661D01*
X0022462Y0142864D01*
X0021174Y0144152D01*
X0019492Y0144849D01*
X0012096Y0144849D01*
X0010413Y0144152D01*
X0009125Y0142864D01*
X0008428Y0141181D01*
X0008428Y0139360D01*
X0009125Y0137678D01*
X0010413Y0136390D01*
X0012096Y0135693D01*
X0019492Y0135693D01*
X0021174Y0136390D01*
X0022462Y0137678D01*
X0022546Y0137880D01*
X0038544Y0137880D01*
X0043881Y0132543D01*
X0039238Y0132543D01*
X0039238Y0133847D01*
X0038189Y0134896D01*
X0031587Y0134896D01*
X0031148Y0134457D01*
X0030709Y0134896D01*
X0024107Y0134896D01*
X0023058Y0133847D01*
X0023058Y0132661D01*
X0022546Y0132661D01*
X0022462Y0132864D01*
X0021174Y0134152D01*
X0019492Y0134849D01*
X0012096Y0134849D01*
X0010413Y0134152D01*
X0009125Y0132864D01*
X0008428Y0131181D01*
X0008428Y0129360D01*
X0009125Y0127678D01*
X0010413Y0126390D01*
X0012096Y0125693D01*
X0019492Y0125693D01*
X0021174Y0126390D01*
X0022462Y0127678D01*
X0022546Y0127880D01*
X0023058Y0127880D01*
X0023058Y0126458D01*
X0024107Y0125409D01*
X0030539Y0125409D01*
X0030539Y0119765D01*
X0031587Y0118717D01*
X0038189Y0118717D01*
X0038628Y0119156D01*
X0039068Y0118717D01*
X0045669Y0118717D01*
X0046718Y0119765D01*
X0046718Y0120390D01*
X0048561Y0120390D01*
X0050360Y0122188D01*
X0050360Y0123308D01*
X0083444Y0090224D01*
X0083444Y0073076D01*
X0083808Y0072197D01*
X0098406Y0057599D01*
X0079917Y0057599D01*
X0030612Y0106904D01*
X0029734Y0107268D01*
X0022152Y0107268D01*
X0022068Y0107470D01*
X0020781Y0108758D01*
X0019098Y0109455D01*
X0011702Y0109455D01*
X0010019Y0108758D01*
X0008732Y0107470D01*
X0008332Y0106506D01*
X0008332Y0158756D01*
X0198485Y0158756D01*
X0198104Y0004309D01*
X0050074Y0004519D01*
X0050074Y0036030D01*
X0050127Y0036030D01*
X0051006Y0036394D01*
X0051679Y0037066D01*
X0052043Y0037945D01*
X0052043Y0060550D01*
X0051679Y0061428D01*
X0051006Y0062101D01*
X0050127Y0062465D01*
X0036578Y0062465D01*
X0035699Y0062101D01*
X0035027Y0061428D01*
X0034663Y0060550D01*
X0034663Y0038843D01*
X0024483Y0038843D01*
X0024483Y0043323D01*
X0028031Y0043323D01*
X0029080Y0044372D01*
X0029080Y0052154D01*
X0028312Y0052923D01*
X0028312Y0055134D01*
X0030512Y0055134D01*
X0031561Y0056183D01*
X0031561Y0062784D01*
X0030512Y0063833D01*
X0024483Y0063833D01*
X0026817Y0059483D02*
X0025321Y0057987D01*
X0025321Y0048263D01*
X0029080Y0047772D02*
X0034663Y0047772D01*
X0034663Y0050170D02*
X0029080Y0050170D01*
X0028666Y0052569D02*
X0034663Y0052569D01*
X0034663Y0054967D02*
X0028312Y0054967D01*
X0031561Y0057366D02*
X0034663Y0057366D01*
X0034663Y0059764D02*
X0031561Y0059764D01*
X0031561Y0062163D02*
X0035849Y0062163D01*
X0024483Y0069358D02*
X0058640Y0069358D01*
X0056242Y0071757D02*
X0022946Y0071757D01*
X0008332Y0074155D02*
X0053843Y0074155D01*
X0051445Y0076554D02*
X0008332Y0076554D01*
X0008332Y0078952D02*
X0049046Y0078952D01*
X0046648Y0081351D02*
X0008332Y0081351D01*
X0008332Y0083749D02*
X0044249Y0083749D01*
X0041851Y0086148D02*
X0008332Y0086148D01*
X0008332Y0088546D02*
X0039452Y0088546D01*
X0037054Y0090945D02*
X0020657Y0090945D01*
X0010143Y0090945D02*
X0008332Y0090945D01*
X0008332Y0107734D02*
X0008996Y0107734D01*
X0008332Y0110133D02*
X0063535Y0110133D01*
X0061137Y0112532D02*
X0008332Y0112532D01*
X0008332Y0114930D02*
X0058738Y0114930D01*
X0056340Y0117329D02*
X0008332Y0117329D01*
X0008332Y0119727D02*
X0030577Y0119727D01*
X0030539Y0122126D02*
X0008332Y0122126D01*
X0008332Y0124524D02*
X0030539Y0124524D01*
X0023058Y0126923D02*
X0021707Y0126923D01*
X0021208Y0134118D02*
X0023329Y0134118D01*
X0021301Y0136517D02*
X0039907Y0136517D01*
X0038967Y0134118D02*
X0042306Y0134118D01*
X0047026Y0138915D02*
X0198436Y0138915D01*
X0198442Y0141314D02*
X0044628Y0141314D01*
X0042229Y0143712D02*
X0198448Y0143712D01*
X0198454Y0146111D02*
X0039831Y0146111D01*
X0037432Y0148509D02*
X0198460Y0148509D01*
X0198466Y0150908D02*
X0035034Y0150908D01*
X0033069Y0146111D02*
X0020500Y0146111D01*
X0021614Y0143712D02*
X0035468Y0143712D01*
X0049425Y0136517D02*
X0198430Y0136517D01*
X0198425Y0134118D02*
X0051823Y0134118D01*
X0054222Y0131720D02*
X0198419Y0131720D01*
X0198413Y0129321D02*
X0056620Y0129321D01*
X0059019Y0126923D02*
X0198407Y0126923D01*
X0198401Y0124524D02*
X0061417Y0124524D01*
X0063816Y0122126D02*
X0198395Y0122126D01*
X0198389Y0119727D02*
X0066214Y0119727D01*
X0068613Y0117329D02*
X0198383Y0117329D01*
X0198377Y0114930D02*
X0071011Y0114930D01*
X0073410Y0112532D02*
X0198371Y0112532D01*
X0198365Y0110133D02*
X0075808Y0110133D01*
X0078207Y0107734D02*
X0198359Y0107734D01*
X0198353Y0105336D02*
X0080605Y0105336D01*
X0083004Y0102937D02*
X0198347Y0102937D01*
X0198341Y0100539D02*
X0085402Y0100539D01*
X0087801Y0098140D02*
X0198336Y0098140D01*
X0198330Y0095742D02*
X0090199Y0095742D01*
X0091806Y0093343D02*
X0198324Y0093343D01*
X0198318Y0090945D02*
X0091806Y0090945D01*
X0091806Y0088546D02*
X0198312Y0088546D01*
X0198306Y0086148D02*
X0091806Y0086148D01*
X0091806Y0083749D02*
X0198300Y0083749D01*
X0198294Y0081351D02*
X0091806Y0081351D01*
X0091806Y0078952D02*
X0198288Y0078952D01*
X0198282Y0076554D02*
X0135891Y0076554D01*
X0135891Y0074155D02*
X0198276Y0074155D01*
X0198270Y0071757D02*
X0135891Y0071757D01*
X0135878Y0069358D02*
X0198264Y0069358D01*
X0198258Y0066960D02*
X0134509Y0066960D01*
X0135005Y0064561D02*
X0198253Y0064561D01*
X0198247Y0062163D02*
X0134015Y0062163D01*
X0137374Y0059764D02*
X0198241Y0059764D01*
X0198235Y0057366D02*
X0164611Y0057366D01*
X0167195Y0054967D02*
X0198229Y0054967D01*
X0198223Y0052569D02*
X0169593Y0052569D01*
X0171992Y0050170D02*
X0198217Y0050170D01*
X0198211Y0047772D02*
X0174390Y0047772D01*
X0176789Y0045373D02*
X0198205Y0045373D01*
X0198199Y0042975D02*
X0179187Y0042975D01*
X0181586Y0040576D02*
X0198193Y0040576D01*
X0198187Y0038178D02*
X0183216Y0038178D01*
X0183216Y0035779D02*
X0198181Y0035779D01*
X0198175Y0033381D02*
X0185056Y0033381D01*
X0185403Y0030982D02*
X0198170Y0030982D01*
X0198164Y0028584D02*
X0184746Y0028584D01*
X0182721Y0025715D02*
X0178929Y0025715D01*
X0176247Y0023033D01*
X0176247Y0019241D01*
X0178929Y0016559D01*
X0182721Y0016559D01*
X0185403Y0019241D01*
X0185403Y0023033D01*
X0182721Y0025715D01*
X0184650Y0023787D02*
X0198152Y0023787D01*
X0198146Y0021388D02*
X0185403Y0021388D01*
X0185152Y0018990D02*
X0198140Y0018990D01*
X0198134Y0016591D02*
X0182753Y0016591D01*
X0178897Y0016591D02*
X0172753Y0016591D01*
X0172721Y0016559D02*
X0175403Y0019241D01*
X0175403Y0023033D01*
X0172721Y0025715D01*
X0168929Y0025715D01*
X0166247Y0023033D01*
X0166247Y0019241D01*
X0168929Y0016559D01*
X0172721Y0016559D01*
X0175152Y0018990D02*
X0176498Y0018990D01*
X0176247Y0021388D02*
X0175403Y0021388D01*
X0174650Y0023787D02*
X0177001Y0023787D01*
X0176904Y0028584D02*
X0174746Y0028584D01*
X0175403Y0030982D02*
X0176247Y0030982D01*
X0176595Y0033381D02*
X0175056Y0033381D01*
X0173216Y0035779D02*
X0178435Y0035779D01*
X0177223Y0038178D02*
X0173216Y0038178D01*
X0172137Y0040576D02*
X0174824Y0040576D01*
X0172426Y0042975D02*
X0169738Y0042975D01*
X0170027Y0045373D02*
X0167340Y0045373D01*
X0167629Y0047772D02*
X0164941Y0047772D01*
X0165230Y0050170D02*
X0162543Y0050170D01*
X0162832Y0052569D02*
X0160144Y0052569D01*
X0155781Y0050170D02*
X0150732Y0050170D01*
X0153130Y0047772D02*
X0158180Y0047772D01*
X0160578Y0045373D02*
X0155529Y0045373D01*
X0157927Y0042975D02*
X0162977Y0042975D01*
X0165375Y0040576D02*
X0160067Y0040576D01*
X0160247Y0038178D02*
X0167774Y0038178D01*
X0168435Y0035779D02*
X0160247Y0035779D01*
X0162087Y0033381D02*
X0166595Y0033381D01*
X0166247Y0030982D02*
X0162435Y0030982D01*
X0161777Y0028584D02*
X0166904Y0028584D01*
X0167001Y0023787D02*
X0161681Y0023787D01*
X0162435Y0023033D02*
X0159753Y0025715D01*
X0155960Y0025715D01*
X0153279Y0023033D01*
X0153279Y0019241D01*
X0155960Y0016559D01*
X0159753Y0016559D01*
X0162435Y0019241D01*
X0162435Y0023033D01*
X0162435Y0021388D02*
X0166247Y0021388D01*
X0166498Y0018990D02*
X0162183Y0018990D01*
X0159785Y0016591D02*
X0168897Y0016591D01*
X0155928Y0016591D02*
X0149785Y0016591D01*
X0149753Y0016559D02*
X0152435Y0019241D01*
X0152435Y0023033D01*
X0149753Y0025715D01*
X0145960Y0025715D01*
X0143279Y0023033D01*
X0143279Y0019241D01*
X0145960Y0016559D01*
X0149753Y0016559D01*
X0152183Y0018990D02*
X0153530Y0018990D01*
X0153279Y0021388D02*
X0152435Y0021388D01*
X0151681Y0023787D02*
X0154032Y0023787D01*
X0153936Y0028584D02*
X0151777Y0028584D01*
X0152435Y0030982D02*
X0153279Y0030982D01*
X0153626Y0033381D02*
X0152087Y0033381D01*
X0150247Y0035779D02*
X0155466Y0035779D01*
X0155466Y0038178D02*
X0150247Y0038178D01*
X0150132Y0040576D02*
X0153564Y0040576D01*
X0151166Y0042975D02*
X0148085Y0042975D01*
X0148767Y0045373D02*
X0145686Y0045373D01*
X0146369Y0047772D02*
X0143288Y0047772D01*
X0138925Y0045373D02*
X0127302Y0045373D01*
X0129581Y0042975D02*
X0141323Y0042975D01*
X0143722Y0040576D02*
X0131979Y0040576D01*
X0134378Y0038178D02*
X0145466Y0038178D01*
X0145466Y0035779D02*
X0136776Y0035779D01*
X0139119Y0033381D02*
X0143626Y0033381D01*
X0143279Y0030982D02*
X0139466Y0030982D01*
X0138809Y0028584D02*
X0143936Y0028584D01*
X0144032Y0023787D02*
X0138713Y0023787D01*
X0139466Y0023033D02*
X0136784Y0025715D01*
X0132992Y0025715D01*
X0130310Y0023033D01*
X0130310Y0019241D01*
X0132992Y0016559D01*
X0136784Y0016559D01*
X0139466Y0019241D01*
X0139466Y0023033D01*
X0139466Y0021388D02*
X0143279Y0021388D01*
X0143530Y0018990D02*
X0139215Y0018990D01*
X0136816Y0016591D02*
X0145928Y0016591D01*
X0132960Y0016591D02*
X0126816Y0016591D01*
X0129215Y0018990D02*
X0130561Y0018990D01*
X0130310Y0021388D02*
X0129466Y0021388D01*
X0128713Y0023787D02*
X0131064Y0023787D01*
X0130967Y0028584D02*
X0128809Y0028584D01*
X0129466Y0030982D02*
X0130310Y0030982D01*
X0130658Y0033381D02*
X0129119Y0033381D01*
X0130015Y0035779D02*
X0125333Y0035779D01*
X0125333Y0038178D02*
X0127616Y0038178D01*
X0120552Y0038178D02*
X0106333Y0038178D01*
X0104310Y0035779D02*
X0120008Y0035779D01*
X0118128Y0033381D02*
X0116150Y0033381D01*
X0116498Y0033033D02*
X0113816Y0035715D01*
X0110023Y0035715D01*
X0107342Y0033033D01*
X0107342Y0029241D01*
X0110023Y0026559D01*
X0113816Y0026559D01*
X0116498Y0029241D01*
X0116498Y0033033D01*
X0116498Y0030982D02*
X0118128Y0030982D01*
X0118128Y0028584D02*
X0115840Y0028584D01*
X0118128Y0026185D02*
X0050074Y0026185D01*
X0050074Y0028584D02*
X0051881Y0028584D01*
X0051224Y0030982D02*
X0050074Y0030982D01*
X0050074Y0033381D02*
X0051571Y0033381D01*
X0050074Y0035779D02*
X0053411Y0035779D01*
X0053411Y0038178D02*
X0052043Y0038178D01*
X0052043Y0040576D02*
X0053411Y0040576D01*
X0053411Y0042975D02*
X0052043Y0042975D01*
X0052043Y0045373D02*
X0053411Y0045373D01*
X0054048Y0047772D02*
X0052043Y0047772D01*
X0052043Y0050170D02*
X0056446Y0050170D01*
X0058845Y0052569D02*
X0052043Y0052569D01*
X0052043Y0054967D02*
X0073032Y0054967D01*
X0070633Y0057366D02*
X0052043Y0057366D01*
X0052043Y0059764D02*
X0068234Y0059764D01*
X0065836Y0062163D02*
X0050856Y0062163D01*
X0063361Y0074155D02*
X0083444Y0074155D01*
X0083444Y0076554D02*
X0060962Y0076554D01*
X0058564Y0078952D02*
X0083444Y0078952D01*
X0083444Y0081351D02*
X0056165Y0081351D01*
X0053767Y0083749D02*
X0083444Y0083749D01*
X0083444Y0086148D02*
X0051368Y0086148D01*
X0048970Y0088546D02*
X0083444Y0088546D01*
X0082723Y0090945D02*
X0046571Y0090945D01*
X0044173Y0093343D02*
X0080325Y0093343D01*
X0077926Y0095742D02*
X0041774Y0095742D01*
X0039376Y0098140D02*
X0075528Y0098140D01*
X0073129Y0100539D02*
X0036977Y0100539D01*
X0034579Y0102937D02*
X0070731Y0102937D01*
X0068332Y0105336D02*
X0032180Y0105336D01*
X0021804Y0107734D02*
X0065934Y0107734D01*
X0053941Y0119727D02*
X0046680Y0119727D01*
X0050297Y0122126D02*
X0051542Y0122126D01*
X0022020Y0153306D02*
X0198472Y0153306D01*
X0198478Y0155705D02*
X0008332Y0155705D01*
X0008332Y0158103D02*
X0198484Y0158103D01*
X0129554Y0076554D02*
X0126443Y0076554D01*
X0126443Y0074155D02*
X0129554Y0074155D01*
X0129554Y0071757D02*
X0126443Y0071757D01*
X0120106Y0074155D02*
X0111960Y0074155D01*
X0113397Y0071757D02*
X0117229Y0071757D01*
X0115792Y0069358D02*
X0115404Y0069358D01*
X0108849Y0066960D02*
X0100871Y0066960D01*
X0103270Y0064561D02*
X0105990Y0064561D01*
X0108073Y0069358D02*
X0098473Y0069358D01*
X0096074Y0071757D02*
X0107212Y0071757D01*
X0108604Y0074155D02*
X0093676Y0074155D01*
X0091806Y0076554D02*
X0120106Y0076554D01*
X0124105Y0062163D02*
X0111938Y0062163D01*
X0111938Y0059764D02*
X0124105Y0059764D01*
X0124105Y0057366D02*
X0111938Y0057366D01*
X0111938Y0054967D02*
X0124105Y0054967D01*
X0124105Y0052569D02*
X0111938Y0052569D01*
X0111938Y0050170D02*
X0124105Y0050170D01*
X0118691Y0047772D02*
X0117351Y0047772D01*
X0117351Y0045373D02*
X0118691Y0045373D01*
X0120552Y0042975D02*
X0115265Y0042975D01*
X0113062Y0040576D02*
X0120552Y0040576D01*
X0107689Y0033381D02*
X0106150Y0033381D01*
X0106498Y0030982D02*
X0107342Y0030982D01*
X0107999Y0028584D02*
X0105840Y0028584D01*
X0103816Y0025715D02*
X0100023Y0025715D01*
X0097342Y0023033D01*
X0097342Y0019241D01*
X0100023Y0016559D01*
X0103816Y0016559D01*
X0106498Y0019241D01*
X0106498Y0023033D01*
X0103816Y0025715D01*
X0105744Y0023787D02*
X0108095Y0023787D01*
X0107342Y0023033D02*
X0110023Y0025715D01*
X0113816Y0025715D01*
X0116498Y0023033D01*
X0116498Y0019241D01*
X0113816Y0016559D01*
X0110023Y0016559D01*
X0107342Y0019241D01*
X0107342Y0023033D01*
X0107342Y0021388D02*
X0106498Y0021388D01*
X0106246Y0018990D02*
X0107593Y0018990D01*
X0109991Y0016591D02*
X0103848Y0016591D01*
X0099991Y0016591D02*
X0090879Y0016591D01*
X0090847Y0016559D02*
X0093529Y0019241D01*
X0093529Y0023033D01*
X0090847Y0025715D01*
X0087055Y0025715D01*
X0084373Y0023033D01*
X0084373Y0019241D01*
X0087055Y0016559D01*
X0090847Y0016559D01*
X0093278Y0018990D02*
X0097593Y0018990D01*
X0097342Y0021388D02*
X0093529Y0021388D01*
X0092776Y0023787D02*
X0098095Y0023787D01*
X0097999Y0028584D02*
X0092872Y0028584D01*
X0093529Y0029241D02*
X0090847Y0026559D01*
X0087055Y0026559D01*
X0084373Y0029241D01*
X0084373Y0033033D01*
X0087055Y0035715D01*
X0090847Y0035715D01*
X0093529Y0033033D01*
X0093529Y0029241D01*
X0093529Y0030982D02*
X0097342Y0030982D01*
X0097689Y0033381D02*
X0093182Y0033381D01*
X0099529Y0035779D02*
X0081342Y0035779D01*
X0083182Y0033381D02*
X0084721Y0033381D01*
X0084373Y0030982D02*
X0083529Y0030982D01*
X0082872Y0028584D02*
X0085030Y0028584D01*
X0080847Y0025715D02*
X0077055Y0025715D01*
X0074373Y0023033D01*
X0074373Y0019241D01*
X0077055Y0016559D01*
X0080847Y0016559D01*
X0083529Y0019241D01*
X0083529Y0023033D01*
X0080847Y0025715D01*
X0082776Y0023787D02*
X0085127Y0023787D01*
X0084373Y0021388D02*
X0083529Y0021388D01*
X0083278Y0018990D02*
X0084624Y0018990D01*
X0087023Y0016591D02*
X0080879Y0016591D01*
X0077023Y0016591D02*
X0067730Y0016591D01*
X0067698Y0016559D02*
X0070380Y0019241D01*
X0070380Y0023033D01*
X0067698Y0025715D01*
X0063905Y0025715D01*
X0061224Y0023033D01*
X0061224Y0019241D01*
X0063905Y0016559D01*
X0067698Y0016559D01*
X0070128Y0018990D02*
X0074624Y0018990D01*
X0074373Y0021388D02*
X0070380Y0021388D01*
X0069626Y0023787D02*
X0075127Y0023787D01*
X0075030Y0028584D02*
X0069722Y0028584D01*
X0070380Y0030982D02*
X0074373Y0030982D01*
X0074721Y0033381D02*
X0070032Y0033381D01*
X0068192Y0035779D02*
X0076561Y0035779D01*
X0076561Y0038178D02*
X0068192Y0038178D01*
X0069362Y0040576D02*
X0076561Y0040576D01*
X0077597Y0042975D02*
X0071760Y0042975D01*
X0074159Y0045373D02*
X0079996Y0045373D01*
X0084359Y0042975D02*
X0104603Y0042975D01*
X0101970Y0040576D02*
X0081960Y0040576D01*
X0081342Y0038178D02*
X0099760Y0038178D01*
X0115744Y0023787D02*
X0118858Y0023787D01*
X0120310Y0021388D02*
X0116498Y0021388D01*
X0116246Y0018990D02*
X0120561Y0018990D01*
X0122960Y0016591D02*
X0113848Y0016591D01*
X0123221Y0026185D02*
X0198158Y0026185D01*
X0198128Y0014193D02*
X0050074Y0014193D01*
X0050074Y0011794D02*
X0198122Y0011794D01*
X0198116Y0009396D02*
X0050074Y0009396D01*
X0050074Y0006997D02*
X0198110Y0006997D01*
X0198104Y0004599D02*
X0050074Y0004599D01*
X0050074Y0016591D02*
X0053873Y0016591D01*
X0053905Y0016559D02*
X0057698Y0016559D01*
X0060380Y0019241D01*
X0060380Y0023033D01*
X0057698Y0025715D01*
X0053905Y0025715D01*
X0051224Y0023033D01*
X0051224Y0019241D01*
X0053905Y0016559D01*
X0051475Y0018990D02*
X0050074Y0018990D01*
X0050074Y0021388D02*
X0051224Y0021388D01*
X0051977Y0023787D02*
X0050074Y0023787D01*
X0057730Y0016591D02*
X0063873Y0016591D01*
X0061475Y0018990D02*
X0060128Y0018990D01*
X0060380Y0021388D02*
X0061224Y0021388D01*
X0061977Y0023787D02*
X0059626Y0023787D01*
X0059722Y0028584D02*
X0061881Y0028584D01*
X0061224Y0030982D02*
X0060380Y0030982D01*
X0060032Y0033381D02*
X0061571Y0033381D01*
X0063411Y0035779D02*
X0058192Y0035779D01*
X0058192Y0038178D02*
X0063411Y0038178D01*
X0063411Y0040576D02*
X0058192Y0040576D01*
X0058192Y0042975D02*
X0064999Y0042975D01*
X0067397Y0045373D02*
X0058411Y0045373D01*
X0060809Y0047772D02*
X0069796Y0047772D01*
X0077752Y0059764D02*
X0096241Y0059764D01*
X0093842Y0062163D02*
X0075353Y0062163D01*
X0072955Y0064561D02*
X0091444Y0064561D01*
X0089045Y0066960D02*
X0070556Y0066960D01*
X0068158Y0069358D02*
X0086647Y0069358D01*
X0084248Y0071757D02*
X0065759Y0071757D01*
X0034663Y0045373D02*
X0029080Y0045373D01*
X0024483Y0042975D02*
X0034663Y0042975D01*
X0034663Y0040576D02*
X0024483Y0040576D01*
X0009880Y0126923D02*
X0008332Y0126923D01*
X0008332Y0129321D02*
X0008445Y0129321D01*
X0008332Y0131720D02*
X0008651Y0131720D01*
X0008332Y0134118D02*
X0010379Y0134118D01*
X0010286Y0136517D02*
X0008332Y0136517D01*
X0008332Y0138915D02*
X0008613Y0138915D01*
X0008483Y0141314D02*
X0008332Y0141314D01*
X0008332Y0143712D02*
X0009973Y0143712D01*
X0011087Y0146111D02*
X0008332Y0146111D01*
X0008332Y0148509D02*
X0008781Y0148509D01*
X0008428Y0150908D02*
X0008332Y0150908D01*
X0008332Y0153306D02*
X0009567Y0153306D01*
D20*
X0007732Y0069523D02*
X0007732Y0003979D01*
X0047683Y0003922D01*
X0047683Y0036452D01*
X0022093Y0036452D01*
X0022093Y0069523D01*
X0007732Y0069523D01*
X0007732Y0069317D02*
X0022093Y0069317D01*
X0022093Y0068118D02*
X0007732Y0068118D01*
X0007732Y0066920D02*
X0022093Y0066920D01*
X0022093Y0065721D02*
X0007732Y0065721D01*
X0007732Y0064523D02*
X0022093Y0064523D01*
X0022093Y0063324D02*
X0007732Y0063324D01*
X0007732Y0062126D02*
X0022093Y0062126D01*
X0022093Y0060927D02*
X0007732Y0060927D01*
X0007732Y0059729D02*
X0022093Y0059729D01*
X0022093Y0058530D02*
X0007732Y0058530D01*
X0007732Y0057332D02*
X0022093Y0057332D01*
X0022093Y0056133D02*
X0007732Y0056133D01*
X0007732Y0054934D02*
X0022093Y0054934D01*
X0022093Y0053736D02*
X0007732Y0053736D01*
X0007732Y0052537D02*
X0022093Y0052537D01*
X0022093Y0051339D02*
X0007732Y0051339D01*
X0007732Y0050140D02*
X0022093Y0050140D01*
X0022093Y0048942D02*
X0007732Y0048942D01*
X0007732Y0047743D02*
X0022093Y0047743D01*
X0022093Y0046545D02*
X0007732Y0046545D01*
X0007732Y0045346D02*
X0022093Y0045346D01*
X0022093Y0044148D02*
X0007732Y0044148D01*
X0007732Y0042949D02*
X0022093Y0042949D01*
X0022093Y0041751D02*
X0007732Y0041751D01*
X0007732Y0040552D02*
X0022093Y0040552D01*
X0022093Y0039354D02*
X0007732Y0039354D01*
X0007732Y0038155D02*
X0022093Y0038155D01*
X0022093Y0036957D02*
X0007732Y0036957D01*
X0007732Y0035758D02*
X0047683Y0035758D01*
X0047683Y0034560D02*
X0007732Y0034560D01*
X0007732Y0033361D02*
X0047683Y0033361D01*
X0047683Y0032163D02*
X0007732Y0032163D01*
X0007732Y0030964D02*
X0047683Y0030964D01*
X0047683Y0029766D02*
X0007732Y0029766D01*
X0007732Y0028567D02*
X0047683Y0028567D01*
X0047683Y0027369D02*
X0007732Y0027369D01*
X0007732Y0026170D02*
X0047683Y0026170D01*
X0047683Y0024972D02*
X0007732Y0024972D01*
X0007732Y0023773D02*
X0047683Y0023773D01*
X0047683Y0022575D02*
X0007732Y0022575D01*
X0007732Y0021376D02*
X0047683Y0021376D01*
X0047683Y0020178D02*
X0007732Y0020178D01*
X0007732Y0018979D02*
X0047683Y0018979D01*
X0047683Y0017781D02*
X0007732Y0017781D01*
X0007732Y0016582D02*
X0047683Y0016582D01*
X0047683Y0015384D02*
X0007732Y0015384D01*
X0007732Y0014185D02*
X0047683Y0014185D01*
X0047683Y0012987D02*
X0007732Y0012987D01*
X0007732Y0011788D02*
X0047683Y0011788D01*
X0047683Y0010590D02*
X0007732Y0010590D01*
X0007732Y0009391D02*
X0047683Y0009391D01*
X0047683Y0008193D02*
X0007732Y0008193D01*
X0007732Y0006994D02*
X0047683Y0006994D01*
X0047683Y0005796D02*
X0007732Y0005796D01*
X0007732Y0004597D02*
X0047683Y0004597D01*
X0055802Y0031137D02*
X0055802Y0046145D01*
X0060928Y0051271D01*
X0108769Y0051271D01*
X0108769Y0049303D02*
X0074708Y0049303D01*
X0065802Y0040397D01*
X0065802Y0031137D01*
X0078951Y0031137D02*
X0078951Y0040948D01*
X0084944Y0046941D01*
X0111132Y0046941D01*
X0113100Y0046941D02*
X0113100Y0043995D01*
X0109888Y0040783D01*
X0105557Y0040783D01*
X0101920Y0037145D01*
X0101920Y0031137D01*
X0120518Y0032909D02*
X0120518Y0025507D01*
X0124888Y0021137D01*
X0134888Y0031137D02*
X0134888Y0034287D01*
X0124911Y0044264D01*
X0124911Y0046941D01*
X0122943Y0046941D02*
X0122943Y0035333D01*
X0120518Y0032909D01*
X0127273Y0049303D02*
X0138376Y0049303D01*
X0147857Y0039822D01*
X0147857Y0031137D01*
X0157857Y0031137D02*
X0157857Y0039665D01*
X0146250Y0051271D01*
X0127273Y0051271D01*
X0127273Y0053240D02*
X0156092Y0053240D01*
X0170825Y0038507D01*
X0170825Y0031137D01*
X0180825Y0031137D02*
X0180825Y0037956D01*
X0163573Y0055208D01*
X0127273Y0055208D01*
X0127273Y0061114D02*
X0131683Y0061114D01*
X0134691Y0058106D01*
X0129826Y0063082D02*
X0127273Y0063082D01*
X0129826Y0063082D02*
X0131935Y0065192D01*
X0131542Y0068342D02*
X0126030Y0068342D01*
X0124911Y0067223D01*
X0124911Y0065445D01*
X0122943Y0065445D02*
X0122943Y0073128D01*
X0123274Y0073460D01*
X0118943Y0069129D02*
X0117037Y0067223D01*
X0117037Y0065445D01*
X0115069Y0065445D02*
X0115069Y0059145D01*
X0118021Y0056193D01*
X0119006Y0057177D01*
X0119006Y0065445D01*
X0120974Y0065445D02*
X0120974Y0067098D01*
X0118943Y0069129D01*
X0113100Y0068673D02*
X0113100Y0065445D01*
X0113100Y0068673D02*
X0110282Y0071491D01*
X0108769Y0061114D02*
X0103336Y0061114D01*
X0089416Y0075035D01*
X0089416Y0093145D01*
X0032290Y0150271D01*
X0015794Y0150271D01*
X0015794Y0140271D02*
X0039534Y0140271D01*
X0087625Y0092180D01*
X0087625Y0074293D01*
X0102773Y0059145D01*
X0108769Y0059145D01*
X0108769Y0057177D02*
X0102209Y0057177D01*
X0085835Y0073551D01*
X0085835Y0091214D01*
X0046896Y0130153D01*
X0034888Y0130153D01*
X0034888Y0123460D01*
X0042369Y0123460D02*
X0047290Y0123460D01*
X0027408Y0130153D02*
X0027290Y0130271D01*
X0015794Y0130271D01*
X0015400Y0104877D02*
X0029258Y0104877D01*
X0078927Y0055208D01*
X0108769Y0055208D01*
X0108769Y0053240D02*
X0078140Y0053240D01*
X0036502Y0094877D01*
X0015400Y0094877D01*
X0037054Y0060074D02*
X0049652Y0060074D01*
X0049652Y0038420D01*
X0037054Y0038420D01*
X0037054Y0060074D01*
X0037054Y0059729D02*
X0049652Y0059729D01*
X0049652Y0058530D02*
X0037054Y0058530D01*
X0037054Y0057332D02*
X0049652Y0057332D01*
X0049652Y0056133D02*
X0037054Y0056133D01*
X0037054Y0054934D02*
X0049652Y0054934D01*
X0049652Y0053736D02*
X0037054Y0053736D01*
X0037054Y0052537D02*
X0040479Y0052537D01*
X0040454Y0052523D02*
X0040195Y0052264D01*
X0040013Y0051948D01*
X0039918Y0051595D01*
X0039918Y0048647D01*
X0042890Y0048647D01*
X0042890Y0047879D01*
X0039918Y0047879D01*
X0039918Y0044931D01*
X0040013Y0044578D01*
X0040195Y0044261D01*
X0040454Y0044003D01*
X0040770Y0043821D01*
X0041123Y0043726D01*
X0042890Y0043726D01*
X0042890Y0047879D01*
X0043658Y0047879D01*
X0043658Y0043726D01*
X0045425Y0043726D01*
X0045778Y0043821D01*
X0046094Y0044003D01*
X0046353Y0044261D01*
X0046535Y0044578D01*
X0046630Y0044931D01*
X0046630Y0047879D01*
X0043658Y0047879D01*
X0043658Y0048647D01*
X0046630Y0048647D01*
X0046630Y0051595D01*
X0046535Y0051948D01*
X0046353Y0052264D01*
X0046094Y0052523D01*
X0045778Y0052705D01*
X0045425Y0052800D01*
X0043658Y0052800D01*
X0043658Y0048647D01*
X0042890Y0048647D01*
X0042890Y0052800D01*
X0041123Y0052800D01*
X0040770Y0052705D01*
X0040454Y0052523D01*
X0039918Y0051339D02*
X0037054Y0051339D01*
X0037054Y0050140D02*
X0039918Y0050140D01*
X0039918Y0048942D02*
X0037054Y0048942D01*
X0037054Y0047743D02*
X0039918Y0047743D01*
X0039918Y0046545D02*
X0037054Y0046545D01*
X0037054Y0045346D02*
X0039918Y0045346D01*
X0040309Y0044148D02*
X0037054Y0044148D01*
X0037054Y0042949D02*
X0049652Y0042949D01*
X0049652Y0041751D02*
X0037054Y0041751D01*
X0037054Y0040552D02*
X0049652Y0040552D01*
X0049652Y0039354D02*
X0037054Y0039354D01*
X0042890Y0044148D02*
X0043658Y0044148D01*
X0043658Y0045346D02*
X0042890Y0045346D01*
X0042890Y0046545D02*
X0043658Y0046545D01*
X0043658Y0047743D02*
X0042890Y0047743D01*
X0042890Y0048942D02*
X0043658Y0048942D01*
X0043658Y0050140D02*
X0042890Y0050140D01*
X0042890Y0051339D02*
X0043658Y0051339D01*
X0043658Y0052537D02*
X0042890Y0052537D01*
X0046069Y0052537D02*
X0049652Y0052537D01*
X0049652Y0051339D02*
X0046630Y0051339D01*
X0046630Y0050140D02*
X0049652Y0050140D01*
X0049652Y0048942D02*
X0046630Y0048942D01*
X0046630Y0047743D02*
X0049652Y0047743D01*
X0049652Y0046545D02*
X0046630Y0046545D01*
X0046630Y0045346D02*
X0049652Y0045346D01*
X0049652Y0044148D02*
X0046239Y0044148D01*
X0131542Y0068342D02*
X0132723Y0069523D01*
X0132723Y0073460D01*
D21*
X0131935Y0065192D03*
X0134691Y0058106D03*
X0118943Y0069129D03*
X0110282Y0071491D03*
X0047683Y0057318D03*
X0047683Y0054169D03*
X0047683Y0051019D03*
X0047683Y0047869D03*
X0047683Y0044720D03*
X0047683Y0041570D03*
X0039022Y0041570D03*
X0039022Y0044720D03*
X0039022Y0047869D03*
X0039022Y0051019D03*
X0039022Y0054169D03*
X0039022Y0057318D03*
X0043353Y0057318D03*
X0043353Y0054169D03*
X0047290Y0123460D03*
M02*
