%
M48
M72
T01C0.01378
T02C0.04000
%
T01
X39022Y41570
X39022Y44720
X39022Y47869
X39022Y51019
X39022Y54169
X39022Y57318
X43353Y57318
X43353Y54169
X47683Y54169
X47683Y57318
X47683Y51019
X47683Y47869
X47683Y44720
X47683Y41570
X110282Y71491
X118943Y69129
X131935Y65192
X134691Y58106
X47290Y123460
T02
X15794Y120271
X15794Y130271
X15794Y140271
X15794Y150271
X15400Y104877
X15400Y94877
X15400Y84877
X15400Y74877
X15400Y64877
X55802Y31137
X65802Y31137
X78951Y31137
X88951Y31137
X88951Y21137
X78951Y21137
X78951Y11137
X88951Y11137
X101920Y11137
X111920Y11137
X111920Y21137
X101920Y21137
X101920Y31137
X111920Y31137
X124888Y31137
X134888Y31137
X147857Y31137
X157857Y31137
X157857Y21137
X147857Y21137
X147857Y11137
X157857Y11137
X170825Y11137
X180825Y11137
X180825Y21137
X170825Y21137
X170825Y31137
X180825Y31137
X134888Y21137
X124888Y21137
X124888Y11137
X134888Y11137
X65802Y11137
X55802Y11137
X55802Y21137
X65802Y21137
M30
