G75*
%MOIN*%
%OFA0B0*%
%FSLAX25Y25*%
%IPPOS*%
%LPD*%
%AMOC8*
5,1,8,0,0,1.08239X$1,22.5*
%
%ADD10OC8,0.06165*%
%ADD11C,0.06165*%
%ADD12OC8,0.03150*%
D10*
X0055802Y0011137D03*
X0065802Y0011137D03*
X0065802Y0021137D03*
X0055802Y0021137D03*
X0055802Y0031137D03*
X0065802Y0031137D03*
X0078951Y0031137D03*
X0088951Y0031137D03*
X0088951Y0021137D03*
X0078951Y0021137D03*
X0078951Y0011137D03*
X0088951Y0011137D03*
X0101920Y0011137D03*
X0111920Y0011137D03*
X0111920Y0021137D03*
X0101920Y0021137D03*
X0101920Y0031137D03*
X0111920Y0031137D03*
X0124888Y0031137D03*
X0134888Y0031137D03*
X0147857Y0031137D03*
X0157857Y0031137D03*
X0157857Y0021137D03*
X0147857Y0021137D03*
X0147857Y0011137D03*
X0157857Y0011137D03*
X0170825Y0011137D03*
X0180825Y0011137D03*
X0180825Y0021137D03*
X0170825Y0021137D03*
X0170825Y0031137D03*
X0180825Y0031137D03*
X0134888Y0021137D03*
X0124888Y0021137D03*
X0124888Y0011137D03*
X0134888Y0011137D03*
D11*
X0018187Y0064877D02*
X0012613Y0064877D01*
X0012613Y0074877D02*
X0018187Y0074877D01*
X0018187Y0084877D02*
X0012613Y0084877D01*
X0012613Y0094877D02*
X0018187Y0094877D01*
X0018187Y0104877D02*
X0012613Y0104877D01*
X0013006Y0120271D02*
X0018581Y0120271D01*
X0018581Y0130271D02*
X0013006Y0130271D01*
X0013006Y0140271D02*
X0018581Y0140271D01*
X0018581Y0150271D02*
X0013006Y0150271D01*
D12*
X0039022Y0041570D03*
X0039022Y0044720D03*
X0039022Y0047869D03*
X0039022Y0051019D03*
X0039022Y0054169D03*
X0039022Y0057318D03*
X0043353Y0057318D03*
X0043353Y0054169D03*
X0047683Y0054169D03*
X0047683Y0057318D03*
X0047683Y0051019D03*
X0047683Y0047869D03*
X0047683Y0044720D03*
X0047683Y0041570D03*
X0110282Y0071491D03*
X0118943Y0069129D03*
X0131935Y0065192D03*
X0134691Y0058106D03*
X0047290Y0123460D03*
M02*
